<svg id="Layer_1" data-name="Layer 1" xmlns="http://www.w3.org/2000/svg" xmlns:xlink="http://www.w3.org/1999/xlink" viewBox="0 0 264.69 214.82"><defs><style>.cls-1{fill:none;}.cls-2{fill:#ebf3fa;opacity:0.15;}.cls-3{fill:#a8d29f;}.cls-4{fill:#ffb93e;}.cls-5{fill:#ffa412;}.cls-6{clip-path:url(#clip-path);}.cls-7{fill:#82b378;}.cls-8{fill:#4c85d8;}.cls-9{fill:#699ff0;}.cls-10{fill:#719e67;}.cls-11{fill:#e2810e;}.cls-12{clip-path:url(#clip-path-2);}.cls-13{fill:#b6d3b9;}.cls-14{fill:#76a9b4;}.cls-15{fill:#679ca8;}.cls-16{fill:#95c28b;}.cls-17{fill:#c0d9bb;}.cls-18{fill:#2c3a64;}.cls-19{fill:#cde0fb;}.cls-20{fill:#accfcd;}.cls-21{fill:#99c0ba;}.cls-22{fill:#7ea9ea;}.cls-23{fill:#8cb6f6;}.cls-24{fill:#d7b987;}.cls-25{fill:#d7c39d;}.cls-26{fill:#2b478b;}.cls-27{fill:#233862;}.cls-28{fill:#ffb27d;}.cls-29{fill:#ed985f;}.cls-30{fill:#b46bed;}.cls-31{fill:#9454d1;}.cls-32{fill:#c94c43;}.cls-33{fill:#b23b38;}.cls-34{fill:#fff;}</style><clipPath id="clip-path" transform="translate(-172.19 -293.62)"><polyline class="cls-1" points="418.38 483.65 207.04 483.65 207.04 274.93 418.38 274.93 418.38 483.65"/></clipPath><clipPath id="clip-path-2" transform="translate(-172.19 -293.62)"><polyline class="cls-1" points="249.45 428.52 249.45 428.52 290.38 416.96 290.38 416.96 249.45 428.52"/></clipPath></defs><path class="cls-2" d="M193.56,483.86s-31.22-35.76-18.18-77.8c11.7-37.73,64.6-62.15,92.7-43.47,13.6,9,24.59-27.29,69.72-40.59,33.37-9.84,82.72,12.22,70.19,79.78-9.53,51.36,37.73,25.75,27.41,82.49l-241.84-.41" transform="translate(-172.19 -293.62)"/><path class="cls-3" d="M423.58,483.71l-32.29.51c-1.16-1,5.21-4.05,13.5-3.87a17.3,17.3,0,0,1,3.31.39c.29-4,2-21.73,8.4-21,7.21.8,0,7.83-2,12a98.45,98.45,0,0,0-3.82,9.59c.58.13,1.19.25,1.81.36.95-2.93,4.5-12.79,9-12.22,5.31.68,3.17,4.63-.59,7-2.75,1.72-6.14,4.18-7.75,5.36a21.83,21.83,0,0,0,4.23.34c3.71-.09,5.51,1,6.22,1.59Z" transform="translate(-172.19 -293.62)"/><path class="cls-3" d="M191.1,483c-.77-1.21-3.08-4.34-6.15-3.92-3.36.45,3.7,2.66,5.86,3.93a4.07,4.07,0,0,1-1.2-.14c-1.44-.52-3.91.47-4.7.82h13.74a2.15,2.15,0,0,0-1-1.26,2.4,2.4,0,0,0-1.27-.11c.82-1,1.39-4-.89-3.25-1.66.58-1.65,2.46-1.49,3.57l-1.07.16c-.68-3.49-3.1-13.71-8-14s4.22,10.6,7.28,14.08c-.39.05-.77.08-1.12.1Z" transform="translate(-172.19 -293.62)"/><path class="cls-4" d="M257.64,480v2.63a1,1,0,0,1-.65.94l-.15.05h0l-.17,0h-42a1,1,0,0,1-.83-.95V480a1,1,0,0,1,1-1h42a1.06,1.06,0,0,1,.19.06H257l0,0,.06,0,0,0,.06,0,0,0h0l0,0,.08.08,0,0,0,0,0,.06a1,1,0,0,1,.18.56Z" transform="translate(-172.19 -293.62)"/><path class="cls-5" d="M237.09,483.66H214.56a1,1,0,0,1-.79-1V480a1,1,0,0,1,.91-1h19.66l0,.11a8.23,8.23,0,0,0,2.68,4.5l0,0Z" transform="translate(-172.19 -293.62)"/><polygon class="cls-5" points="80.35 190.04 79.88 190.04 79.88 185.39 80.35 185.39 80.35 190.04 80.35 190.04"/><polygon class="cls-5" points="78.74 190.04 78.27 190.04 78.27 185.39 78.74 185.39 78.74 190.04 78.74 190.04"/><polygon class="cls-5" points="76.81 190.04 76.34 190.04 76.34 185.39 76.81 185.39 76.81 190.04 76.81 190.04"/><polygon class="cls-5" points="73.85 190.04 73.38 190.04 73.38 185.39 73.85 185.39 73.85 190.04 73.85 190.04"/><polygon class="cls-5" points="70.72 190.04 70.25 190.04 70.25 185.39 70.73 185.39 70.72 190.04 70.72 190.04"/><polygon class="cls-5" points="65.93 190.04 65.45 190.04 65.45 185.39 65.93 185.39 65.93 190.04 65.93 190.04"/><polygon class="cls-5" points="61.44 190.04 60.96 190.04 60.96 185.39 61.44 185.39 61.44 190.04 61.44 190.04"/><polygon class="cls-5" points="57.43 190.04 56.95 190.04 56.95 185.38 57.43 185.38 57.43 190.04 57.43 190.04"/><polygon class="cls-5" points="81.89 190.04 81.41 190.04 81.41 185.39 81.89 185.39 81.89 190.04 81.89 190.04"/><polygon class="cls-5" points="82.9 190.04 82.42 190.04 82.42 185.39 82.9 185.39 82.9 190.04 82.9 190.04"/><polygon class="cls-5" points="83.88 190.04 83.4 190.04 83.4 185.39 83.88 185.39 83.88 190.04 83.88 190.04"/><path class="cls-5" d="M256.8,479v4.62l-.17,0h-.3V479h.47Z" transform="translate(-172.19 -293.62)"/><path class="cls-5" d="M257.46,479.46v3.75a1,1,0,0,1-.47.38v-4.51a1,1,0,0,1,.47.38Z" transform="translate(-172.19 -293.62)"/><path class="cls-4" d="M259.8,475.48v2.63a1,1,0,0,1-.17.57,1,1,0,0,1-.48.37l-.18.06H217a.94.94,0,0,1-.47-.12,1,1,0,0,1-.54-.8.06.06,0,0,0,0,0v-2.73a1,1,0,0,1,1-1h41.84l.18,0,.18.05a1,1,0,0,1,.48.38,1,1,0,0,1,.17.56Z" transform="translate(-172.19 -293.62)"/><path class="cls-5" d="M239.25,479.12H216.84a.79.79,0,0,1-.42-.12,1,1,0,0,1-.48-.8.06.06,0,0,0,0,0v-2.73a1,1,0,0,1,.9-1H236.5a8.45,8.45,0,0,0,2.62,4.54l.13.11Z" transform="translate(-172.19 -293.62)"/><polygon class="cls-5" points="82.52 185.5 82.04 185.5 82.04 180.85 82.52 180.85 82.52 185.5 82.52 185.5"/><polygon class="cls-5" points="80.91 185.5 80.43 185.5 80.43 180.85 80.91 180.85 80.91 185.5 80.91 185.5"/><polygon class="cls-5" points="78.97 185.5 78.5 185.5 78.5 180.85 78.98 180.85 78.97 185.5 78.97 185.5"/><polygon class="cls-5" points="76.02 185.5 75.54 185.5 75.54 180.85 76.02 180.85 76.02 185.5 76.02 185.5"/><polygon class="cls-5" points="72.89 185.5 72.41 185.5 72.41 180.85 72.89 180.85 72.89 185.5 72.89 185.5"/><polygon class="cls-5" points="68.09 185.5 67.61 185.5 67.62 180.85 68.09 180.85 68.09 185.5 68.09 185.5"/><polygon class="cls-5" points="63.6 185.5 63.12 185.5 63.13 180.85 63.6 180.85 63.6 185.5 63.6 185.5"/><polygon class="cls-5" points="59.59 185.5 59.11 185.5 59.11 180.85 59.59 180.85 59.59 185.5 59.59 185.5"/><polygon class="cls-5" points="84.05 185.5 83.57 185.5 83.57 180.85 84.05 180.85 84.05 185.5 84.05 185.5"/><polygon class="cls-5" points="85.06 185.5 84.58 185.5 84.58 180.85 85.06 180.85 85.06 185.5 85.06 185.5"/><polygon class="cls-5" points="86.04 185.5 85.56 185.5 85.56 180.85 86.04 180.85 86.04 185.5 86.04 185.5"/><path class="cls-5" d="M259,474.49v4.62h-.48v-4.65h.3l.18,0Z" transform="translate(-172.19 -293.62)"/><path class="cls-5" d="M259.63,474.92v3.76a1,1,0,0,1-.48.37v-4.51a1,1,0,0,1,.48.38Z" transform="translate(-172.19 -293.62)"/><g class="cls-6"><path class="cls-7" d="M304,493.55l-.64.23c-2.68-5.6-6.7-9.71-10.61-13.15a31.31,31.31,0,0,0-22.69-7.35,38.91,38.91,0,0,0-8.88,1.71l-.34-.74c19.85-8.25,31.54.74,37.64,9A40,40,0,0,1,304,493.55" transform="translate(-172.19 -293.62)"/><path class="cls-3" d="M326.53,481.41,304,493.55a42,42,0,0,0-6.48-9.23,51.42,51.42,0,0,0-3.89-3.93c-13.8-12.15-32.79-6.14-32.79-6.14l16.38-17.18a32.14,32.14,0,0,1,26.25,1.73c14.43,7.27,23,22.61,23,22.61" transform="translate(-172.19 -293.62)"/><path class="cls-7" d="M326.53,481.41,304,493.55a42,42,0,0,0-6.48-9.23,51.42,51.42,0,0,0-3.89-3.93c-13.8-12.15-24.41-14.93-24.41-14.93l10.41.2c3.88.08,6.41-2.46,9.65-4.6.74-.48,1.48-2.43,2.13-2.9,3.72-2.65,7.42-1.71,12.06.64,14.43,7.27,23,22.61,23,22.61" transform="translate(-172.19 -293.62)"/><path class="cls-7" d="M303.65,488.16a32.44,32.44,0,0,0-5.87-8.62A29.27,29.27,0,0,0,285.69,472a39.78,39.78,0,0,0-16.89-1.44.74.74,0,0,1-.61-1.25l9.23-9.48a5.87,5.87,0,0,1,2.44-1.51,27.85,27.85,0,0,1,8.94-1.22,32.47,32.47,0,0,1,11.09,2.29,43.46,43.46,0,0,1,13.19,8.45s2.05,1.84,4.31,4.28c3,3.23,5,6.07,5.89,8.23l-18.4,10.57a24.46,24.46,0,0,0-1.23-2.71m20.68-7.38c-2.16-5.4-10.41-13.25-10.75-13.55a44.16,44.16,0,0,0-13.44-8.61,33.05,33.05,0,0,0-11.36-2.32A25.82,25.82,0,0,0,278,458.17l-.06,0-13.32,13.69,1.14-.19c7.39-1.24,14-.91,19.71,1A28.56,28.56,0,0,1,297.21,480a33.82,33.82,0,0,1,7.49,11.68l19.63-10.94" transform="translate(-172.19 -293.62)"/><path class="cls-7" d="M303.67,465.18c1.53,3.41.45,6.37-3,7.9s-7.88,1.05-9.41-2.37-.55-6.31,2.87-7.84,8-1.11,9.51,2.31" transform="translate(-172.19 -293.62)"/><path class="cls-7" d="M282.68,508.21l-.72.23c-2.84-6.25-7.2-10.89-11.44-14.78A34.68,34.68,0,0,0,245.59,485a42.82,42.82,0,0,0-9.87,1.71l-.35-.84c22.13-8.68,34.86,1.52,41.43,10.8a44.56,44.56,0,0,1,5.88,11.51Z" transform="translate(-172.19 -293.62)"/><path class="cls-3" d="M307.86,495.28l-25.18,12.93a46.69,46.69,0,0,0-7-10.36,56.48,56.48,0,0,0-4.23-4.43c-15-13.75-36.12-7.52-36.12-7.52l18.49-18.64a35.6,35.6,0,0,1,29,2.49c15.8,8.37,25,25.53,25,25.53" transform="translate(-172.19 -293.62)"/><path class="cls-7" d="M283.7,505.26,304.29,494c-.92-2.41-3.1-5.6-6.33-9.23-2.46-2.76-4.66-4.81-4.68-4.83a47.77,47.77,0,0,0-14.41-9.64,35.6,35.6,0,0,0-12.21-2.78,30.7,30.7,0,0,0-9.91,1.15,6.58,6.58,0,0,0-2.74,1.61L243.6,480.55a.81.81,0,0,0,.64,1.39,44,44,0,0,1,18.65,2,32.5,32.5,0,0,1,13.21,8.66,35.84,35.84,0,0,1,6.3,9.67,26.6,26.6,0,0,1,1.3,3m-.22.94a37.35,37.35,0,0,0-8-13.09,31.69,31.69,0,0,0-12.87-8.42c-6.25-2.2-13.58-2.7-21.78-1.5l-1.26.19,15-14.85.06,0a28.61,28.61,0,0,1,12-1.84,36.72,36.72,0,0,1,12.52,2.83,48.87,48.87,0,0,1,14.68,9.82c.36.33,9.31,9.19,11.59,15.22l-22,11.67" transform="translate(-172.19 -293.62)"/><path class="cls-7" d="M282.93,476.81c1.62,3.82.36,7.07-3.46,8.68s-8.74,1-10.36-2.83-.47-7,3.35-8.61,8.85-1.05,10.47,2.76Z" transform="translate(-172.19 -293.62)"/></g><path class="cls-8" d="M299.08,464.46s-1.26,8.89.18,14.54h-21s10.07-36.84,30.68-57.93c5.92-6.06,11.36-14.68,16.61-24.16,13-23.53,24.91-52.33,39.94-60.19,0,0-29.69,43.63-35.44,68.79S303.75,430,299.08,464.46" transform="translate(-172.19 -293.62)"/><path class="cls-9" d="M322.92,405.51a74.92,74.92,0,0,1,2.59-8.6c-5.25,9.48-10.69,18.1-16.61,24.16a84.84,84.84,0,0,0-8.42,10.17,71.21,71.21,0,0,0-4.2-16.27c-3.24-8.08-8.79-16.29-18.06-17,0,0,22.44,17.19,11.06,52.45C281.87,465.64,276.37,479,276.37,479h16.18c-1.44-5.65-.18-14.54-.18-14.54,4.67-34.51,24.8-33.79,30.55-58.95" transform="translate(-172.19 -293.62)"/><path class="cls-8" d="M300.48,431.25l-.09.14c-.59,1-4,6.53-3.67,3.12.33-3.73-3.86-17.79-3.86-17.79l3.42-1.75a70.48,70.48,0,0,1,4.2,16.28" transform="translate(-172.19 -293.62)"/><path class="cls-10" d="M363,365.89a39.78,39.78,0,0,0-6,3c-6.12,3.85-12.55,8.59-17.46,15.67l-.84-.45L315.5,366.28a111.31,111.31,0,0,1,4.06-13c6.53-5.86,16.2-13,27.63-16.63a46.28,46.28,0,0,1,21.27-1.82l.39.25s-11.7,14.21-5.81,30.85Z" transform="translate(-172.19 -293.62)"/><path class="cls-7" d="M333,359l-35.29,4-1,0a45.59,45.59,0,0,0-1.56-9.12,71.1,71.1,0,0,0-5.34-13.31,40.7,40.7,0,0,0-5.61-8.19,43.37,43.37,0,0,0-19.86-13A54.21,54.21,0,0,0,252,317l-.05-1.13h0l30-13.7a45.66,45.66,0,0,1,15.12,3,46.14,46.14,0,0,1,17.85,12.74c6.85,7.77,11.23,17.11,14,24.93A90.61,90.61,0,0,1,333,359Z" transform="translate(-172.19 -293.62)"/><path class="cls-10" d="M328.85,342.87c-.51,6.55-3.85,11.9-10.74,13.85-7.54,2.14-15.86.44-23-2.85a71.1,71.1,0,0,0-5.34-13.31,40.7,40.7,0,0,0-5.61-8.19c15.6-3.65,12.85-27.17,12.85-27.17a46.14,46.14,0,0,1,17.85,12.74c6.85,7.77,11.23,17.11,14,24.93Z" transform="translate(-172.19 -293.62)"/><path class="cls-7" d="M287.33,338.82s-.64-6.69-13.14-4a13.3,13.3,0,0,0,13.14,4Z" transform="translate(-172.19 -293.62)"/><path class="cls-7" d="M383.74,403.45h0l-18.63-27.19c-12.93-7.16-25.45-6.92-36.37-3.46-21.4,6.77-36.63,25.88-36.63,25.88l28.18,21.64h0l.83.46c4.92-7.09,11.35-11.82,17.47-15.67a43.46,43.46,0,0,1,32.73-5,54.92,54.92,0,0,1,11.8,4.33l.62-.95h0" transform="translate(-172.19 -293.62)"/><path class="cls-10" d="M246.31,372.91h0l18.63-27.19c12.93-7.16,25.45-6.92,36.38-3.47,21.39,6.77,36.62,25.89,36.62,25.89l-28.18,21.64h0l-.84.45c-4.92-7.08-11.35-11.82-17.47-15.66a43.46,43.46,0,0,0-32.73-5,53.84,53.84,0,0,0-11.8,4.33l-.62-.95h0" transform="translate(-172.19 -293.62)"/><path class="cls-7" d="M307.06,358.68l-.84-.45c3.13-8,3.46-16,3.24-23.23a43.48,43.48,0,0,0-14.11-30,54.26,54.26,0,0,0-10.18-7.37l.44-1.05c27.2,12.27,29.21,32.65,26.63,46.69a55.83,55.83,0,0,1-5.18,15.38Z" transform="translate(-172.19 -293.62)"/><path class="cls-3" d="M340.74,370l-33.68-11.28a58.64,58.64,0,0,0,3.19-15.34,70.28,70.28,0,0,0,.28-7.68c-.79-25.52-24.92-39.05-24.92-39.05l33,.28c13.16,6.72,20,17.24,23.19,28.23,6.33,21.53-1,44.84-1,44.84Z" transform="translate(-172.19 -293.62)"/><path class="cls-7" d="M310.59,357l28.19,8.6c1.37-2.93,2.32-7.7,2.75-13.78.32-4.62.23-8.4.23-8.44a60.12,60.12,0,0,0-4-21.39,45,45,0,0,0-8.22-13.41,38.83,38.83,0,0,0-9.72-7.9,8.13,8.13,0,0,0-3.85-1l-18.38-.34a1,1,0,0,0-.68,1.8,55.44,55.44,0,0,1,14.59,18.48,40.78,40.78,0,0,1,3.79,19.46,44.82,44.82,0,0,1-3.16,14.14,31.29,31.29,0,0,1-1.58,3.82Zm-1,.62A46.39,46.39,0,0,0,314.28,339,39.62,39.62,0,0,0,310.57,320c-3.51-7.55-9.48-14.58-17.75-20.89l-1.27-1,26.51.49.09,0c.25.1,6.14,2.46,12.17,9.18a45.63,45.63,0,0,1,8.44,13.72,61,61,0,0,1,4.05,21.8c0,.62-.1,16.43-3.51,23.76l-29.75-9.5Z" transform="translate(-172.19 -293.62)"/><path class="cls-7" d="M328.78,319.55c-4.8-2-8.66-.26-10.67,4.54s1.74,9.78,6.54,11.79,8.82.29,10.83-4.51-1.91-9.81-6.7-11.82Z" transform="translate(-172.19 -293.62)"/><path class="cls-7" d="M289.54,394.57l-.91.3c-3.56-7.86-9-13.67-14.36-18.55A43.49,43.49,0,0,0,243,365.48a53.73,53.73,0,0,0-12.38,2.14l-.45-1.05c27.78-10.89,43.77,1.9,52,13.55a55.91,55.91,0,0,1,7.39,14.45Z" transform="translate(-172.19 -293.62)"/><path class="cls-3" d="M321.14,378.34l-31.6,16.23a59,59,0,0,0-8.75-13,70.69,70.69,0,0,0-5.3-5.56c-18.81-17.26-45.35-9.44-45.35-9.44l23.22-23.4c14-4.72,26.28-2.23,36.41,3.13,19.82,10.5,31.37,32,31.37,32" transform="translate(-172.19 -293.62)"/><path class="cls-7" d="M290.81,390.87l25.85-14.16c-1.15-3-3.89-7-8-11.59-3.08-3.46-5.84-6-5.87-6.06A60.25,60.25,0,0,0,284.76,347a44.81,44.81,0,0,0-15.33-3.48A38.52,38.52,0,0,0,257,344.91a8.16,8.16,0,0,0-3.43,2l-13.08,12.92a1,1,0,0,0,.81,1.74,55.32,55.32,0,0,1,23.42,2.47A40.71,40.71,0,0,1,281.27,375a44.8,44.8,0,0,1,7.91,12.13,30.91,30.91,0,0,1,1.63,3.79m-.28,1.18a46.51,46.51,0,0,0-10.06-16.43,39.64,39.64,0,0,0-16.15-10.57c-7.85-2.76-17-3.39-27.35-1.88l-1.58.23,18.87-18.64.08,0c.25-.11,6-2.67,15.07-2.3A45.72,45.72,0,0,1,285.12,346a61.08,61.08,0,0,1,18.44,12.32c.45.42,11.69,11.55,14.55,19.12l-27.58,14.64" transform="translate(-172.19 -293.62)"/><path class="cls-7" d="M289.85,355.16c-2-4.79-8.35-5.49-13.14-3.46s-6.23,6-4.21,10.8,8.22,5.59,13,3.56,6.37-6.11,4.34-10.9Z" transform="translate(-172.19 -293.62)"/><path class="cls-7" d="M342,370l1,.06c1.45-8.5,5.27-15.52,9.19-21.59A43.45,43.45,0,0,1,379.63,330a54.1,54.1,0,0,1,12.52-1.08l.16-1.12c-29.64-3.49-41.85,12.94-46.87,26.3A56.07,56.07,0,0,0,342,370Z" transform="translate(-172.19 -293.62)"/><path class="cls-3" d="M307.28,362.27,342,370a59.31,59.31,0,0,1,5.16-14.79,72,72,0,0,1,3.72-6.73c13.82-21.46,41.47-20.63,41.47-20.63l-28.39-16.74c-14.75-1-26,4.5-34.42,12.26-16.52,15.19-22.22,38.95-22.22,38.95Z" transform="translate(-172.19 -293.62)"/><path class="cls-7" d="M340.4,362.62A44.86,44.86,0,0,1,345,348.87a40.58,40.58,0,0,1,13.27-14.72,55.2,55.2,0,0,1,22-8.33,1,1,0,0,0,.35-1.9l-15.93-9.18a8.21,8.21,0,0,0-3.83-1.08,38.59,38.59,0,0,0-12.41,1.76,44.6,44.6,0,0,0-13.94,7.26A59.85,59.85,0,0,0,320.09,339s-2,3.23-4.15,7.36c-2.76,5.44-4.4,10-4.74,13.22l28.59,7.15a34.2,34.2,0,0,1,.61-4.08Zm-30.43-2h0c.85-8,8.9-21.65,9.23-22.18a61.14,61.14,0,0,1,14.7-16.59,45.75,45.75,0,0,1,14.3-7.42,35.87,35.87,0,0,1,15.16-1.6l.09,0,23,13.24-1.59.18c-10.34,1.15-19.08,4.1-26,8.76a39.59,39.59,0,0,0-12.94,14.32,46.59,46.59,0,0,0-5.57,18.45L310,360.59Z" transform="translate(-172.19 -293.62)"/><path class="cls-7" d="M343.5,325.23c-5.15-.75-11.09,1.53-11.84,6.68s1.82,8.69,7,9.44,10.93-1.59,11.67-6.74-1.66-8.64-6.8-9.38Z" transform="translate(-172.19 -293.62)"/><path class="cls-11" d="M309.21,359.43a23.92,23.92,0,1,1,17.6,28.9,23.91,23.91,0,0,1-17.6-28.9Z" transform="translate(-172.19 -293.62)"/><path class="cls-4" d="M307.18,358.94a23.92,23.92,0,1,1,17.6,28.9,23.92,23.92,0,0,1-17.6-28.9" transform="translate(-172.19 -293.62)"/><path class="cls-5" d="M330.32,344.36a20.54,20.54,0,1,0,4.88.59,20.35,20.35,0,0,0-4.88-.59Zm.08,42.31a22.38,22.38,0,0,1-5.19-.62,21.74,21.74,0,1,1,5.19.62Z" transform="translate(-172.19 -293.62)"/><polyline class="cls-3" points="136.83 77.42 147.46 115.08 57.66 140.43 47.03 102.77 136.83 77.42"/><path class="cls-7" d="M310.32,400.55a4.79,4.79,0,0,1-3.32,5.92l-68.29,19.28a4.29,4.29,0,0,1-5.3-3L228,403.72a4.74,4.74,0,0,1,3.27-5.84l68-19.21a4.62,4.62,0,0,1,5.71,3.2l5.28,18.68m-85-2.2,8.48,30L313.08,406l-8.48-30-79.32,22.39" transform="translate(-172.19 -293.62)"/><path class="cls-7" d="M278.67,399.49a9.72,9.72,0,1,0-6.71,12,9.71,9.71,0,0,0,6.71-12Z" transform="translate(-172.19 -293.62)"/><g class="cls-12"><rect class="cls-13" x="77.25" y="123.34" width="40.94" height="11.56"/></g><polyline class="cls-14" points="118.19 123.34 118.19 123.34 122.67 122.08 122.67 122.08 118.19 123.34"/><polyline class="cls-13" points="124.2 121.64 124.2 121.64 136.85 118.07 124.2 121.64"/><polyline class="cls-15" points="122.67 122.08 122.67 122.08 124.2 121.64 124.2 121.64 122.67 122.08"/><polyline class="cls-16" points="118.13 82.7 118.13 82.7 135.31 77.85 135.31 77.85 118.13 82.7"/><path class="cls-16" d="M249.45,428.52c2-1.23,13.59-5.29,23.84-11.3L313.08,406l-8.48-30-13.28,3.75a26.87,26.87,0,0,1-1-3.39l17.18-4.85L309,371l10.63,37.66-10.6,3-12.65,3.57-1.53.43L290.38,417l-40.93,11.56M276.89,415c5.23-3.47,9.69-7.47,11.67-11.86,4.71-10.44,4.1-17.89,3.06-22.27l7.71-2.18a4.57,4.57,0,0,1,1.26-.18,4.63,4.63,0,0,1,4.45,3.38l5.28,18.68a4.79,4.79,0,0,1-3.32,5.92L276.89,415" transform="translate(-172.19 -293.62)"/><path class="cls-7" d="M273.29,417.22c1.22-.72,2.43-1.47,3.6-2.24L307,406.47a4.79,4.79,0,0,0,3.32-5.92L305,381.87a4.63,4.63,0,0,0-4.45-3.38,4.57,4.57,0,0,0-1.26.18l-7.71,2.18q-.15-.62-.3-1.14L304.6,376l8.48,30-39.79,11.24" transform="translate(-172.19 -293.62)"/><polyline class="cls-3" points="241.24 87.98 241.41 127.11 148.1 127.52 147.93 88.39 241.24 87.98"/><path class="cls-7" d="M406.78,410.38A4.79,4.79,0,0,1,402,415.2l-71,.31a4.28,4.28,0,0,1-4.31-4.28l-.09-19.81a4.73,4.73,0,0,1,4.71-4.75l70.7-.31A4.63,4.63,0,0,1,406.7,391l.08,19.41m-81.34-24.87.13,31.21,82.42-.36-.14-31.2-82.41.35" transform="translate(-172.19 -293.62)"/><path class="cls-7" d="M366.82,391.22a9.72,9.72,0,1,0,9.75,9.67,9.71,9.71,0,0,0-9.75-9.67Z" transform="translate(-172.19 -293.62)"/><polyline class="cls-17" points="235.04 127.14 235.04 127.14 241.41 127.11 235.04 127.14"/><polyline class="cls-13" points="168.46 127.43 168.46 127.43 235.04 127.14 235.04 127.14 168.46 127.43"/><path class="cls-16" d="M340.65,421.05c2.22-.66,14.51-1.46,26-4.51l41.35-.18-.14-31.2-13.8.06a27,27,0,0,1-.05-3.54l19.43-.08.17,39.13-6.37,0-66.58.29m30.06-5.71c6-1.94,11.34-4.6,14.42-8.3,7.33-8.8,8.73-16.14,8.9-20.65l8,0h0A4.63,4.63,0,0,1,406.7,391l.08,19.41A4.79,4.79,0,0,1,402,415.2l-31.29.14" transform="translate(-172.19 -293.62)"/><path class="cls-7" d="M366.64,416.54c1.38-.37,2.74-.77,4.07-1.2L402,415.2a4.79,4.79,0,0,0,4.78-4.82L406.7,391a4.63,4.63,0,0,0-4.63-4.61h0l-8,0c0-.41,0-.81,0-1.17l13.8-.06.14,31.2-41.35.18" transform="translate(-172.19 -293.62)"/><path class="cls-11" d="M356.63,409.92a23.92,23.92,0,1,0-9.4,32.5,23.92,23.92,0,0,0,9.4-32.5Z" transform="translate(-172.19 -293.62)"/><path class="cls-4" d="M354.81,410.93a23.93,23.93,0,1,0-9.41,32.5,23.92,23.92,0,0,0,9.41-32.5Z" transform="translate(-172.19 -293.62)"/><path class="cls-5" d="M334,402.22a20.31,20.31,0,0,0-9.86,2.56,20.33,20.33,0,1,0,9.86-2.56Zm.06,42.31a21.8,21.8,0,1,1,19.06-32.33A21.81,21.81,0,0,1,334,444.53Z" transform="translate(-172.19 -293.62)"/><path class="cls-11" d="M311.06,387.94A18,18,0,1,0,294.7,407.4a18,18,0,0,0,16.36-19.46Z" transform="translate(-172.19 -293.62)"/><path class="cls-4" d="M309.5,388.07a18,18,0,1,0-16.36,19.46,18,18,0,0,0,16.36-19.46Z" transform="translate(-172.19 -293.62)"/><path class="cls-5" d="M276.26,391.16A15.4,15.4,0,1,0,307,388.51a15.4,15.4,0,0,0-16.67-14,15.42,15.42,0,0,0-14,16.67Zm15.34,15a16.37,16.37,0,1,1,1.42-.06c-.48,0-.95.06-1.42.06Z" transform="translate(-172.19 -293.62)"/><path class="cls-11" d="M305.81,339.61a9.39,9.39,0,1,0-3.22,12.89,9.4,9.4,0,0,0,3.22-12.89Z" transform="translate(-172.19 -293.62)"/><path class="cls-4" d="M305.11,340a9.39,9.39,0,1,0-3.22,12.89A9.41,9.41,0,0,0,305.11,340Z" transform="translate(-172.19 -293.62)"/><path class="cls-5" d="M290.21,349.1a8,8,0,0,0,14.71-2.19,8,8,0,0,0-.91-6.09,8,8,0,1,0-13.8,8.28Zm6.91,4.41a8.56,8.56,0,1,1,7.33-13,8.55,8.55,0,0,1-7.33,13Z" transform="translate(-172.19 -293.62)"/><path class="cls-11" d="M339.67,306.49a9.39,9.39,0,1,0,6.74,11.45,9.39,9.39,0,0,0-6.74-11.45Z" transform="translate(-172.19 -293.62)"/><path class="cls-4" d="M338.88,306.28a9.39,9.39,0,1,0,6.74,11.45,9.4,9.4,0,0,0-6.74-11.45Z" transform="translate(-172.19 -293.62)"/><path class="cls-5" d="M336.91,307.53a8.05,8.05,0,0,0-2,15.85,8.2,8.2,0,0,0,2,.25,8,8,0,0,0,2-15.84,8.25,8.25,0,0,0-2-.26Zm0,16.61a8.26,8.26,0,0,1-2.14-.27,8.56,8.56,0,1,1,10.43-6.14,8.58,8.58,0,0,1-8.29,6.41Z" transform="translate(-172.19 -293.62)"/><path class="cls-11" d="M358,385.64a7.4,7.4,0,1,1,10.15,2.54A7.4,7.4,0,0,1,358,385.64Z" transform="translate(-172.19 -293.62)"/><path class="cls-4" d="M357.43,386a7.4,7.4,0,1,1,10.15,2.54A7.4,7.4,0,0,1,357.43,386Z" transform="translate(-172.19 -293.62)"/><path class="cls-5" d="M358.38,385.5a6.34,6.34,0,1,0,2.18-8.69,6.35,6.35,0,0,0-2.18,8.69Zm5.45,3.48a6.74,6.74,0,1,1,3.46-1,6.75,6.75,0,0,1-3.46,1Z" transform="translate(-172.19 -293.62)"/><path class="cls-5" d="M273.53,378.46s-5.16-3.64-9-2.92-8.05,5.68-8.05,5.68,7.72.86,10.58-.23,6.49-2.53,6.49-2.53Z" transform="translate(-172.19 -293.62)"/><path class="cls-7" d="M358.57,371s8.8-4.79,12.16-3.2a12.43,12.43,0,0,1,5.14,5.35,60.19,60.19,0,0,1-7.23.25c-3.15-.15-5.29-3-10.07-2.4Z" transform="translate(-172.19 -293.62)"/><path class="cls-5" d="M372.61,334.27s5.88-2.91,8.52-2.23a24.42,24.42,0,0,1,5.3,2.23,13.56,13.56,0,0,1-6.46,1.84,27.34,27.34,0,0,1-7.36-1.84Z" transform="translate(-172.19 -293.62)"/><path class="cls-5" d="M334.26,304.3s-3-3.76-2-6.51a24.77,24.77,0,0,1,2-4.17s2.78,3.15,2.66,5.34-2.66,5.34-2.66,5.34Z" transform="translate(-172.19 -293.62)"/><path class="cls-7" d="M346.72,310.94s-.72-4.74,1.48-6.1a13.06,13.06,0,0,1,5.73-1.35s-.55,4-2,4.88-4.52,1.36-5.17,2.57Z" transform="translate(-172.19 -293.62)"/><path class="cls-7" d="M312.84,437.15s3,4.21,3.11,5.7-4.2,5.29-4.2,5.29-1.4-3.66-.79-5.49,1.88-5.5,1.88-5.5" transform="translate(-172.19 -293.62)"/><path class="cls-7" d="M307.31,413.13s-4.41,1.5-5,3.94a13,13,0,0,0-.41,4.19s6.39-3.11,5.43-8.13Z" transform="translate(-172.19 -293.62)"/><path class="cls-7" d="M308.66,413.13a5.93,5.93,0,0,1,1.4,2.65,3.71,3.71,0,0,1-.7,2s-1.61-1.29-.7-4.68Z" transform="translate(-172.19 -293.62)"/><path class="cls-4" d="M364.6,480v2.63a1,1,0,0,1-.17.56,1,1,0,0,1-.47.38,1.39,1.39,0,0,1-.19.06h-42a.94.94,0,0,1-.47-.12,1,1,0,0,1-.54-.8V480a1,1,0,0,1,1-1h41.84l.18,0,.19.05a1,1,0,0,1,.64.94" transform="translate(-172.19 -293.62)"/><path class="cls-5" d="M344.06,483.65H321.64a.79.79,0,0,1-.42-.12,1,1,0,0,1-.48-.8V480a1,1,0,0,1,.9-1H341.3a8.45,8.45,0,0,0,2.62,4.54l.14.11" transform="translate(-172.19 -293.62)"/><polygon class="cls-5" points="187.32 190.03 186.84 190.03 186.84 185.38 187.32 185.38 187.32 190.03 187.32 190.03"/><polygon class="cls-5" points="185.71 190.03 185.23 190.03 185.23 185.38 185.71 185.38 185.71 190.03 185.71 190.03"/><polygon class="cls-5" points="183.78 190.03 183.3 190.03 183.3 185.38 183.78 185.38 183.78 190.03 183.78 190.03"/><polygon class="cls-5" points="180.82 190.03 180.34 190.03 180.34 185.38 180.82 185.38 180.82 190.03 180.82 190.03"/><polygon class="cls-5" points="177.69 190.03 177.22 190.03 177.22 185.38 177.69 185.38 177.69 190.03 177.69 190.03"/><polygon class="cls-5" points="172.89 190.03 172.42 190.03 172.42 185.38 172.9 185.38 172.89 190.03 172.89 190.03"/><polygon class="cls-5" points="168.4 190.03 167.93 190.03 167.93 185.38 168.4 185.38 168.4 190.03 168.4 190.03"/><polygon class="cls-5" points="164.39 190.03 163.92 190.03 163.92 185.38 164.39 185.38 164.39 190.03 164.39 190.03"/><polygon class="cls-5" points="188.85 190.03 188.38 190.03 188.38 185.38 188.85 185.38 188.85 190.03 188.85 190.03"/><polygon class="cls-5" points="189.86 190.03 189.39 190.03 189.39 185.38 189.86 185.38 189.86 190.03 189.86 190.03"/><polygon class="cls-5" points="190.84 190.03 190.37 190.03 190.37 185.38 190.84 185.38 190.84 190.03 190.84 190.03"/><path class="cls-5" d="M363.77,479v4.62h-.48V479h.29l.18,0Z" transform="translate(-172.19 -293.62)"/><path class="cls-5" d="M364.43,479.45v3.75a1,1,0,0,1-.47.38v-4.51a1,1,0,0,1,.47.38Z" transform="translate(-172.19 -293.62)"/><path class="cls-4" d="M360,475.36V478a1.06,1.06,0,0,1-.18.56,1,1,0,0,1-.47.38.59.59,0,0,1-.19.05.55.55,0,0,1-.18,0H317.17a1,1,0,0,1-1-1V475.3a1,1,0,0,1,.89-.95h42l.18,0a.59.59,0,0,1,.19.05,1,1,0,0,1,.65.94" transform="translate(-172.19 -293.62)"/><path class="cls-5" d="M339.48,479H317.06a1,1,0,0,1-.9-1V475.3a1,1,0,0,1,.8-.95h19.77a8.29,8.29,0,0,0,2.75,4.65" transform="translate(-172.19 -293.62)"/><polygon class="cls-5" points="182.74 185.38 182.26 185.38 182.27 180.73 182.74 180.73 182.74 185.38 182.74 185.38"/><polygon class="cls-5" points="181.13 185.38 180.66 185.38 180.66 180.73 181.13 180.73 181.13 185.38 181.13 185.38"/><polygon class="cls-5" points="179.2 185.38 178.73 185.38 178.73 180.73 179.2 180.73 179.2 185.38 179.2 185.38"/><polygon class="cls-5" points="176.24 185.38 175.77 185.38 175.77 180.73 176.24 180.73 176.24 185.38 176.24 185.38"/><polygon class="cls-5" points="173.11 185.38 172.64 185.38 172.64 180.73 173.11 180.73 173.11 185.38 173.11 185.38"/><polygon class="cls-5" points="168.32 185.38 167.84 185.38 167.84 180.73 168.32 180.73 168.32 185.38 168.32 185.38"/><polygon class="cls-5" points="163.82 185.38 163.35 185.38 163.35 180.73 163.83 180.73 163.82 185.38 163.82 185.38"/><polygon class="cls-5" points="159.81 185.38 159.34 185.38 159.34 180.73 159.82 180.73 159.81 185.38 159.81 185.38"/><polygon class="cls-5" points="184.27 185.38 183.8 185.38 183.8 180.73 184.27 180.73 184.27 185.38 184.27 185.38"/><polygon class="cls-5" points="185.28 185.38 184.81 185.38 184.81 180.73 185.29 180.73 185.28 185.38 185.28 185.38"/><polygon class="cls-5" points="186.26 185.38 185.79 185.38 185.79 180.73 186.26 180.73 186.26 185.38 186.26 185.38"/><path class="cls-5" d="M359.19,474.37V479a.55.55,0,0,1-.18,0h-.3v-4.65H359l.18,0Z" transform="translate(-172.19 -293.62)"/><path class="cls-5" d="M359.85,474.8v3.75a1,1,0,0,1-.47.38v-4.51a1,1,0,0,1,.47.38Z" transform="translate(-172.19 -293.62)"/><path class="cls-4" d="M364.39,470.72v2.62a1,1,0,0,1-.17.57,1.06,1.06,0,0,1-.48.38l-.18,0h-42a1,1,0,0,1-1-1v-2.77a1,1,0,0,1,.76-.89h0l.22,0h42l.18,0a1.06,1.06,0,0,1,.48.38,1,1,0,0,1,.17.57" transform="translate(-172.19 -293.62)"/><path class="cls-5" d="M343.84,474.35H321.43a1,1,0,0,1-.9-1v-2.77a1,1,0,0,1,.7-.9h0a.44.44,0,0,1,.16,0h19.66v0a8.34,8.34,0,0,0,2.74,4.62h0" transform="translate(-172.19 -293.62)"/><polygon class="cls-5" points="187.11 180.74 186.63 180.74 186.63 176.09 187.11 176.09 187.11 180.74 187.11 180.74"/><polygon class="cls-5" points="185.5 180.74 185.02 180.74 185.02 176.08 185.5 176.09 185.5 180.74 185.5 180.74"/><polygon class="cls-5" points="183.57 180.74 183.09 180.74 183.09 176.08 183.57 176.08 183.57 180.74 183.57 180.74"/><polygon class="cls-5" points="180.61 180.74 180.13 180.74 180.13 176.08 180.61 176.08 180.61 180.74 180.61 180.74"/><polygon class="cls-5" points="177.48 180.74 177 180.73 177 176.08 177.48 176.08 177.48 180.74 177.48 180.74"/><polygon class="cls-5" points="172.68 180.73 172.21 180.73 172.21 176.08 172.68 176.08 172.68 180.73 172.68 180.73"/><polygon class="cls-5" points="168.19 180.73 167.72 180.73 167.72 176.08 168.19 176.08 168.19 180.73 168.19 180.73"/><polygon class="cls-5" points="164.18 180.73 163.71 180.73 163.71 176.08 164.18 176.08 164.18 180.73 164.18 180.73"/><polygon class="cls-5" points="188.64 180.74 188.16 180.74 188.16 176.09 188.64 176.09 188.64 180.74 188.64 180.74"/><polygon class="cls-5" points="189.65 180.74 189.18 180.74 189.18 176.09 189.65 176.09 189.65 180.74 189.65 180.74"/><polygon class="cls-5" points="190.63 180.74 190.15 180.74 190.15 176.09 190.63 176.09 190.63 180.74 190.63 180.74"/><path class="cls-5" d="M363.56,469.72v4.62l-.18,0h-.3V469.7h.3l.18,0Z" transform="translate(-172.19 -293.62)"/><path class="cls-5" d="M364.22,470.15v3.76a1.06,1.06,0,0,1-.48.38v-4.52a1.06,1.06,0,0,1,.48.38Z" transform="translate(-172.19 -293.62)"/><polygon class="cls-5" points="62.18 186.67 44.25 186.67 44.25 185.15 62.18 185.15 62.18 186.67 62.18 186.67"/><polyline class="cls-5" points="164.53 187.46 149.24 187.46 149.24 180.61 164.53 180.61 164.53 187.46"/><polygon class="cls-5" points="166.84 184.99 167.85 185.91 167.71 187.24 161.85 187.07 161.29 184.59 166.84 184.99 166.84 184.99"/><path class="cls-18" d="M242.31,358.83c0-.31-.25-3.6-5.27-3.77a5.34,5.34,0,0,1,2.75,1.27s-1.53-1.23-2.9-.8-2.17,2.83-2.18,3.61.75,3.33,1.62,3.55a2.65,2.65,0,0,0,1,0,10.43,10.43,0,0,0-.67,1.21c-2,4.11.06,8.12,1.75,7.68,1.09-.29,1.4,1.57,1.4,1.57l10.56-8.55s-3.88-8-8.11-5.77Z" transform="translate(-172.19 -293.62)"/><path class="cls-19" d="M329.94,483.69l-32.87,0h32.87v0m-13.71-15.44a50.71,50.71,0,0,0-12.75-9.45l0,0c-.73-.36-1.44-.7-2.13-1l-1-.4a52.55,52.55,0,0,1,9.3-20.46c.74.93,1.49,1.92,2.24,3-.34,1-.69,2-.94,2.75-.61,1.83.79,5.49.79,5.49a29.24,29.24,0,0,0,3.33-3.46,107.25,107.25,0,0,1,9.65,20.38,34,34,0,0,0-7.13,1.75l-1.37,1.44m-15.75-37a.46.46,0,0,1,0-.13c-.06-.46-.27-2.09-.74-4.39.79.64,1.62,1.35,2.5,2.15q-.89,1.17-1.74,2.37" transform="translate(-172.19 -293.62)"/><path class="cls-20" d="M316.23,468.25a50.71,50.71,0,0,0-12.75-9.45l0,0,0,0a50.71,50.71,0,0,1,12.75,9.45h0m-14.9-10.46c-.33-.14-.65-.27-1-.39h0l1,.4" transform="translate(-172.19 -293.62)"/><path class="cls-21" d="M314.91,469.63a32.25,32.25,0,0,0-6.84-.75,30,30,0,0,0-3.82.24,6.44,6.44,0,0,0-.58-3.94,5.37,5.37,0,0,0-4.24-3.05c.15-.95.32-1.88.5-2.77a43.29,43.29,0,0,1,13.15,8.43s.77.7,1.88,1.79l0,.05m.54-.56c-1-1.07-1.77-1.75-1.87-1.84a44.16,44.16,0,0,0-13.44-8.61h-.05c.08-.41.17-.81.26-1.21.33.12.65.25,1,.39.69.29,1.4.63,2.13,1l0,0a50.71,50.71,0,0,1,12.75,9.45l-.78.82" transform="translate(-172.19 -293.62)"/><path class="cls-21" d="M315,469.58c-1.11-1.09-1.87-1.78-1.88-1.79a43.29,43.29,0,0,0-13.15-8.43c.05-.26.11-.51.16-.75h.05a44.16,44.16,0,0,1,13.44,8.61c.1.09.83.77,1.87,1.84l-.49.51" transform="translate(-172.19 -293.62)"/><path class="cls-21" d="M298.6,470.35c.11-3.29.48-5.89.48-5.89.11-.79.22-1.57.35-2.33a5.37,5.37,0,0,1,4.24,3.05,6.44,6.44,0,0,1,.58,3.94,31.9,31.9,0,0,0-5.65,1.23" transform="translate(-172.19 -293.62)"/><path class="cls-22" d="M296.89,470.93a193.47,193.47,0,0,0,.34-24.45,56.09,56.09,0,0,1,8.9-13.71c1.15,1.25,2.33,2.63,3.53,4.16a52.55,52.55,0,0,0-9.3,20.46h0c-.09.4-.18.8-.26,1.21,0,.24-.11.49-.16.75-.18.89-.35,1.82-.5,2.77-.13.76-.24,1.54-.35,2.33,0,0-.37,2.6-.48,5.89-.58.18-1.15.37-1.71.58m3.59-39.69h0q.86-1.2,1.74-2.37h0q-.89,1.17-1.74,2.37" transform="translate(-172.19 -293.62)"/><path class="cls-23" d="M297.23,446.48c-.47-8.12-1.68-16.23-4.21-22.78l-.24-1.55a17.78,17.78,0,0,1,1.86,1c1.1,4.23,2.26,9.33,2.08,11.37-.07.78.06,1.1.3,1.1.81,0,2.92-3.46,3.37-4.22l.09-.14h0q.86-1.2,1.74-2.37c1.23,1.13,2.55,2.43,3.91,3.9a56.09,56.09,0,0,0-8.9,13.71m3.23-15.37c-.06-.46-.27-2.09-.74-4.39h0c.47,2.3.68,3.93.74,4.39" transform="translate(-172.19 -293.62)"/><path class="cls-22" d="M297,435.61c-.24,0-.37-.32-.3-1.1.18-2-1-7.14-2.08-11.37a42.78,42.78,0,0,1,5.08,3.58c.47,2.3.68,3.93.74,4.39a.46.46,0,0,0,0,.13h0l-.09.14c-.45.76-2.56,4.22-3.37,4.22" transform="translate(-172.19 -293.62)"/><path class="cls-20" d="M319.6,483.65H305.8a44.18,44.18,0,0,1,4.64-.64c.85-.07,1.68-.1,2.5-.1a30.2,30.2,0,0,1,6.66.74m-14.13-4.12a5.94,5.94,0,0,0-3.13-2.83,9.7,9.7,0,0,0-3.92-.85,7.91,7.91,0,0,0-2,.24c.09-.92.18-1.91.26-3a32.27,32.27,0,0,1,11-2.25h.68a28.28,28.28,0,0,1,4.94.42l-7.85,8.23m-8.68-7.24c0-.44.06-.89.1-1.36.56-.21,1.13-.4,1.71-.58a31.9,31.9,0,0,1,5.65-1.23,30,30,0,0,1,3.82-.24,32.25,32.25,0,0,1,6.84.75l-1,1a29.87,29.87,0,0,0-5.56-.51h-.66a32.59,32.59,0,0,0-10.94,2.16" transform="translate(-172.19 -293.62)"/><path class="cls-21" d="M296.72,473.13c0-.28,0-.56.07-.84a32.59,32.59,0,0,1,10.94-2.16h.66a29.87,29.87,0,0,1,5.56.51l-.63.67a28.28,28.28,0,0,0-4.94-.42h-.68a32.27,32.27,0,0,0-11,2.25" transform="translate(-172.19 -293.62)"/><path class="cls-21" d="M301.55,483.65h-5.83c-.05-.16.33-3,.74-7.55a7.91,7.91,0,0,1,2-.24,9.7,9.7,0,0,1,3.92.85,5.94,5.94,0,0,1,3.13,2.83l-3.92,4.12" transform="translate(-172.19 -293.62)"/><path class="cls-21" d="M321.63,483.65h-2a30.2,30.2,0,0,0-6.66-.74c-.82,0-1.65,0-2.5.1a44.18,44.18,0,0,0-4.64.64h-3.32a42.78,42.78,0,0,1,9.86-1.15,37.59,37.59,0,0,1,8.88,1h0a1,1,0,0,0,.41.12" transform="translate(-172.19 -293.62)"/><path class="cls-20" d="M302.48,483.65h-.93l3.92-4.12,7.85-8.23.63-.67,1-1,0-.05.49-.51.78-.82,1.37-1.44a34,34,0,0,1,7.13-1.75c.13.37.27.76.4,1.15a22.71,22.71,0,0,0-6.8,1.7l-.06,0L305,481.62l1.13-.18a50.18,50.18,0,0,1,8.43-.74,39.11,39.11,0,0,1,6.22.48v1.45h0v.1a1,1,0,0,0,.48.8,37.59,37.59,0,0,0-8.88-1,42.78,42.78,0,0,0-9.86,1.15m18.26-3.24a40.43,40.43,0,0,0-6.22-.47,49.2,49.2,0,0,0-5.35.3h-.09a.74.74,0,0,1-.52-1.25l9.23-9.49a6,6,0,0,1,2.44-1.5,26.66,26.66,0,0,1,5.16-1.06c.3.9.6,1.82.9,2.75h-4.86a.44.44,0,0,0-.16,0h0a1,1,0,0,0-.7.9h0v2.72h0v.05a1,1,0,0,0,.8.95H317a1,1,0,0,0-.8.95h0V478h0v0a1,1,0,0,0,.9,1h4.37v0a1,1,0,0,0-.69.94h0v.45" transform="translate(-172.19 -293.62)"/><path class="cls-21" d="M305,481.62l13.31-13.69.06,0a22.71,22.71,0,0,1,6.8-1.7c.09.24.17.49.26.74a26.66,26.66,0,0,0-5.16,1.06,6,6,0,0,0-2.44,1.5L308.56,479a.74.74,0,0,0,.52,1.25h.09a49.2,49.2,0,0,1,5.35-.3,40.43,40.43,0,0,1,6.22.47v.77a39.11,39.11,0,0,0-6.22-.48,50.18,50.18,0,0,0-8.43.74l-1.13.18" transform="translate(-172.19 -293.62)"/><path class="cls-21" d="M311.75,448.14s-1.4-3.66-.79-5.49c.25-.74.6-1.78.94-2.75q1.59,2.22,3.18,4.78a29.24,29.24,0,0,1-3.33,3.46" transform="translate(-172.19 -293.62)"/><path class="cls-24" d="M329.94,483.65h-8.31a1,1,0,0,1-.41-.12h0a1,1,0,0,1-.48-.8v-.1h0V480h0a1,1,0,0,1,.69-.94v2.06h7.94c.19.84.38,1.7.57,2.57" transform="translate(-172.19 -293.62)"/><polyline class="cls-25" points="149.14 180.72 144.97 180.72 144.98 180.72 149.13 180.72 149.14 180.72"/><path class="cls-24" d="M321.43,479h-4.37a1,1,0,0,1-.9-1v0h0V475.3h0a1,1,0,0,1,.8-.95h4.47V479" transform="translate(-172.19 -293.62)"/><path class="cls-24" d="M321.43,474.35h-.1a1,1,0,0,1-.8-.95v-.05h0v-2.72h0a1,1,0,0,1,.7-.9h0a.44.44,0,0,1,.16,0h4.86c.46,1.47.91,3,1.34,4.53h-6.2v.12" transform="translate(-172.19 -293.62)"/><path class="cls-24" d="M329.37,481.08h-7.94v-6.85h6.2c.61,2.19,1.19,4.48,1.74,6.85" transform="translate(-172.19 -293.62)"/><path class="cls-26" d="M246,479.92l-2.25.84S234,467.24,232.8,455.35a18,18,0,0,1,.32-6.08s-.1-.54-.26-1.5c-.08-.45-.18-1-.28-1.61-.32-1.82-.76-4.3-1.25-7.13-1.15-6.51-2.64-14.83-3.79-20.94l.6-.2,6.55-2.11,1.35-4.29,4.87-1.28s1.09,2.13,2.06,12.18c.18,1.32.34,2.77.46,4.35a86,86,0,0,1-.46,17.61q-.33,2.63-.86,5.41a24.4,24.4,0,0,0-.18,5.33c.49,9.73,4.06,24.83,4.06,24.83Z" transform="translate(-172.19 -293.62)"/><path class="cls-27" d="M243.43,426.74l-10.57,21c-.08-.45-.18-1-.28-1.61-.32-1.82-.76-4.3-1.25-7.13-1.15-6.51-2.64-14.83-3.79-20.94l.6-.2,6.55-2.11,1.35-4.29,4.87-1.28s1.09,2.13,2.06,12.18c.18,1.32.34,2.77.46,4.35Z" transform="translate(-172.19 -293.62)"/><path class="cls-26" d="M238.78,412.91l-.24-2.1c-4.11,1.09-15.07-3.05-15.07-3.05s-4,3.5-3.45,11.87c.26,4.08.72,21.45,1.21,26.59.17,1.86.33,3.19.39,3.72h0a.76.76,0,0,1-.12.46,23.61,23.61,0,0,0-1.79,3.77c-4.77,12.7.73,28.35.73,28.35l1.43-.57s3.13-17.42,5.68-25.11a14.88,14.88,0,0,1,1.22-2.94,33.12,33.12,0,0,0,3.07-8.18A200.27,200.27,0,0,0,236,424c.13,0,2.82-11.13,2.82-11.13Z" transform="translate(-172.19 -293.62)"/><path class="cls-28" d="M244.41,386.93a6.93,6.93,0,0,1,1.25-2.51,1.13,1.13,0,0,1,.24-.29,5.83,5.83,0,0,1,1.61-1.38c.41-.17.85,0,1.31.53v0A7.79,7.79,0,0,1,250,385a.05.05,0,0,1,0,.05c.09.15.17.32.28.51a.27.27,0,0,1,.06.12c.19.39.38.8.56,1.22,2.09,4.55,4.32,11.44,6.17,13.5.8.88,4.45,2.61,7.35,3.9,2.09.92,3.79,1.6,3.79,1.6s2.09-.41,2.57,0,2.75,2.71,2.26,3.47-2.82-.63-3.3-.76-1.84-.66-1.84-.66h-.37c-.75-.06-2.57-.16-4.62-.38-3.09-.3-6.76-.85-8.22-1.75-2.22-1.35-5.87-5.51-8.25-9.67a3.27,3.27,0,0,1-.17-.31,14.82,14.82,0,0,1-2.17-6.15,8.52,8.52,0,0,1,.29-2.78Z" transform="translate(-172.19 -293.62)"/><path class="cls-28" d="M246.62,387.44a12.91,12.91,0,0,1-4.73,1.11c-7,.38-8.65-5.8-8.94-9.9a5.87,5.87,0,0,1,2.42-.31c.5,0,1,.08,1.45.13.86-.45,2.41-2.64,3.31-6.3l.3.14,5.09,2.4s-.54,1.65-.94,3.24a6.6,6.6,0,0,0-.35,2.77l.64.27h0a35.77,35.77,0,0,1,1.74,6.45Z" transform="translate(-172.19 -293.62)"/><path class="cls-29" d="M245.52,374.71s-.54,1.65-.94,3.24c-3-.83-3.88-4-4.15-5.63l5.09,2.39Z" transform="translate(-172.19 -293.62)"/><path class="cls-28" d="M246.15,376.46s-7.12-1.65-6-6.06.91-7.61,5.5-6.74,5.05,2.77,5,4.33-2.64,8.78-4.52,8.47Z" transform="translate(-172.19 -293.62)"/><path class="cls-18" d="M251.07,365.48c-.76-1.6-1.66-1.51-2.23-1.23-3.34-3.09-8.94-2.32-8.94-2.32a27.4,27.4,0,0,0-1.68,6.05s1.1,1.12,4.26,1.1a5.28,5.28,0,0,0,2.83-1.07,17.17,17.17,0,0,1-3.71,2.77c4-.76,6.63-5.35,6.9-5.84a5.76,5.76,0,0,1,1,2.44c.07,1.22-.34,3.57.35,3.66,0,0,2.34-3.16,1.19-5.56Z" transform="translate(-172.19 -293.62)"/><path class="cls-30" d="M250.94,386.92a34,34,0,0,0-1.73-3.34,2.38,2.38,0,0,0-.71-.77,17.93,17.93,0,0,0-3.63-1.82h0c0,.18,1.33,4.83.86,5.82s-9.49-2.25-10-3-.41-3.76-.4-5c0-.31,0-.5,0-.5s-3.37-.45-5.26.31a14.3,14.3,0,0,1,1,3.41c0,.17.05.34.07.52a6.39,6.39,0,0,1,0,1.07,2,2,0,0,1-.65,1.28,9.66,9.66,0,0,1-1.35,1.12c-.35.26-.73.52-1.11.81h0c0,2.11.11,5.57-.28,9.27a6.25,6.25,0,0,1-.9,2.63,5.84,5.84,0,0,1-.67.9c-2,2.23-5.51,6.67-4.73,9.44.05,2.6,22.05,6,21.58,3.17,0,0,3.31-15.94,5.09-19.78a3.79,3.79,0,0,0,.18-.42,9,9,0,0,0,.28-4.48,4.1,4.1,0,0,1,2.28-.67Z" transform="translate(-172.19 -293.62)"/><path class="cls-31" d="M237.19,406.91c-4.34,0-8-4.55-10.26-8.15a6.25,6.25,0,0,0,.9-2.63c.39-3.7.24-7.16.28-9.27h0c.38-.29.76-.55,1.11-.81a9.66,9.66,0,0,0,1.35-1.12c3.56,6,12.5,22.05,6.62,22Z" transform="translate(-172.19 -293.62)"/><path class="cls-27" d="M228.75,483.69h-11.3a6.09,6.09,0,0,1,.32-3c.56-1.25,1.45-1.82,1.23-3.34a4.08,4.08,0,0,0,3.53,1.35,12.44,12.44,0,0,0,2,2.54c.74.53,4,.34,4.26,2.48Z" transform="translate(-172.19 -293.62)"/><path class="cls-27" d="M253,483.69h-11.3a4.72,4.72,0,0,1,.32-3,2.2,2.2,0,0,0-.08-2.6,4.38,4.38,0,0,0,1.9.36,4,4,0,0,0,1.68-.59,42.5,42.5,0,0,0,3.22,3.38c.74.53,4,.34,4.26,2.48Z" transform="translate(-172.19 -293.62)"/><path class="cls-32" d="M268.8,414l3.06,1.26a1.79,1.79,0,0,1,1.05,2.09l.33.13c1.24-4.32-.28-8.67-3.69-10.07a5.9,5.9,0,0,0-1.47-.38,7.07,7.07,0,0,0-4.67,1.13,10.22,10.22,0,0,0-3.54,3.84l.45.18a1.79,1.79,0,0,1,2.21-.75l3.06,1.26a1.51,1.51,0,0,1,1.4-.94,1.65,1.65,0,0,1,.57.11l.42.18a1.5,1.5,0,0,1,.82,2Zm-14.54,5.31,2.69-6.55a1.82,1.82,0,0,1,2.16-1.06,11.15,11.15,0,0,1,3.5-4,8.38,8.38,0,0,1,4.73-1.56,6.9,6.9,0,0,1,2.52.5c3.82,1.57,5.53,6.39,4.13,11.13l.21.08s.65,0,1.75,0c3.45,0,11.31.46,16.83,4.29a1.5,1.5,0,0,1,.36.93,1.31,1.31,0,0,1-.12.62s-8.85-5.73-17,.16c-.5.36-1,.69-1.46,1l-.74,1.79a5.84,5.84,0,0,1-7.61,3.19l-7.5-3.07-1.57-.64a5.23,5.23,0,0,1-2.84-6.79Z" transform="translate(-172.19 -293.62)"/><path class="cls-33" d="M274.52,424.86c.47-.31,1-.64,1.46-1,8.19-5.89,17-.16,17-.16a1.31,1.31,0,0,0,.12-.62,17,17,0,0,0-11.64-2.6c-6.74,1.08-8,2-7,4.38Z" transform="translate(-172.19 -293.62)"/><path class="cls-33" d="M257.1,426.13l1.57.64c-2.35-1.28.55-6.69,2.25-10.25s4.27-1.94,4.27-1.94a2,2,0,0,1,1.84-1.13,1.43,1.43,0,0,1,1-1.38l-.42-.18a1.65,1.65,0,0,0-.57-.11,1.51,1.51,0,0,0-1.4.94l-3.06-1.26a1.79,1.79,0,0,0-2.21.75l-.45-.18a10.22,10.22,0,0,1,3.54-3.84,7.07,7.07,0,0,1,4.67-1.13,3.32,3.32,0,0,1-.74-.87,8.38,8.38,0,0,0-4.73,1.56,11.15,11.15,0,0,0-3.5,4,1.82,1.82,0,0,0-2.16,1.06l-2.69,6.55a5.23,5.23,0,0,0,2.84,6.79Z" transform="translate(-172.19 -293.62)"/><path class="cls-28" d="M227.63,384.25c0-4.93,2.48-5.61,2.48-5.61l.17-.05c.42-.06.86.22,1.32.78a15.63,15.63,0,0,1,1.82,3.21c1,2.19,2,5,2.94,7.85.52,1.54,1,3.09,1.54,4.51.29.87.58,1.68.85,2.43a22.89,22.89,0,0,0,1.43,3.31,8.1,8.1,0,0,0,2.09,1.89,78.06,78.06,0,0,0,6.72,4.17c.95.55,1.85,1,2.6,1.45.63.13,3.82.81,5.31.47,1.68-.39,4.5,1.63,4.5,1.63s.31.65-.78,1.09-2.61,2.05-5.06,1.09a37.9,37.9,0,0,0-4.5-1.38l-.56-.12c-.95-.19-2.09-.44-3.33-.71h0c-2.13-.51-4.5-1.12-6.51-1.8a17.38,17.38,0,0,1-3.46-1.55,1.77,1.77,0,0,1-.24-.17c-2-1.44-4.34-5.68-6.18-10.24-.25-.62-.49-1.25-.73-1.86a45.62,45.62,0,0,1-1.93-6.45,17.44,17.44,0,0,1-.46-3.08,6.28,6.28,0,0,1,0-.86Z" transform="translate(-172.19 -293.62)"/><path class="cls-30" d="M234,382.82c-3.27-.9-6.35,1.42-6.35,1.42,0-4.91,2.49-5.59,2.49-5.59,1.23-.7,2.68,1.53,3.86,4.17Z" transform="translate(-172.19 -293.62)"/><path class="cls-4" d="M307.31,480v2.62a1,1,0,0,1-.18.57,1,1,0,0,1-.47.38l-.19.05-.18,0H264.45a1,1,0,0,1-1-1V480a1,1,0,0,1,.89-.95h42a.51.51,0,0,1,.18,0l.19.05a1,1,0,0,1,.47.38,1,1,0,0,1,.18.57Z" transform="translate(-172.19 -293.62)"/><path class="cls-5" d="M286.76,483.64H264.34a1,1,0,0,1-.9-1V480a1,1,0,0,1,.8-.95H284a8.29,8.29,0,0,0,2.75,4.64Z" transform="translate(-172.19 -293.62)"/><polygon class="cls-5" points="130.02 190.03 129.55 190.03 129.55 185.38 130.02 185.38 130.02 190.03 130.02 190.03"/><polygon class="cls-5" points="128.41 190.03 127.94 190.03 127.94 185.38 128.41 185.38 128.41 190.03 128.41 190.03"/><polygon class="cls-5" points="126.48 190.03 126.01 190.03 126.01 185.38 126.48 185.38 126.48 190.03 126.48 190.03"/><polygon class="cls-5" points="123.52 190.03 123.05 190.03 123.05 185.37 123.53 185.37 123.52 190.03 123.52 190.03"/><polygon class="cls-5" points="120.39 190.03 119.92 190.03 119.92 185.37 120.4 185.37 120.39 190.03 120.39 190.03"/><polygon class="cls-5" points="115.6 190.02 115.12 190.02 115.12 185.37 115.6 185.37 115.6 190.02 115.6 190.02"/><polygon class="cls-5" points="111.11 190.02 110.63 190.02 110.63 185.37 111.11 185.37 111.11 190.02 111.11 190.02"/><polygon class="cls-5" points="107.1 190.02 106.62 190.02 106.62 185.37 107.1 185.37 107.1 190.02 107.1 190.02"/><polygon class="cls-5" points="131.56 190.03 131.08 190.03 131.08 185.38 131.56 185.38 131.56 190.03 131.56 190.03"/><polygon class="cls-5" points="132.57 190.03 132.09 190.03 132.09 185.38 132.57 185.38 132.57 190.03 132.57 190.03"/><polygon class="cls-5" points="133.54 190.03 133.07 190.03 133.07 185.38 133.54 185.38 133.54 190.03 133.54 190.03"/><path class="cls-5" d="M306.47,479v4.62l-.18,0H306V479h.3a.47.47,0,0,1,.17,0Z" transform="translate(-172.19 -293.62)"/><path class="cls-5" d="M307.13,479.44v3.76a1,1,0,0,1-.47.38v-4.52a1,1,0,0,1,.47.38Z" transform="translate(-172.19 -293.62)"/><path class="cls-4" d="M300,475.36V478a1,1,0,0,1-.64.94.67.67,0,0,1-.19.05h-42a1,1,0,0,1-1-1V475.3a1,1,0,0,1,1-1H299l.12,0a.67.67,0,0,1,.19.05l.08,0,.06,0h0l.05,0h0l.05,0,.1.09,0,0h0l0,0h0l0,0,0,.06a.91.91,0,0,1,.17.56Z" transform="translate(-172.19 -293.62)"/><path class="cls-5" d="M279.41,479H257a1,1,0,0,1-.9-1V475.3a1,1,0,0,1,.9-1h19.66l0,.1A8.29,8.29,0,0,0,279.4,479Z" transform="translate(-172.19 -293.62)"/><polygon class="cls-5" points="122.67 185.38 122.19 185.38 122.19 180.73 122.67 180.73 122.67 185.38 122.67 185.38"/><polygon class="cls-5" points="121.06 185.38 120.58 185.38 120.59 180.73 121.06 180.73 121.06 185.38 121.06 185.38"/><polygon class="cls-5" points="119.13 185.38 118.65 185.38 118.66 180.73 119.13 180.73 119.13 185.38 119.13 185.38"/><polygon class="cls-5" points="116.17 185.38 115.69 185.38 115.7 180.73 116.17 180.73 116.17 185.38 116.17 185.38"/><polygon class="cls-5" points="113.04 185.38 112.57 185.38 112.57 180.73 113.04 180.73 113.04 185.38 113.04 185.38"/><polygon class="cls-5" points="108.25 185.38 107.77 185.38 107.77 180.73 108.25 180.73 108.25 185.38 108.25 185.38"/><polygon class="cls-5" points="103.75 185.38 103.28 185.38 103.28 180.73 103.75 180.73 103.75 185.38 103.75 185.38"/><polygon class="cls-5" points="99.74 185.38 99.27 185.38 99.27 180.73 99.74 180.73 99.74 185.38 99.74 185.38"/><polygon class="cls-5" points="124.2 185.38 123.73 185.38 123.73 180.73 124.2 180.73 124.2 185.38 124.2 185.38"/><polygon class="cls-5" points="125.21 185.38 124.74 185.38 124.74 180.73 125.22 180.73 125.21 185.38 125.21 185.38"/><polygon class="cls-5" points="126.19 185.38 125.72 185.38 125.72 180.73 126.19 180.73 126.19 185.38 126.19 185.38"/><path class="cls-5" d="M299.12,474.37V479a.55.55,0,0,1-.18,0h-.3v-4.65h.29l.18,0Z" transform="translate(-172.19 -293.62)"/><path class="cls-5" d="M299.78,474.8v3.75a1,1,0,0,1-.47.38v-4.51a1,1,0,0,1,.47.38Z" transform="translate(-172.19 -293.62)"/><path class="cls-4" d="M305.63,470.82v2.63a1,1,0,0,1-.17.56,1.12,1.12,0,0,1-.48.38l-.18.05-.18,0H262.78a1,1,0,0,1-1-.92v-2.72a.09.09,0,0,1,0-.05,1,1,0,0,1,.89-.95H304.8l.18.05a1.06,1.06,0,0,1,.48.38,1,1,0,0,1,.17.57Z" transform="translate(-172.19 -293.62)"/><path class="cls-5" d="M285.08,474.46H262.67a.84.84,0,0,1-.41-.11,1,1,0,0,1-.49-.81v-2.72a.09.09,0,0,1,0-.05,1,1,0,0,1,.79-.95h19.77a8.45,8.45,0,0,0,2.62,4.54.69.69,0,0,1,.13.11Z" transform="translate(-172.19 -293.62)"/><polygon class="cls-5" points="128.34 180.84 127.87 180.84 127.87 176.19 128.34 176.19 128.34 180.84 128.34 180.84"/><polygon class="cls-5" points="126.73 180.84 126.26 180.84 126.26 176.19 126.73 176.19 126.73 180.84 126.73 180.84"/><polygon class="cls-5" points="124.81 180.84 124.33 180.84 124.33 176.19 124.81 176.19 124.81 180.84 124.81 180.84"/><polygon class="cls-5" points="121.85 180.84 121.37 180.84 121.37 176.19 121.85 176.19 121.85 180.84 121.85 180.84"/><polygon class="cls-5" points="118.72 180.84 118.24 180.84 118.24 176.18 118.72 176.18 118.72 180.84 118.72 180.84"/><polygon class="cls-5" points="113.92 180.84 113.45 180.84 113.45 176.18 113.92 176.18 113.92 180.84 113.92 180.84"/><polygon class="cls-5" points="109.43 180.84 108.95 180.84 108.95 176.18 109.43 176.18 109.43 180.84 109.43 180.84"/><polygon class="cls-5" points="105.42 180.84 104.94 180.84 104.94 176.18 105.42 176.18 105.42 180.84 105.42 180.84"/><polygon class="cls-5" points="129.88 180.84 129.4 180.84 129.4 176.19 129.88 176.19 129.88 180.84 129.88 180.84"/><polygon class="cls-5" points="130.89 180.84 130.41 180.84 130.41 176.19 130.89 176.19 130.89 180.84 130.89 180.84"/><polygon class="cls-5" points="131.87 180.84 131.39 180.84 131.39 176.19 131.87 176.19 131.87 180.84 131.87 180.84"/><path class="cls-5" d="M304.8,469.82v4.62l-.18,0h-.3v-4.65h.48Z" transform="translate(-172.19 -293.62)"/><path class="cls-5" d="M305.46,470.25V474a1.12,1.12,0,0,1-.48.38v-4.52a1.06,1.06,0,0,1,.48.38Z" transform="translate(-172.19 -293.62)"/><path class="cls-4" d="M302.56,466.17v2.63a1,1,0,0,1-.17.57,1,1,0,0,1-.47.37.7.7,0,0,1-.19.06h-42a1,1,0,0,1-1-1v-2.74a1,1,0,0,1,1-1h41.84l.18,0,.19.05a1,1,0,0,1,.65.94Z" transform="translate(-172.19 -293.62)"/><path class="cls-5" d="M282,469.81H259.59a1,1,0,0,1-.9-1v-2.74a1,1,0,0,1,.9-1h19.66A8.38,8.38,0,0,0,282,469.8Z" transform="translate(-172.19 -293.62)"/><polygon class="cls-5" points="125.27 176.19 124.79 176.19 124.79 171.54 125.27 171.54 125.27 176.19 125.27 176.19"/><polygon class="cls-5" points="123.66 176.19 123.18 176.19 123.19 171.54 123.66 171.54 123.66 176.19 123.66 176.19"/><polygon class="cls-5" points="121.73 176.19 121.25 176.19 121.25 171.54 121.73 171.54 121.73 176.19 121.73 176.19"/><polygon class="cls-5" points="118.77 176.19 118.3 176.19 118.3 171.54 118.77 171.54 118.77 176.19 118.77 176.19"/><polygon class="cls-5" points="115.64 176.19 115.17 176.19 115.17 171.54 115.64 171.54 115.64 176.19 115.64 176.19"/><polygon class="cls-5" points="110.85 176.19 110.37 176.19 110.37 171.54 110.85 171.54 110.85 176.19 110.85 176.19"/><polygon class="cls-5" points="106.35 176.19 105.88 176.19 105.88 171.54 106.36 171.54 106.35 176.19 106.35 176.19"/><polygon class="cls-5" points="102.34 171.54 102.34 176.19 101.87 176.19 101.87 171.54 102.34 171.54 102.34 171.54"/><polygon class="cls-5" points="126.8 176.19 126.33 176.19 126.33 171.54 126.8 171.54 126.8 176.19 126.8 176.19"/><polygon class="cls-5" points="127.81 176.19 127.34 176.19 127.34 171.54 127.81 171.54 127.81 176.19 127.81 176.19"/><polygon class="cls-5" points="128.79 176.19 128.32 176.19 128.32 171.54 128.79 171.54 128.79 176.19 128.79 176.19"/><path class="cls-5" d="M301.72,465.18v4.62h-.48v-4.65h.29l.18,0Z" transform="translate(-172.19 -293.62)"/><path class="cls-5" d="M302.38,465.61v3.76a1,1,0,0,1-.47.37v-4.51a1,1,0,0,1,.47.38Z" transform="translate(-172.19 -293.62)"/><path class="cls-5" d="M276.8,473.92l3.33-1-.56-3.11a8.75,8.75,0,0,1-2.91-4.65l-16.51,4.11v9.42h4.19v3.74H280.2V479s-2.26-.45-3.4-5.08Z" transform="translate(-172.19 -293.62)"/><path class="cls-34" d="M298.15,426.77s16.09,12.88,21.74,31.59c0,0-3.85-14.33-21.74-31.59Z" transform="translate(-172.19 -293.62)"/><path class="cls-34" d="M304.52,441.73s8,21.31,8.19,36.48c0,0,2.31-10.36-8.19-36.48Z" transform="translate(-172.19 -293.62)"/><path class="cls-34" d="M299.23,440.54s3.81,15.16,4.11,21.14c0,0,.22-8.15-4.11-21.14Z" transform="translate(-172.19 -293.62)"/><path class="cls-34" d="M245.34,373.54a6.41,6.41,0,0,1,2.35.56s-1.15.88-2.35-.56Z" transform="translate(-172.19 -293.62)"/><path class="cls-5" d="M299.84,341.48a.22.22,0,0,0-.18,0l-1.28.22a2.61,2.61,0,0,0-.68-1l1.75-.31a.26.26,0,0,0,.16-.1.25.25,0,0,0,0-.19l-.14-.76a.22.22,0,0,0-.09-.16.26.26,0,0,0-.19,0L293,340.23a.25.25,0,0,0-.16.1.22.22,0,0,0,0,.18l.18,1a.25.25,0,0,0,.1.16.24.24,0,0,0,.18,0l1.09-.19c1.06-.19,1.78,0,2.17.49l-3.11.55a.21.21,0,0,0-.16.1.22.22,0,0,0,0,.18l.13.77a.24.24,0,0,0,.29.2l3.2-.57a1.46,1.46,0,0,1-.6,1.07,3.47,3.47,0,0,1-1.54.61l-.84.15a.21.21,0,0,0-.16.1.24.24,0,0,0,0,.18l.17,1a.22.22,0,0,0,.1.15q1.71,1.28,4.5,3.62a.19.19,0,0,0,.2.06l1.47-.26a.21.21,0,0,0,.19-.17.2.2,0,0,0-.07-.25c-1.78-1.54-3.17-2.67-4.17-3.42a3.87,3.87,0,0,0,1.93-1.19,2.88,2.88,0,0,0,.66-1.93l1.26-.23a.24.24,0,0,0,.16-.09.26.26,0,0,0,0-.19l-.14-.77A.21.21,0,0,0,299.84,341.48Z" transform="translate(-172.19 -293.62)"/><path class="cls-5" d="M340.4,313.56a.18.18,0,0,0-.14-.08l-1.07-.15a2.14,2.14,0,0,0-.27-.95l1.45.2a.23.23,0,0,0,.16,0,.21.21,0,0,0,.07-.14l.09-.63a.16.16,0,0,0,0-.15.17.17,0,0,0-.13-.08l-5.2-.72a.24.24,0,0,0-.15,0,.18.18,0,0,0-.08.14l-.12.83a.28.28,0,0,0,0,.15.25.25,0,0,0,.14.08l.9.12c.88.12,1.41.43,1.58.94l-2.58-.36a.19.19,0,0,0-.15,0,.22.22,0,0,0-.08.13l-.09.64a.24.24,0,0,0,0,.15.18.18,0,0,0,.14.08l2.67.37a1.22,1.22,0,0,1-.75.69,3,3,0,0,1-1.37.09l-.7-.1a.17.17,0,0,0-.15,0,.17.17,0,0,0-.07.13l-.11.8a.17.17,0,0,0,0,.14q1,1.44,2.62,4a.19.19,0,0,0,.15.09l1.22.17a.18.18,0,0,0,.2-.09.17.17,0,0,0,0-.21q-1.51-2.49-2.41-3.75a3.1,3.1,0,0,0,1.82-.45,2.31,2.31,0,0,0,1-1.35l1.05.15a.24.24,0,0,0,.15,0,.22.22,0,0,0,.08-.14l.09-.63A.24.24,0,0,0,340.4,313.56Z" transform="translate(-172.19 -293.62)"/><path class="cls-5" d="M366.84,380.37a.17.17,0,0,0-.14-.06h-1a2.16,2.16,0,0,0-.39-.87h1.41a.16.16,0,0,0,.14-.05.18.18,0,0,0,.06-.14v-.62a.19.19,0,0,0-.2-.19h-5a.19.19,0,0,0-.2.19v.81a.16.16,0,0,0,.06.13.18.18,0,0,0,.14.06h.87c.86,0,1.4.23,1.63.68h-2.5a.17.17,0,0,0-.14.06.18.18,0,0,0-.06.14v.62a.19.19,0,0,0,.2.19h2.58a1.19,1.19,0,0,1-.62.76,2.76,2.76,0,0,1-1.29.26h-.67a.22.22,0,0,0-.14.05.2.2,0,0,0-.06.14v.77a.16.16,0,0,0,.06.13c.77.83,1.78,2,3,3.46a.18.18,0,0,0,.15.07h1.18a.18.18,0,0,0,.18-.11.15.15,0,0,0,0-.2c-1.17-1.45-2.1-2.53-2.77-3.25a3.11,3.11,0,0,0,1.67-.66,2.36,2.36,0,0,0,.78-1.42h1a.19.19,0,0,0,.2-.19v-.62A.18.18,0,0,0,366.84,380.37Z" transform="translate(-172.19 -293.62)"/><path class="cls-5" d="M339.74,359.74a.64.64,0,0,0-.39-.26l-3.19-.71a6.52,6.52,0,0,0-.59-2.95l4.34,1a.63.63,0,0,0,.47-.07.6.6,0,0,0,.26-.39l.43-1.9A.63.63,0,0,0,341,354a.56.56,0,0,0-.39-.26l-15.51-3.48a.6.6,0,0,0-.46.08.56.56,0,0,0-.27.39l-.55,2.47a.57.57,0,0,0,.08.46.55.55,0,0,0,.38.27l2.7.61q3.93.88,4.52,3.22L323.81,356a.59.59,0,0,0-.47.07.64.64,0,0,0-.26.39l-.43,1.9a.63.63,0,0,0,.08.47.55.55,0,0,0,.39.26l7.95,1.78a3.73,3.73,0,0,1-2.43,1.91,8.6,8.6,0,0,1-4.14-.09l-2.08-.47a.57.57,0,0,0-.46.09.53.53,0,0,0-.27.38l-.53,2.36a.59.59,0,0,0,.07.45q2.73,4.61,6.9,12.72a.56.56,0,0,0,.41.32l3.64.82a.54.54,0,0,0,.61-.22.51.51,0,0,0,.07-.65q-3.94-7.89-6.32-11.9a9.61,9.61,0,0,0,5.61-.9,7.15,7.15,0,0,0,3.38-3.82l3.13.7a.56.56,0,0,0,.46-.07.61.61,0,0,0,.27-.39l.42-1.9A.59.59,0,0,0,339.74,359.74Z" transform="translate(-172.19 -293.62)"/><path class="cls-5" d="M297.29,384.33a.44.44,0,0,0-.32-.08l-2.28.31a4.68,4.68,0,0,0-1.11-1.81l3.11-.41a.41.41,0,0,0,.37-.48l-.18-1.36a.42.42,0,0,0-.16-.29.41.41,0,0,0-.33-.08l-11.08,1.47a.42.42,0,0,0-.29.16.4.4,0,0,0-.08.32l.23,1.78a.45.45,0,0,0,.49.37l1.93-.26c1.87-.25,3.13.09,3.77,1l-5.5.73a.42.42,0,0,0-.29.16.4.4,0,0,0-.08.32l.18,1.36a.42.42,0,0,0,.16.29.4.4,0,0,0,.32.08l5.69-.75A2.62,2.62,0,0,1,290.7,389a6,6,0,0,1-2.76,1l-1.49.2a.4.4,0,0,0-.28.17.36.36,0,0,0-.09.31l.23,1.7a.37.37,0,0,0,.15.27q2.93,2.39,7.65,6.73a.39.39,0,0,0,.36.11l2.59-.34a.4.4,0,0,0,.36-.29.37.37,0,0,0-.12-.45q-4.51-4.25-7.06-6.33a6.74,6.74,0,0,0,3.48-1.95,5,5,0,0,0,1.31-3.35l2.23-.29a.38.38,0,0,0,.29-.17.39.39,0,0,0,.08-.32l-.18-1.36A.41.41,0,0,0,297.29,384.33Z" transform="translate(-172.19 -293.62)"/><path class="cls-5" d="M339.46,413.49a.59.59,0,0,0-.47,0l-3.09,1a6.5,6.5,0,0,0-2-2.21l4.22-1.43a.55.55,0,0,0,.36-.3.59.59,0,0,0,0-.47l-.62-1.84a.64.64,0,0,0-.31-.37.59.59,0,0,0-.47,0L322,413a.59.59,0,0,0-.38.78l.81,2.4a.57.57,0,0,0,.31.35.57.57,0,0,0,.46,0l2.63-.89q3.81-1.29,5.54.41l-7.48,2.52a.67.67,0,0,0-.36.3.59.59,0,0,0,0,.47l.62,1.85a.59.59,0,0,0,.78.38l7.72-2.6a3.7,3.7,0,0,1-1.09,2.88,8.58,8.58,0,0,1-3.58,2.08l-2,.68a.61.61,0,0,0-.34.31.6.6,0,0,0,0,.47l.78,2.29a.57.57,0,0,0,.29.35q4.72,2.52,12.5,7.29a.55.55,0,0,0,.53.06l3.52-1.19a.55.55,0,0,0,.42-.5.52.52,0,0,0-.28-.59q-7.47-4.69-11.58-6.9a9.67,9.67,0,0,0,4.32-3.67,7.14,7.14,0,0,0,.91-5l3-1a.61.61,0,0,0,.36-.3.59.59,0,0,0,0-.47l-.62-1.85A.59.59,0,0,0,339.46,413.49Z" transform="translate(-172.19 -293.62)"/></svg>