<svg id="Layer_1" data-name="Layer 1" xmlns="http://www.w3.org/2000/svg" xmlns:xlink="http://www.w3.org/1999/xlink" viewBox="0 0 39.14 34.47"><defs><style>.cls-1{fill:url(#linear-gradient);}.cls-2{fill:url(#linear-gradient-2);}.cls-3{fill:url(#linear-gradient-3);}</style><linearGradient id="linear-gradient" x1="27.67" y1="21.86" x2="29.97" y2="21.86" gradientUnits="userSpaceOnUse"><stop offset="0" stop-color="#37a9e5"/><stop offset="1" stop-color="#3d53b9"/></linearGradient><linearGradient id="linear-gradient-2" x1="15.67" y1="49.74" x2="54.81" y2="49.74" xlink:href="#linear-gradient"/><linearGradient id="linear-gradient-3" x1="21.68" y1="54.27" x2="30.11" y2="54.27" xlink:href="#linear-gradient"/></defs><circle class="cls-1" cx="28.82" cy="21.86" r="1.15"/><path class="cls-2" d="M52.52,48.83V42.9a1.15,1.15,0,0,0-1.15-1.15h-.92c-.31-.84-2.72-7.47-3.09-8.49a1.15,1.15,0,0,0-1.47-.68L33.21,37.16H19.11a3.45,3.45,0,0,0-3.44,3.44V63.54A3.45,3.45,0,0,0,19.11,67H51.37a1.16,1.16,0,0,0,1.15-1.15V59.9a3.45,3.45,0,0,0,2.29-3.24V52.07a3.45,3.45,0,0,0-2.29-3.24ZM41.39,36.64a5.71,5.71,0,0,0,5.73,2.68L48,41.75H27.27Zm4.92.45a3.32,3.32,0,0,1-1.48-.32,3.39,3.39,0,0,1-1.21-.93l2-.72Zm-27.2,2.37h7.76l-6.34,2.29H19.11a1.15,1.15,0,1,1,0-2.29Zm0,25.22A1.15,1.15,0,0,1,18,63.54V43.85a3.65,3.65,0,0,0,1.15.19H50.22v4.59H44.49a5.74,5.74,0,0,0,0,11.47h5.73v4.58Zm33.41-8a1.15,1.15,0,0,1-1.15,1.14H44.49a3.44,3.44,0,0,1,0-6.88h6.88a1.16,1.16,0,0,1,1.15,1.15Z" transform="translate(-15.67 -32.51)"/><path class="cls-3" d="M30,50.65a.29.29,0,0,0-.22-.09h-1.6a3.21,3.21,0,0,0-.61-1.35h2.19a.33.33,0,0,0,.22-.08.29.29,0,0,0,.08-.22V48a.26.26,0,0,0-.08-.21.29.29,0,0,0-.22-.09H22a.29.29,0,0,0-.22.09.3.3,0,0,0-.08.21V49.2a.31.31,0,0,0,.3.3h1.36c1.32,0,2.16.36,2.52,1.06H22a.29.29,0,0,0-.22.09.3.3,0,0,0-.08.21v1a.33.33,0,0,0,.08.22.29.29,0,0,0,.22.08h4a1.85,1.85,0,0,1-1,1.18,4.26,4.26,0,0,1-2,.4H22a.31.31,0,0,0-.3.3v1.2a.28.28,0,0,0,.08.2q1.8,1.92,4.68,5.37a.28.28,0,0,0,.23.11h1.84a.28.28,0,0,0,.27-.17.26.26,0,0,0,0-.32c-1.83-2.24-3.26-3.92-4.31-5a4.67,4.67,0,0,0,2.59-1,3.44,3.44,0,0,0,1.21-2.2h1.58A.29.29,0,0,0,30,52a.33.33,0,0,0,.08-.22v-1A.32.32,0,0,0,30,50.65Z" transform="translate(-15.67 -32.51)"/></svg>