<svg id="Layer_1" data-name="Layer 1" xmlns="http://www.w3.org/2000/svg" viewBox="0 0 166.97 113.65"><defs><style>.cls-1{fill:#020202;stroke:#000;stroke-miterlimit:33.33;stroke-width:7px;}</style></defs><path d="M342.86,209.58c-7.62,0-12.14-3.9-12.49-9.52h7.29c0,1.87,1,4.37,5.55,4.52,3.13,0,4.86-1.87,4.86-3.28-.35-2.18-3.13-2.34-5.9-2.82a28.23,28.23,0,0,1-7.29-1.86,7.47,7.47,0,0,1-3.82-6.72c0-5,4.18-8.9,11.46-8.9,6.94,0,11.45,3.59,11.79,9.06h-6.93c0-1.4-.35-3.75-4.52-3.75-2.78,0-4.51.47-4.85,2.5,0,2.81,5.89,2.66,10.4,3.74,4.17,1.1,6.95,3.75,6.95,7.51,0,6.87-5.55,9.52-12.5,9.52M206.25,162.7l24.61-14.29,13.2,22.65H211.11" transform="translate(-188.39 -97.06)"/><path class="cls-1" d="M257.61,210.06v-28" transform="translate(-188.39 -97.06)"/><path d="M194.82,195.59a8.39,8.39,0,0,0,8.2,8.19,8.15,8.15,0,0,0,8.21-8.19,8.24,8.24,0,0,0-8.21-8.18,8.49,8.49,0,0,0-8.2,8.18m7.89,14.11a14.48,14.48,0,0,1,0-28.95,14.14,14.14,0,0,1,8.4,2.52v-2.21h7v28h-7v-1.74a14.37,14.37,0,0,1-8.4,2.38m95.22-38.45-34.24-59.74L288.3,97.06l42.81,74.19M227.64,195.59a8.16,8.16,0,0,0,8.21,8.19,8.4,8.4,0,0,0,8.21-8.19,8.5,8.5,0,0,0-8.21-8.18,8.25,8.25,0,0,0-8.21,8.18m8.06,15.12A14.45,14.45,0,0,1,221.33,196a14.55,14.55,0,0,1,22.78-12v-12h7v38h-7V208.3a15.06,15.06,0,0,1-8.41,2.41m-.5-73.2,24.52-14,27,47.54H261.11v7h-7v-7m97,7.47a3.53,3.53,0,1,1,0-7.06,3.54,3.54,0,1,1,0,7.07m0-6.58a3.06,3.06,0,1,0,2.84,3,2.86,2.86,0,0,0-2.84-3" transform="translate(-188.39 -97.06)"/><path d="M351.82,176.67l-.71-1.61h-1v2h1v-4h.36a1.27,1.27,0,0,1,1.06,1.13,1.11,1.11,0,0,1-.71,1.11l.71,1.61m-1.42-2.85h-1v1h1c.71-.21.71-.37.71-.84s0-.64-.71-.64m-47.14,22a8.15,8.15,0,0,0,8.21,8.19,8.37,8.37,0,0,0,8.19-8.19,8.48,8.48,0,0,0-8.19-8.18,8.25,8.25,0,0,0-8.21,8.18m7.3,14.11a14.73,14.73,0,0,1-15.08-14.56c0-8.06,6.62-14.39,15.08-14.39a15.41,15.41,0,0,1,8.84,2.52v-2.21h7v28h-7v-1.74a16.55,16.55,0,0,1-8.84,2.38m-40.1-14.11a8.38,8.38,0,0,0,8.21,8.19,8.15,8.15,0,0,0,8.21-8.19,8.25,8.25,0,0,0-8.21-8.18,8.49,8.49,0,0,0-8.21,8.18m16.94-23.53h7v38h-7V208.3a13.22,13.22,0,0,1-8.06,2.41,14.62,14.62,0,1,1,0-29.23,12.45,12.45,0,0,1,8.06,2.55Z" transform="translate(-188.39 -97.06)"/></svg>