<svg id="Layer_1" data-name="Layer 1" xmlns="http://www.w3.org/2000/svg" viewBox="0 0 97 98.28"><defs><style>.cls-1{fill:#3374c1;}.cls-2{fill:#fff;}</style></defs><rect class="cls-1" width="97" height="98.28" rx="16.59"/><path class="cls-2" d="M108.14,95.81c-3.88,0-6.19-2-6.37-4.85h3.72c0,1,.51,2.23,2.83,2.31,1.6,0,2.48-1,2.48-1.68-.18-1.11-1.6-1.19-3-1.44a14,14,0,0,1-3.72-.94,3.86,3.86,0,0,1-1.95-3.43c0-2.55,2.14-4.54,5.85-4.54,3.54,0,5.84,1.83,6,4.62h-3.53c0-.71-.18-1.91-2.31-1.91-1.42,0-2.3.24-2.47,1.27,0,1.44,3,1.36,5.3,1.91,2.13.56,3.55,1.91,3.55,3.83,0,3.5-2.83,4.85-6.38,4.85M38.48,71.91,51,64.62l6.73,11.55H41" transform="translate(-23.5 -18.27)"/><path class="cls-2" d="M32.65,88.68a4.28,4.28,0,0,0,4.18,4.18A4.16,4.16,0,0,0,41,88.73v0a4.21,4.21,0,0,0-4.19-4.17,4.33,4.33,0,0,0-4.18,4.17m4,7.2a7.39,7.39,0,0,1,0-14.77A7.3,7.3,0,0,1,41,82.4V81.27h3.57V95.55H41v-.89a7.35,7.35,0,0,1-4.29,1.22M85.23,76.27,67.77,45.8l12.55-7.36,21.83,37.83M49.39,88.68a4.16,4.16,0,0,0,4.14,4.18h0a4.29,4.29,0,0,0,4.19-4.18,4.34,4.34,0,0,0-4.19-4.17,4.2,4.2,0,0,0-4.18,4.17m4.11,7.71A7.37,7.37,0,0,1,46.17,89v-.09a7.42,7.42,0,0,1,11.61-6.12V76.65h3.57V96H57.78v-.87a7.63,7.63,0,0,1-4.28,1.23m-.26-37.33,12.5-7.14L79.51,76.17H66.45v3.57H62.88V76.17M112.35,80a1.8,1.8,0,1,1,0-3.6h0a1.8,1.8,0,1,1,.19,3.6h-.19m0-3.35a1.56,1.56,0,1,0,1.44,1.66.57.57,0,0,0,0-.13,1.46,1.46,0,0,0-1.39-1.53h-.06" transform="translate(-23.5 -18.27)"/><path class="cls-2" d="M112.82,79l-.36-.82H112v1h.51v-2h.19a.64.64,0,0,1,.54.57.57.57,0,0,1-.37.57l.37.82m-.73-1.45H112v.51h.51c.36-.11.36-.19.36-.43s0-.33-.36-.33m-24,11.22a4.16,4.16,0,0,0,4.14,4.18h0a4.27,4.27,0,0,0,4.18-4.18,4.33,4.33,0,0,0-4.18-4.17,4.21,4.21,0,0,0-4.19,4.17m3.73,7.2a7.52,7.52,0,0,1-7.69-7.33v-.1a7.44,7.44,0,0,1,7.69-7.34,7.82,7.82,0,0,1,4.5,1.29V81.25h3.57V95.53H96.65v-.89a8.48,8.48,0,0,1-4.5,1.22M71.7,88.66a4.28,4.28,0,0,0,4.18,4.18,4.16,4.16,0,0,0,4.19-4.13v0a4.2,4.2,0,0,0-4.19-4.17,4.33,4.33,0,0,0-4.18,4.17m8.64-12h3.57V96H80.34v-.89a6.79,6.79,0,0,1-4.11,1.23,7.46,7.46,0,1,1-.39-14.91h.39a6.35,6.35,0,0,1,4.11,1.3Z" transform="translate(-23.5 -18.27)"/><rect class="cls-2" x="39.38" y="63.01" width="3.49" height="14.64"/></svg>