<svg id="Layer_1" data-name="Layer 1" xmlns="http://www.w3.org/2000/svg" viewBox="0 0 97 98.28"><defs><style>.cls-1{fill:#3374c1;}.cls-2,.cls-3{fill:#fcfcfc;}.cls-2{fill-rule:evenodd;}</style></defs><rect class="cls-1" width="97" height="98.28" rx="16.59"/><path class="cls-2" d="M45.24,73.73l-3.66-7-3,7ZM30.07,81v.48l4.48.14,1.77-3.88,11,0,1.68,4,4.39-.31L41.62,58.6Z" transform="translate(-22.82 -18.69)"/><path class="cls-2" d="M56.84,79.57a7.84,7.84,0,0,0,12.51-2.85c1.11-2.79.76-15.19.54-18.75l-2,.06H66.05v.06h0c0,1.37,0,2.74,0,4.1V73.41c-.22,2.17-1.44,4-4,4.06A11.85,11.85,0,0,1,59,77c-.64-.11-.84.88-2.15,2.63" transform="translate(-22.82 -18.69)"/><path class="cls-2" d="M58.27,79.78l-1.45-.11c.59-1,1.17-2,1.75-3a5,5,0,0,0,2.41.86c-.14.52-.29,1-.42,1.55l-2.28.69" transform="translate(-22.82 -18.69)"/><polygon class="cls-2" points="21.75 47.03 22.42 55.15 18.76 48.11 21.75 47.03"/><path class="cls-2" d="M100.6,58A11.89,11.89,0,1,1,88.71,69.92h0A11.89,11.89,0,0,1,100.6,58m0,4a7.84,7.84,0,1,1-7.83,7.84h0a7.84,7.84,0,0,1,7.83-7.84" transform="translate(-22.82 -18.69)"/><rect class="cls-3" x="55.22" y="39.33" width="3.71" height="23.7"/></svg>