<svg id="Layer_1" data-name="Layer 1" xmlns="http://www.w3.org/2000/svg" viewBox="0 0 288.71 83.54"><defs><style>.cls-1,.cls-2{fill:#435f74;}.cls-1{fill-rule:evenodd;}</style></defs><path class="cls-1" d="M206.24,128.06l-12.83-24.64L183,128.06Zm-53.13,25.43v1.68l15.7.48L175,142.06l38.43.14,5.86,13.89L234.67,155,193.55,75.09Z" transform="translate(-153.11 -72.82)"/><path class="cls-1" d="M246.87,148.53c16.33,14.26,37.71,5.28,43.81-10,3.89-9.75,2.64-53.18,1.88-65.67l-6.83.24h-6.62v.19h0c-.15,4.81-.1,9.61,0,14.36v39.3c-.77,7.59-5.05,13.93-14,14.22-5.86-.1-9.08-1.54-10.72-1.83-2.25-.38-2.93,3.08-7.54,9.23" transform="translate(-153.11 -72.82)"/><path class="cls-1" d="M251.88,149.25c-1.69-.14-3.42-.24-5.1-.38,2.07-3.46,4.09-7,6.15-10.42a17.47,17.47,0,0,0,8.41,3c-.48,1.83-1,3.61-1.44,5.43-2.64.77-5.33,1.59-8,2.4" transform="translate(-153.11 -72.82)"/><polygon class="cls-1" points="50.78 27.2 53.13 55.63 40.31 30.99 50.78 27.2"/><path class="cls-1" d="M400.12,73.07a41.65,41.65,0,1,1-41.65,41.64,41.67,41.67,0,0,1,41.65-41.64m0,14.21a27.43,27.43,0,1,1-27.43,27.43,27.45,27.45,0,0,1,27.43-27.43" transform="translate(-153.11 -72.82)"/><rect class="cls-2" x="168" y="0.24" width="13" height="83"/></svg>