<svg xmlns="http://www.w3.org/2000/svg" viewBox="0 0 60.16 18.28"><defs><style>.cls-1{fill:#f90;}.cls-1,.cls-2{fill-rule:evenodd;}</style></defs><g id="Layer_2" data-name="Layer 2"><g id="Layer_1-2" data-name="Layer 1"><path id="path8" class="cls-1" d="M37.22,14.34a22.87,22.87,0,0,1-12.9,3.94,23.3,23.3,0,0,1-15.74-6c-.33-.3,0-.72.36-.47A31.75,31.75,0,0,0,24.69,16a31.2,31.2,0,0,0,12-2.46c.6-.25,1.09.39.51.82"/><path id="path10" class="cls-1" d="M38.66,12.68c-.45-.57-2.95-.27-4.06-.14-.35.05-.4-.25-.09-.47,2-1.39,5.26-1,5.64-.52s-.1,3.75-2,5.31c-.29.25-.56.12-.43-.2.41-1.05,1.36-3.4.91-4"/><path id="path12" class="cls-2" d="M34.94,2.53V.71a.34.34,0,0,1,.33-.35h5.87c.19.08.35.23.28.42h0V2a1.25,1.25,0,0,1-.39.86L37.87,7.35a6.89,6.89,0,0,1,3.48.72c.2.11.79.54.79.54v1.44a.32.32,0,0,1-.33.33.26.26,0,0,1-.15,0,8.06,8.06,0,0,0-7,0c-.22.12-.46-.11-.46-.31V8.72a1.56,1.56,0,0,1,.24-.94l3.95-5.25H35.06a.35.35,0,0,1-.36-.33v0"/><path id="path14" class="cls-2" d="M12.59,10.45H10.76a.34.34,0,0,1-.33-.31V.71a.35.35,0,0,1,.34-.35h1.49a.34.34,0,0,1,.33.32V1.91h0A2.49,2.49,0,0,1,15.05.16a2.46,2.46,0,0,1,2.42,1.75A2.77,2.77,0,0,1,21,.34a2.69,2.69,0,0,1,1.19.86,4.94,4.94,0,0,1,.47,3v6a.35.35,0,0,1-.35.34H20.52a1.25,1.25,0,0,1-.72-.11v-5a2.47,2.47,0,0,0,.34-1.79,1,1,0,0,0-1.09-.82h0a1.25,1.25,0,0,0-1.11.79,15.51,15.51,0,0,0-.29,1.81v5.05c.11.19-.24.85-.24.85H15.55a2,2,0,0,0-.8-.85v-5c.46-1.06.64-2.62-.68-2.62s-1.48,2.62-1.48,2.62v5.05a.35.35,0,0,1-.35.35"/><path id="path16" class="cls-2" d="M46.75.29C49.5.29,51,2.66,51,5.67s-1.64,5.21-4.24,5.21-4.18-2.37-4.18-5.31S44.06.29,46.75.29m0,2c-1.37,0-1.44,1.86-1.44,3s0,3.66,1.44,3.66,1.5-2,1.5-3.23A9,9,0,0,0,48,3.16a1.17,1.17,0,0,0-1.22-.93"/><path id="path18" class="cls-2" d="M54.4,10.45H52.72s-.33.07-.48-.11V.79a2.2,2.2,0,0,1,.5-.43h1.72c.16.12-.06.38-.06.38V1.81h.43A2.69,2.69,0,0,1,57.36.26a2.44,2.44,0,0,1,2.16,1.12,9,9,0,0,1,.64,3v6a.63.63,0,0,1-.52.1H57.78a.63.63,0,0,1-.5-.1V5.21c.17-1,.29-2.57-1-2.57a1.2,1.2,0,0,0-1.07.72c-.23.57-.82,1.81-.82,1.81V10.3a.37.37,0,0,1-.36.35"/><path id="path28" class="cls-2" d="M29.89,6.13a3.63,3.63,0,0,1-.35,2,1.51,1.51,0,0,1-1.28.84c-.72,0-1.13-.54-1.13-1.34,0-1.59,1.44-1.88,2.76-1.88v.41M32,10.45a.44.44,0,0,1-.48.05A4.67,4.67,0,0,1,30.3,9.24,4.14,4.14,0,0,1,27,10.61,2.8,2.8,0,0,1,23.9,8.14c0-.14,0-.28,0-.41a3.15,3.15,0,0,1,2.17-3,15.28,15.28,0,0,1,3.81-.65V3.81a2.23,2.23,0,0,0-.24-1.34A1.38,1.38,0,0,0,28.53,2,1.56,1.56,0,0,0,26.9,3.08a.41.41,0,0,1-.36.35l-1.95-.2a.33.33,0,0,1-.31-.37v0C24.74.68,26.9,0,28.83,0a4.84,4.84,0,0,1,3.05.93c1,.84.89,2,.89,3.19V7a2.45,2.45,0,0,0,.79,1.72.33.33,0,0,1,0,.5L32,10.45h0"/><path id="path30" class="cls-2" d="M5.38,6.13A3.54,3.54,0,0,1,5,8.1a1.53,1.53,0,0,1-1.29.84C3,8.94,2.62,8.4,2.62,7.6,2.62,6,4.06,5.72,5.38,5.72v.41m2,4.52a.4.4,0,0,1-.44,0A4.53,4.53,0,0,1,5.85,9.44a3.64,3.64,0,0,1-3.06,1.35A2.65,2.65,0,0,1,0,8.31c0-.14,0-.27,0-.4a3.18,3.18,0,0,1,2-3,13.18,13.18,0,0,1,3.39-.63V4a1.65,1.65,0,0,0-.1-1.34,1.25,1.25,0,0,0-1-.48,1.45,1.45,0,0,0-1.5,1.11.38.38,0,0,1-.32.35l-1.8-.2a.34.34,0,0,1-.28-.38h0C.76.88,2.73.2,4.5.2a4.17,4.17,0,0,1,2.79.93c.91.84.82,2,1,3.19V7.2a1.88,1.88,0,0,0,.56,1.72.35.35,0,0,1,0,.5,6.31,6.31,0,0,1-1.44,1h0"/></g></g></svg>