<svg id="Layer_1" data-name="Layer 1" xmlns="http://www.w3.org/2000/svg" viewBox="0 0 97 98.28"><defs><style>.cls-1{fill:#3374c1;}.cls-2{fill:#f90;}.cls-2,.cls-3{fill-rule:evenodd;}.cls-3{fill:#fff;}</style></defs><rect class="cls-1" width="97" height="98.28" rx="16.59"/><path id="path8" class="cls-2" d="M82,77.8c-4.84,3.57-11.85,5.47-17.89,5.47a32.33,32.33,0,0,1-21.84-8.34c-.46-.41,0-1,.49-.65a44,44,0,0,0,21.86,5.8,43.5,43.5,0,0,0,16.68-3.41c.82-.35,1.5.54.7,1.13" transform="translate(-23.5 -18.27)"/><path id="path10" class="cls-2" d="M84,75.5c-.62-.79-4.09-.37-5.64-.19-.48.06-.55-.35-.12-.65,2.76-1.94,7.3-1.38,7.83-.73s-.14,5.2-2.74,7.37c-.4.34-.78.16-.6-.28.58-1.46,1.89-4.72,1.27-5.52" transform="translate(-23.5 -18.27)"/><path id="path12" class="cls-3" d="M78.49,60.92V59a.47.47,0,0,1,.48-.48h8.47a.48.48,0,0,1,.49.48v1.62a2.6,2.6,0,0,1-.64,1.19L82.9,68.11a9.36,9.36,0,0,1,4.83,1,.85.85,0,0,1,.45.74v2a.45.45,0,0,1-.62.43,9.75,9.75,0,0,0-9,0c-.29.16-.6-.16-.6-.43V70a2.35,2.35,0,0,1,.31-1.3l5.09-7.29H79a.47.47,0,0,1-.49-.48" transform="translate(-23.5 -18.27)"/><path id="path14" class="cls-3" d="M47.61,72.73H45a.49.49,0,0,1-.46-.44V59.07a.48.48,0,0,1,.5-.48h2.4a.47.47,0,0,1,.46.44v1.73h0a3.41,3.41,0,0,1,3.39-2.45c1.62,0,2.62.78,3.35,2.45a3.8,3.8,0,0,1,6.54-1c.81,1.11.65,2.73.65,4.14v8.35a.49.49,0,0,1-.49.48H58.83a.5.5,0,0,1-.46-.48v-7a17,17,0,0,0-.07-2.48,1.34,1.34,0,0,0-1.52-1.14,1.72,1.72,0,0,0-1.54,1.09A8.1,8.1,0,0,0,55,65.24v7a.49.49,0,0,1-.49.48H51.94a.49.49,0,0,1-.47-.48v-7c0-1.47.24-3.64-1.59-3.64s-1.78,2.11-1.78,3.64v7a.49.49,0,0,1-.49.48" transform="translate(-23.5 -18.27)"/><path id="path16" class="cls-3" d="M95.22,58.31c3.82,0,5.89,3.29,5.89,7.46S98.83,73,95.22,73s-5.8-3.28-5.8-7.37,2.07-7.32,5.8-7.32m0,2.7c-1.9,0-2,2.59-2,4.2s0,5.07,2,5.07,2.09-2.79,2.09-4.48a12.48,12.48,0,0,0-.38-3.51A1.62,1.62,0,0,0,95.24,61" transform="translate(-23.5 -18.27)"/><path id="path18" class="cls-3" d="M106.07,72.73H103.5a.5.5,0,0,1-.46-.48V59a.48.48,0,0,1,.49-.43h2.39a.49.49,0,0,1,.46.37v2h.05c.72-1.81,1.73-2.67,3.51-2.67a3.4,3.4,0,0,1,3,1.56c.67,1.06.67,2.84.67,4.12v8.32a.5.5,0,0,1-.5.42h-2.58a.5.5,0,0,1-.46-.42V65.13c0-1.45.17-3.56-1.61-3.56a1.69,1.69,0,0,0-1.49,1,5.92,5.92,0,0,0-.41,2.51v7.12a.5.5,0,0,1-.5.48" transform="translate(-23.5 -18.27)"/><path id="path28" class="cls-3" d="M71.74,66.41a5,5,0,0,1-.48,2.73,2.08,2.08,0,0,1-1.78,1.17c-1,0-1.57-.75-1.57-1.86,0-2.2,2-2.6,3.83-2.6v.56m2.6,6.28a.54.54,0,0,1-.61.06A6.39,6.39,0,0,1,72.25,71,5.07,5.07,0,0,1,68,72.91a3.66,3.66,0,0,1-3.86-4,4.37,4.37,0,0,1,2.75-4.21,18.06,18.06,0,0,1,4.84-.89v-.34a3.29,3.29,0,0,0-.31-1.86A1.7,1.7,0,0,0,70,60.92a2,2,0,0,0-2.07,1.54.54.54,0,0,1-.45.48L65,62.67a.46.46,0,0,1-.39-.54c.58-3,3.32-3.94,5.77-3.94a5.84,5.84,0,0,1,3.88,1.28c1.25,1.17,1.13,2.73,1.13,4.43v4a3.52,3.52,0,0,0,1,2.39.5.5,0,0,1,0,.69c-.53.44-1.46,1.25-2,1.71h0" transform="translate(-23.5 -18.27)"/><path id="path30" class="cls-3" d="M38,66.41a5,5,0,0,1-.48,2.73,2.08,2.08,0,0,1-1.78,1.17c-1,0-1.57-.75-1.57-1.86,0-2.2,2-2.6,3.83-2.6v.56m2.6,6.28a.55.55,0,0,1-.61.06A6.22,6.22,0,0,1,38.48,71a5.08,5.08,0,0,1-4.25,1.88,3.66,3.66,0,0,1-3.85-4,4.37,4.37,0,0,1,2.75-4.21A18,18,0,0,1,38,63.79v-.34a3.29,3.29,0,0,0-.31-1.86,1.72,1.72,0,0,0-1.45-.67,2,2,0,0,0-2.07,1.54.54.54,0,0,1-.45.48l-2.5-.27a.46.46,0,0,1-.38-.54c.58-3,3.31-3.94,5.76-3.94a5.82,5.82,0,0,1,3.88,1.28c1.26,1.17,1.14,2.73,1.14,4.43v4a3.52,3.52,0,0,0,1,2.39.5.5,0,0,1,0,.69c-.52.44-1.46,1.25-2,1.71h0" transform="translate(-23.5 -18.27)"/></svg>