<svg id="Layer_1" data-name="Layer 1" xmlns="http://www.w3.org/2000/svg" viewBox="0 0 49.08 63.51"><defs><style>.cls-1{fill:#fff;}</style></defs><path class="cls-1" d="M68.86,18.21H40A5.78,5.78,0,0,0,34.22,24v8.66H40V26.87H68.86V73.06H40V67.28H34.22V76A5.79,5.79,0,0,0,40,81.72H68.86A5.79,5.79,0,0,0,74.63,76V24A5.78,5.78,0,0,0,68.86,18.21ZM45.19,47.08V42.74c0-4-4-7.21-8.09-7.21S29,38.7,29,42.74v4.34a3.73,3.73,0,0,0-3.47,3.46v10.1A3.79,3.79,0,0,0,29,64.4H44.9a3.78,3.78,0,0,0,3.75-3.47V50.83A3.78,3.78,0,0,0,45.19,47.08Zm-3.76,0H32.77V42.74c0-2.3,2-3.75,4.33-3.75s4.33,1.45,4.33,3.75Z" transform="translate(-25.55 -18.21)"/></svg>