<svg id="Layer_1" data-name="Layer 1" xmlns="http://www.w3.org/2000/svg" viewBox="0 0 44.4 48.19"><defs><style>.cls-1{fill:#3374c1;}.cls-2{fill:#fff;}</style></defs><rect class="cls-1" width="44.4" height="48.19" rx="9.05"/><path class="cls-2" d="M47.07,26.59a3.75,3.75,0,0,0-3.45-3.73,14.83,14.83,0,0,0-2.08-4.56,2.81,2.81,0,0,0-3.9-3.9,14.48,14.48,0,0,0-4.56-2.07,3.75,3.75,0,0,0-2.42-3.22.52.52,0,1,0-.36,1,2.71,2.71,0,0,1-.95,5.24h0a2.71,2.71,0,0,1-1-5.24.52.52,0,1,0-.37-1,3.78,3.78,0,0,0-2.42,3.22,14.58,14.58,0,0,0-4.56,2.07,2.8,2.8,0,0,0-3.89,3.9,14.6,14.6,0,0,0-2.08,4.56,3.75,3.75,0,0,0,0,7.47,14.6,14.6,0,0,0,2.08,4.56,2.8,2.8,0,0,0,3.89,3.9,14.58,14.58,0,0,0,4.56,2.07,3.75,3.75,0,0,0,7.47,0,14.48,14.48,0,0,0,4.56-2.07,2.82,2.82,0,0,0,1.59.49,2.76,2.76,0,0,0,2-.82,2.81,2.81,0,0,0,.33-3.57,14.83,14.83,0,0,0,2.08-4.56,3.75,3.75,0,0,0,3.45-3.74ZM40.79,34a2.81,2.81,0,0,0-3.13,0l-1.51-1.5A9.06,9.06,0,0,0,38.46,27h1.16a3.76,3.76,0,0,0,2.94,3.14A13.56,13.56,0,0,1,40.79,34Zm-11,2.88V35.7a9.08,9.08,0,0,0,5.55-2.3l1.51,1.5a2.79,2.79,0,0,0,0,3.13A13.71,13.71,0,0,1,33,39.81a3.73,3.73,0,0,0-3.15-2.94Zm-4.06,3a13.78,13.78,0,0,1-4-1.82,2.92,2.92,0,0,0,0-3.21l1.54-1.54a10,10,0,0,0,1.49,1.09.55.55,0,0,0,.73-.19.53.53,0,0,0-.19-.73,8.75,8.75,0,0,1-1.34-1V32a1,1,0,0,1,.68-.95l2.6-.88a3.69,3.69,0,0,0,4.31,0l2.6.88a1,1,0,0,1,.68.95v.66a8.08,8.08,0,0,1-7.44,1.77.51.51,0,0,0-.63.36.52.52,0,0,0,.36.63,9.75,9.75,0,0,0,1.86.3v1.19a3.85,3.85,0,0,0-3.23,3ZM17.91,34a13.29,13.29,0,0,1-1.77-3.89A3.76,3.76,0,0,0,19.08,27h1.16a9.28,9.28,0,0,0,2.3,5.55L21,34A2.87,2.87,0,0,0,17.91,34ZM21,19.07l1.5,1.5a9.11,9.11,0,0,0-2.3,5.55H19.08A3.35,3.35,0,0,0,16.14,23a12.36,12.36,0,0,1,1.77-3.89,2.47,2.47,0,0,0,3.13,0Zm8.34-.59a8.33,8.33,0,0,1,7,3.85.53.53,0,0,0,.9-.55,9.4,9.4,0,0,0-1-1.27L37.82,19A3,3,0,0,0,41,19a13.94,13.94,0,0,1,1.8,3.92,3.81,3.81,0,0,0-3,3.18H38.64A9.07,9.07,0,0,0,38.26,24a.52.52,0,0,0-.65-.35.53.53,0,0,0-.36.65,8.18,8.18,0,0,1-1.37,7.35,2.08,2.08,0,0,0-1.35-1.51l-2.23-.76a3.07,3.07,0,0,0,.43-1.56V23.53a2.42,2.42,0,0,0-2.42-2.42H28.46A2.42,2.42,0,0,0,26,23.53v4.28a3.07,3.07,0,0,0,.43,1.56l-2.23.76a2.08,2.08,0,0,0-1.35,1.51,8.56,8.56,0,0,1-1.72-5,8.2,8.2,0,0,1,8.21-8.15Zm-2.5,9.19v-2h.6a2.33,2.33,0,0,0,1.81-.94,1.6,1.6,0,0,0,1.36.94h.82v2C31.47,30.38,26.88,30.38,26.88,27.67Zm0-2.8V23.24a.88.88,0,0,1,.88-.88H30.6a.88.88,0,0,1,.87.88v1.63h-.89a.21.21,0,0,1-.18-.1l-.54-.89a.55.55,0,0,0-.85-.1l-.89.9a.66.66,0,0,1-.46.19ZM46,26.59a2.71,2.71,0,1,1-2.71-2.7A2.71,2.71,0,0,1,46,26.59ZM40.48,15.46a1.76,1.76,0,1,1-2.49,0A1.78,1.78,0,0,1,40.48,15.46ZM33,13.39a13.41,13.41,0,0,1,3.89,1.77,2.79,2.79,0,0,0,0,3.13l-1.5,1.49a9,9,0,0,0-5.56-2.29V16.32A3.73,3.73,0,0,0,33,13.39Zm-4,2.93v1.17a9.08,9.08,0,0,0-5.55,2.3l-1.51-1.5a2.85,2.85,0,0,0,0-3.13,13.53,13.53,0,0,1,3.89-1.77A3.73,3.73,0,0,0,29,16.32Zm-10.75-.86a1.76,1.76,0,1,1,0,2.45A1.75,1.75,0,0,1,18.22,15.46ZM12.66,26.59a2.71,2.71,0,1,1,2.71,2.71,2.71,2.71,0,0,1-2.71-2.71Zm5.56,11.14a1.76,1.76,0,0,1,1.24-3,1.76,1.76,0,1,1,0,3.52A1.74,1.74,0,0,1,18.22,37.73Zm11.13,5.55a2.71,2.71,0,0,1-2.71-2.7,2.71,2.71,0,1,1,5.42,0A2.71,2.71,0,0,1,29.35,43.28Zm11.13-5.55a1.76,1.76,0,1,1,0-2.46A1.77,1.77,0,0,1,40.48,37.73Z" transform="translate(-6.52 -2.25)"/></svg>