<svg id="Layer_1" data-name="Layer 1" xmlns="http://www.w3.org/2000/svg" viewBox="0 0 44.4 48.19"><defs><style>.cls-1{fill:#3374c1;}.cls-2{fill:#fff;}</style></defs><rect class="cls-1" width="44.4" height="48.19" rx="9.05"/><path class="cls-2" d="M63.17,41.84a.2.2,0,0,0-.15-.05h-1.1a2.19,2.19,0,0,0-.41-.93H63a.21.21,0,0,0,.21-.21V40a.21.21,0,0,0-.21-.21H57.67a.21.21,0,0,0-.21.21v.85a.21.21,0,0,0,.21.21h.93c.9,0,1.47.24,1.72.72H57.67a.21.21,0,0,0-.21.21v.66a.18.18,0,0,0,.06.14.2.2,0,0,0,.15.06h2.74a1.25,1.25,0,0,1-.66.8,2.81,2.81,0,0,1-1.36.28h-.72a.21.21,0,0,0-.21.21V45a.18.18,0,0,0,.06.14q1.23,1.32,3.2,3.67a.19.19,0,0,0,.16.08h1.25a.2.2,0,0,0,.19-.12.18.18,0,0,0,0-.22q-1.87-2.3-2.95-3.44a3.29,3.29,0,0,0,1.78-.71,2.34,2.34,0,0,0,.82-1.5H63a.2.2,0,0,0,.15-.06.18.18,0,0,0,.06-.14V42A.2.2,0,0,0,63.17,41.84Z" transform="translate(-28.02 -30.15)"/><path class="cls-2" d="M60.34,36.09a8.3,8.3,0,0,0-7.73,5.43H38.25a.6.6,0,0,0-.58.6l-.13,20.3h-4.1a.56.56,0,0,0-.59.55v2.57a4.55,4.55,0,0,0,4.34,4.53H55.05v0l.3,0h0a4.54,4.54,0,0,0,4.54-4.54v-13h.44a8.22,8.22,0,0,0,0-16.44ZM37.41,68.92h0A3.39,3.39,0,0,1,34,65.54v-2H50.78v2a4.54,4.54,0,0,0,1.34,3.21c.06.07.14.11.2.18Zm21.33-3.38a3.38,3.38,0,0,1-3.38,3.38h0a3.4,3.4,0,0,1-3.41-3.39V63a.51.51,0,0,0-.16-.4.51.51,0,0,0-.39-.15H38.69l.14-19.75H52.29a8.7,8.7,0,0,0-.16,1.61,8.19,8.19,0,0,0,.7,3.31H47.36a.58.58,0,0,0,0,1.16h6.1a8.15,8.15,0,0,0,5.28,3.62Zm1.6-14.17a7.06,7.06,0,1,1,7.06-7A7.05,7.05,0,0,1,60.34,51.37Z" transform="translate(-28.02 -30.15)"/><path class="cls-2" d="M43.65,51.44a1.8,1.8,0,1,0,1.85,1.79A1.83,1.83,0,0,0,43.65,51.44Zm0,2.43a.64.64,0,1,1,0-1.27.64.64,0,1,1,0,1.27Z" transform="translate(-28.02 -30.15)"/><path class="cls-2" d="M46.79,53.23a.57.57,0,0,0,.57.58h7.72a.58.58,0,0,0,0-1.16H47.36A.57.57,0,0,0,46.79,53.23Z" transform="translate(-28.02 -30.15)"/><path class="cls-2" d="M43.65,46.41a1.8,1.8,0,1,0,1.85,1.8A1.83,1.83,0,0,0,43.65,46.41Zm0,2.43a.66.66,0,0,1-.69-.63.67.67,0,0,1,.69-.64.68.68,0,0,1,.7.64.67.67,0,0,1-.7.63Z" transform="translate(-28.02 -30.15)"/><path class="cls-2" d="M43.65,56.47a1.8,1.8,0,1,0,1.85,1.79A1.82,1.82,0,0,0,43.65,56.47Zm0,2.43a.67.67,0,0,1-.69-.64.66.66,0,0,1,.69-.63.67.67,0,0,1,.7.63A.68.68,0,0,1,43.65,58.9Z" transform="translate(-28.02 -30.15)"/><path class="cls-2" d="M55.08,57.72H47.36a.56.56,0,0,0-.57.57.57.57,0,0,0,.57.58h7.72a.58.58,0,0,0,.58-.58A.57.57,0,0,0,55.08,57.72Z" transform="translate(-28.02 -30.15)"/></svg>