<svg id="Layer_1" data-name="Layer 1" xmlns="http://www.w3.org/2000/svg" viewBox="0 0 44.4 48.19"><defs><style>.cls-1{fill:#3374c1;}.cls-2{fill:#fff;}</style></defs><rect class="cls-1" width="44.4" height="48.19" rx="9.05"/><path class="cls-2" d="M38.46,37.13h-20a2.63,2.63,0,0,1-2.63-2.63V30.17a2.63,2.63,0,0,1,2.63-2.63H38.46a2.63,2.63,0,0,1,2.63,2.63V34.5A2.63,2.63,0,0,1,38.46,37.13ZM16.93,30.27V34.4A1.58,1.58,0,0,0,18.51,36H38.36a1.58,1.58,0,0,0,1.58-1.58V30.27a1.58,1.58,0,0,0-1.58-1.58H18.51A1.58,1.58,0,0,0,16.93,30.27Z" transform="translate(-5.52 -3.25)"/><path class="cls-2" d="M19.81,39.32a.58.58,0,0,1-.58-.57v-2.3a.58.58,0,0,1,.58-.58.57.57,0,0,1,.57.58v2.3A.57.57,0,0,1,19.81,39.32Z" transform="translate(-5.52 -3.25)"/><path class="cls-2" d="M34.38,29a.58.58,0,0,1-.58-.58V22.63a.58.58,0,0,1,.58-.58.57.57,0,0,1,.57.58v5.75A.57.57,0,0,1,34.38,29Z" transform="translate(-5.52 -3.25)"/><path class="cls-2" d="M37.45,39.32a.58.58,0,0,1-.58-.57v-2.3a.58.58,0,1,1,1.15,0v2.3A.58.58,0,0,1,37.45,39.32Z" transform="translate(-5.52 -3.25)"/><path class="cls-2" d="M36.49,33.92a1.58,1.58,0,1,1,1.58-1.58A1.58,1.58,0,0,1,36.49,33.92Zm0-2.11a.52.52,0,0,0-.52.53.52.52,0,0,0,.52.52.52.52,0,0,0,.53-.52A.53.53,0,0,0,36.49,31.81Z" transform="translate(-5.52 -3.25)"/><path class="cls-2" d="M20.72,33.92a1.58,1.58,0,1,1,1.58-1.58A1.58,1.58,0,0,1,20.72,33.92Zm0-2.11a.53.53,0,0,0-.53.53.53.53,0,0,0,1.06,0A.53.53,0,0,0,20.72,31.81Z" transform="translate(-5.52 -3.25)"/><path class="cls-2" d="M26,33.92a1.58,1.58,0,1,1,1.57-1.58A1.58,1.58,0,0,1,26,33.92Zm0-2.11a.53.53,0,0,0-.53.53.52.52,0,0,0,.53.52.52.52,0,0,0,.52-.52A.52.52,0,0,0,26,31.81Z" transform="translate(-5.52 -3.25)"/><path class="cls-2" d="M37.08,21.76a.53.53,0,0,1-.45-.25,2.62,2.62,0,0,0-4.48,0,.54.54,0,0,1-.72.18.53.53,0,0,1-.19-.72,3.68,3.68,0,0,1,6.29,0,.52.52,0,0,1-.18.72.54.54,0,0,1-.27.07Z" transform="translate(-5.52 -3.25)"/><path class="cls-2" d="M39.34,19.5a.51.51,0,0,1-.41-.2,5.77,5.77,0,0,0-9.08,0,.53.53,0,1,1-.83-.65,6.82,6.82,0,0,1,10.73,0,.53.53,0,0,1-.08.74.59.59,0,0,1-.33.11Z" transform="translate(-5.52 -3.25)"/></svg>