<svg xmlns="http://www.w3.org/2000/svg" viewBox="0 0 44.4 48.19"><defs><style>.cls-1{fill:#1b1464;}.cls-2{fill:#fff;}</style></defs><g id="Layer_2" data-name="Layer 2"><g id="Layer_1-2" data-name="Layer 1"><rect class="cls-1" width="44.4" height="48.19" rx="9.05"/><path class="cls-2" d="M32.94,33.88h-20a2.63,2.63,0,0,1-2.63-2.63V26.92a2.62,2.62,0,0,1,2.63-2.62h20a2.62,2.62,0,0,1,2.62,2.62v4.33A2.62,2.62,0,0,1,32.94,33.88ZM11.41,27v4.13A1.58,1.58,0,0,0,13,32.73H32.84a1.57,1.57,0,0,0,1.57-1.58V27a1.57,1.57,0,0,0-1.57-1.57H13A1.57,1.57,0,0,0,11.41,27Z"/><path class="cls-2" d="M14.29,36.07a.57.57,0,0,1-.58-.57V33.2a.58.58,0,1,1,1.15,0v2.3A.57.57,0,0,1,14.29,36.07Z"/><path class="cls-2" d="M28.86,25.71a.58.58,0,0,1-.58-.58V19.38a.58.58,0,0,1,1.15,0v5.75A.58.58,0,0,1,28.86,25.71Z"/><path class="cls-2" d="M31.92,36.07a.56.56,0,0,1-.57-.57V33.2a.57.57,0,0,1,.57-.58.58.58,0,0,1,.58.58v2.3A.57.57,0,0,1,31.92,36.07Z"/><path class="cls-2" d="M31,30.67a1.58,1.58,0,1,1,1.58-1.58A1.58,1.58,0,0,1,31,30.67Zm0-2.1a.52.52,0,0,0-.53.52.53.53,0,0,0,.53.53.52.52,0,0,0,.52-.53A.52.52,0,0,0,31,28.57Z"/><path class="cls-2" d="M15.2,30.67a1.58,1.58,0,1,1,1.57-1.58A1.58,1.58,0,0,1,15.2,30.67Zm0-2.1a.52.52,0,0,0-.53.52.53.53,0,0,0,.53.53.52.52,0,0,0,.52-.53A.52.52,0,0,0,15.2,28.57Z"/><path class="cls-2" d="M20.45,30.67A1.58,1.58,0,1,1,22,29.09,1.57,1.57,0,0,1,20.45,30.67Zm0-2.1a.52.52,0,0,0-.52.52.53.53,0,1,0,1.05,0A.52.52,0,0,0,20.45,28.57Z"/><path class="cls-2" d="M31.56,18.51a.54.54,0,0,1-.46-.25,2.61,2.61,0,0,0-4.47,0,.53.53,0,0,1-.91-.54,3.68,3.68,0,0,1,6.29,0,.53.53,0,0,1-.18.72.54.54,0,0,1-.27.07Z"/><path class="cls-2" d="M33.82,16.25a.55.55,0,0,1-.42-.2,5.77,5.77,0,0,0-9.07,0,.53.53,0,1,1-.83-.65,6.82,6.82,0,0,1,10.73,0,.53.53,0,0,1-.09.74.48.48,0,0,1-.32.11Z"/></g></g></svg>