<svg id="Layer_1" data-name="Layer 1" xmlns="http://www.w3.org/2000/svg" viewBox="0 0 44.4 48.19"><defs><style>.cls-1{fill:#3374c1;}.cls-2{fill:#fff;}</style></defs><rect class="cls-1" width="44.4" height="48.19" rx="9.05"/><path class="cls-2" d="M42.54,14.32H11.33a.73.73,0,0,0-.73.73v1.18a.52.52,0,0,0,1,0v-.87H42.23V34H30.82V29.3a1,1,0,0,0-1-1H23.51a1,1,0,0,0-1,1V34H11.64V18.35a.36.36,0,0,0-.38-.47.89.89,0,0,0-.66.47V36.07c.18.4.91.55.91.55h3.24v1.25a1.38,1.38,0,0,0,.88,1.32,1.32,1.32,0,0,0,1.71-1.34V36.62h5.19v4.72a1,1,0,0,0,1,1h6.34a1,1,0,0,0,1-1V36.62h5.71v1.25a1.36,1.36,0,0,0,.88,1.32,1.32,1.32,0,0,0,1.71-1.34V36.62h3.42a.73.73,0,0,0,.73-.73V15.05A.73.73,0,0,0,42.54,14.32Zm-18.94,15h6.67s0,0,0,0V33H23.57v-3.6A0,0,0,0,1,23.6,29.36Zm-6.78,8.49a.52.52,0,0,1-1,0V36.62h1ZM11.64,36.1v-1H22.53v1ZM30.2,41.8H23.64c0-.28-.07-.31-.07-.31V39.73h3.62a.52.52,0,0,0,0-1H23.57V34h6.74v4.67H28.89a.52.52,0,0,0,0,1h1.42v1.76C30.23,41.5,30.22,41.52,30.2,41.8Zm7.88-3.95a.52.52,0,0,1-1,0V36.62h1ZM31.34,36.1v-1H42.23v1Z" transform="translate(-4.52 -2.25)"/><path class="cls-2" d="M19.35,16.91H14.82A1.11,1.11,0,0,0,13.71,18v4.53a1.11,1.11,0,0,0,1.11,1.1h4.53a1.1,1.1,0,0,0,1.1-1.1V18A1.11,1.11,0,0,0,19.35,16.91Zm-.09,5.71H14.91a.16.16,0,0,1-.16-.16V18.11a.16.16,0,0,1,.16-.16h4.35a.16.16,0,0,1,.16.16v4.35A.16.16,0,0,1,19.26,22.62Z" transform="translate(-4.52 -2.25)"/><path class="cls-2" d="M39,22.62H37.8a.52.52,0,1,0,0,1h1.25a1.11,1.11,0,0,0,1.11-1.1V18a1.11,1.11,0,0,0-1.11-1.11H22.59A1.11,1.11,0,0,0,21.49,18v4.53a1.1,1.1,0,0,0,1.1,1.1H37.1a.52.52,0,1,0,0-1H22.69a.16.16,0,0,1-.16-.16V18.11a.16.16,0,0,1,.16-.16H39a.16.16,0,0,1,.16.16v4.35A.16.16,0,0,1,39,22.62Z" transform="translate(-4.52 -2.25)"/><path class="cls-2" d="M25.47,32.57a1.42,1.42,0,1,0-1.42-1.42A1.43,1.43,0,0,0,25.47,32.57Zm0-1.89a.47.47,0,1,1-.47.47A.47.47,0,0,1,25.47,30.68Z" transform="translate(-4.52 -2.25)"/><path class="cls-2" d="M25.94,35.06h-1a.52.52,0,0,0,0,1h1a.52.52,0,0,0,0-1Z" transform="translate(-4.52 -2.25)"/><path class="cls-2" d="M27.9,36.1h1a.52.52,0,1,0,0-1h-1a.52.52,0,0,0,0,1Z" transform="translate(-4.52 -2.25)"/><path class="cls-2" d="M25.94,36.62h-1a.52.52,0,1,0,0,1h1a.52.52,0,1,0,0-1Z" transform="translate(-4.52 -2.25)"/><path class="cls-2" d="M29.46,37.14a.52.52,0,0,0-.52-.52h-1a.52.52,0,1,0,0,1h1A.52.52,0,0,0,29.46,37.14Z" transform="translate(-4.52 -2.25)"/><path class="cls-2" d="M19.81,24.69H13.86a.52.52,0,0,0,0,1h5.95a.52.52,0,1,0,0-1Z" transform="translate(-4.52 -2.25)"/><path class="cls-2" d="M19.81,26.77H13.86a.52.52,0,1,0,0,1h5.95a.52.52,0,1,0,0-1Z" transform="translate(-4.52 -2.25)"/><path class="cls-2" d="M19.81,28.84H13.86a.52.52,0,0,0-.52.52.53.53,0,0,0,.52.52h5.95a.52.52,0,0,0,.52-.52A.52.52,0,0,0,19.81,28.84Z" transform="translate(-4.52 -2.25)"/></svg>