<svg xmlns="http://www.w3.org/2000/svg" viewBox="0 0 44.4 48.19"><defs><style>.cls-1{fill:#ed1e79;}.cls-2{fill:#fff;}</style></defs><g id="Layer_2" data-name="Layer 2"><g id="Layer_1-2" data-name="Layer 1"><rect class="cls-1" width="44.4" height="48.19" rx="9.05"/><path class="cls-2" d="M37.81,10.1H6.59a.73.73,0,0,0-.73.72V12a.51.51,0,0,0,.52.48A.5.5,0,0,0,6.9,12v-.87H37.49V29.8H26.09V25.07a1,1,0,0,0-1-1H18.77a1,1,0,0,0-1,1V29.8H6.9V14.13a.36.36,0,0,0-.38-.47c-.26,0-.47.21-.66.47V31.84c.19.4.91.55.91.55H10v1.25A1.39,1.39,0,0,0,10.9,35a1.33,1.33,0,0,0,1.71-1.35V32.39h5.18v4.73a1,1,0,0,0,1,1h6.34a1,1,0,0,0,1-1V32.39h5.7v1.25A1.4,1.4,0,0,0,32.67,35a1.33,1.33,0,0,0,1.71-1.35V32.39h3.43a.72.72,0,0,0,.72-.72V10.82A.72.72,0,0,0,37.81,10.1Zm-19,15h6.68a0,0,0,0,1,0,0v3.6H18.83v-3.6A0,0,0,0,1,18.86,25.13Zm-6.77,8.49a.5.5,0,0,1-.52.47.49.49,0,0,1-.52-.47V32.39h1ZM6.9,31.87v-1H17.79v1Zm18.56,5.71H18.91c0-.29-.08-.32-.08-.32V35.5h3.63a.52.52,0,1,0,0-1H18.83V29.8h6.74v4.67H24.16a.52.52,0,1,0,0,1h1.41v1.76C25.49,37.28,25.48,37.29,25.46,37.58Zm7.89-4a.5.5,0,0,1-.52.47.49.49,0,0,1-.52-.47V32.39h1Zm-6.74-1.75v-1H37.49v1Z"/><path class="cls-2" d="M14.61,12.69H10.08A1.1,1.1,0,0,0,9,13.79v4.54a1.1,1.1,0,0,0,1.1,1.1h4.53a1.11,1.11,0,0,0,1.11-1.1V13.79A1.11,1.11,0,0,0,14.61,12.69Zm-.09,5.7H10.17a.16.16,0,0,1-.16-.16V13.88a.16.16,0,0,1,.16-.15h4.35a.16.16,0,0,1,.16.15v4.35A.16.16,0,0,1,14.52,18.39Z"/><path class="cls-2" d="M34.23,18.39H33.06a.52.52,0,1,0,0,1h1.26a1.1,1.1,0,0,0,1.1-1.1V13.79a1.1,1.1,0,0,0-1.1-1.1H17.86a1.11,1.11,0,0,0-1.11,1.1v4.54a1.11,1.11,0,0,0,1.11,1.1h14.5a.52.52,0,0,0,0-1H18a.16.16,0,0,1-.16-.16V13.88a.16.16,0,0,1,.16-.15H34.23a.15.15,0,0,1,.15.15v4.35A.16.16,0,0,1,34.23,18.39Z"/><path class="cls-2" d="M20.73,28.34a1.42,1.42,0,1,0-1.41-1.42A1.41,1.41,0,0,0,20.73,28.34Zm0-1.89a.48.48,0,1,1-.47.47A.47.47,0,0,1,20.73,26.45Z"/><path class="cls-2" d="M21.21,30.84h-1a.52.52,0,1,0,0,1h1a.52.52,0,0,0,0-1Z"/><path class="cls-2" d="M23.16,31.87h1a.52.52,0,1,0,0-1h-1a.52.52,0,1,0,0,1Z"/><path class="cls-2" d="M21.21,32.39h-1a.52.52,0,1,0,0,1h1a.52.52,0,0,0,0-1Z"/><path class="cls-2" d="M24.72,32.91a.52.52,0,0,0-.52-.52h-1a.52.52,0,0,0,0,1h1A.52.52,0,0,0,24.72,32.91Z"/><path class="cls-2" d="M15.07,20.47H9.13a.52.52,0,1,0,0,1h5.94a.52.52,0,1,0,0-1Z"/><path class="cls-2" d="M15.07,22.54H9.13a.52.52,0,0,0,0,1h5.94a.52.52,0,0,0,0-1Z"/><path class="cls-2" d="M15.07,24.61H9.13a.52.52,0,0,0-.52.52.52.52,0,0,0,.52.52h5.94a.52.52,0,0,0,.52-.52A.52.52,0,0,0,15.07,24.61Z"/></g></g></svg>