<svg id="Layer_1" data-name="Layer 1" xmlns="http://www.w3.org/2000/svg" viewBox="0 0 44.4 48.19"><defs><style>.cls-1{fill:#3374c1;}.cls-2{fill:#fff;}</style></defs><rect class="cls-1" width="44.4" height="48.19" rx="9.05"/><circle class="cls-2" cx="32.09" cy="24.41" r="0.66"/><path class="cls-2" d="M38.11,9.5a.66.66,0,0,0-.48-.2H18.23a.67.67,0,0,0-.48.2.67.67,0,0,0-.19.47V42.66a.65.65,0,0,0,.37.59.63.63,0,0,0,.3.07.7.7,0,0,0,.41-.14l2.2-1.69,1.59,1.63a.67.67,0,0,0,.48.2.66.66,0,0,0,.32-.08l2.17-1.16,2.22,1.16a.71.71,0,0,0,.31.08.69.69,0,0,0,.44-.15l2-1.7,2,1.69a.67.67,0,0,0,.43.16.73.73,0,0,0,.33-.08l2.08-1.15,2.09,1.15a.67.67,0,0,0,.66,0,.65.65,0,0,0,.33-.57v-13a.68.68,0,1,0-1.36,0v11.9l-1.41-.78a.68.68,0,0,0-.65,0l-2,1.1-2.05-1.75a.63.63,0,0,0-.43-.17.67.67,0,0,0-.43.16l-2.13,1.77-2.14-1.12a.7.7,0,0,0-.63,0l-2,1.09L21.4,40.17a.66.66,0,0,0-.89-.07l-1.59,1.23V10.66H37V23.91a.69.69,0,0,0,.45.66.68.68,0,0,0,.91-.64h0V10a.67.67,0,0,0-.2-.48Z" transform="translate(-5.52 -2.25)"/><path class="cls-2" d="M34,23.25H28a.68.68,0,1,0,0,1.36h6a.68.68,0,1,0,0-1.36Z" transform="translate(-5.52 -2.25)"/><path class="cls-2" d="M34,20.53H28a.68.68,0,1,0,0,1.36h6a.68.68,0,1,0,0-1.36Z" transform="translate(-5.52 -2.25)"/><path class="cls-2" d="M34,26H28a.7.7,0,0,0-.66.45.69.69,0,0,0,.64.92h6a.7.7,0,0,0,.66-.45A.69.69,0,0,0,34,26Z" transform="translate(-5.52 -2.25)"/><path class="cls-2" d="M34,18.15H28a.68.68,0,1,0,0,1.36h6a.68.68,0,1,0,0-1.36Z" transform="translate(-5.52 -2.25)"/><path class="cls-2" d="M34,14.75H29.4a.68.68,0,1,0,0,1.36H34a.69.69,0,0,0,.66-.45A.68.68,0,0,0,34,14.75Z" transform="translate(-5.52 -2.25)"/><path class="cls-2" d="M22,16.11h4.53a.68.68,0,1,0,0-1.36H21.94a.68.68,0,0,0-.64.91A.7.7,0,0,0,22,16.11Z" transform="translate(-5.52 -2.25)"/><circle class="cls-2" cx="22.45" cy="35.78" r="0.66"/><path class="cls-2" d="M34,37.2H31a.68.68,0,1,0,0,1.36h3a.68.68,0,1,0,0-1.36Z" transform="translate(-5.52 -2.25)"/><path class="cls-2" d="M22,37.2a.68.68,0,1,0,0,1.36h3a.68.68,0,1,0,0-1.36Z" transform="translate(-5.52 -2.25)"/><path class="cls-2" d="M26.55,34.82H22a.68.68,0,1,0,0,1.36h4.63a.68.68,0,1,0,0-1.36Z" transform="translate(-5.52 -2.25)"/><path class="cls-2" d="M34,34.82H29.47a.68.68,0,1,0,0,1.36H34a.68.68,0,1,0,0-1.36Z" transform="translate(-5.52 -2.25)"/><path class="cls-2" d="M33.91,29.38H22a.66.66,0,0,0-.66.66V32.8a.67.67,0,0,0,.66.66H33.91a.67.67,0,0,0,.66-.66V30A.66.66,0,0,0,33.91,29.38Zm-.7,2.72H22.66V30.74H33.21Z" transform="translate(-5.52 -2.25)"/><path class="cls-2" d="M31,13.38a.68.68,0,0,0,.64-.91A.7.7,0,0,0,31,12H24.93a.7.7,0,0,0-.66.45.68.68,0,0,0,.65.91Z" transform="translate(-5.52 -2.25)"/><path class="cls-2" d="M23.45,27.8a.71.71,0,0,0,1.25-.44v-.64c1.65-.49,2.57-2.66.75-4.5a1.13,1.13,0,0,0-1.1-.31,1.09,1.09,0,0,1-1.07-1.84.62.62,0,0,1,.47-.22H25.6a.39.39,0,0,0,.27-.11.71.71,0,0,0-.44-1.25H24.7v-1a.35.35,0,0,0-.11-.27.71.71,0,0,0-1.25.44v.78c-1.64.48-2.57,2.65-.75,4.49a1.11,1.11,0,0,0,1.1.31,1.1,1.1,0,0,1,1.07,1.85.57.57,0,0,1-.46.21H22.45a.34.34,0,0,0-.27.12.7.7,0,0,0,.44,1.24h.72v.87A.39.39,0,0,0,23.45,27.8Z" transform="translate(-5.52 -2.25)"/></svg>