<svg xmlns="http://www.w3.org/2000/svg" viewBox="0 0 44.4 48.19"><defs><style>.cls-1{fill:#39b54a;}.cls-2{fill:#fff;}</style></defs><g id="Layer_2" data-name="Layer 2"><g id="Layer_1-2" data-name="Layer 1"><rect class="cls-1" width="44.4" height="48.19" rx="9.05"/><circle class="cls-2" cx="32.09" cy="24.41" r="0.66"/><path class="cls-2" d="M32.59,7.25a.72.72,0,0,0-.48-.2H12.7a.68.68,0,0,0-.67.67V40.41a.67.67,0,0,0,.38.6.72.72,0,0,0,.29.06.66.66,0,0,0,.41-.14l2.21-1.69,1.59,1.63a.66.66,0,0,0,.48.2.61.61,0,0,0,.32-.08l2.16-1.16L22.1,41a.67.67,0,0,0,.31.07.66.66,0,0,0,.43-.15l2-1.7,2,1.69a.66.66,0,0,0,.44.16.64.64,0,0,0,.33-.08l2.08-1.15L31.8,41a.67.67,0,0,0,1-.58v-13a.68.68,0,1,0-1.36,0v11.9L30,38.53a.66.66,0,0,0-.64,0l-2,1.11-2.05-1.76a.65.65,0,0,0-.44-.16.64.64,0,0,0-.42.15l-2.13,1.78-2.15-1.13a.65.65,0,0,0-.62,0l-2,1.09-1.65-1.7a.67.67,0,0,0-.89-.06L13.4,39.09V8.41h18V21.66a.68.68,0,1,0,1.36,0h0V7.73a.69.69,0,0,0-.2-.48Z"/><path class="cls-2" d="M28.51,21h-6a.7.7,0,0,0-.66.45.69.69,0,0,0,.64.92h6a.7.7,0,0,0,.66-.45A.69.69,0,0,0,28.51,21Z"/><path class="cls-2" d="M28.51,18.28h-6a.68.68,0,1,0,0,1.36h6a.68.68,0,1,0,0-1.36Z"/><path class="cls-2" d="M28.51,23.73h-6a.68.68,0,1,0,0,1.36h6a.68.68,0,1,0,0-1.36Z"/><path class="cls-2" d="M28.51,15.9h-6a.68.68,0,1,0,0,1.36h6a.68.68,0,1,0,0-1.36Z"/><path class="cls-2" d="M28.49,12.5H23.88a.68.68,0,1,0,0,1.36h4.61a.68.68,0,1,0,0-1.36Z"/><path class="cls-2" d="M16.44,13.86H21a.68.68,0,1,0,0-1.36H16.42a.68.68,0,1,0,0,1.36Z"/><circle class="cls-2" cx="22.45" cy="35.78" r="0.66"/><path class="cls-2" d="M28.47,35h-3a.68.68,0,1,0,0,1.36h3a.68.68,0,1,0,0-1.36Z"/><path class="cls-2" d="M16.44,35a.68.68,0,1,0,0,1.36h3a.68.68,0,1,0,0-1.36Z"/><path class="cls-2" d="M21,32.57H16.44a.7.7,0,0,0-.66.45.68.68,0,0,0,.64.91h4.63a.68.68,0,0,0,.64-.91A.7.7,0,0,0,21,32.57Z"/><path class="cls-2" d="M28.49,32.57H24a.7.7,0,0,0-.66.45.68.68,0,0,0,.64.91h4.54a.68.68,0,1,0,0-1.36Z"/><path class="cls-2" d="M28.38,27.13H16.44a.66.66,0,0,0-.66.66v2.76a.65.65,0,0,0,.66.66H28.38a.66.66,0,0,0,.67-.66V27.79A.67.67,0,0,0,28.38,27.13Zm-.69,2.72H17.14V28.49H27.69Z"/><path class="cls-2" d="M25.52,11.14a.68.68,0,1,0,0-1.36H19.41a.68.68,0,1,0,0,1.36Z"/><path class="cls-2" d="M17.93,25.55a.71.71,0,0,0,1.25-.44v-.64c1.64-.48,2.57-2.66.75-4.5a1.13,1.13,0,0,0-1.1-.31,1.09,1.09,0,0,1-1.07-1.84.58.58,0,0,1,.46-.22h1.85a.36.36,0,0,0,.28-.11.71.71,0,0,0-.44-1.25h-.73v-1a.39.39,0,0,0-.11-.27.71.71,0,0,0-1.25.44v.78c-1.64.48-2.57,2.65-.75,4.5a1.1,1.1,0,0,0,1.1.3,1.1,1.1,0,0,1,1.07,1.85.6.6,0,0,1-.46.22H16.93a.36.36,0,0,0-.28.11.71.71,0,0,0,.44,1.25h.73v.87A.39.39,0,0,0,17.93,25.55Z"/></g></g></svg>