<svg id="Layer_1" data-name="Layer 1" xmlns="http://www.w3.org/2000/svg" viewBox="0 0 65.44 65.44"><defs><style>.cls-1{fill:none;}.cls-2{fill:#fff;}</style></defs><path class="cls-1" d="M17.37,17.24H82.81V82.68H17.37Z" transform="translate(-17.37 -17.24)"/><path class="cls-2" d="M22.83,63.6H77.36v5.45H22.83ZM26,52.55l2.32-4,2.32,4,3.54-2-2.31-4h4.63V42.38H31.83l2.31-4-3.54-2-2.32,4-2.32-4-3.54,2,2.32,4H20.1v4.09h4.64l-2.32,4Zm18.27-2,3.55,2,2.31-4,2.32,4,3.55-2-2.32-4h4.63V42.38H53.64l2.32-4-3.55-2-2.32,4-2.31-4-3.55,2,2.32,4H41.91v4.09h4.64Zm35.86-8.13H75.45l2.32-4-3.55-2-2.31,4-2.32-4-3.55,2,2.32,4H63.73v4.09h4.63l-2.32,4,3.55,2,2.32-4,2.31,4,3.55-2-2.32-4h4.64Z" transform="translate(-17.37 -17.24)"/></svg>