<svg id="Layer_1" data-name="Layer 1" xmlns="http://www.w3.org/2000/svg" viewBox="0 0 44.4 48.19"><defs><style>.cls-1{fill:#3374c1;}.cls-2{fill:#fff;}</style></defs><rect class="cls-1" width="44.4" height="48.19" rx="9.05"/><path class="cls-2" d="M37,32.21h.36a.44.44,0,1,1,0,.87h-.7v1.84A5.77,5.77,0,0,0,39,36.4a6.56,6.56,0,0,0,.71.24V13.19H28.87V37a9.38,9.38,0,0,0,3-.6,5.62,5.62,0,0,0,2.23-1.48V33.08h-.68a.44.44,0,1,1,0-.87h.55a1.39,1.39,0,0,1-.17-.67,1.46,1.46,0,0,1,.5-1.09,1.78,1.78,0,0,1,1.2-.45,1.76,1.76,0,0,1,1.2.45,1.46,1.46,0,0,1,.5,1.09A1.39,1.39,0,0,1,37,32.21Zm.53-9.87a.43.43,0,1,1,.86,0v5.08a.47.47,0,0,1-.47.47H30.64a.47.47,0,0,1-.47-.47V15a.47.47,0,0,1,.47-.48h7.27a.47.47,0,0,1,.47.48v5.15a.43.43,0,1,1-.86,0V15.35H31V27h6.49Zm-11.68,0a.46.46,0,0,1,.43-.48.47.47,0,0,1,.44.48v5.08a.48.48,0,0,1-.48.47H19a.47.47,0,0,1-.47-.47V15a.47.47,0,0,1,.47-.47h7.27a.48.48,0,0,1,.48.48v5.15a.47.47,0,0,1-.44.48.46.46,0,0,1-.43-.48V15.35H19.35V27h6.49V22.34ZM28,13.19H17.19V36.64q.38-.11.72-.24a5.8,5.8,0,0,0,2.31-1.48V33.08h-.7a.44.44,0,1,1,0-.87h.57a1.29,1.29,0,0,1-.18-.67,1.44,1.44,0,0,1,.52-1.09,1.95,1.95,0,0,1,2.49,0,1.44,1.44,0,0,1,.52,1.09,1.29,1.29,0,0,1-.18.67h.57a.44.44,0,1,1,0,.87h-1v2A5.52,5.52,0,0,0,25,36.67a9.11,9.11,0,0,0,3,.65Zm.87,25V40h5.19V36.35a7.24,7.24,0,0,1-1.86,1.12,9.5,9.5,0,0,1-3.33.73ZM28,40V38.2a9.5,9.5,0,0,1-3.33-.73,7.24,7.24,0,0,1-1.86-1.12V40Zm12.54-2.54a9.14,9.14,0,0,0,1.76.16,9.64,9.64,0,0,0,1.52-.12.47.47,0,0,1,.16.93,10.58,10.58,0,0,1-1.68.14,10.19,10.19,0,0,1-1.76-.16v2.41a.47.47,0,0,1-.47.47H36.65v2.56a.47.47,0,0,1-.47.47H34.53a.47.47,0,0,1-.47-.47V41.29H22.81v2.56a.47.47,0,0,1-.47.47H20.69a.47.47,0,0,1-.47-.47V41.29H16.8a.47.47,0,0,1-.47-.47V38.41a10.1,10.1,0,0,1-1.76.16,10.58,10.58,0,0,1-1.68-.14.48.48,0,0,1-.38-.54.47.47,0,0,1,.54-.39,9.64,9.64,0,0,0,1.52.12,9.14,9.14,0,0,0,1.76-.16V12.79a.47.47,0,0,1,.47-.47H40.07a.47.47,0,0,1,.47.47V37.46Zm-.86.38a8.44,8.44,0,0,1-3-1.49V40h3ZM20.22,40V36.35a7.53,7.53,0,0,1-1.93,1.12,7.47,7.47,0,0,1-1.1.37V40ZM36,30.92a.73.73,0,0,0-.52-.22A.74.74,0,0,0,34.93,32a.71.71,0,0,0,.52.22A.69.69,0,0,0,36,32a.72.72,0,0,0,0-1Zm-14,0a.74.74,0,0,0-1.05,0,.75.75,0,0,0,0,1A.74.74,0,0,0,22,32a.75.75,0,0,0,0-1Zm9,.16a.43.43,0,0,1-.86,0V29.2a.43.43,0,1,1,.86,0Zm-4.32,0a.44.44,0,0,1-.44.43.43.43,0,0,1-.43-.43V29.2a.43.43,0,0,1,.43-.43.44.44,0,0,1,.44.43Zm9.08,2h-.87V43.46h.87ZM22,33.08h-.87V43.46H22Z" transform="translate(-5.52 -3.25)"/></svg>