<svg xmlns="http://www.w3.org/2000/svg" viewBox="0 0 44.4 48.19"><defs><style>.cls-1{fill:#009245;}.cls-2{fill:#fff;}</style></defs><g id="Layer_2" data-name="Layer 2"><g id="Layer_1-2" data-name="Layer 1"><rect class="cls-1" width="44.4" height="48.19" rx="9.05"/><path class="cls-2" d="M8.93,39.6a1.22,1.22,0,0,1-.8-1.25c0-1.22.48-1.58,1.51-1.48a1,1,0,0,0,1.08-.55c1.35-2.06,2.75-4.1,4.13-6.13a.47.47,0,0,0,.06-.52,3.55,3.55,0,0,1,.42-3.75.35.35,0,0,0,.05-.41,14.71,14.71,0,0,1-1.33-9,19,19,0,0,1,1-3.86,1.67,1.67,0,0,0,0-.39,0,0,0,0,0,0,0c-.16-.61.33-1.08,1-1.58.4-.3.88-.17,1.3.27a1,1,0,0,0,.64.3l6.63.84,6.14.78c0-.08,0-.15.05-.22s.24-.37.44-.3.4-.07.56-.22c.64-.64,1.26-1.3,1.92-1.92a1.74,1.74,0,0,1,2.9.84,1.68,1.68,0,0,1-.48,1.68c-.66.66-1.31,1.32-2,2a.31.31,0,0,0-.12.39c.09.27-.09.46-.52.56.08.6.15,1.19.22,1.79.27,2.09.53,4.17.8,6.26.2,1.61.41,3.23.62,4.84a.89.89,0,0,0,.23.44c.62.65.63,1.14,0,1.76-.12.13-.25.25-.38.37a1,1,0,0,1-.86.25,1.33,1.33,0,0,0-.53.05,17.72,17.72,0,0,1-7,1.17A13.76,13.76,0,0,1,20.92,31a.42.42,0,0,0-.49,0c-.42.26-.88.48-1.38.75V33.4a.43.43,0,0,1-.34.48c-.29.08-.53-.13-.54-.48V31.83a3.83,3.83,0,0,1-2.6-1.15l-4.16,6.16h6.76V35.58a.44.44,0,0,1,.3-.48.43.43,0,0,1,.58.44c0,.42,0,.85,0,1.33h.41a1,1,0,0,1,1.1,1.1,2.8,2.8,0,0,0,0,.29,1.22,1.22,0,0,1-.75,1.34Zm24.26-9L15.81,13.2l-.06.14A15.46,15.46,0,0,0,15,21.93a11.74,11.74,0,0,0,7.58,8.89,13.56,13.56,0,0,0,6.47.74A16.64,16.64,0,0,0,33.19,30.58ZM22.56,16l-.08.1a1.78,1.78,0,0,1,.27.17q1.52,1.5,3,3a1.58,1.58,0,0,1,.22.23.43.43,0,0,1-.59.61,1.3,1.3,0,0,1-.22-.19Q21.09,15.78,17,11.68c-.45-.45-.32-.44-.78,0-.29.28-.29.28,0,.56L34,30.08c.46.46.34.46.81,0,.28-.28.28-.28,0-.57q-3.86-3.87-7.73-7.73c-.09-.1-.2-.19-.28-.29a.43.43,0,0,1,0-.63.45.45,0,0,1,.61,0,1.37,1.37,0,0,1,.17.17l2.63,2.62.24.22.07-.26,1.89-8c.07-.31.25-.66.17-.93s-.43-.48-.65-.73a.39.39,0,0,0-.42-.11c-2.37.57-4.75,1.12-7.13,1.68ZM29,13.51v0l-10.25-1.3c.95,1,1.92,2,2.9,3a.4.4,0,0,0,.31,0L26.85,14Zm3.9,3.87h-.06c-.56,2.36-1.11,4.71-1.66,7.07a.42.42,0,0,0,.11.32L34,27.46a2.15,2.15,0,0,0,.24.21ZM14.35,38.72h4.79c.56,0,.54.08.54-.53,0-.45,0-.45-.46-.45H9.63c-.69,0-.58-.07-.61.61,0,.31.09.38.38.37ZM16,26.56a2.76,2.76,0,0,0,3.84,3.85A12.82,12.82,0,0,1,16,26.56Zm17.51-14.9,1.25,1.24c.28-.28.59-.59.89-.91a.87.87,0,0,0-1.23-1.22C34.07,11.07,33.76,11.39,33.48,11.66Zm-.67.71-.58.58,1.16,1.16.63-.53Z"/></g></g></svg>