<svg id="Layer_1" data-name="Layer 1" xmlns="http://www.w3.org/2000/svg" viewBox="0 0 44.4 48.19"><defs><style>.cls-1{fill:#3374c1;}.cls-2{fill:#fff;}</style></defs><rect class="cls-1" width="44.4" height="48.19" rx="9.05"/><g id="gradient"><path class="cls-2" d="M65.28,42.16H35.13a1.52,1.52,0,0,0-1.52,1.52V62.77a1.52,1.52,0,0,0,1.52,1.52h9.75l-1.25,2.52a.55.55,0,0,0,.24.74.54.54,0,0,0,.25.06h2.21a.57.57,0,0,0,.5-.31l.4-.8h6l.4.8a.57.57,0,0,0,.5.31h2.21a.55.55,0,0,0,.55-.56.5.5,0,0,0-.06-.24l-1.25-2.52h9.75a1.52,1.52,0,0,0,1.52-1.52V43.68A1.52,1.52,0,0,0,65.28,42.16ZM54.42,66.5l-.4-.8a.55.55,0,0,0-.5-.3H46.89a.56.56,0,0,0-.5.3l-.4.8H45l1.1-2.21h8.17l1.1,2.21Zm11.27-3.73a.41.41,0,0,1-.41.41H35.13a.41.41,0,0,1-.41-.41V43.68a.41.41,0,0,1,.41-.41H65.28a.41.41,0,0,1,.41.41ZM50.21,54.33A1.66,1.66,0,1,0,51.86,56,1.66,1.66,0,0,0,50.21,54.33Zm0,2.21a.55.55,0,0,1-.56-.55.56.56,0,0,1,1.11,0A.55.55,0,0,1,50.21,56.54ZM44.1,51.19a.55.55,0,0,1,0-.78,8.3,8.3,0,0,1,11.72-.56c.19.18.38.37.55.56a.55.55,0,0,1,0,.78.54.54,0,0,1-.78,0,7.2,7.2,0,0,0-10.16-.48c-.17.15-.33.32-.49.48A.54.54,0,0,1,44.1,51.19Zm9,2.2a.54.54,0,0,1,0,.78.55.55,0,0,1-.78,0A2.77,2.77,0,0,0,48.34,54c-.06,0-.12.12-.18.18a.55.55,0,0,1-.82-.74,3.86,3.86,0,0,1,5.47-.26,3.19,3.19,0,0,1,.26.26Zm1.64-1.49a.55.55,0,0,1,0,.78.54.54,0,0,1-.78,0h0a5,5,0,0,0-7-.33c-.12.1-.23.22-.34.33a.54.54,0,0,1-.78,0,.55.55,0,0,1,0-.78h0a6.09,6.09,0,0,1,8.6-.41C54.44,51.62,54.58,51.76,54.71,51.9ZM64,44.37H36.38a.56.56,0,0,0-.56.56V61.52a.56.56,0,0,0,.56.56H64a.56.56,0,0,0,.56-.56V44.93a.56.56,0,0,0-.56-.56ZM63.48,61H36.93V45.48H63.48Z" transform="translate(-28.02 -30.15)"/></g></svg>