<svg id="Layer_1" data-name="Layer 1" xmlns="http://www.w3.org/2000/svg" xmlns:xlink="http://www.w3.org/1999/xlink" viewBox="0 0 47.85 50.67"><defs><style>.cls-1{fill:url(#linear-gradient);}.cls-2{fill:url(#linear-gradient-2);}.cls-3{fill:url(#linear-gradient-3);}.cls-4{fill:url(#linear-gradient-4);}.cls-5{fill:url(#linear-gradient-5);}.cls-6{fill:url(#linear-gradient-6);}</style><linearGradient id="linear-gradient" x1="56.36" y1="81.07" x2="63.88" y2="81.07" gradientUnits="userSpaceOnUse"><stop offset="0" stop-color="#37a9e5"/><stop offset="1" stop-color="#3d53b9"/></linearGradient><linearGradient id="linear-gradient-2" x1="49.18" y1="71.68" x2="71.44" y2="71.68" xlink:href="#linear-gradient"/><linearGradient id="linear-gradient-3" x1="33.64" y1="76.23" x2="40.23" y2="76.23" xlink:href="#linear-gradient"/><linearGradient id="linear-gradient-4" x1="42.43" y1="75.18" x2="49.02" y2="75.18" xlink:href="#linear-gradient"/><linearGradient id="linear-gradient-5" x1="24.85" y1="80.94" x2="31.44" y2="80.94" xlink:href="#linear-gradient"/><linearGradient id="linear-gradient-6" x1="23.59" y1="55.15" x2="66.62" y2="55.15" xlink:href="#linear-gradient"/></defs><path class="cls-1" d="M63.8,77.85a.26.26,0,0,0-.19-.08H62.18a3.1,3.1,0,0,0-.54-1.21h2a.27.27,0,0,0,.2-.07.26.26,0,0,0,.07-.19v-.86a.25.25,0,0,0-.07-.19.28.28,0,0,0-.2-.08h-7a.28.28,0,0,0-.2.08.25.25,0,0,0-.07.19v1.12a.22.22,0,0,0,.08.18.22.22,0,0,0,.19.08h1.21c1.18,0,1.93.32,2.24,1H56.63a.28.28,0,0,0-.2.08.25.25,0,0,0-.07.19v.85a.29.29,0,0,0,.07.2.27.27,0,0,0,.2.07H60.2a1.63,1.63,0,0,1-.86,1,3.78,3.78,0,0,1-1.78.36h-.93a.27.27,0,0,0-.27.27V81.9a.24.24,0,0,0,.07.18c1.07,1.14,2.47,2.74,4.17,4.79a.27.27,0,0,0,.21.1h1.64a.25.25,0,0,0,.24-.15.26.26,0,0,0,0-.29C61,84.53,59.74,83,58.81,82a4.24,4.24,0,0,0,2.31-.92,3.15,3.15,0,0,0,1.08-2h1.41a.25.25,0,0,0,.19-.07.28.28,0,0,0,.08-.2V78A.26.26,0,0,0,63.8,77.85Z" transform="translate(-23.59 -39.53)"/><path class="cls-2" d="M66.6,72V54.14a1,1,0,0,0-1-1H61.15A1.12,1.12,0,0,0,60,54.25v16a12.46,12.46,0,0,0-2.2.25V59.4a1,1,0,0,0-1.05-1h-4.4a1,1,0,0,0-1.14,1v15a9.25,9.25,0,0,0-2,5.79c0,5.52,5,10,11.13,10s11.13-4.48,11.13-10A9.74,9.74,0,0,0,66.6,72ZM62.21,55.26h2.2V71.71a10.42,10.42,0,0,0-2.2-.55ZM53.42,60.5h2.2V71.74A11.73,11.73,0,0,0,53.42,73ZM67.51,85.67A8.87,8.87,0,0,1,60,89.77a8.57,8.57,0,0,1-8.75-8.36,8.37,8.37,0,0,1,5.41-7.72,1.08,1.08,0,0,0,.37-.13,8.9,8.9,0,0,1,3-.51c.23,0,.45,0,.68,0h0a8.91,8.91,0,0,1,3.76,1.14A8.14,8.14,0,0,1,67.51,85.67Z" transform="translate(-23.59 -39.53)"/><path class="cls-3" d="M39.13,66.79H34.75a1.08,1.08,0,0,0-1.11,1.06V84.61a1.08,1.08,0,0,0,1.11,1h4.38a1.07,1.07,0,0,0,1.1-1V67.85A1.08,1.08,0,0,0,39.13,66.79ZM38,83.57h-2.2V68.89H38Z" transform="translate(-23.59 -39.53)"/><path class="cls-4" d="M47.92,64.69H43.54a1.09,1.09,0,0,0-1.11,1.06V84.61a1.08,1.08,0,0,0,1.11,1h4.38a1.07,1.07,0,0,0,1.1-1V65.75A1.08,1.08,0,0,0,47.92,64.69ZM46.83,83.57h-2.2V66.79h2.2Z" transform="translate(-23.59 -39.53)"/><path class="cls-5" d="M30.34,76.23H26a1.08,1.08,0,0,0-1.11,1v7.33a1.08,1.08,0,0,0,1.11,1h4.38a1.07,1.07,0,0,0,1.1-1V77.28A1.07,1.07,0,0,0,30.34,76.23Zm-1.09,7.34h-2.2V78.32h2.2Z" transform="translate(-23.59 -39.53)"/><path class="cls-6" d="M66.62,40.59a1.1,1.1,0,0,0-1.12-1.06H58a1,1,0,1,0,0,2.08h4.91l-12,11.28L46.68,49a1.1,1.1,0,0,0-.78-.27,1.08,1.08,0,0,0-.78.27L23.91,69a1,1,0,0,0,0,1.46,1.13,1.13,0,0,0,.79.3,1.1,1.1,0,0,0,.78-.3l20.43-19.3,4.19,4a1.14,1.14,0,0,0,.78.33,1.23,1.23,0,0,0,.78-.33l12.75-12v4.64a1.1,1.1,0,0,0,2.2,0Z" transform="translate(-23.59 -39.53)"/></svg>