<svg xmlns="http://www.w3.org/2000/svg" viewBox="0 0 44.4 48.19"><defs><style>.cls-1{fill:#29abe2;}.cls-2{fill:#fff;}</style></defs><g id="Layer_2" data-name="Layer 2"><g id="Layer_1-2" data-name="Layer 1"><rect class="cls-1" width="44.4" height="48.19" rx="9.05"/><path class="cls-2" d="M33.24,22H27.19V19.35l5-2.16a.68.68,0,0,0,0-1.24l-9.49-4.11a.62.62,0,0,0-.53,0L12.66,16a.68.68,0,0,0,0,1.24l5,2.15V22h-6a.67.67,0,0,0-.68.67V34.23a.67.67,0,0,0,.68.67H33.24a.67.67,0,0,0,.67-.67V22.65A.67.67,0,0,0,33.24,22ZM14.63,16.7l7.78-3.42L30.2,16.7l-3,1.32v-.66a.68.68,0,0,0-.37-.61,10.58,10.58,0,0,0-4.4-.76,10.49,10.49,0,0,0-4.41.76.69.69,0,0,0-.38.61V18Zm11,5.28H18.92V17.73a12.44,12.44,0,0,1,6.74,0V22ZM12.2,23.53h2.63a2.58,2.58,0,0,1-2.58,2.58H12.2Zm0,10.08V31h.05a2.59,2.59,0,0,1,2.58,2.59Zm20.16,0h-2.6A2.59,2.59,0,0,1,32.35,31h0Zm.26-4.14h0a4.11,4.11,0,0,0-4.07,4.14H16.32a4.11,4.11,0,0,0-4.07-4.14H12.2V27.41h.05a4.11,4.11,0,0,0,4.07-4.14H28.54a4.11,4.11,0,0,0,4.07,4.14h0Zm-.26-3.36h0a2.58,2.58,0,0,1-2.59-2.58h2.6Z"/><path class="cls-2" d="M22.31,25.8A2.7,2.7,0,1,0,25,28.5,2.7,2.7,0,0,0,22.31,25.8Zm0,4.05a1.35,1.35,0,1,1,1.34-1.35A1.35,1.35,0,0,1,22.31,29.85Z"/><path class="cls-2" d="M17.56,27.92H16.32a.68.68,0,0,0-.69.59.64.64,0,0,0,.64.71h1.25a.68.68,0,0,0,.69-.59A.65.65,0,0,0,17.56,27.92Z"/><path class="cls-2" d="M28.34,27.92H27.1a.68.68,0,0,0-.69.59.65.65,0,0,0,.64.71H28.3a.68.68,0,0,0,.69-.59A.65.65,0,0,0,28.34,27.92Z"/></g></g></svg>