<svg id="Layer_1" data-name="Layer 1" xmlns="http://www.w3.org/2000/svg" viewBox="0 0 44.4 48.19"><defs><style>.cls-1{fill:#3374c1;}.cls-2{fill:#fff;}</style></defs><rect class="cls-1" width="44.4" height="48.19" rx="9.05"/><path class="cls-2" d="M38.76,25.23h-6V22.59l5-2.15a.68.68,0,0,0,0-1.24L28.2,15.08a.7.7,0,0,0-.53,0L18.18,19.2a.68.68,0,0,0,0,1.24l5,2.15v2.64h-6a.67.67,0,0,0-.67.67V37.47a.67.67,0,0,0,.67.68H38.76a.68.68,0,0,0,.68-.68V25.9A.68.68,0,0,0,38.76,25.23ZM20.15,20l7.79-3.42L35.72,20l-3,1.32v-.66a.68.68,0,0,0-.38-.61,10.52,10.52,0,0,0-4.4-.76,10.49,10.49,0,0,0-4.41.76.68.68,0,0,0-.38.61v.66Zm11,5.28H24.45V21a12.35,12.35,0,0,1,6.74,0v4.25ZM17.73,26.78h2.63a2.59,2.59,0,0,1-2.59,2.58h0Zm0,10.08V34.27h0a2.59,2.59,0,0,1,2.59,2.59Zm20.16,0h-2.6a2.59,2.59,0,0,1,2.58-2.59h0Zm.25-4.14h0a4.11,4.11,0,0,0-4.07,4.14H21.84a4.11,4.11,0,0,0-4.07-4.14h0V30.65h0a4.11,4.11,0,0,0,4.07-4.13H34.06a4.11,4.11,0,0,0,4.07,4.13h0Zm-.25-3.36h0a2.59,2.59,0,0,1-2.58-2.58h2.6Z" transform="translate(-5.52 -3.25)"/><path class="cls-2" d="M27.83,29.05a2.7,2.7,0,1,0,2.69,2.7A2.7,2.7,0,0,0,27.83,29.05Zm0,4a1.35,1.35,0,1,1,1.35-1.34A1.35,1.35,0,0,1,27.83,33.09Z" transform="translate(-5.52 -3.25)"/><path class="cls-2" d="M23.08,31.17H21.84a.68.68,0,0,0-.69.59.65.65,0,0,0,.64.7H23a.68.68,0,0,0,.69-.58A.65.65,0,0,0,23.08,31.17Z" transform="translate(-5.52 -3.25)"/><path class="cls-2" d="M33.87,31.17H32.62a.68.68,0,0,0-.69.59.65.65,0,0,0,.64.7h1.25a.68.68,0,0,0,.69-.58A.65.65,0,0,0,33.87,31.17Z" transform="translate(-5.52 -3.25)"/></svg>