<svg id="Layer_1" data-name="Layer 1" xmlns="http://www.w3.org/2000/svg" viewBox="0 0 44.4 48.19"><defs><style>.cls-1{fill:#3374c1;}.cls-2{fill:#fff;}</style></defs><rect class="cls-1" width="44.4" height="48.19" rx="9.05"/><path class="cls-2" d="M52.14,71.11h-4.2a2.27,2.27,0,0,1-2.1-2.52V65.65A4.86,4.86,0,0,0,44,62a9.68,9.68,0,0,1-3.78-7.84,10,10,0,0,1,9.66-9.66,9.84,9.84,0,0,1,7,2.8,10,10,0,0,1,2.94,7,9.42,9.42,0,0,1-3.64,7.56,5.11,5.11,0,0,0-2,3.92V69a2.15,2.15,0,0,1-2.1,2.1ZM50,45.91a8.59,8.59,0,0,0-8.4,8.26,8.23,8.23,0,0,0,3.22,6.72,6.1,6.1,0,0,1,2.38,4.76v2.94c0,.28,0,1.12.7,1.12h4.2a.66.66,0,0,0,.7-.7V65.79a6.8,6.8,0,0,1,2.52-5,8.16,8.16,0,0,0,3.08-6.44,8.37,8.37,0,0,0-2.52-6A8.25,8.25,0,0,0,50,45.91Z" transform="translate(-28.02 -30.15)"/><path class="cls-2" d="M53.54,66.91h-7a.7.7,0,0,1,0-1.4h7a.7.7,0,1,1,0,1.4Z" transform="translate(-28.02 -30.15)"/><path class="cls-2" d="M50,41.71a.66.66,0,0,1-.7-.7v-2.8a.7.7,0,1,1,1.4,0V41A.66.66,0,0,1,50,41.71Z" transform="translate(-28.02 -30.15)"/><path class="cls-2" d="M59.42,45.63a.84.84,0,0,1-.56-.14.68.68,0,0,1,0-1l2-2a.69.69,0,1,1,1,1l-2,2a1.41,1.41,0,0,1-.42.14Z" transform="translate(-28.02 -30.15)"/><path class="cls-2" d="M66.14,55h-2.8a.7.7,0,1,1,0-1.4h2.8a.7.7,0,0,1,0,1.4Z" transform="translate(-28.02 -30.15)"/><path class="cls-2" d="M61.38,66.35a.84.84,0,0,1-.56-.14l-2-2a.69.69,0,0,1,1-1l2,2a.68.68,0,0,1,0,1c0,.14-.14.14-.42.14Z" transform="translate(-28.02 -30.15)"/><path class="cls-2" d="M38.7,66.35a.84.84,0,0,1-.56-.14.68.68,0,0,1,0-1l2-2a.69.69,0,0,1,1,1l-2,2A.51.51,0,0,1,38.7,66.35Z" transform="translate(-28.02 -30.15)"/><path class="cls-2" d="M36.74,55h-2.8a.7.7,0,0,1,0-1.4h2.8a.7.7,0,1,1,0,1.4Z" transform="translate(-28.02 -30.15)"/><path class="cls-2" d="M40.66,45.63a.84.84,0,0,1-.56-.14l-2-2.1a.69.69,0,1,1,1-1l2,2a.68.68,0,0,1,0,1c-.14.14-.28.28-.42.28Z" transform="translate(-28.02 -30.15)"/><path class="cls-2" d="M55.64,55a.66.66,0,0,1-.7-.7,5,5,0,0,0-4.9-4.9A.7.7,0,0,1,50,48a6.27,6.27,0,0,1,6.3,6.3A.66.66,0,0,1,55.64,55Z" transform="translate(-28.02 -30.15)"/></svg>