<svg xmlns="http://www.w3.org/2000/svg" viewBox="0 0 44.4 48.19"><defs><style>.cls-1{fill:#fbb03b;}.cls-2{fill:#fff;}</style></defs><g id="Layer_2" data-name="Layer 2"><g id="Layer_1-2" data-name="Layer 1"><rect class="cls-1" width="44.4" height="48.19" rx="9.05"/><path class="cls-2" d="M24.12,41h-4.2a2.27,2.27,0,0,1-2.1-2.52V35.5A4.86,4.86,0,0,0,16,31.86,9.68,9.68,0,0,1,12.22,24a10,10,0,0,1,9.66-9.66,9.84,9.84,0,0,1,7,2.8,10,10,0,0,1,2.94,7,9.42,9.42,0,0,1-3.64,7.56,5.11,5.11,0,0,0-2,3.92v3.22a2.15,2.15,0,0,1-2.1,2.1ZM22,15.76A8.59,8.59,0,0,0,13.62,24a8.23,8.23,0,0,0,3.22,6.72,6.1,6.1,0,0,1,2.38,4.76v2.94c0,.28,0,1.12.7,1.12h4.2a.66.66,0,0,0,.7-.7V35.64a6.8,6.8,0,0,1,2.52-5,8.16,8.16,0,0,0,3.08-6.44,8.37,8.37,0,0,0-2.52-6A8.25,8.25,0,0,0,22,15.76Z"/><path class="cls-2" d="M25.52,36.76h-7a.7.7,0,1,1,0-1.4h7a.7.7,0,1,1,0,1.4Z"/><path class="cls-2" d="M22,11.56a.66.66,0,0,1-.7-.7V8.06a.7.7,0,1,1,1.4,0v2.8A.66.66,0,0,1,22,11.56Z"/><path class="cls-2" d="M31.4,15.48a.84.84,0,0,1-.56-.14.68.68,0,0,1,0-1l2-2a.69.69,0,0,1,1,1l-2,2a1.41,1.41,0,0,1-.42.14Z"/><path class="cls-2" d="M38.12,24.86h-2.8a.7.7,0,1,1,0-1.4h2.8a.7.7,0,0,1,0,1.4Z"/><path class="cls-2" d="M33.36,36.2a.84.84,0,0,1-.56-.14l-2-2a.69.69,0,1,1,1-1l2,2a.68.68,0,0,1,0,1c0,.14-.14.14-.42.14Z"/><path class="cls-2" d="M10.68,36.2a.84.84,0,0,1-.56-.14.68.68,0,0,1,0-1l2-2a.69.69,0,0,1,1,1l-2,2A.51.51,0,0,1,10.68,36.2Z"/><path class="cls-2" d="M8.72,24.86H5.92a.7.7,0,0,1,0-1.4h2.8a.7.7,0,1,1,0,1.4Z"/><path class="cls-2" d="M12.64,15.48a.84.84,0,0,1-.56-.14l-2-2.1a.69.69,0,0,1,1-1l2,2a.68.68,0,0,1,0,1c-.14.14-.28.28-.42.28Z"/><path class="cls-2" d="M27.62,24.86a.66.66,0,0,1-.7-.7,5,5,0,0,0-4.9-4.9.7.7,0,0,1,0-1.4,6.27,6.27,0,0,1,6.3,6.3A.66.66,0,0,1,27.62,24.86Z"/></g></g></svg>