<svg id="Layer_1" data-name="Layer 1" xmlns="http://www.w3.org/2000/svg" viewBox="0 0 51.59 51.59"><defs><style>.cls-1{fill:#F2A408;}</style></defs><path class="cls-1" d="M51.26,64.46a20,20,0,1,0-5,0V49.61h-5v-5h5V40.34c0-3.44.37-4.7,1.07-6a7.14,7.14,0,0,1,3-2.93,11,11,0,0,1,4.49-1,17.64,17.64,0,0,1,3.41.21v4.93h-1.4c-2.57,0-3.63.11-4.26.42a2,2,0,0,0-.88.81c-.34.59-.46,1.16-.46,3.53v4.24h6.25l-1.25,5h-5Zm-2,6A25.8,25.8,0,1,1,75,44.69,25.8,25.8,0,0,1,49.22,70.48Z" transform="translate(-23.42 -18.89)"/></svg>