<svg id="Layer_1" data-name="Layer 1" xmlns="http://www.w3.org/2000/svg" viewBox="0 0 44.4 48.19"><defs><style>.cls-1{fill:#3374c1;}.cls-2{fill:#fff;}</style></defs><rect class="cls-1" width="44.4" height="48.19" rx="9.05"/><path class="cls-2" d="M40.79,20.31H15.43A1.33,1.33,0,0,1,14.1,19V14.63a1.33,1.33,0,0,1,1.33-1.32H40.79a1.33,1.33,0,0,1,1.33,1.32V19A1.32,1.32,0,0,1,40.79,20.31ZM15.32,14.36a.51.51,0,0,0-.52.5v4.25a.51.51,0,0,0,.52.5H40.55a.51.51,0,0,0,.52-.5h0V14.86a.51.51,0,0,0-.52-.5Z" transform="translate(-4.52 -2.25)"/><path class="cls-2" d="M20.71,41.32H14.16a.4.4,0,0,1-.41-.4V35.06a1.45,1.45,0,0,1,1.45-1.44h4.46a1.45,1.45,0,0,1,1.45,1.44v5.86A.4.4,0,0,1,20.71,41.32Zm-5.91-.7h5.61V35a.65.65,0,0,0-.65-.64H15.45a.65.65,0,0,0-.65.64Z" transform="translate(-4.52 -2.25)"/><path class="cls-2" d="M19,34.67H16.26a.4.4,0,0,1-.4-.4V20a.4.4,0,0,1,.4-.4H19a.4.4,0,0,1,.41.4V34.27A.4.4,0,0,1,19,34.67Zm-2.39-1.05h1.75V20.31H16.56Z" transform="translate(-4.52 -2.25)"/><path class="cls-2" d="M24.21,32.43h-.1a.41.41,0,0,1-.29-.49h0l1.43-5.74A1.75,1.75,0,0,1,27,24.86h9.66a1.74,1.74,0,0,1,1.7,1.33l1.43,5.74a.41.41,0,0,1-.29.49.4.4,0,0,1-.49-.3h0l-1.43-5.73a1.19,1.19,0,0,0-.92-.83H27a1.2,1.2,0,0,0-.93.83L24.6,32.12a.4.4,0,0,1-.39.31Z" transform="translate(-4.52 -2.25)"/><path class="cls-2" d="M40.93,32.22H39.31a.41.41,0,0,1-.39-.31l-.41-1.65a.4.4,0,0,1,.3-.48h2.12a.84.84,0,0,1,.84.83v.78A.85.85,0,0,1,40.93,32.22Zm-1.29-.7H41s0,0,.12,0V30.7c-.09,0-.11,0-.12.12H39.43Z" transform="translate(-4.52 -2.25)"/><path class="cls-2" d="M24.26,32.22H22.64a.84.84,0,0,1-.83-.84V30.6a.83.83,0,0,1,.83-.83h2a.4.4,0,0,1,.4.4.28.28,0,0,1,0,.09l-.41,1.65a.4.4,0,0,1-.39.31Zm-1.64-1.4c0-.16,0-.14-.11-.12h0v.78a.2.2,0,0,1,.11,0h1.3l.21-.7Z" transform="translate(-4.52 -2.25)"/><path class="cls-2" d="M39.76,38.87H23.46a1.29,1.29,0,0,1-1.3-1.28v-3.5a2.59,2.59,0,0,1,2.62-2.57H38.44a2.6,2.6,0,0,1,2.63,2.57v3.5a1.3,1.3,0,0,1-1.31,1.28ZM25,32.22a1.82,1.82,0,0,0-1.8,1.84v3.6a.5.5,0,0,0,.5.51H39.87a.51.51,0,0,0,.5-.51v-3.6a1.82,1.82,0,0,0-1.81-1.84Z" transform="translate(-4.52 -2.25)"/><path class="cls-2" d="M27.06,41.32H25.31a1,1,0,0,1-1-1v-1.7a.4.4,0,0,1,.4-.4h3.05a.4.4,0,0,1,.4.4v1.7A1,1,0,0,1,27.06,41.32ZM25,38.87v1.51a.24.24,0,0,0,.24.24h1.61a.25.25,0,0,0,.25-.24V38.87Z" transform="translate(-4.52 -2.25)"/><path class="cls-2" d="M38.24,41.32H36.51a1,1,0,0,1-1-1v-1.7a.4.4,0,0,1,.41-.4h3a.4.4,0,0,1,.41.4V40.3a1.05,1.05,0,0,1-1.08,1Zm-2.08-2.45v1.51a.25.25,0,0,0,.25.24H38a.25.25,0,0,0,.25-.24V38.87Z" transform="translate(-4.52 -2.25)"/><path class="cls-2" d="M26.12,36.94a1.69,1.69,0,1,1,1.69-1.69A1.69,1.69,0,0,1,26.12,36.94ZM26,34.32a.89.89,0,0,0-.8,1.28.82.82,0,0,0,.4.4.9.9,0,0,0,1.14-1.31.79.79,0,0,0-.69-.37Z" transform="translate(-4.52 -2.25)"/><path class="cls-2" d="M37.45,36.94a1.69,1.69,0,1,1,1.69-1.69h0a1.7,1.7,0,0,1-1.69,1.69Zm.12-2.62a.89.89,0,0,0-.8,1.28.8.8,0,0,0,.39.4.9.9,0,0,0,1.14-1.31.79.79,0,0,0-.69-.37Z" transform="translate(-4.52 -2.25)"/><path class="cls-2" d="M33.68,34.67h-3.4c-.23.16-.41,0-.41-.24a.51.51,0,0,1,.41-.46h3.4a.51.51,0,0,1,.4.46C34.08,34.65,33.9,34.83,33.68,34.67Z" transform="translate(-4.52 -2.25)"/><path class="cls-2" d="M33.12,36.42H30.83a.35.35,0,1,1,0-.7h2.29a.35.35,0,1,1,0,.7Z" transform="translate(-4.52 -2.25)"/><path class="cls-2" d="M24.44,20.34a.41.41,0,0,1-.34-.62l4.14-6.23a.4.4,0,0,1,.67.44l-4.14,6.23A.4.4,0,0,1,24.44,20.34Z" transform="translate(-4.52 -2.25)"/><path class="cls-2" d="M27.51,20.34a.41.41,0,0,1-.34-.62l4.14-6.23a.4.4,0,0,1,.67.44l-4.14,6.23A.4.4,0,0,1,27.51,20.34Z" transform="translate(-4.52 -2.25)"/><path class="cls-2" d="M30.58,20.34a.4.4,0,0,1-.4-.4.34.34,0,0,1,.07-.22l4.13-6.23a.41.41,0,0,1,.56-.13.41.41,0,0,1,.12.56h0l-4.13,6.23A.43.43,0,0,1,30.58,20.34Z" transform="translate(-4.52 -2.25)"/><path class="cls-2" d="M33.65,20.34a.4.4,0,0,1-.4-.4.34.34,0,0,1,.07-.22l4.13-6.23a.4.4,0,0,1,.67.44L34,20.16A.42.42,0,0,1,33.65,20.34Z" transform="translate(-4.52 -2.25)"/></svg>