<svg xmlns="http://www.w3.org/2000/svg" viewBox="0 0 44.4 48.19"><defs><style>.cls-1{fill:#662d91;}.cls-2{fill:#fff;}</style></defs><g id="Layer_2" data-name="Layer 2"><g id="Layer_1-2" data-name="Layer 1"><rect class="cls-1" width="44.4" height="48.19" rx="9.05"/><path class="cls-2" d="M34.76,17.5H9.39a1.32,1.32,0,0,1-1.32-1.32V11.82A1.32,1.32,0,0,1,9.39,10.5H34.76a1.32,1.32,0,0,1,1.32,1.32v4.36A1.32,1.32,0,0,1,34.76,17.5ZM9.29,11.55a.51.51,0,0,0-.52.5V16.3a.51.51,0,0,0,.51.5H34.52a.5.5,0,0,0,.51-.5h0V12.05a.5.5,0,0,0-.51-.5Z"/><path class="cls-2" d="M14.67,38.51H8.12a.4.4,0,0,1-.4-.4V32.25a1.45,1.45,0,0,1,1.45-1.44h4.46a1.44,1.44,0,0,1,1.44,1.44v5.86A.4.4,0,0,1,14.67,38.51Zm-5.9-.7h5.6V32.15a.64.64,0,0,0-.64-.64H9.41a.64.64,0,0,0-.64.64Z"/><path class="cls-2" d="M12.92,31.86h-2.7a.4.4,0,0,1-.4-.4V17.2a.4.4,0,0,1,.4-.4h2.7a.4.4,0,0,1,.4.4V31.46A.4.4,0,0,1,12.92,31.86Zm-2.4-1.05h1.75V17.5H10.52Z"/><path class="cls-2" d="M18.18,29.62h-.1a.4.4,0,0,1-.29-.49h0l1.43-5.74a1.73,1.73,0,0,1,1.7-1.33h9.66a1.75,1.75,0,0,1,1.71,1.33l1.43,5.74a.41.41,0,0,1-.3.49.4.4,0,0,1-.48-.3h0l-1.43-5.73a1.2,1.2,0,0,0-.93-.83H20.92a1.17,1.17,0,0,0-.92.83l-1.43,5.73a.41.41,0,0,1-.39.31Z"/><path class="cls-2" d="M34.9,29.41H33.28a.4.4,0,0,1-.39-.31l-.41-1.65a.4.4,0,0,1,.3-.48H34.9a.83.83,0,0,1,.83.83v.78A.84.84,0,0,1,34.9,29.41Zm-1.29-.7h1.3a.25.25,0,0,1,.12,0v-.78c-.08,0-.1,0-.12.12H33.4Z"/><path class="cls-2" d="M18.23,29.41H16.61a.85.85,0,0,1-.84-.84v-.78a.84.84,0,0,1,.84-.83h2a.4.4,0,0,1,.4.4s0,.06,0,.09l-.41,1.65a.41.41,0,0,1-.39.31ZM16.59,28c0-.16,0-.14-.12-.12h0v.78c.08,0,.1,0,.11,0h1.31l.21-.7Z"/><path class="cls-2" d="M33.73,36.06H17.43a1.3,1.3,0,0,1-1.31-1.28v-3.5a2.61,2.61,0,0,1,2.63-2.57H32.41A2.59,2.59,0,0,1,35,31.28v3.5a1.29,1.29,0,0,1-1.3,1.28ZM19,29.41a1.83,1.83,0,0,0-1.81,1.84v3.6a.52.52,0,0,0,.5.51H33.83a.5.5,0,0,0,.5-.51v-3.6a1.82,1.82,0,0,0-1.8-1.84Z"/><path class="cls-2" d="M21,38.51H19.28a1,1,0,0,1-1.05-1v-1.7a.4.4,0,0,1,.4-.4h3.05a.4.4,0,0,1,.4.4v1.7A1,1,0,0,1,21,38.51Zm-2.1-2.45v1.5a.25.25,0,0,0,.24.25h1.61a.25.25,0,0,0,.25-.25v-1.5Z"/><path class="cls-2" d="M32.21,38.51H30.48a1,1,0,0,1-1.05-1v-1.7a.4.4,0,0,1,.4-.4h3.05a.4.4,0,0,1,.4.4v1.73a1,1,0,0,1-1.07,1Zm-2.08-2.45v1.5a.25.25,0,0,0,.25.25H32a.24.24,0,0,0,.24-.24V36.06Z"/><path class="cls-2" d="M20.09,34.13a1.69,1.69,0,1,1,1.69-1.69A1.69,1.69,0,0,1,20.09,34.13ZM20,31.51a.89.89,0,0,0-.8,1.28.8.8,0,0,0,.39.4.9.9,0,0,0,1.14-1.31.78.78,0,0,0-.68-.37Z"/><path class="cls-2" d="M31.41,34.13a1.69,1.69,0,1,1,1.69-1.69h0a1.69,1.69,0,0,1-1.69,1.69Zm.12-2.62a.9.9,0,0,0-.8,1.28.82.82,0,0,0,.4.4.9.9,0,0,0,1.14-1.31.79.79,0,0,0-.69-.37Z"/><path class="cls-2" d="M27.64,31.86h-3.4c-.22.16-.4,0-.4-.24a.51.51,0,0,1,.4-.46h3.4a.51.51,0,0,1,.41.46C28.05,31.84,27.87,32,27.64,31.86Z"/><path class="cls-2" d="M27.09,33.61H24.8a.35.35,0,1,1,0-.7h2.29a.35.35,0,1,1,0,.7Z"/><path class="cls-2" d="M18.4,17.53a.4.4,0,0,1-.4-.4.41.41,0,0,1,.07-.22l4.14-6.23a.39.39,0,0,1,.55-.11.41.41,0,0,1,.12.55l-4.14,6.23A.4.4,0,0,1,18.4,17.53Z"/><path class="cls-2" d="M21.47,17.53a.4.4,0,0,1-.4-.4.41.41,0,0,1,.07-.22l4.14-6.23a.4.4,0,0,1,.56-.11.42.42,0,0,1,.11.55l-4.14,6.23A.4.4,0,0,1,21.47,17.53Z"/><path class="cls-2" d="M24.55,17.53a.4.4,0,0,1-.41-.4.41.41,0,0,1,.07-.22l4.14-6.23a.4.4,0,0,1,.55-.13.41.41,0,0,1,.13.56h0l-4.14,6.23A.4.4,0,0,1,24.55,17.53Z"/><path class="cls-2" d="M27.62,17.53a.41.41,0,0,1-.34-.62l4.14-6.23a.4.4,0,0,1,.67.44L28,17.35A.4.4,0,0,1,27.62,17.53Z"/></g></g></svg>