<svg xmlns="http://www.w3.org/2000/svg" xmlns:xlink="http://www.w3.org/1999/xlink" viewBox="0 0 45.58 44.26"><defs><style>.cls-1,.cls-14{fill:none;}.cls-2,.cls-7,.cls-8,.cls-9{stroke:#fcd109;}.cls-10,.cls-11,.cls-12,.cls-2,.cls-3,.cls-4,.cls-5,.cls-6,.cls-7,.cls-8,.cls-9{stroke-width:0.09px;}.cls-2{fill:url(#linear-gradient);}.cls-3{fill:#f8f3b5;stroke:#f8f3b5;}.cls-4{fill:#f7b402;stroke:#f7b402;}.cls-5{fill:#bda727;stroke:#bda727;}.cls-6{fill:#f7e62d;stroke:#f7e62d;}.cls-7{fill:url(#radial-gradient);}.cls-8{fill:url(#linear-gradient-2);}.cls-9{fill:url(#linear-gradient-3);}.cls-10{fill:#0d69b3;stroke:#0d69b3;}.cls-11{fill:#107bd4;stroke:#107bd4;}.cls-12{fill:#fff;stroke:#fff;}.cls-13{clip-path:url(#clip-path);}.cls-14{stroke:#d1d1d1;stroke-width:2px;}</style><linearGradient id="linear-gradient" x1="-5390.56" y1="6766.34" x2="-5390.56" y2="6744" gradientTransform="matrix(1, 0, 0, -1, 5414.1, 6770.72)" gradientUnits="userSpaceOnUse"><stop offset="0" stop-color="#f7e830"/><stop offset="1" stop-color="#fdcb06"/></linearGradient><radialGradient id="radial-gradient" cx="-5390.7" cy="6755.31" r="18.44" gradientTransform="matrix(1, 0, 0, -1, 5414.1, 6770.72)" gradientUnits="userSpaceOnUse"><stop offset="0.6" stop-color="#f29405"/><stop offset="0.74" stop-color="#f7d01e"/><stop offset="1" stop-color="#fdcb06"/></radialGradient><linearGradient id="linear-gradient-2" x1="-5384.51" y1="6765.32" x2="-5384.51" y2="6764.29" gradientTransform="matrix(1, 0, 0, -1, 5414.1, 6770.72)" gradientUnits="userSpaceOnUse"><stop offset="0" stop-color="#fada1c"/><stop offset="1" stop-color="#fdcb06"/></linearGradient><linearGradient id="linear-gradient-3" x1="6478.44" y1="6765.37" x2="6478.44" y2="6764.34" gradientTransform="translate(6495.72 6770.72) rotate(180)" xlink:href="#linear-gradient-2"/><clipPath id="clip-path"><path class="cls-1" d="M29.59,5.9a.54.54,0,0,1,0-.18h0a.44.44,0,0,0-.36-.32.36.36,0,0,0-.38.12c-.15.2-.08.46.08.72v0a.63.63,0,0,0-.21.45.17.17,0,0,0,0,.14,3.64,3.64,0,0,1-.36,1,.36.36,0,0,0-.08.15,5.25,5.25,0,0,1-.43.53l-.06.06a3.11,3.11,0,0,1-.31.32l-.06,0a2.18,2.18,0,0,1-.42.33l-.06.05a5.94,5.94,0,0,1-3.23.89,8.61,8.61,0,0,1-2.78-.86h-.07s-.29.12-.42,0l-.1,0a4.35,4.35,0,0,1-.42-.33L19.79,9a3.09,3.09,0,0,1-.38-.35l-.09-.09A3.89,3.89,0,0,1,18.43,7a5,5,0,0,1-.16-1.39.48.48,0,0,0-.63-.19c-.1.07-.11.19-.17.28a4.27,4.27,0,0,0,1.24,3.33s0,0,0,.06l.44.41.08.08.47.34a.21.21,0,0,0,.1.06,4.59,4.59,0,0,0,.61.35l.06,0a6.47,6.47,0,0,0,2.25.64c.08,0,.16,0,.25-.18h1.12A5.05,5.05,0,0,0,27.41,10h0l.08-.07q.23-.16.45-.36l.11-.08A1.8,1.8,0,0,1,28.93,9h0V8.88c-.26-.17,0-.53,0-.53v0h0V8.25a4.33,4.33,0,0,0,.45-1.31s0,0,0-.06.05-.28,0-.44a2.53,2.53,0,0,0,0-.55Z"/></clipPath></defs><g id="Layer_2" data-name="Layer 2"><g id="Layer_1-2" data-name="Layer 1"><path class="cls-2" d="M36.86,4.72V4.38H10.24l-.05,0V25.16a2.67,2.67,0,0,0,.61.84h0a.84.84,0,0,0,.52.38c.13,0,.27,0,.41-.38H22.7a.47.47,0,0,0,.47.38v-.13a15.89,15.89,0,0,1,.72-3.93v.08H20.73a1,1,0,0,0-.72-.28,10.53,10.53,0,0,1-1.26-.05c-.53,0-1-.05-1.56-.05A3.33,3.33,0,0,0,16,22.4h-.82a7.35,7.35,0,0,0-1.33-.49c-.44-.06-1.44-.23-1.44-.23h.32c.36-.05.75,0,1.09-.07a5.89,5.89,0,0,1,1.12-.05,5.49,5.49,0,0,0,1-.06,6.18,6.18,0,0,1,1.17-.06,4.7,4.7,0,0,0,1-.06,5.08,5.08,0,0,1,1.12-.05,5.1,5.1,0,0,0,1.11-.07,2.05,2.05,0,0,0-.09-.43c0-.14-.14-.07-.21-.08l-2.5-.36c.05,0,.12,0,.18,0l1.95-.16h.28a1.35,1.35,0,0,1-.18-.33c-1.33-.2-2.66-.38-4-.6l1-.12h0A15.72,15.72,0,0,0,20,18.07h4.19s.13.76.13.71l.35-1.8a9,9,0,0,1,.8-2.43,7.19,7.19,0,0,1,2.82-3.09,7.82,7.82,0,0,1,3.65-1,5.14,5.14,0,0,1,1.24,0,1.65,1.65,0,0,1,.72.31,1.32,1.32,0,0,1,.36.56,9.33,9.33,0,0,1,.38,1.58,1.26,1.26,0,0,1-.07.64.81.81,0,0,1-.51.33c-.72.19-1.44,0-2.16.19a2.57,2.57,0,0,0-1.52.92,4.31,4.31,0,0,0-.8,1.92c-.1.6-.33,1.89-.33,1.89H31.8a.75.75,0,0,1,.75.45,2.17,2.17,0,0,1,.08,1.13,4.29,4.29,0,0,1-.36,1.22,1.38,1.38,0,0,1-.75.75A1.52,1.52,0,0,1,30,22l-1,.33c-.11.5-.18,1-.28,1.53-.17.93-.33,1.88-.51,2.83v0h7.21a1.7,1.7,0,0,1,.68-.46c.12,0,.19-.15.3-.22s.14-.18.22-.26a1.41,1.41,0,0,0,.21-.5h.05C36.74,18.39,36.86,4.72,36.86,4.72Z"/><path class="cls-3" d="M13.91.1a4.3,4.3,0,0,1,.95,0H32.77a3.4,3.4,0,0,1,1,.28c.29.12.6.21.89.34l.05.08V2.19a1.21,1.21,0,0,0,0,.38c.08,0,.11.07.17.11a5.82,5.82,0,0,1,.66.44c.33.23.71.43,1,.67a.45.45,0,0,1,0,.28,1.6,1.6,0,0,0,0,.31h-26a2,2,0,0,0,0-.35c0-.1,0-.22.05-.29.37-.25.75-.48,1.11-.75l.66-.43a.49.49,0,0,0,0-.24V.74c.12-.16.33-.17.51-.25l1-.4m0,.05L12.48.71c-.05,0-.09.07-.12.12V2.37a.69.69,0,0,0,0,.35l-.16.13c-.54.38-1,.77-1.59,1.14-.09.07-.19.14-.16.27s0,.13.08.12h26s.06,0,0-.11,0-.15,0-.19a7,7,0,0,1-.72-.49,1.18,1.18,0,0,1-.27-.23c-.25-.15-.48-.35-.71-.51l-.13-.13a1.13,1.13,0,0,0,0-.26V.93a.21.21,0,0,0-.06-.21L33.32.19a1.66,1.66,0,0,0-.43-.14H14.17c-.08,0-.16.06-.24.07Z"/><path class="cls-4" d="M12.21,1.05c.33.14.68.22,1,.36.18.07.23.26.31.41a1.71,1.71,0,0,1-.26.21,9.46,9.46,0,0,0-1,.72.91.91,0,0,1,0-.33Zm21.48.36c.33-.13.68-.23,1-.36V2.49a1,1,0,0,1,0,.25l-.87-.59a3.25,3.25,0,0,1-.42-.31c.07-.15.14-.34.31-.41Z"/><path class="cls-5" d="M18.12,1.56a.72.72,0,0,1,.82.6.49.49,0,0,1,0,.12.72.72,0,0,1-.77.67h-.07a.72.72,0,0,1-.42-.28A.74.74,0,0,1,17.63,2a.67.67,0,0,1,.49-.39Zm10.36.23a.71.71,0,0,1,.72-.23.72.72,0,0,1,.53.87.72.72,0,1,1-1.4-.35A.67.67,0,0,1,28.48,1.79Z"/><path class="cls-6" d="M13.54,2.26l.26-.2h0V4.38H10.55a.28.28,0,0,1,.17-.25c.54-.35,1.06-.73,1.6-1.08l.16-.13C12.85,2.71,13.19,2.49,13.54,2.26Zm19.74,0a.22.22,0,0,1,0-.13,2.4,2.4,0,0,0,.41.3l.85.58.12.11c.25.16.48.33.71.47a1.71,1.71,0,0,0,.26.21c.25.15.47.33.71.45,0,0,0,.11,0,.18H33.26V2.21Z"/><path class="cls-7" d="M36.71,3.66H33.26v-2a.17.17,0,0,1,0-.12.66.66,0,0,1,.32-.38c.33-.12.68-.2,1-.32a.18.18,0,0,0-.06-.19L33.23.17a3.17,3.17,0,0,0-.44-.12H13.67l-.32.06L11.87.6c-.06,0-.09.06-.13.11a.17.17,0,0,1,0,.1c.34.12.69.2,1,.32.18.07.24.24.32.38V3.66H10.27a1.78,1.78,0,0,0,.09.72h8.69q.12-.18.24,0H36.6a.47.47,0,0,0,0-.23ZM17.4,2a.67.67,0,0,1,.49-.39.72.72,0,0,1,.82.6.49.49,0,0,1,0,.12A.72.72,0,0,1,18,3h-.07a.72.72,0,0,1-.42-.28A.74.74,0,0,1,17.4,2Zm11.08-.16a.71.71,0,0,1,.72-.23.72.72,0,0,1,.53.87.72.72,0,1,1-1.4-.35A.67.67,0,0,1,28.48,1.79Z"/><path class="cls-8" d="M29.42,5.8s-.27-.31-.21-.32a.55.55,0,0,1,.56,0,.49.49,0,0,1,.17.6.72.72,0,0,1-.2.31.27.27,0,0,1-.19.08c0-.18-.07-.21-.08-.39Z"/><path class="cls-9" d="M17.4,6c0,.18-.11.21-.09.39a.42.42,0,0,1-.18-.08.58.58,0,0,1-.2-.31c0-.13-.11-.47.17-.6a.66.66,0,0,1,.55,0c.07,0-.26.34-.2.32L17.4,6Z"/><path class="cls-5" d="M28.93,8.13a.23.23,0,0,1,.18-.05,8.92,8.92,0,0,1-1.75,2.69,2.34,2.34,0,0,1-.27.2l-.26.2a1.44,1.44,0,0,0-.25.18,3.92,3.92,0,0,1-.64.34,5.77,5.77,0,0,1-1.35.44,7.57,7.57,0,0,1-1.26.11c-.13,0-.25-.05-.37,0l-.33-.11-.33-.08a5.68,5.68,0,0,1-3.86-3.6,2,2,0,0,1,0-.35c0,.1.1.2.16.3a5.41,5.41,0,0,0,3.69,3.06c.13.06.27,0,.4.09a1,1,0,0,1,.34,0h1.3a4.91,4.91,0,0,0,1.84-.47l.34-.16.29-.17.27-.19a6,6,0,0,0,1.65-2.07A3.1,3.1,0,0,0,28.93,8.13Z"/><path class="cls-10" d="M28.33,11.46a7.82,7.82,0,0,1,3.65-1,5.14,5.14,0,0,1,1.24,0,1.65,1.65,0,0,1,.72.31,1.65,1.65,0,0,1-.32-.06,6.78,6.78,0,0,0-.9,0,9.48,9.48,0,0,0-2.65.32,5.61,5.61,0,0,0-1.32.53,6.87,6.87,0,0,0-1.89,1.54,8.21,8.21,0,0,0-1.73,3.8c-.12.72-.27,1.44-.38,2.21-.19,0-.38,0-.57-.35H16.75c1.1.23,2.21.1,3.31.72h4.2c0-.73.12-.73.13-.77l.34-1.81a9.05,9.05,0,0,1,.8-2.42A7.24,7.24,0,0,1,28.33,11.46Z"/><path class="cls-11" d="M30.07,11a9.46,9.46,0,0,1,2.65-.29,5.69,5.69,0,0,1,.93,0,1.8,1.8,0,0,0,.32.06,1.23,1.23,0,0,1,.36.56,8.6,8.6,0,0,1,.35,1.5,1.26,1.26,0,0,1-.07.64.81.81,0,0,1-.51.33c-.72.19-1.44,0-2.16.19a2.57,2.57,0,0,0-1.52.92,4.31,4.31,0,0,0-.8,1.92c-.1.6-.23,1.21-.33,1.83a6.37,6.37,0,0,0-.1.78h2.87a1.94,1.94,0,0,1,.07,1,3.92,3.92,0,0,1-.32,1.11,1.29,1.29,0,0,1-.68.68,1.66,1.66,0,0,1-.54.06H29c-.1.46-.17.94-.25,1.41l-.51,2.79v.12h-5V26.4c-.16,0,.12.06.14-.08.26-1.37.49-2.74.72-4.11a.81.81,0,0,0-.31,0l.17.15v-.68H20a1.26,1.26,0,0,1-1.26.47c-.53,0-1,0-1.56,0a4,4,0,0,0-1.23.3h-.82A9.72,9.72,0,0,0,13.81,22c-.44-.06-1.44-.31-1.44-.31h.46a1.36,1.36,0,0,0,1.05.2,6.27,6.27,0,0,1,1.07,0,5.16,5.16,0,0,0,1-.06A5.63,5.63,0,0,1,17,21.73a3.78,3.78,0,0,0,.93-.07,5.4,5.4,0,0,1,1.08,0,5.3,5.3,0,0,0,1.06-.07,1.58,1.58,0,0,0-.09-.42c0-.13-.13-.06-.19-.07l-2.41-.34c.05,0,.12,0,.18,0l1.87.24h.41a9.38,9.38,0,0,0-.18-1c-1.33-.2-2.66-.38-4-.6a3.72,3.72,0,0,1,1,.13h7.43a.64.64,0,0,1,.56-.25c.12-.72.26-1.44.39-2.21a8.11,8.11,0,0,1,1.73-3.8,7,7,0,0,1,1.88-1.54A6.11,6.11,0,0,1,30.07,11Z"/><path class="cls-10" d="M29.29,18.79h2.17c.3-.1.59.07.72.72h-3a2.5,2.5,0,0,1,.1-.8ZM23.82,22.4a.54.54,0,0,1,.31,0c-.26,1.37-.49,2.74-.72,4.11,0,.14-.21.09-.31.08s0-.08,0-.11c.24-1.31.46-2.62.72-3.93l.05-.15Z"/><path class="cls-12" d="M29.59,5.9a.54.54,0,0,1,0-.18h0a.44.44,0,0,0-.36-.32.36.36,0,0,0-.38.12c-.15.2-.08.46.08.72v0a.63.63,0,0,0-.21.45.17.17,0,0,0,0,.14,3.64,3.64,0,0,1-.36,1,.36.36,0,0,0-.08.15,5.25,5.25,0,0,1-.43.53l-.06.06a3.11,3.11,0,0,1-.31.32l-.06,0a2.18,2.18,0,0,1-.42.33l-.06.05a5.94,5.94,0,0,1-3.23.89,8.61,8.61,0,0,1-2.78-.86h-.07s-.29.12-.42,0l-.1,0a4.35,4.35,0,0,1-.42-.33L19.79,9a3.09,3.09,0,0,1-.38-.35l-.09-.09A3.89,3.89,0,0,1,18.43,7a5,5,0,0,1-.16-1.39.48.48,0,0,0-.63-.19c-.1.07-.11.19-.17.28a4.27,4.27,0,0,0,1.24,3.33s0,0,0,.06l.44.41.08.08.47.34a.21.21,0,0,0,.1.06,4.59,4.59,0,0,0,.61.35l.06,0a6.47,6.47,0,0,0,2.25.64c.08,0,.16,0,.25-.18h1.12A5.05,5.05,0,0,0,27.41,10h0l.08-.07q.23-.16.45-.36l.11-.08A1.8,1.8,0,0,1,28.93,9h0V8.88c-.26-.17,0-.53,0-.53v0h0V8.25a4.33,4.33,0,0,0,.45-1.31s0,0,0-.06.05-.28,0-.44a2.53,2.53,0,0,0,0-.55Z"/><g class="cls-13"><path class="cls-14" d="M17.17,5.78c.3.1,1-.14,1.19.07m-1,.85c.29-.1.91-.34,1.16-.2m-.86,1.11c.14,0,.42-.19.55-.26a1.82,1.82,0,0,1,.64-.23m-.72,1.44a2.1,2.1,0,0,1,.52-.51c.21-.15.77-.53,1-.4M18.48,9.3c.17-.13.23-.35.41-.49a3.23,3.23,0,0,1,.72-.3M19.2,9.79c.05-.36.42-.79.77-.76m-.23,1.26c.19,0,.34-.43.47-.57a1.17,1.17,0,0,1,.62-.35m0,1.36c0-.26.25-1,.57-1M21.62,11c0-.3.15-1.23.52-1.26m.28,1.74a1.61,1.61,0,0,1,.27-1.36m.72,1.44c0-.36-.39-1.08,0-1.36M24.5,11.3a2,2,0,0,1-.19-1.19m1.36,1a2.55,2.55,0,0,1-.34-.73v-.25m1.08.64a1.26,1.26,0,0,1-.27-1.16m1.11.79a2.81,2.81,0,0,1-.42-1.26m1.24.47c-.32-.21-.72-.59-.67-1M28.93,9A2.76,2.76,0,0,1,27.59,8m1.74.09c-.35-.07-1.48-.51-1.44-1m1.78.1a5.26,5.26,0,0,1-1.56-.67m1.81-.13a4.11,4.11,0,0,1-1-.17c-.34-.06-.66-.17-1-.24m1.79-.36A4.54,4.54,0,0,1,28,5.35"/></g><path class="cls-11" d="M12.75,32.16a1.51,1.51,0,0,1,1.14.15.74.74,0,0,1,.25.66,1.14,1.14,0,0,1-.52,1,1.81,1.81,0,0,1-1,.15.85.85,0,0,1-.58-.35,1.2,1.2,0,0,1,.62-1.57l.16-.06ZM1.4,32.89a.44.44,0,0,1,.44-.4H6.78s.36-.21.46-.05,0,.44,0,.67,0,.72-.38.82H3.25c-.11.71-.27,2.25-.27,2.25v-.09H5.56c.24.2.45.38.47.62v0a6.82,6.82,0,0,1-.1.79c0,.19-.36,0-.36,0h-3s-.35,2.55-.51,3.64a2.33,2.33,0,0,1-.41.69H.46a.43.43,0,0,1-.41-.45.28.28,0,0,1,0-.09c.43-2.82.88-5.64,1.33-8.46Zm7.27-.4H9.8a.46.46,0,0,1,.47.39,5.54,5.54,0,0,1-.07.57c-.3,1.91-.61,3.83-.91,5.76a2.17,2.17,0,0,0,0,.95c.11.32.59.19.72.51a2.26,2.26,0,0,1,0,.82c0,.35-.43.43-.72.51a1.88,1.88,0,0,1-1.78-.47,1.63,1.63,0,0,1-.27-1.34l1.08-7.33A.42.42,0,0,1,8.67,32.49Zm14.21.39a.45.45,0,0,1,.43-.39H24.4a.44.44,0,0,1,.43.45s0,.06,0,.09l-.75,4.74a1.62,1.62,0,0,0,1.06-.43,6.6,6.6,0,0,0,1.08-1.68c.09-.24.14-.58.45-.62a9.9,9.9,0,0,1,1.22,0,.42.42,0,0,1,.42.44.5.5,0,0,1,0,.12,5.5,5.5,0,0,1-.44,1.06,7.92,7.92,0,0,1-1.44,1.86c.27.79.6,1.56.89,2.33.09.26.3.56.1.81s-.63.15-.94.18-.78.13-1-.23c-.33-.78-.61-1.57-.95-2.35a3.11,3.11,0,0,1-.61,0l-.05.12c-.11.71-.22,1.43-.34,2.15a.44.44,0,0,1-.36.33H22a.45.45,0,0,1-.38-.25.72.72,0,0,1,0-.46Q22.31,37,23,32.9Zm19.88.33a4.54,4.54,0,0,1,.45.72h.87s.41-.64.39-.4h0c0,.41-.17,1.12-.17,1.12h.84a.42.42,0,0,1,.4.44s0,0,0,0a3.69,3.69,0,0,1-.11.62.43.43,0,0,1-.35.34h-1c-.15,1-.31,1.91-.46,2.88a1,1,0,0,0,.1.66c.19.24.53.15.8.18a.48.48,0,0,1,.31.51,2.91,2.91,0,0,1-.1.72c-.06.23-.39.31-.62.37a2.45,2.45,0,0,1-2-.21,1.73,1.73,0,0,1-.55-1.63c.15-1.16.38-2.31.51-3.47a.86.86,0,0,1-.59-.14c-.15-.15-.08-.45-.06-.67s0-.54.29-.67a3,3,0,0,1,.67,0c.14-.45.26-.91.4-1.36ZM39,35.54a3.82,3.82,0,0,1,1.54-1,.44.44,0,0,1,.56.26.59.59,0,0,1,0,.13c0,.37-.13.74-.19,1.11a.44.44,0,0,1-.37.35,3.29,3.29,0,0,0-1.7,1c-.12.14-.29.28-.31.47-.14,1-.29,1.91-.44,2.86a.42.42,0,0,1-.4.38h-1a.42.42,0,0,1-.42-.42v0c.3-1.88.6-3.75.89-5.63a.42.42,0,0,1,.35-.4h.73a.42.42,0,0,1,.42.42,8.63,8.63,0,0,1,0,.87,2.87,2.87,0,0,0,.39-.39ZM12,35a7.75,7.75,0,0,1,1.18,0,.44.44,0,0,1,.5.34,2.24,2.24,0,0,1-.05.58c-.3,1.84-.59,3.69-.88,5.53a.42.42,0,0,1-.41.4H11.16a.46.46,0,0,1-.36-.52v0c.3-1.91.59-3.81.9-5.72A.6.6,0,0,1,12,35Zm23.41.14a11,11,0,0,0-3.24-.24,3.72,3.72,0,0,0-2.53,1.36A4.9,4.9,0,0,0,28.72,40a2.52,2.52,0,0,0,.82,1.64,2.17,2.17,0,0,0,1.68.32,4,4,0,0,0,2-1.24v.72a.41.41,0,0,0,.41.41h.75a.44.44,0,0,0,.41-.4c.3-1.94.61-3.88.92-5.77a.46.46,0,0,0-.39-.51h0Zm-2.29,3.12A5.46,5.46,0,0,1,32,39.71a1.19,1.19,0,0,1-.94.37c-.34-.07-.51-.44-.59-.72A3.14,3.14,0,0,1,30.89,37a1.5,1.5,0,0,1,.89-.67,3.18,3.18,0,0,1,1.59.08h0c-.07.62-.19,1.23-.28,1.86ZM21.36,37.09a3,3,0,0,0-.72-2,1.86,1.86,0,0,0-1.37-.57,3.3,3.3,0,0,0-2.21.93,4.26,4.26,0,0,1-.38.35v-.72a.42.42,0,0,0-.42-.42h-.72a.45.45,0,0,0-.42.43c-.46,2.88-.92,5.72-1.37,8.58a.46.46,0,0,0,.36.53h.08a8,8,0,0,0,1.2,0c.32-.08.31-.45.36-.72.12-.62.19-1.25.27-1.89a4.53,4.53,0,0,0,4.1-1A5,5,0,0,0,21.36,37.09Zm-2.29.82a2.88,2.88,0,0,1-.72,1.81,2.31,2.31,0,0,1-2.23.29l0-.08c.12-.62.17-1.26.32-1.87A4.42,4.42,0,0,1,18,36.37a.69.69,0,0,1,.8.14A2,2,0,0,1,19.09,38Z"/></g></g></svg>