<svg id="Layer_1" data-name="Layer 1" xmlns="http://www.w3.org/2000/svg" xmlns:xlink="http://www.w3.org/1999/xlink" viewBox="0 0 97 98.28"><defs><style>.cls-1,.cls-15{fill:none;}.cls-2{fill:#3374c1;}.cls-10,.cls-3,.cls-8,.cls-9{stroke:#fcd109;}.cls-10,.cls-11,.cls-12,.cls-13,.cls-3,.cls-4,.cls-5,.cls-6,.cls-7,.cls-8,.cls-9{stroke-width:0.09px;}.cls-3{fill:url(#linear-gradient);}.cls-4{fill:#f8f3b5;stroke:#f8f3b5;}.cls-5{fill:#f7b402;stroke:#f7b402;}.cls-6{fill:#bda727;stroke:#bda727;}.cls-7{fill:#f7e62d;stroke:#f7e62d;}.cls-8{fill:url(#radial-gradient);}.cls-9{fill:url(#linear-gradient-2);}.cls-10{fill:url(#linear-gradient-3);}.cls-11{fill:#0d69b3;stroke:#0d69b3;}.cls-12{fill:#107bd4;stroke:#107bd4;}.cls-13,.cls-16{fill:#fff;}.cls-13{stroke:#fff;}.cls-14{clip-path:url(#clip-path);}.cls-15{stroke:#d1d1d1;stroke-width:2px;}</style><linearGradient id="linear-gradient" x1="-1852.62" y1="-617.95" x2="-1852.62" y2="-587.66" gradientTransform="translate(1925.6 659.44)" gradientUnits="userSpaceOnUse"><stop offset="0" stop-color="#f7e830"/><stop offset="1" stop-color="#fdcb06"/></linearGradient><radialGradient id="radial-gradient" cx="-1852.78" cy="-604.14" r="24.63" gradientTransform="translate(1925.6 659.44)" gradientUnits="userSpaceOnUse"><stop offset="0.6" stop-color="#f29405"/><stop offset="0.74" stop-color="#f7d01e"/><stop offset="1" stop-color="#fdcb06"/></radialGradient><linearGradient id="linear-gradient-2" x1="-1844.19" y1="-616.85" x2="-1844.19" y2="-615.42" gradientTransform="translate(1925.6 659.44)" gradientUnits="userSpaceOnUse"><stop offset="0" stop-color="#fada1c"/><stop offset="1" stop-color="#fdcb06"/></linearGradient><linearGradient id="linear-gradient-3" x1="3977.92" y1="-616.92" x2="3977.93" y2="-615.49" gradientTransform="matrix(-1, 0, 0, 1, 4042.46, 659.44)" xlink:href="#linear-gradient-2"/><clipPath id="clip-path" transform="translate(-23.5 -18.21)"><path class="cls-1" d="M81.41,43.29a.53.53,0,0,1,0-.25h0a.61.61,0,0,0-.5-.45.54.54,0,0,0-.53.16c-.21.28-.11.64-.12,1,0,0,0,.06,0,.08a4.2,4.2,0,0,1-.06.62.35.35,0,0,0,0,.2,4.75,4.75,0,0,1-.5,1.41.47.47,0,0,0-.1.2A7.43,7.43,0,0,1,79,47a.34.34,0,0,0-.08.09,6,6,0,0,1-.43.44l-.09.07a3.66,3.66,0,0,1-.58.46l-.09.06a8.23,8.23,0,0,1-4.48,1.24,8.39,8.39,0,0,1-3.85-.81l-.1,0a5,5,0,0,1-.59-.34l-.13-.06A5.22,5.22,0,0,1,68,47.7a1.1,1.1,0,0,0-.18-.14,4.1,4.1,0,0,1-.53-.49l-.13-.13a5.15,5.15,0,0,1-1.23-2.07,6.54,6.54,0,0,1-.22-1.93.68.68,0,0,0-.88-.26c-.13.09-.15.26-.24.38a6,6,0,0,0,1.72,4.62.08.08,0,0,0,.06.08l.61.57.12.11c.21.17.43.32.65.48a.57.57,0,0,0,.13.08,6,6,0,0,0,.85.48l.08.05a9.23,9.23,0,0,0,3.12.89,1.39,1.39,0,0,1,.35,0c.52,0,1,0,1.55,0A9.24,9.24,0,0,0,78.38,49l0,0,.12-.1c.21-.15.42-.32.62-.49l.15-.12a9.94,9.94,0,0,0,.68-.76l0,0,0-.11a7.15,7.15,0,0,0,.49-.73l0-.06,0,0,.07-.08a6.22,6.22,0,0,0,.62-1.82.08.08,0,0,0,.06-.08c0-.21.07-.4.05-.61a3.29,3.29,0,0,0,0-.77Z"/></clipPath></defs><rect class="cls-2" width="97" height="98.28" rx="16.59"/><path class="cls-3" d="M91.34,41.65s0-.1,0-.16H54.68a.27.27,0,0,0-.06.12V70a2.34,2.34,0,0,0,.72,1.31h.07a1.81,1.81,0,0,0,.72.39,5.48,5.48,0,0,0,.57,0H71.85a1,1,0,0,0,.43,0s0-.06,0-.08,0-.08,0-.11c.33-1.82.64-3.63,1-5.45l0-.23H69.12c-.34,0-.69,0-1-.05-.59,0-1.17,0-1.75-.06-.73,0-1.44-.07-2.16-.07s-1.14,0-1.71-.06c-.38,0-.76,0-1.13,0-.62-.06-1.24,0-1.85-.09s-1.3,0-2-.06a0,0,0,0,0,0,0l.64,0c.48-.06,1,0,1.45-.09s1-.06,1.49-.06.89,0,1.34-.09,1-.07,1.55-.07.86,0,1.28-.09,1-.07,1.5-.06,1,0,1.48-.1c0-.19-.08-.38-.13-.57s-.18-.09-.27-.11l-3.34-.47c.07-.06.17,0,.25,0l2.59-.21.58,0a6.94,6.94,0,0,0-.25-.81c-1.85-.28-3.7-.53-5.55-.84.48-.07,1-.11,1.44-.16l0,0c1.53-.16,3.06-.34,4.59-.49,1.94,0,3.88,0,5.82,0,.07,0,.17,0,.18-.06l.48-2.51a12.51,12.51,0,0,1,1.11-3.36A10,10,0,0,1,79.66,51a11,11,0,0,1,5.07-1.41,7.51,7.51,0,0,1,1.71,0,2.29,2.29,0,0,1,1,.44,1.75,1.75,0,0,1,.5.77A12.87,12.87,0,0,1,88.47,53a1.64,1.64,0,0,1-.1.88,1.1,1.1,0,0,1-.7.46c-1,.26-2,0-3,.26a3.64,3.64,0,0,0-2.11,1.28,6,6,0,0,0-1.11,2.66c-.14.84-.32,1.69-.46,2.54,1,0,2,0,3,0a1,1,0,0,1,1,.59,2.86,2.86,0,0,1,.1,1.51,5.76,5.76,0,0,1-.47,1.63,1.86,1.86,0,0,1-1,1,2.05,2.05,0,0,1-.78.07c-.87,0-1.73,0-2.6,0-.14.64-.23,1.29-.35,1.93-.23,1.25-.45,2.51-.68,3.77,0,0,0,.13,0,.17.41,0,.81,0,1.22,0h9.07a1.83,1.83,0,0,0,.94-.22c.17-.06.27-.21.42-.3s.19-.25.31-.36a1.71,1.71,0,0,0,.28-.76h.08C91.33,60.61,91.35,51.13,91.34,41.65Z" transform="translate(-23.5 -18.21)"/><path class="cls-4" d="M59.43,35.41a6,6,0,0,1,1.34-.07H86a4.32,4.32,0,0,1,1.4.4c.37.15.76.27,1.13.43a.49.49,0,0,1,.19.16v2.05a2,2,0,0,0,0,.54c.11,0,.16.1.24.16a7.16,7.16,0,0,1,.93.62c.47.33,1,.61,1.41.95a.77.77,0,0,1,0,.4,1.66,1.66,0,0,0,0,.44H54.68a2.07,2.07,0,0,0,0-.5c0-.13-.06-.31.07-.4.52-.36,1.06-.69,1.57-1.07l.92-.61a.68.68,0,0,0,0-.35c0-.74,0-1.49,0-2.24.17-.23.47-.25.72-.36l1.47-.56m0,.09-2,.75c-.08,0-.13.09-.18.16a.76.76,0,0,1,0,.15v1.86a1.13,1.13,0,0,0,0,.45,1.92,1.92,0,0,1-.22.18c-.75.49-1.47,1-2.22,1.49-.13.08-.27.18-.23.35s0,.17.12.15c1.62,0,3.23,0,4.85,0h7.21l0,0a1.17,1.17,0,0,0,.33,0h17.2c2.27,0,4.54,0,6.81,0,.06,0,.08-.06.06-.14s0-.2-.06-.25c-.36-.17-.67-.43-1-.64a1.79,1.79,0,0,1-.38-.3c-.35-.2-.68-.45-1-.67a1.37,1.37,0,0,1-.18-.16,1.33,1.33,0,0,0,0-.34c0-.66,0-1.31,0-2a.26.26,0,0,0-.08-.28l-1.85-.69a2.52,2.52,0,0,0-.61-.18H59.79c-.11,0-.22.07-.33.09Z" transform="translate(-23.5 -18.21)"/><path class="cls-5" d="M57.3,36.56c.46.19.94.3,1.4.49.25.1.32.36.43.58a2.33,2.33,0,0,1-.36.28c-.48.32-1,.63-1.43,1a1.13,1.13,0,0,1,0-.45Zm30,.49c.46-.18.94-.31,1.4-.49,0,.66,0,1.31,0,2a1.33,1.33,0,0,1,0,.34l-1.21-.82a4,4,0,0,1-.58-.43c.1-.21.19-.47.43-.57Z" transform="translate(-23.5 -18.21)"/><path class="cls-6" d="M65.17,37.26a1,1,0,0,1,1.15,1,1,1,0,0,1-1.17.92,1.06,1.06,0,0,1-.58-.39,1,1,0,0,1-.08-.94.91.91,0,0,1,.68-.55Zm14.7.32a1,1,0,0,1,1-.32,1,1,0,1,1-1,.32Z" transform="translate(-23.5 -18.21)"/><path class="cls-7" d="M58.77,37.91a2.33,2.33,0,0,0,.36-.28l0,0c0,.26,0,.54,0,.81,0,.8,0,1.61,0,2.41h-4.5c0-.17.1-.27.23-.35.75-.48,1.47-1,2.22-1.49a1.92,1.92,0,0,0,.22-.18C57.81,38.54,58.29,38.23,58.77,37.91Zm28-.1a.33.33,0,0,1,.06-.19,4,4,0,0,0,.58.43l1.21.82a1.37,1.37,0,0,0,.18.16c.35.22.68.47,1,.67a1.79,1.79,0,0,0,.38.3c.35.21.66.47,1,.64.08,0,0,.16.06.25h-4.5c0-.2,0-.41,0-.61,0-.83,0-1.65,0-2.47Z" transform="translate(-23.5 -18.21)"/><path class="cls-8" d="M91.29,40.89h-4.5c0-.2,0-.41,0-.61,0-.83,0-1.65,0-2.47a.33.33,0,0,1,.06-.19c.1-.21.19-.47.43-.57.46-.18.94-.31,1.4-.49a.26.26,0,0,0-.08-.28l-1.85-.69a2.59,2.59,0,0,0-.6-.18H59.79c-.11,0-.22.07-.33.09l-2,.75c-.08,0-.13.09-.18.16a.76.76,0,0,1,0,.15c.46.19.94.3,1.4.49.25.1.32.36.43.58l0,0c0,.26,0,.54,0,.81,0,.8,0,1.61,0,2.41h-4.5c0,.09,0,.17.12.15,1.62,0,3.23,0,4.85,0h7.21l0,0a1.17,1.17,0,0,0,.33,0h17.2c2.27,0,4.54,0,6.81,0,.06,0,.08-.06.06-.14Zm-26.8-3.08a.91.91,0,0,1,.68-.55,1,1,0,0,1,1.15,1,1,1,0,0,1-1.17.92,1.06,1.06,0,0,1-.58-.39,1,1,0,0,1-.08-.94Zm15.38-.23a1,1,0,0,1,1-.32,1,1,0,1,1-1,.32Z" transform="translate(-23.5 -18.21)"/><path class="cls-9" d="M81.18,43.15c.07,0-.38-.43-.29-.45s.4-.23.77,0,.29.66.24.83a1,1,0,0,1-.28.44.5.5,0,0,1-.26.11c0-.25-.1-.29-.11-.55Z" transform="translate(-23.5 -18.21)"/><path class="cls-10" d="M64.71,43.43c0,.26-.16.3-.12.55a.54.54,0,0,1-.26-.11,1,1,0,0,1-.28-.44c0-.17-.14-.64.24-.83a1,1,0,0,1,.77,0c.09,0-.36.47-.28.45l-.07.35Z" transform="translate(-23.5 -18.21)"/><path class="cls-6" d="M80.5,46.45a.29.29,0,0,1,.24-.07,12.07,12.07,0,0,1-2.43,3.73,2.57,2.57,0,0,1-.37.28l-.36.27c-.12.08-.24.16-.35.25a5,5,0,0,1-.88.48,8.16,8.16,0,0,1-1.87.6,9.68,9.68,0,0,1-1.76.16c-.18,0-.34-.07-.51,0L71.75,52l-.45-.11a7.9,7.9,0,0,1-5.36-5,2.7,2.7,0,0,1,0-.49c.07.14.14.28.22.42a7.57,7.57,0,0,0,5.12,4.25c.18.08.38,0,.56.12a1.51,1.51,0,0,1,.47.05h1.59a.78.78,0,0,0,.21,0,6.76,6.76,0,0,0,2.56-.64l.47-.23c.14-.08.27-.15.4-.24l.38-.26A8.56,8.56,0,0,0,80.21,47C80.32,46.81,80.42,46.62,80.5,46.45Z" transform="translate(-23.5 -18.21)"/><path class="cls-11" d="M79.66,51a11,11,0,0,1,5.07-1.41,7.51,7.51,0,0,1,1.71,0,2.29,2.29,0,0,1,1,.44,2.26,2.26,0,0,1-.44-.08A8,8,0,0,0,85.76,50a13.51,13.51,0,0,0-3.69.44,8.56,8.56,0,0,0-1.83.74,9.43,9.43,0,0,0-2.61,2.13,11.31,11.31,0,0,0-2.41,5.27c-.17,1-.37,2-.53,3.07a6.77,6.77,0,0,1-.78,0l-3.4,0c-.24,0-.48,0-.72,0H63.6l0,0c1.53-.16,3.06-.34,4.59-.49,1.94,0,3.88,0,5.82,0,.07,0,.17,0,.18-.06l.48-2.51a12.51,12.51,0,0,1,1.11-3.36A10,10,0,0,1,79.66,51Z" transform="translate(-23.5 -18.21)"/><path class="cls-12" d="M82.07,50.4A13.51,13.51,0,0,1,85.76,50a8,8,0,0,1,1.29.06,2.26,2.26,0,0,0,.44.08,1.75,1.75,0,0,1,.5.77A12.87,12.87,0,0,1,88.47,53a1.64,1.64,0,0,1-.1.88,1.1,1.1,0,0,1-.7.46c-1,.26-2,0-3,.26a3.64,3.64,0,0,0-2.11,1.28,6,6,0,0,0-1.11,2.66c-.14.84-.32,1.69-.46,2.54a3.75,3.75,0,0,0-.13.6h2.92c.37,0,.74,0,1.11,0a2.86,2.86,0,0,1,.1,1.51,5.76,5.76,0,0,1-.47,1.63,1.86,1.86,0,0,1-1,1,2.06,2.06,0,0,1-.78.08h-2.6c-.14.63-.23,1.28-.35,1.92-.23,1.25-.45,2.51-.68,3.77,0,0,0,.13,0,.17H72.28s0-.06,0-.08,0-.08,0-.11,0,.12,0,.15.39.09.42-.11c.36-1.9.68-3.8,1-5.7a1,1,0,0,0-.43,0l-.06.21,0-.23H69.12c-.34,0-.69,0-1,0-.59,0-1.17,0-1.75-.06-.73,0-1.44-.07-2.16-.07s-1.14,0-1.71-.06c-.38,0-.76,0-1.13,0-.62-.07-1.24,0-1.85-.09s-1.3,0-2-.06a0,0,0,0,0,0,0l.64,0c.48-.06,1,0,1.45-.09s1-.06,1.49-.06.89,0,1.34-.09,1-.07,1.55-.07.86,0,1.28-.09,1-.07,1.5-.06,1,0,1.48-.1c0-.19-.08-.38-.13-.57s-.18-.09-.27-.11l-3.34-.47c.07-.06.17,0,.25,0l2.59-.21.58,0a6.94,6.94,0,0,0-.25-.81c-1.85-.28-3.7-.53-5.55-.84.48-.07,1-.11,1.44-.16h6.19c.24,0,.48,0,.72,0l3.4,0a6.77,6.77,0,0,0,.78,0c.16-1,.36-2,.53-3.07a11.31,11.31,0,0,1,2.41-5.27,9.43,9.43,0,0,1,2.61-2.13A8.56,8.56,0,0,1,82.07,50.4Z" transform="translate(-23.5 -18.21)"/><path class="cls-11" d="M81,61.06c1,0,2,0,3,0a1,1,0,0,1,1,.59c-.37,0-.74,0-1.11,0H80.83a3.75,3.75,0,0,1,.13-.6Zm-7.6,4.83a1,1,0,0,1,.43,0c-.36,1.9-.68,3.8-1,5.7,0,.2-.28.13-.42.11s0-.11,0-.15c.33-1.82.64-3.63,1-5.45l.06-.21Z" transform="translate(-23.5 -18.21)"/><path class="cls-13" d="M81.41,43.29a.53.53,0,0,1,0-.25h0a.61.61,0,0,0-.5-.45.54.54,0,0,0-.53.16c-.21.28-.11.64-.12,1,0,0,0,.06,0,.08a4.2,4.2,0,0,1-.06.62.35.35,0,0,0,0,.2,4.75,4.75,0,0,1-.5,1.41.47.47,0,0,0-.1.2A7.43,7.43,0,0,1,79,47a.34.34,0,0,0-.08.09,6,6,0,0,1-.43.44l-.09.07a3.66,3.66,0,0,1-.58.46l-.09.06a8.23,8.23,0,0,1-4.48,1.24,8.39,8.39,0,0,1-3.85-.81l-.1,0a5,5,0,0,1-.59-.34l-.13-.06A5.22,5.22,0,0,1,68,47.7a1.1,1.1,0,0,0-.18-.14,4.1,4.1,0,0,1-.53-.49l-.13-.13a5.15,5.15,0,0,1-1.23-2.07,6.54,6.54,0,0,1-.22-1.93.68.68,0,0,0-.88-.26c-.13.09-.15.26-.24.38a6,6,0,0,0,1.72,4.62.08.08,0,0,0,.06.08l.61.57.12.11c.21.17.43.32.65.48a.57.57,0,0,0,.13.08,6,6,0,0,0,.85.48l.08.05a9.23,9.23,0,0,0,3.12.89,1.39,1.39,0,0,1,.35,0c.52,0,1,0,1.55,0A9.24,9.24,0,0,0,78.38,49l0,0,.12-.1c.21-.15.42-.32.62-.49l.15-.12a9.94,9.94,0,0,0,.68-.76l0,0,0-.11a7.15,7.15,0,0,0,.49-.73l0-.06,0,0,.07-.08a6.22,6.22,0,0,0,.62-1.82.08.08,0,0,0,.06-.08c0-.21.07-.4.05-.61a3.29,3.29,0,0,0,0-.77Z" transform="translate(-23.5 -18.21)"/><g class="cls-14"><path class="cls-15" d="M64.18,43.12c.42.13,1.38-.2,1.65.1m-1.41,1.17c.4-.14,1.26-.47,1.61-.27m-1.2,1.54c.2.07.58-.27.77-.37a2.57,2.57,0,0,1,.88-.31m-1,2a2.94,2.94,0,0,1,.73-.72c.28-.2,1.06-.73,1.4-.55M66,48c.23-.18.32-.49.56-.68a5.49,5.49,0,0,1,1-.42M67,48.68c.07-.5.58-1.1,1.06-1.06m-.31,1.75c.26,0,.47-.59.65-.79a1.58,1.58,0,0,1,.86-.48m0,1.89c0-.36.35-1.39.79-1.34m.31,1.68c0-.42.2-1.7.72-1.75M71.46,51a2.21,2.21,0,0,1,.38-1.89m1,2c-.05-.5-.55-1.5,0-1.89m1.51,1.55a2.91,2.91,0,0,1-.27-1.65m1.71,1.4a3.5,3.5,0,0,1-.47-1c0-.23,0-.55,0-.73M77,50.06a1.78,1.78,0,0,1-.38-1.62m1.54,1.1a3.91,3.91,0,0,1-.58-1.75m1.72.65c-.44-.29-1-.82-.93-1.4m2.13.48a3.76,3.76,0,0,1-1.86-1.27m2.41.13c-.48-.1-2.06-.71-2-1.34m2.47.14a7.07,7.07,0,0,1-2.16-.93m2.51-.17a6.19,6.19,0,0,1-1.45-.24c-.47-.08-.91-.24-1.37-.34M81.53,43a6.08,6.08,0,0,1-2.31-.48" transform="translate(-23.5 -18.21)"/></g><path class="cls-16" d="M58.05,79.72a2.11,2.11,0,0,1,1.58.2,1.07,1.07,0,0,1,.35.92,1.61,1.61,0,0,1-.73,1.44,2.49,2.49,0,0,1-1.45.21A1.1,1.1,0,0,1,57,82a1.65,1.65,0,0,1,1.08-2.25Zm-15.75.62a.62.62,0,0,1,.61-.55h6.86a.65.65,0,0,1,.63.31c.17.29,0,.62,0,.93s0,1-.53,1.13c-1.67,0-3.34,0-5,0-.16,1-.3,2.09-.46,3.14,0,0,0,.13,0,.17h3.66a.61.61,0,0,1,.66.62c0,.37-.1.73-.15,1.09a.65.65,0,0,1-.5.53c-1.36,0-2.74,0-4.1,0-.22,1.5-.48,3-.71,4.5a.6.6,0,0,1-.56.56H41a.6.6,0,0,1-.56-.74c.6-3.91,1.23-7.82,1.85-11.73Zm10.09-.53c.51,0,1,0,1.56,0a.64.64,0,0,1,.66.55,6.93,6.93,0,0,1-.1.78c-.41,2.66-.84,5.32-1.26,8a3.09,3.09,0,0,0,0,1.32c.15.44.82.25,1,.7a3.65,3.65,0,0,1,0,1.14c0,.49-.6.6-1,.71a2.63,2.63,0,0,1-2.47-.65,2.31,2.31,0,0,1-.38-1.86L51.9,80.32a.6.6,0,0,1,.49-.51Zm19.7.53a.63.63,0,0,1,.6-.55H74.2a.62.62,0,0,1,.59.75c-.34,2.21-.7,4.41-1.05,6.61a2.31,2.31,0,0,0,1.49-.6,9.33,9.33,0,0,0,1.5-2.34c.13-.33.2-.81.63-.87s1.14,0,1.7,0a.6.6,0,0,1,.55.79A7.27,7.27,0,0,1,79,85.61a11.32,11.32,0,0,1-2,2.59c.37,1.1.83,2.17,1.24,3.25.12.36.41.78.14,1.12s-.88.21-1.31.26-1.09.18-1.34-.33c-.47-1.08-.85-2.19-1.33-3.27a6,6,0,0,1-.85,0l-.07.16c-.15,1-.31,2-.47,3a.6.6,0,0,1-.51.46c-.52,0-1.06,0-1.6,0a.62.62,0,0,1-.53-.35,1.07,1.07,0,0,1,0-.64q.92-5.75,1.82-11.5Zm27.59,1.09a.62.62,0,0,1,.62-.46c.4,0,.8,0,1.21,0a.6.6,0,0,1,.55.65c-.06.57-.2,1.14-.24,1.7.38,0,.78,0,1.17,0a.61.61,0,0,1,.57.7c0,.3-.11.6-.16.91a.65.65,0,0,1-.52.51c-.48,0-.94,0-1.41,0-.2,1.33-.42,2.66-.63,4a1.46,1.46,0,0,0,.13.92c.27.33.74.21,1.12.25a.66.66,0,0,1,.43.71c0,.34-.06.68-.14,1s-.54.43-.87.52a3.43,3.43,0,0,1-2.75-.29A2.43,2.43,0,0,1,98,90.27c.2-1.61.53-3.21.71-4.82-.28,0-.61,0-.82-.2s-.12-.62-.08-.93,0-.75.4-.93a4.08,4.08,0,0,1,.93-.07c.19-.63.36-1.27.56-1.89Zm-5.61,3.21a5.49,5.49,0,0,1,2.25-1.4.63.63,0,0,1,.85.57c-.07.54-.2,1.08-.29,1.62a.63.63,0,0,1-.53.52,4.69,4.69,0,0,0-2.49,1.45c-.17.21-.42.41-.45.7-.21,1.39-.43,2.78-.65,4.17a.61.61,0,0,1-.59.56H90.66a.62.62,0,0,1-.62-.67c.44-2.75.88-5.49,1.3-8.24a.61.61,0,0,1,.51-.58c.37,0,.74,0,1.11,0a.6.6,0,0,1,.58.58c0,.42,0,.86-.05,1.3a3.92,3.92,0,0,0,.58-.57ZM57,83.38a11.14,11.14,0,0,1,1.63,0,.61.61,0,0,1,.69.47,3.13,3.13,0,0,1-.07.81c-.41,2.55-.82,5.11-1.21,7.66a.61.61,0,0,1-.58.56c-.53,0-1.07,0-1.62,0a.62.62,0,0,1-.49-.75c.42-2.65.83-5.29,1.26-7.94A.81.81,0,0,1,57,83.38Zm32.13.13a15.78,15.78,0,0,0-4.49-.33,5.16,5.16,0,0,0-3.51,1.88,6.88,6.88,0,0,0-1.27,5.2A3.49,3.49,0,0,0,81,92.53a3,3,0,0,0,2.33.45,5.58,5.58,0,0,0,2.83-1.73c0,.34,0,.68,0,1a.62.62,0,0,0,.61.57h1a.61.61,0,0,0,.57-.56c.42-2.69.85-5.37,1.27-8a.63.63,0,0,0-.55-.71ZM86.3,88.19a7.58,7.58,0,0,1-1.58,2,1.61,1.61,0,0,1-1.3.51c-.47-.1-.7-.6-.81-1a4.38,4.38,0,0,1,.6-3.29,2.13,2.13,0,0,1,1.24-.92,4.32,4.32,0,0,1,2.2.11l0,0c-.09.86-.26,1.71-.39,2.58ZM69.6,86.7a4.11,4.11,0,0,0-1-2.78,2.51,2.51,0,0,0-1.89-.79,4.51,4.51,0,0,0-3.07,1.28c-.19.15-.32.37-.53.49,0-.33,0-.66,0-1a.59.59,0,0,0-.58-.58h-1a.62.62,0,0,0-.59.59c-.63,4-1.27,7.94-1.89,11.91a.62.62,0,0,0,.61.74,15.27,15.27,0,0,0,1.66,0c.44-.12.43-.63.5-1,.16-.87.27-1.74.37-2.63a6.29,6.29,0,0,0,5.69-1.36A6.85,6.85,0,0,0,69.6,86.7Zm-2.78,1a4,4,0,0,1-1,2.5,3.21,3.21,0,0,1-3.09.41.67.67,0,0,1-.06-.12c.16-.86.24-1.74.44-2.59a6.09,6.09,0,0,1,2.19-2.34.94.94,0,0,1,1.11.19,2.83,2.83,0,0,1,.43,2Z" transform="translate(-23.5 -18.21)"/></svg>