<svg id="Layer_1" data-name="Layer 1" xmlns="http://www.w3.org/2000/svg" viewBox="0 0 44.4 48.19"><defs><style>.cls-1{fill:#3374c1;}.cls-2{fill:#fff;}</style></defs><rect class="cls-1" width="44.4" height="48.19" rx="9.05"/><path class="cls-2" d="M275.53,166.05h-5.71a4.58,4.58,0,0,1-4.57-4.58v-8.82a4.57,4.57,0,0,1,4.57-4.57h5.71a4.58,4.58,0,0,1,4.58,4.57v8.82A4.59,4.59,0,0,1,275.53,166.05Zm-5.71-17.28a3.88,3.88,0,0,0-3.88,3.88v8.82a3.89,3.89,0,0,0,3.88,3.89h5.71a3.88,3.88,0,0,0,3.88-3.89v-8.82a3.88,3.88,0,0,0-3.88-3.88Z" transform="translate(-250.4 -131.06)"/><path class="cls-2" d="M274.75,152.89h-1a.35.35,0,0,1,0-.69h1a.35.35,0,0,1,0,.69Z" transform="translate(-250.4 -131.06)"/><path class="cls-2" d="M267.89,152.89h-2.3a.34.34,0,0,1-.34-.34.35.35,0,0,1,.34-.35h2.3a.35.35,0,0,1,0,.69Z" transform="translate(-250.4 -131.06)"/><path class="cls-2" d="M271.31,152.89h-1a.35.35,0,0,1,0-.69h1a.35.35,0,0,1,0,.69Z" transform="translate(-250.4 -131.06)"/><path class="cls-2" d="M279.76,152.89h-2.6a.35.35,0,0,1,0-.69h2.6a.35.35,0,0,1,0,.69Z" transform="translate(-250.4 -131.06)"/><path class="cls-2" d="M279.75,161.93H265.61a.35.35,0,1,1,0-.69h14.14a.35.35,0,0,1,0,.69Z" transform="translate(-250.4 -131.06)"/><path class="cls-2" d="M276.69,168h-8a.35.35,0,0,1-.35-.35.41.41,0,0,1,.05-.18l1.18-2a.35.35,0,0,1,.3-.17h5.67a.34.34,0,0,1,.3.17l1.18,2a.35.35,0,0,1-.12.48.37.37,0,0,1-.18,0Zm-7.42-.7h6.82l-.77-1.29H270Z" transform="translate(-250.4 -131.06)"/><path class="cls-2" d="M269.44,148.79a.35.35,0,0,1-.35-.34v-4.23a.35.35,0,0,1,.35-.34h6.47a.35.35,0,0,1,.35.34v4.22a.35.35,0,0,1-.35.35.35.35,0,0,1-.34-.35v-3.87h-5.79v3.88a.34.34,0,0,1-.34.34Z" transform="translate(-250.4 -131.06)"/><path class="cls-2" d="M277.08,144.57h-8.81a.35.35,0,0,1-.34-.35.34.34,0,0,1,.34-.34h8.81a.35.35,0,0,1,.35.34A.35.35,0,0,1,277.08,144.57Z" transform="translate(-250.4 -131.06)"/><path class="cls-2" d="M272.68,148.77a.35.35,0,0,1-.35-.34v-2.18a.35.35,0,0,1,.35-.35.34.34,0,0,1,.34.35v2.18A.34.34,0,0,1,272.68,148.77Z" transform="translate(-250.4 -131.06)"/><path class="cls-2" d="M273.94,146.59h-2.53a.35.35,0,1,1,0-.69h2.53a.35.35,0,1,1,0,.69Z" transform="translate(-250.4 -131.06)"/><path class="cls-2" d="M272.61,171.93A16.38,16.38,0,1,1,289,155.56,16.39,16.39,0,0,1,272.61,171.93Zm0-32a15.63,15.63,0,1,0,15.62,15.63A15.65,15.65,0,0,0,272.61,139.93Z" transform="translate(-250.4 -131.06)"/></svg>