<svg xmlns="http://www.w3.org/2000/svg" viewBox="0 0 44.4 48.19"><defs><style>.cls-1{fill:#ed1c24;}.cls-2{fill:#fff;}.cls-3{fill:none;stroke:#fff;stroke-miterlimit:10;stroke-width:0.75px;}</style></defs><g id="Layer_2" data-name="Layer 2"><g id="Layer_1-2" data-name="Layer 1"><rect class="cls-1" width="44.4" height="48.19" rx="9.05"/><path class="cls-2" d="M24.68,32.88h-5a4,4,0,0,1-4-4V21.22a4,4,0,0,1,4-4h5a4,4,0,0,1,4,4V28.9A4,4,0,0,1,24.68,32.88Zm-5-15a3.38,3.38,0,0,0-3.38,3.38V28.9a3.38,3.38,0,0,0,3.38,3.38h5a3.38,3.38,0,0,0,3.38-3.38V21.22a3.38,3.38,0,0,0-3.38-3.38Z"/><path class="cls-2" d="M24,21.43h-.89a.3.3,0,0,1-.3-.3.29.29,0,0,1,.3-.3H24a.29.29,0,0,1,.3.3A.3.3,0,0,1,24,21.43Z"/><path class="cls-2" d="M18,21.43H16a.3.3,0,0,1-.3-.3.29.29,0,0,1,.3-.3h2a.29.29,0,0,1,.3.3A.3.3,0,0,1,18,21.43Z"/><path class="cls-2" d="M21,21.43h-.88a.31.31,0,0,1-.3-.3.3.3,0,0,1,.3-.3H21a.3.3,0,0,1,.3.3A.31.31,0,0,1,21,21.43Z"/><path class="cls-2" d="M28.37,21.43H26.1a.31.31,0,0,1-.3-.3.3.3,0,0,1,.3-.3h2.26a.3.3,0,1,1,0,.6Z"/><path class="cls-2" d="M28.35,29.3H16a.31.31,0,0,1-.3-.3.3.3,0,0,1,.3-.3H28.35a.29.29,0,0,1,.3.3A.3.3,0,0,1,28.35,29.3Z"/><path class="cls-2" d="M25.69,34.61h-7a.3.3,0,0,1-.3-.3.28.28,0,0,1,0-.15l1-1.73a.3.3,0,0,1,.26-.15h4.94a.32.32,0,0,1,.26.15l1,1.73a.29.29,0,0,1-.26.45ZM19.23,34h5.94l-.67-1.13H19.9Z"/><path class="cls-2" d="M19.38,17.86a.29.29,0,0,1-.3-.3V13.88a.29.29,0,0,1,.3-.3H25a.3.3,0,0,1,.3.3v3.68a.31.31,0,0,1-.3.3.3.3,0,0,1-.3-.3V14.18h-5v3.38a.29.29,0,0,1-.3.3Z"/><path class="cls-2" d="M26,14.18H18.36a.3.3,0,1,1,0-.6H26a.3.3,0,1,1,0,.6Z"/><path class="cls-2" d="M22.2,17.84a.29.29,0,0,1-.3-.3v-1.9a.3.3,0,0,1,.3-.3.31.31,0,0,1,.3.3v1.9A.3.3,0,0,1,22.2,17.84Z"/><path class="cls-2" d="M23.3,15.94H21.1a.29.29,0,0,1-.3-.3.3.3,0,0,1,.3-.3h2.2a.3.3,0,0,1,.3.3A.29.29,0,0,1,23.3,15.94Z"/><circle class="cls-3" cx="22.2" cy="24.1" r="16.25"/></g></g></svg>