<svg id="Layer_1" data-name="Layer 1" xmlns="http://www.w3.org/2000/svg" viewBox="0 0 44.4 48.19"><defs><style>.cls-1{fill:#3374c1;}.cls-2{fill:#fff;}</style></defs><rect class="cls-1" width="44.4" height="48.19" rx="9.05"/><path class="cls-2" d="M54.75,68.32H47a6.18,6.18,0,0,1-6.18-6.18V50.22A6.18,6.18,0,0,1,47,44h7.72a6.18,6.18,0,0,1,6.18,6.18V62.14A6.18,6.18,0,0,1,54.75,68.32ZM47,45a5.25,5.25,0,0,0-5.25,5.25V62.14A5.26,5.26,0,0,0,47,67.39h7.72A5.26,5.26,0,0,0,60,62.14V50.22A5.25,5.25,0,0,0,54.75,45Z" transform="translate(-28.02 -30.15)"/><path class="cls-2" d="M53.69,50.54H52.3a.47.47,0,0,1,0-.94h1.39a.47.47,0,0,1,0,.94Z" transform="translate(-28.02 -30.15)"/><path class="cls-2" d="M44.42,50.54h-3.1a.47.47,0,0,1-.47-.47.46.46,0,0,1,.46-.47h3.11a.47.47,0,0,1,0,.94Z" transform="translate(-28.02 -30.15)"/><path class="cls-2" d="M49,50.54H47.68a.47.47,0,0,1,0-.94H49a.47.47,0,0,1,0,.94Z" transform="translate(-28.02 -30.15)"/><path class="cls-2" d="M60.47,50.54H57a.47.47,0,0,1,0-.94h3.51a.47.47,0,0,1,.47.47A.48.48,0,0,1,60.47,50.54Z" transform="translate(-28.02 -30.15)"/><path class="cls-2" d="M60.45,62.75H41.33a.45.45,0,0,1-.46-.46.46.46,0,0,1,.46-.47H60.45a.47.47,0,0,1,.46.47A.46.46,0,0,1,60.45,62.75Z" transform="translate(-28.02 -30.15)"/><path class="cls-2" d="M56.32,71H45.46a.47.47,0,0,1-.47-.47.51.51,0,0,1,.07-.24l1.59-2.68a.47.47,0,0,1,.41-.23h7.66a.44.44,0,0,1,.4.23l1.6,2.68a.47.47,0,0,1-.16.64.51.51,0,0,1-.24.07Zm-10-.94H55.5l-1-1.75H47.32Z" transform="translate(-28.02 -30.15)"/><path class="cls-2" d="M46.51,45a.47.47,0,0,1-.46-.47V38.82a.47.47,0,0,1,.46-.47h8.75a.47.47,0,0,1,.47.47v5.7a.47.47,0,1,1-.93,0V39.28H47v5.25a.47.47,0,0,1-.47.47Z" transform="translate(-28.02 -30.15)"/><path class="cls-2" d="M56.84,39.28H44.94a.47.47,0,1,1,0-.93h11.9a.47.47,0,1,1,0,.93Z" transform="translate(-28.02 -30.15)"/><path class="cls-2" d="M50.89,45a.47.47,0,0,1-.47-.47v-3a.47.47,0,0,1,.94,0v3A.47.47,0,0,1,50.89,45Z" transform="translate(-28.02 -30.15)"/><path class="cls-2" d="M52.6,42H49.18a.47.47,0,1,1,0-.93H52.6a.47.47,0,1,1,0,.93Z" transform="translate(-28.02 -30.15)"/></svg>