<svg xmlns="http://www.w3.org/2000/svg" viewBox="0 0 44.4 48.19"><defs><style>.cls-1{fill:#c1272d;}.cls-2{fill:#fff;}</style></defs><g id="Layer_2" data-name="Layer 2"><g id="Layer_1-2" data-name="Layer 1"><rect class="cls-1" width="44.4" height="48.19" rx="9.05"/><path class="cls-2" d="M26.73,38.17H19A6.18,6.18,0,0,1,12.83,32V20.07A6.19,6.19,0,0,1,19,13.88h7.72a6.19,6.19,0,0,1,6.18,6.19V32A6.18,6.18,0,0,1,26.73,38.17ZM19,14.82a5.25,5.25,0,0,0-5.25,5.25V32A5.26,5.26,0,0,0,19,37.24h7.72A5.26,5.26,0,0,0,32,32V20.07a5.25,5.25,0,0,0-5.25-5.25Z"/><path class="cls-2" d="M25.67,20.38H24.28a.46.46,0,0,1-.46-.46.47.47,0,0,1,.46-.47h1.39a.47.47,0,0,1,.47.47A.46.46,0,0,1,25.67,20.38Z"/><path class="cls-2" d="M16.4,20.38H13.3a.45.45,0,0,1-.47-.46.47.47,0,0,1,.46-.47H16.4a.47.47,0,0,1,.47.47A.46.46,0,0,1,16.4,20.38Z"/><path class="cls-2" d="M21,20.38H19.67a.46.46,0,0,1-.47-.46.47.47,0,0,1,.47-.47H21a.46.46,0,0,1,.46.47A.45.45,0,0,1,21,20.38Z"/><path class="cls-2" d="M32.45,20.38H28.94a.46.46,0,0,1-.47-.46.47.47,0,0,1,.47-.47h3.5a.47.47,0,0,1,.47.47A.46.46,0,0,1,32.45,20.38Z"/><path class="cls-2" d="M32.43,32.6H13.31a.47.47,0,0,1,0-.93H32.43a.47.47,0,0,1,0,.93Z"/><path class="cls-2" d="M28.3,40.86H17.44a.47.47,0,0,1-.47-.47.51.51,0,0,1,.07-.24l1.6-2.69a.45.45,0,0,1,.4-.22H26.7a.45.45,0,0,1,.4.22l1.6,2.69a.47.47,0,0,1-.16.64.51.51,0,0,1-.24.07Zm-10-.94h9.22l-1-1.75H19.3Z"/><path class="cls-2" d="M18.5,14.85a.47.47,0,0,1-.47-.47V8.67a.47.47,0,0,1,.47-.47h8.75a.47.47,0,0,1,.46.47v5.7a.47.47,0,1,1-.93,0V9.13H19v5.25a.47.47,0,0,1-.46.47Z"/><path class="cls-2" d="M28.82,9.13H16.92a.47.47,0,1,1,0-.93h11.9a.47.47,0,1,1,0,.93Z"/><path class="cls-2" d="M22.87,14.82a.47.47,0,0,1-.47-.47V11.4a.47.47,0,0,1,.94,0v2.95A.47.47,0,0,1,22.87,14.82Z"/><path class="cls-2" d="M24.58,11.87H21.16a.47.47,0,0,1-.47-.47.46.46,0,0,1,.47-.46h3.42a.46.46,0,0,1,.47.46A.47.47,0,0,1,24.58,11.87Z"/></g></g></svg>