<svg id="Layer_1" data-name="Layer 1" xmlns="http://www.w3.org/2000/svg" viewBox="0 0 75.29 75.29"><defs><style>.cls-1{fill:#fff;}</style></defs><path class="cls-1" d="M268.11,174.06h8v-8h-8Zm3.77-60.67A37.65,37.65,0,1,0,309.52,151,37.66,37.66,0,0,0,271.88,113.39Zm0,67.76A30.12,30.12,0,1,1,302,151,30.16,30.16,0,0,1,271.88,181.15ZM274.22,128a15.21,15.21,0,0,0-17.54,15h7.6a7.6,7.6,0,0,1,15.2-.09c.08,7.7-11.4,6.69-11.4,19.09h7.6c0-9,12.7-9.58,11.29-20.67A15.38,15.38,0,0,0,274.22,128Z" transform="translate(-234.23 -113.39)"/></svg>