<?xml version="1.0" encoding="utf-8"?>
<!-- Generator: Adobe Illustrator 24.3.0, SVG Export Plug-In . SVG Version: 6.00 Build 0)  -->
<svg version="1.1" id="Layer_1" xmlns="http://www.w3.org/2000/svg" xmlns:xlink="http://www.w3.org/1999/xlink" x="0px" y="0px"
	 viewBox="0 0 595.28 841.89" style="enable-background:new 0 0 595.28 841.89;" xml:space="preserve">
<style type="text/css">
	.st0{fill:#BBD8F9;}
	.st1{fill:#A8D29F;}
	.st2{fill:#4A75CB;}
	.st3{fill:#699DEE;}
	.st4{fill:#D86713;}
	.st5{fill:#F1A34F;}
	.st6{fill:#C95C12;}
	.st7{fill:#82B378;}
	.st8{fill:#FFB973;}
	.st9{fill:#ED975D;}
	.st10{fill:#2B478B;}
	.st11{fill:#233862;}
	.st12{fill:#1E3D70;}
	.st13{fill:#FFB27D;}
	.st14{fill:#2C3A64;}
	.st15{fill:#ED6BA0;}
	.st16{fill:#D1528C;}
	.st17{fill:#A9453D;}
	.st18{fill:#056656;}
	.st19{fill:#034C3E;}
	.st20{fill:#2A4E96;}
	.st21{fill:#35488B;}
	.st22{fill:#79C2C6;}
	.st23{fill:#A3E8EF;}
	.st24{fill:#4271BC;}
	.st25{fill:#E85252;}
	.st26{fill:#F27070;}
	.st27{fill:#DD3E3E;}
</style>
<g>
	<path class="st0" d="M173.04,465.67c0,0-29.51-62.85,28.65-62.85c30.73,0,18.07-17.24,38.97-37.2
		c20.89-19.96,93.97-35.9,109.52,2.64c15.55,38.54-22.88,67.79,14.26,62.77c44.63-6.03,62.26,34.64,62.26,34.64H173.04
		L173.04,465.67z"/>
	<path class="st1" d="M480.95,455.38c-3.89-2.84-11.84-0.92-17.71,1.13c-0.88-1.23-1.94-2.5-3.23-3.74
		c12.64-8.14,30.11-25.51,20.85-26.98c-8.05-1.28-18.9,14.36-24.71,23.87c-6.03-4.05-15.26-7.03-29.36-6
		c-36.59,2.68-65.17-20.92-86.24-13.05c-16.75,6.26-32.1,9.76-46.91,8.57c0.64-10.82,0.78-32.05-7.72-34.25
		c-8.62-2.24-0.17,21.88,4.53,33.92c-1.1-0.14-2.2-0.31-3.3-0.51c-3.04-6-8.06-13.86-13.57-14.12c-5.19-0.25,1.21,6.81,7.51,12.79
		c-18.11-3.8-39.58,10.92-39.94,28.32h226.04c0,0-0.4-2.54-2.17-5.89C473.78,459.26,485.18,458.47,480.95,455.38L480.95,455.38z"/>
	<polygon class="st2" points="230.91,451.87 230.91,465.32 290.48,465.32 290.48,451.87 230.91,451.87 	"/>
	<polygon class="st3" points="212.54,451.87 212.54,465.32 272.11,465.32 272.11,451.87 212.54,451.87 	"/>
	<polygon class="st4" points="313.92,465.32 358.28,465.32 358.28,403.32 313.92,403.32 313.92,465.32 	"/>
	<polygon class="st5" points="300.24,465.32 344.6,465.32 344.6,403.32 300.24,403.32 300.24,465.32 	"/>
	<polygon class="st6" points="344.6,403.32 358.28,412.63 358.28,403.32 344.6,403.32 	"/>
	<path class="st7" d="M207.66,417.05c0,0-8.3,6.17-9.91,5.79c-1.62-0.37,6.06-6.66,6.06-6.66c-2.89-1.39-11.87-0.52-11.87-0.52
		s-2.99,9.65-4.47,8.89c-1.48-0.76,3.09-8.41,3.09-8.41c-3.22-0.19-7.17,2.2-7.17,2.2c-5.4,4.27,0.36,10.99,0.36,10.99
		s-1.11,3.32-4.52,6.35c0,0-4.87,3.61-5.21,10.05l0.88,0.08c0,0,1.4-6,3.95-8.84c0.1-0.1,0.24-0.25,0.42-0.43
		c0.42-0.39,0.71-0.67,0.9-0.89c1.27-1.22,3.02-2.77,3.87-2.92c0,0-0.04-0.15-0.04-0.42c0.01,0.14,0.02,0.28,0.04,0.42
		c0.29,3.4,6.88,6.36,10.93,6.97c4.05,0.61,2.8-1.06,1.4-3.53c-1.4-2.47-5.82-3.58-6.83-4.71c-1.01-1.14,1.08-1.14,3.52-0.03
		c2.44,1.12,2.78,4.09,6.69,5.97c3.92,1.88,9.81-4.63,9.81-4.63c-3.12-0.16-7.58-3.55-7.42-4.59c0.16-1.04,7.57,1.79,8.84,1.93
		c1.27,0.14,4.15-1.44,4.59-6.54C216.02,418.47,207.66,417.05,207.66,417.05L207.66,417.05z"/>
	<path class="st1" d="M163.6,420.88c0,0,9.16-5.13,4.89-12.1c0,0-3.42-4.28-7.09-5.38c0,0,1.95,10.38,0,10.63
		c-1.95,0.24-1.34-11.73-1.34-11.73s-9.65-4.64-13.44-4.28c0,0,5.99,10.14,4.03,9.9c-1.95-0.24-8.67-10.51-8.67-10.51
		s-9.9-1.83-11.48,4.03c-1.59,5.86,0.98,8.8,2.44,9.16c1.47,0.37,10.87,0.24,10.63,1.47s-6.6,3.18-10.14,2.08
		c0,0,3.91,9.65,9.04,9.16c5.13-0.49,6.72-3.66,9.9-3.91c3.18-0.24,5.5,0.61,3.91,1.47c-1.59,0.85-6.96,0.28-9.53,2.46
		c-2.57,2.18-4.64,3.53,0.12,4.5c4.76,0.98,13.32,0.37,15.03-3.3C163.6,420.88,163.6,420.88,163.6,420.88L163.6,420.88z"/>
	<path class="st7" d="M166.05,429.8c-2.57-4.76-2.44-8.92-2.44-8.92c-2.93-9.29-28.59-17.59-28.59-17.59
		c32.62,13.19,26.88,21.26,26.88,21.26c0.88,0.51,2.2,2.96,3.11,4.83c0.13,0.32,0.34,0.76,0.64,1.36l0,0
		c0.12,0.27,0.22,0.49,0.29,0.65c1.68,4.2,0.79,11.46,0.79,11.46l1.02,0.27C170,435.81,166.05,429.8,166.05,429.8L166.05,429.8z"/>
	<path class="st1" d="M178.18,413.8c0,0-12.08-6.76-6.44-15.94c0,0,4.51-5.64,9.34-7.09c0,0-2.58,13.69,0,14.01
		c2.58,0.32,1.77-15.46,1.77-15.46s12.72-6.12,17.72-5.64c0,0-7.89,13.37-5.31,13.05c2.58-0.32,11.43-13.85,11.43-13.85
		s13.04-2.42,15.14,5.31c2.09,7.73-1.29,11.6-3.22,12.08c-1.93,0.48-14.33,0.32-14.01,1.93c0.32,1.61,8.7,4.19,13.37,2.74
		c0,0-5.15,12.72-11.92,12.08c-6.76-0.64-8.86-4.83-13.04-5.15c-4.19-0.32-7.25,0.8-5.15,1.93c2.09,1.13,9.18,0.37,12.56,3.24
		s6.12,4.65-0.16,5.93c-6.28,1.29-17.55,0.48-19.81-4.35C178.18,413.8,178.18,413.8,178.18,413.8L178.18,413.8z"/>
	<path class="st7" d="M215.87,390.61c0,0-33.82,10.95-37.69,23.19c0,0,0.16,5.47-3.22,11.76c0,0-5.22,7.92-2.24,17.56l1.34-0.36
		c0,0-1.17-9.57,1.04-15.11c0.09-0.2,0.22-0.5,0.38-0.85l0,0c0.4-0.79,0.68-1.37,0.85-1.79c1.21-2.47,2.94-5.7,4.1-6.37
		C180.44,418.64,172.87,408.01,215.87,390.61L215.87,390.61z"/>
	<path class="st5" d="M177.77,464.03c13.07,0,23.66-10.59,23.66-23.66h-47.32C154.11,453.44,164.71,464.03,177.77,464.03
		L177.77,464.03z"/>
	<path class="st8" d="M183.6,463.85c-0.96,0.12-1.94,0.18-2.94,0.18c-13.07,0-23.66-10.59-23.66-23.66h5.88
		C162.87,452.44,171.92,462.4,183.6,463.85L183.6,463.85z"/>
	<path class="st5" d="M198.84,462.4h-42.14c-1.61,0-2.92,1.31-2.92,2.92h47.97C201.76,463.71,200.45,462.4,198.84,462.4
		L198.84,462.4z"/>
	<path class="st4" d="M201.61,440.37H153.7c-0.2,0-0.36,0.16-0.36,0.36c0,0.2,0.16,0.36,0.36,0.36h47.91c0.2,0,0.36-0.16,0.36-0.36
		C201.97,440.53,201.81,440.37,201.61,440.37L201.61,440.37z"/>
	<path class="st9" d="M384.18,315.78c-0.69-0.1-2.75,1.81-2.75,1.81l0,0c-4.41,0.51-10.86,1.68-13.19,2.13
		c-1.65,0.32-6.07-1.19-10.4-2.93c-5.14-2.06-10.14-4.44-10.14-4.44c-2.85-0.15-6.1,5.06-0.31,8.37c0.88,0.51,4.2,1.37,8.03,2.16
		c0,0,0,0,0,0c5.27,1.09,11.51,2.03,13.63,1.7c2.46-0.39,9.44-2.94,13.59-4.89v0c0,0,0,0,0.01-0.01c0.02-0.01,0.03-0.01,0.05-0.02
		c0.25-0.12,1.26-0.57,1.94-0.53c0.78,0.05,2.51-1.38,2.56-1.76C387.24,316.99,384.87,315.88,384.18,315.78L384.18,315.78z"/>
	<path class="st10" d="M378.8,381.38l-2.43,0.49c0,0-11.12-12.49-12.83-17.75c-0.92-2.81-6.79-4.02-12.92-5.61
		c-5.34-1.38-10.88-3.04-13.52-6.29c-5.69-6.97,3.57-15.54,3.57-15.54s9.84,5.85,18.34,11.89c5.93,4.22,11.21,8.54,12.01,11.02
		C372.93,365.64,377.02,377.11,378.8,381.38L378.8,381.38z"/>
	<path class="st11" d="M375.54,385.5h1.37c0.46-0.07,0.8-0.2,1.26-0.27c0.71-0.09,1.04,0.2,1.11,0.27c0.01,0.01,0.01,0.01,0.01,0.01
		h5.81c0.15-0.21,0.01-0.69-0.13-1.05c-0.09-0.24-0.29-0.42-0.54-0.5c-0.62-0.18-1.83-0.34-2.94-1.34
		c-0.62-0.57-3.02-2.08-3.02-2.08l-0.01,0c-0.05,0-0.3,0.08-1.39,1c-0.56,0.47-1.52-0.67-1.52-0.67s-0.18,0.15-0.31,0.43
		c-0.11,0.22-0.19,0.52-0.13,0.89c0.09,0.52-0.19,1.5-0.42,2.15c-0.13,0.4-0.25,0.68-0.25,0.68S374.37,385.35,375.54,385.5
		L375.54,385.5z"/>
	<path class="st12" d="M358.99,348.58l-8.38,9.94c-5.34-1.38-10.88-3.04-13.52-6.29c-5.69-6.97,3.57-15.54,3.57-15.54
		S350.5,342.53,358.99,348.58L358.99,348.58z"/>
	<path class="st10" d="M351.37,343.39c0,0-0.68,2.13-1.78,5.34c-1.39,4.05-3.46,9.82-5.71,15.18c-0.49,1.18-1,2.33-1.5,3.45
		c-1.87,4.12-3.78,7.65-5.47,9.44c-3.03,3.23-10.38,23.96-10.38,23.96l-1.83-0.51c0,0-2.56-17.71,6.5-27.78
		c0.1-0.11,0.17-0.23,0.18-0.38c0,0,0,0,0,0c0.12-1.49,0.55-8.17,1.49-14.94c0.23-1.66,0.49-3.33,0.78-4.92
		c0.02-0.1,0.04-0.2,0.06-0.3c1.38-7.38,2.7-10.66,4.4-12.31l12.52,3.56L351.37,343.39L351.37,343.39z"/>
	<path class="st11" d="M324.5,403.3h1.37c0.46-0.07,0.8-0.21,1.26-0.27c0.71-0.09,1.04,0.2,1.11,0.27c0.01,0.01,0.01,0.01,0.01,0.01
		h5.8c0.15-0.21,0.01-0.69-0.13-1.05c-0.09-0.24-0.29-0.42-0.54-0.5c-0.62-0.18-1.83-0.34-2.94-1.34c-0.63-0.57-3.02-2.08-3.02-2.08
		l-0.01,0c-0.05,0-0.3,0.08-1.39,1c-0.56,0.48-1.52-0.67-1.52-0.67s-0.18,0.15-0.31,0.43c-0.11,0.22-0.19,0.52-0.13,0.89
		c0.09,0.52-0.19,1.49-0.41,2.15c-0.14,0.4-0.25,0.68-0.25,0.68S323.32,403.15,324.5,403.3L324.5,403.3z"/>
	<path class="st13" d="M327.18,319.31c0,0-2.09,5.12-4.51,10.11c-2.03,4.19-4.29,8.29-5.72,9.16c-2.02,1.23-7.58,4.71-11.18,7.3
		c0,0-2.81-0.02-3.25,0.52c-0.44,0.54-1.45,2.96-1.15,3.2c0.3,0.25,2.53,0.13,3.07-0.43c0.48-0.49,1.53-0.84,1.79-0.92
		c0.02-0.01,0.03-0.01,0.05-0.02c0.01,0,0.01,0,0.01,0v0c4.38-1.35,11.26-4.16,13.34-5.53c1.79-1.18,5.76-6.07,8.93-10.43
		c0,0,0,0,0,0c2.3-3.16,4.17-6.03,4.48-7C335.1,318.95,329.19,317.28,327.18,319.31L327.18,319.31z"/>
	<path class="st14" d="M338.14,299.21c-0.25-0.36-0.5-0.68-0.75-0.97c0.31,0.01,0.64-0.02,0.92-0.14c0.74-0.3,1.07-2.64,0.96-3.33
		c-0.11-0.69-1.13-2.69-2.39-2.89c-1.26-0.2-2.56,1.2-2.56,1.2c0.23-1.01,2.36-1.59,2.36-1.59c-4.39,0.81-4.16,3.74-4.14,4.01
		c-4.02-1.43-6.38,6.13-6.38,6.13l10.41,6.13c0,0,0.03-1.67,1.02-1.56C339.15,306.37,340.44,302.56,338.14,299.21L338.14,299.21z"/>
	<path class="st13" d="M338.8,315.09c-2.39,1.13-5.56-0.5-5.54-0.51c0.21-0.2,0.13-0.82-0.05-1.62c-0.19-0.84-0.63-1.98-1.45-3.34
		c-0.17-0.29-0.34-0.58-0.55-0.89l0.27-0.1l4.64-1.86c0,0,0.75,1.35,1.54,2.58c0.67,1.02,1.36,1.94,1.67,1.91
		C339.35,311.23,342.42,313.35,338.8,315.09L338.8,315.09z"/>
	<path class="st9" d="M336.12,307.22c-0.12,1.65-0.68,4.64-2.92,5.73c-0.19-0.84-0.63-1.98-1.45-3.34L336.12,307.22L336.12,307.22z"
		/>
	<path class="st13" d="M331.48,311.5c0,0,6.04-2.38,4.5-6.12c-1.54-3.74-1.8-6.56-5.72-5.2c-3.92,1.36-4.08,3.1-3.87,4.47
		C326.61,306.02,329.87,312.02,331.48,311.5L331.48,311.5z"/>
	<path class="st14" d="M333.74,304.52c2.79-0.39,3.6-1.52,3.6-1.52s-2.57-0.74-4.08-3.25c0,0-3.13-1.06-5.46,0.71
		c-0.14,0.18-0.24,0.4-0.29,0.66c-0.53-0.17-1.33-0.13-1.8,1.38c-0.69,2.26,1.77,4.73,1.77,4.73c0.6-0.17-0.08-2.18-0.17-3.26
		c-0.07-0.79,0.36-1.8,0.59-2.28c0.3,0.38,3.24,4.08,6.83,4.23c0,0-1.9-0.66-3.63-1.95C331.97,304.38,332.89,304.64,333.74,304.52
		L333.74,304.52z"/>
	<path class="st15" d="M350.3,322.79c-0.05-0.18-0.11-0.37-0.16-0.56c0.9-1.71,1.34-3.26,1.52-4.57c0.41-2.76-0.29-4.47-0.29-4.47
		s-4.19-2.22-6.04-2.5c-0.01,0-0.02-0.01-0.02-0.01c-0.02,0-0.05-0.01-0.07-0.01c-1.87-0.26-5.91,0.57-5.91,0.57
		s0.78,2.08-1.42,3.46c-2.2,1.38-4.55-0.35-4.55-0.35c-0.07,0.05-0.15,0.1-0.22,0.16l0,0c0,0-5.79,3.82-6.31,4.69
		c-0.52,0.87-2.75,5.2-2.75,5.2s0.71,3.63,8.53,3.93c0.64,1.56,1.14,3.08,1.3,4.35c0.62,4.93-0.1,8.81,0.62,11.69
		c0.72,2.88,13.77,1.24,16.14,0.68c2.36-0.55,1.83-3.08,2.01-5.53C352.9,336.43,351.07,325.51,350.3,322.79L350.3,322.79z"/>
	<path class="st16" d="M351.66,317.66c-0.19,1.31-0.63,2.87-1.53,4.59c-0.21-0.9-1.04-4.21-2.39-5.71
		C347.74,316.54,350.01,316.74,351.66,317.66L351.66,317.66z"/>
	<path class="st9" d="M298.53,349.94c0,0,2.43-2.95,2.95-3.29c0.52-0.35,2.82-0.96,2.95-0.84c0.13,0.12,0.14,0.3-0.15,0.55
		c-0.28,0.25-1.37,0.88-1.22,0.96c0.16,0.07,3.43-1.56,3.9-1.01c0.47,0.55-0.27,2.81-1.53,3.9c-1.26,1.09-5.03,1.55-5.27,1.7
		C298.17,353.19,298.53,349.94,298.53,349.94L298.53,349.94z"/>
	<path class="st13" d="M255.73,343.14c0,0,3.49,4.14,7.94,2.41c0,0,0.96-2.31,0.97-4.02c0-0.21,0-0.41,0.01-0.61
		c0.02-1.92,0.09-3,0.09-3s0,0,0,0c-0.2-0.08-6.8-2.79-6.79-2.57C258.05,340.55,255.73,343.14,255.73,343.14L255.73,343.14z"/>
	<path class="st9" d="M258.6,336.6c0.64,1.18,2.82,3.49,6.05,4.33c0.02-1.92,0.09-3,0.09-3s0,0,0,0
		C264.55,337.88,258.41,336.25,258.6,336.6L258.6,336.6z"/>
	<path class="st13" d="M266.12,337.73c0,0-7.42,1.74-8.43-2.89c-1.01-4.64-2.66-7.53,2.04-8.84c4.69-1.31,6,0.26,6.72,1.72
		C267.16,329.18,268.02,337.15,266.12,337.73L266.12,337.73z"/>
	<path class="st17" d="M257.94,336.1c-0.1,0.06-1.7,0.56-4.72-5.47c-0.48-0.95-0.8-2.99,0.31-4.8s5.03-3.23,8.29-3.85
		c3.26-0.62,4.04,1.22,4.81,3.06c0.81,1.93,3.13,3.53,3.13,3.53c-2.81,1.57-6.19-0.68-7.37-0.31c-1.17,0.37-1.59,2.22-1.67,2.81
		c-0.09,0.59-0.22,1.08-1.7,0.56c-1.47-0.53-0.67,2.09-0.43,2.59C258.58,334.22,258.78,335.55,257.94,336.1L257.94,336.1z"/>
	<path class="st14" d="M238.83,451.87h-4.49c-0.94,0-1.99-0.96-2.25-2.7c-0.26-1.75-2.2-2.71-2.62-4.14
		c-0.42-1.43,1.73-3.45,1.73-3.45l0.36-0.47l0.37-0.49l3.56,0.85c0,0,0.09,0.86,0.14,1.95c0.04,0.79,0.06,1.7,0.01,2.5
		c-0.1,1.91,0.53,3.97,2.2,4.34C239.52,450.64,238.83,451.87,238.83,451.87L238.83,451.87z"/>
	<path class="st14" d="M270.1,451.91h-11.91c-0.11-0.02-0.2-0.05-0.25-0.08c-0.8-0.41-0.55-3.54-0.45-4.51
		c0.02-0.18,0.03-0.28,0.03-0.28s4.19-3.45,4.76-0.81c0.02,0.08,0.04,0.16,0.06,0.24v0c0.73,2.47,3.98,3.59,5.85,3.9
		C269.63,450.62,270,451.48,270.1,451.91L270.1,451.91z"/>
	<path class="st18" d="M267.7,383.06c0,0-0.64,7.93-1.38,17.47c-1.02,12.96-2.24,28.87-2.36,31.88c-0.21,5.23-1.05,13.61-1.05,13.61
		s-1.99,1.99-5.97,1.15c0,0-3.54-11.95-4.56-24.6c-0.02-0.21-0.03-0.42-0.05-0.63c-0.94-12.87-2.41-39.98-2.41-39.98L267.7,383.06
		L267.7,383.06z"/>
	<path class="st19" d="M267.7,383.06c0,0-0.64,7.93-1.38,17.47l-13.93,22.04c-0.02-0.21-0.03-0.42-0.05-0.63
		c-0.94-12.87-2.41-39.98-2.41-39.98L267.7,383.06L267.7,383.06z"/>
	<path class="st18" d="M264.79,384c0,0-11.46,28.73-19,42.23c-7.54,13.5-9.89,17.27-9.89,17.27s-4.32-1.73-4.71-2.9
		c0,0,2.88-26.07,7.93-32.42c2.85-3.59,6.2-14.37,6.36-18.13c0.16-3.77,1.02-11.23,1.02-11.23L264.79,384L264.79,384z"/>
	<path class="st9" d="M238.55,379.22c0,0-0.3,3.59-0.51,4.14c-0.22,0.55-1.67,2.26-1.83,2.23s-0.27-0.16-0.18-0.51
		c0.08-0.35,0.58-1.42,0.43-1.39c-0.16,0.03-1.82,3.05-2.48,2.88c-0.66-0.17-1.31-2.32-0.91-3.84c0.39-1.52,3.06-3.91,3.16-4.15
		C237.08,376.5,238.55,379.22,238.55,379.22L238.55,379.22z"/>
	<path class="st12" d="M237.32,380.13c1.27,0.41,1.47,0.32,1.47,0.32s6.17-11.24,6.8-12.27c0.63-1.03,13.11-12.61,13.11-12.61
		l-3.21-11.96c0,0-14.2,18.39-15.73,21.03c-2.53,4.36-4.02,14.49-4.02,14.49S236.33,379.81,237.32,380.13L237.32,380.13z"/>
	<path class="st20" d="M270.12,360.26c-0.04,2.46-0.19,5.22-0.38,8.02c-0.01,0.17-0.02,0.33-0.04,0.5
		c-0.12,1.74-0.26,3.48-0.41,5.18c-0.06,0.68-0.13,1.35-0.19,2.02l-0.01,0.09c0,0.25-0.04,0.52-0.06,0.76
		c-0.63,6.36-1.28,11.39-1.4,11.47c-0.15,0.1-0.31,0.15-0.49,0.12c-1.67-0.21-6.65,0.17-10.72-0.72c-3.44-0.73-6.4-2.1-9.54-3.96
		c-0.42-0.25-1.37-0.9-1.29-1.39c0.08-0.54,0.22-1.31,0.39-2.28c0.62-3.38,1.68-9.21,2.05-16.02c0.07-1.27,0.17-2.52,0.31-3.75
		c0.35-3.21,0.91-6.26,1.66-8.97c1.4-5.03,3.45-8.88,6.03-10.39c0.34-0.19,2.15,0.96,3.81,2.03c1.54,0.98,3.15,1.26,4.73,1.12
		l1.38,1.53c1.68,1.95,3.46,4.54,3.95,8.23c0.04,0.27,0.07,0.56,0.09,0.87C270.12,356.23,270.16,358.13,270.12,360.26L270.12,360.26
		z"/>
	<path class="st12" d="M270.12,360.26c-0.04,2.46-0.19,5.22-0.38,8.02c-0.01,0.17-0.02,0.33-0.04,0.5c-9.53-5.97-11-16.88-11-16.88
		c4.69,0.21,8.41,1.28,11.28,2.83C270.12,356.23,270.16,358.13,270.12,360.26L270.12,360.26z"/>
	<path class="st20" d="M299.98,350.24c-0.49-1.33-1.26-1.24-1.26-1.24s-14.17,3.53-15.44,3.68c-1.27,0.15-15.26-5.46-15.26-5.46
		s-5.51-2.47-8.08-0.21c-2.24,1.96-2.34,4.44-1.82,6.53c0.63,2.49,2.73,4.32,5.27,4.65c5.71,0.73,17.09,2.1,19.48,1.76
		c5.31-0.74,17.35-7.69,17.35-7.69S300.36,351.28,299.98,350.24L299.98,350.24z"/>
	<path class="st14" d="M439.7,376.21c0,0,1.97,1.82,1.58,3.12c-0.39,1.3-2.16,2.16-2.4,3.75c-0.24,1.58-1.2,2.45-2.06,2.45
		c-0.86,0-4.12,0-4.12,0s-0.64-1.11,0.9-1.45c1.54-0.34,2.12-2.2,2.02-3.93c-0.1-1.73,0.14-4.03,0.14-4.03l3.26-0.77L439.7,376.21
		L439.7,376.21z"/>
	<path class="st14" d="M415.16,385.31c-0.2,0.1-0.9,0.17-1.86,0.22h-9.32c0.03-0.28,0.25-1.27,1.77-1.51
		c1.72-0.28,4.7-1.28,5.37-3.48c0.02-0.07,0.04-0.14,0.06-0.22c0.53-2.35,4.37,0.72,4.37,0.72s0.01,0.09,0.03,0.25
		C415.67,382.16,415.89,384.95,415.16,385.31L415.16,385.31z"/>
	<path class="st21" d="M406.21,322.38c0,0,0.58,7.28,1.27,16.03c0.93,11.89,2.05,26.48,2.16,29.25c0.19,4.8,0.96,12.48,0.96,12.48
		s1.82,1.83,5.47,1.06c0,0,3.25-10.97,4.18-22.57c0.01-0.19,0.03-0.38,0.04-0.57c0.86-11.81,2.21-36.68,2.21-36.68L406.21,322.38
		L406.21,322.38z"/>
	<path class="st14" d="M406.21,322.38c0,0,0.58,7.28,1.27,16.03l12.78,20.22c0.01-0.19,0.03-0.38,0.04-0.57
		c0.86-11.81,2.21-36.68,2.21-36.68L406.21,322.38L406.21,322.38z"/>
	<path class="st21" d="M408.87,323.24c0,0,10.52,26.36,17.43,38.75c6.91,12.39,9.07,15.85,9.07,15.85s3.96-1.58,4.32-2.66
		c0,0-2.64-23.92-7.27-29.75c-2.62-3.29-5.69-13.18-5.83-16.64c-0.14-3.46-0.94-10.3-0.94-10.3L408.87,323.24L408.87,323.24z"/>
	<path class="st13" d="M376.44,308.95c0,0-2.85-0.65-3.33-0.62c-0.48,0.03-2.16,0.74-2.18,0.87c-0.02,0.14,0.06,0.25,0.35,0.27
		c0.29,0.02,1.25-0.1,1.18,0.01c-0.06,0.12-2.81,0.66-2.84,1.21c-0.03,0.55,1.48,1.58,2.75,1.65c1.27,0.07,3.78-1.41,3.99-1.43
		C378.18,310.75,376.44,308.95,376.44,308.95L376.44,308.95z"/>
	<path class="st22" d="M375.22,309.67c-0.41-1.3-0.31-1.51-0.31-1.51s11.56-6.25,12.62-6.89c1.06-0.63,13.01-13.35,13.01-13.35
		l12.24,3.37c0,0-18.94,14.43-21.65,15.98c-4.48,2.57-14.87,4.02-14.87,4.02S375.54,310.7,375.22,309.67L375.22,309.67z"/>
	<path class="st13" d="M404.24,281.75c0,0-4.29,7.55-8.48,8.53c0,0,0.17-2.54,1.19-4.27c-0.42-0.49-0.78-0.95-1.1-1.35
		c-1.05-1.35-1.56-2.18-1.56-2.18l1.42-3.83l0.97-2.6c0.46,0.84,0.98,1.56,1.51,2.17C400.94,281.39,404.24,281.75,404.24,281.75
		L404.24,281.75z"/>
	<path class="st9" d="M398.19,278.23c0,0,0.51,3.78-2.34,6.43c-1.05-1.35-1.56-2.18-1.56-2.18l1.42-3.83
		C397.24,278.19,398.19,278.23,398.19,278.23L398.19,278.23z"/>
	<path class="st13" d="M393.16,283.03c0,0,6.41-2.5,4.79-6.47c-1.62-3.97-1.88-6.96-6.04-5.54c-4.16,1.43-4.33,3.26-4.12,4.72
		C388.01,277.21,391.45,283.58,393.16,283.03L393.16,283.03z"/>
	<path class="st23" d="M426.28,320.48c-2.59,3.72-21.92,8.69-21.69,6.11c0.09-0.98,0.21-2.72,0-5.08c-0.05-0.55-0.12-1.14-0.21-1.75
		c-0.49-3.38-1.66-7.73-4.26-12.76c-0.19-0.38-0.4-0.76-0.61-1.14c-1.07-1.95-1.98-4.01-2.68-6.02c-1.34-3.87-1.88-7.57-1.2-10
		c0-0.01,0.01-0.02,0.01-0.03c4.04-1.87,5.61-9.12,5.61-9.12s13.79,2.48,21.51,20.85C422.75,301.55,428.53,317.25,426.28,320.48
		L426.28,320.48z"/>
	<path class="st22" d="M404.58,321.52c-0.05-0.55-0.12-1.14-0.21-1.75c-0.49-3.38-1.66-7.73-4.26-12.76
		c0.45-2.71,1.06-4.96,1.74-5.97c2.75-4.12,4.35-4.77,4.35-4.77S410.33,313.66,404.58,321.52L404.58,321.52z"/>
	<path class="st13" d="M382.85,317.38c0,0-3.81,0.2-4.41,0.41c-0.59,0.21-2.45,1.7-2.43,1.87c0.02,0.18,0.16,0.29,0.53,0.21
		c0.37-0.08,1.53-0.57,1.49-0.41c-0.03,0.17-3.3,1.83-3.14,2.53c0.16,0.71,2.42,1.46,4.05,1.09c1.62-0.37,4.24-3.12,4.5-3.22
		C385.68,319.03,382.85,317.38,382.85,317.38L382.85,317.38z"/>
	<path class="st23" d="M382.13,318.83c-0.76-1.23-0.21-1.8-0.21-1.8s11.78-9.23,12.71-10.16c0.92-0.93,5.2-15.77,5.2-15.77
		s1.47-6.01,4.92-6.67c3-0.58,5.07,0.91,6.42,2.65c1.61,2.07,1.77,4.93,0.43,7.19c-3.01,5.07-9.08,15.13-10.85,16.85
		c-3.94,3.83-17.14,9.17-17.14,9.17S382.73,319.8,382.13,318.83L382.13,318.83z"/>
	<path class="st10" d="M398.87,269.2c0.04-0.09,0.18-0.18,0.49-0.28c0,0-0.3-0.1-0.64-0.02c-0.18-0.44-0.62-1.19-1.44-1.19
		c0,0,0.47,0.12,0.64,0.59c-1.12-0.71-3.21-0.92-8.41,0.81c-6.86,2.28-3.43,6.26-2.39,6.58c1.04,0.32,2.95-1.73,4.67-2.01
		c1.72-0.28,2.65,2.12,3.31,2.32c0.66,0.2,0.28-0.35,0.97-0.89c0.69-0.55,1.08,0.74,1.07,1.64s1.32,1.76,1.32,1.76s0,0,0.79-1.44
		c0.78-1.44,0.57-6.67-0.18-7.61C399.01,269.37,398.94,269.28,398.87,269.2L398.87,269.2z"/>
	<polygon class="st24" points="290.48,451.72 290.48,459.48 272.11,451.72 290.48,451.72 	"/>
	<polygon class="st25" points="386.94,385.52 386.94,465.32 447.69,465.32 447.69,385.52 386.94,385.52 	"/>
	<polygon class="st26" points="368.21,385.53 368.21,465.32 428.96,465.32 428.96,385.53 368.21,385.53 	"/>
	<polygon class="st27" points="447.69,385.53 447.69,397.46 428.96,385.53 447.69,385.53 	"/>
</g>
</svg>
