<svg id="Layer_1" data-name="Layer 1" xmlns="http://www.w3.org/2000/svg" viewBox="0 0 44.4 48.19"><defs><style>.cls-1{fill:#3374c1;}.cls-2{fill:#fff;}</style></defs><rect class="cls-1" width="44.4" height="48.19" rx="9.05"/><path class="cls-2" d="M44.51,27.71a1,1,0,0,0-.16-1.19L31,13.43a3,3,0,0,0-4.16,0L13.52,26.52a1,1,0,0,0-.15,1.2.92.92,0,0,0,1.41.14l1-1V37.32a4,4,0,0,0,4,4H38.05a4,4,0,0,0,4-4V26.84l1,1a.92.92,0,0,0,1.42-.15Zm-4.4,9.83a2.17,2.17,0,0,1-2.18,2.16H19.61a2.17,2.17,0,0,1-2.17-2.16V25.26L28,15a1.07,1.07,0,0,1,.37-.24,1.13,1.13,0,0,1,1.13.16l.09.08L40.11,25.26V37.54Z" transform="translate(-6.52 -2.25)"/><path class="cls-2" d="M26.18,23.46v3h-3a.92.92,0,0,0-.92.92V31a.92.92,0,0,0,.92.92h3v3a.93.93,0,0,0,.92.92h3.67a.92.92,0,0,0,.92-.92v-3h3a.92.92,0,0,0,.92-.92V27.35a.92.92,0,0,0-.92-.92h-3v-3a.92.92,0,0,0-.92-.92H28.4a3.68,3.68,0,0,0-2.22.92Zm1.62,3.61V24.48h1.95v2.65a.92.92,0,0,0,.92.92h3V30h-3a.92.92,0,0,0-.92.92v3H27.8v-3a.92.92,0,0,0-.92-.92h-3V28.05h3a1,1,0,0,0,.92-1Z" transform="translate(-6.52 -2.25)"/></svg>