<svg xmlns="http://www.w3.org/2000/svg" viewBox="0 0 44.4 48.19"><defs><style>.cls-1{fill:#93278f;}.cls-2{fill:#fff;}</style></defs><g id="Layer_2" data-name="Layer 2"><g id="Layer_1-2" data-name="Layer 1"><rect class="cls-1" width="44.4" height="48.19" rx="9.05"/><path class="cls-2" d="M38,24.46a1,1,0,0,0-.16-1.19L24.49,10.19a3,3,0,0,0-4.16,0L7,23.27a1,1,0,0,0-.15,1.2.92.92,0,0,0,1.41.15l1-1V34.07a4,4,0,0,0,4,4H31.52a4,4,0,0,0,4-4V23.6l1,1A.93.93,0,0,0,38,24.46Zm-4.41,9.83a2.17,2.17,0,0,1-2.17,2.16H13.08a2.16,2.16,0,0,1-2.16-2.16V22L21.46,11.72a1.07,1.07,0,0,1,.37-.24,1.15,1.15,0,0,1,1.13.16.6.6,0,0,1,.08.08L33.58,22V34.29Z"/><path class="cls-2" d="M19.66,20.21v3h-3a.92.92,0,0,0-.92.92v3.66a.92.92,0,0,0,.92.92h3v3a.92.92,0,0,0,.92.92h3.67a.92.92,0,0,0,.92-.92v-3h3a.92.92,0,0,0,.92-.92V24.1a.92.92,0,0,0-.92-.92h-3v-3a.93.93,0,0,0-.92-.92H21.88a3.68,3.68,0,0,0-2.22.92Zm1.62,3.61V21.24h1.94v2.64a.92.92,0,0,0,.92.92h3v1.94h-3a.92.92,0,0,0-.92.92v3H21.28v-3a.92.92,0,0,0-.92-.92h-3V24.8h3a1,1,0,0,0,.92-1Z"/></g></g></svg>