<svg id="Layer_1" data-name="Layer 1" xmlns="http://www.w3.org/2000/svg" viewBox="0 0 44.4 48.19"><defs><style>.cls-1{fill:#3374c1;}.cls-2{fill:#fff;}</style></defs><rect class="cls-1" width="44.4" height="48.19" rx="9.05"/><path class="cls-2" d="M39.88,23.3h-.35L37,16.35a1.58,1.58,0,0,0-1.48-1H17.24a1.57,1.57,0,0,0-1.47,1l-2.58,7H13a1,1,0,0,0-1,1V25a1,1,0,0,0,1,1h-.12v9.33a.45.45,0,0,0,.89,0V26h6a1.4,1.4,0,0,0,1-.39l5.08-4.88,5.08,4.88a1.39,1.39,0,0,0,1,.39h7v1.13a.45.45,0,0,0,.89,0V26h.18a1,1,0,0,0,1-1v-.71a1,1,0,0,0-1-.95ZM17.29,16.21H35.42a.73.73,0,0,1,.68.47l2.46,6.62H32.71L27.37,18a1.43,1.43,0,0,0-.68-.4,1.39,1.39,0,0,0-1.31.36L20,23.3H14.16l2.46-6.62A.71.71,0,0,1,17.29,16.21Zm22.74,9a.16.16,0,0,1-.15.16H32.17a.55.55,0,0,1-.4-.18l-5.18-5.55a.39.39,0,0,0-.3-.13.38.38,0,0,0-.3.13l-5.18,5.55a.58.58,0,0,1-.41.18H12.7a.15.15,0,0,1-.15-.15v-.89a.15.15,0,0,1,.15-.15H20a.4.4,0,0,0,.31-.13l5.59-6a.52.52,0,0,1,.39-.17.54.54,0,0,1,.39.17l5.58,6a.42.42,0,0,0,.32.13h7.3a.15.15,0,0,1,.15.15v.88Z" transform="translate(-4.52 -3.25)"/><path class="cls-2" d="M38,37.65V29.93a.43.43,0,0,0-.43-.43H31.88a.42.42,0,0,0-.42.43v7.72a.42.42,0,0,0,.42.42h5.65A.42.42,0,0,0,38,37.65Zm-.89-2.24H35V33.34h2.07Zm-3,0H32.05V33.34h2.07Zm3,1.77h-5V36.3h5Zm0-4.72H35V30.39h2.07Zm-3-2.07v2.07H32.05V30.39Z" transform="translate(-4.52 -3.25)"/><path class="cls-2" d="M21.41,37.65V29.93A.42.42,0,0,0,21,29.5H15.34a.43.43,0,0,0-.43.43v7.72a.42.42,0,0,0,.43.42H21A.42.42,0,0,0,21.41,37.65Zm-.88-2.24H18.46V33.34h2.07Zm-2.66,0H15.8V33.34h2.07Zm2.66,1.77h-5V36.3h5Zm0-4.72H18.46V30.39h2.07Zm-2.66-2.07v2.07H15.8V30.39Z" transform="translate(-4.52 -3.25)"/><path class="cls-2" d="M27.78,31.28H25.09a.42.42,0,0,0-.43.42v1.81a.42.42,0,0,0,.43.42h2.69a.42.42,0,0,0,.43-.42V31.7A.42.42,0,0,0,27.78,31.28Zm-.46,1.77H25.55v-.89h1.77Z" transform="translate(-4.52 -3.25)"/><path class="cls-2" d="M28.62,26a2.26,2.26,0,1,0-2.26,2.26A2.27,2.27,0,0,0,28.62,26ZM25,26a1.41,1.41,0,1,1,1.41,1.41A1.41,1.41,0,0,1,25,26Z" transform="translate(-4.52 -3.25)"/><path class="cls-2" d="M40.49,38.66h-.76V29.33a.45.45,0,0,0-.89,0v9.33H30V29.93a.42.42,0,0,0-.42-.43H23a.43.43,0,0,0-.43.43v8.73H13.73V37.53a.45.45,0,0,0-.89,0v1.13h-.46a.42.42,0,0,0-.42.43V40.9a.42.42,0,0,0,.42.42H40.49a.42.42,0,0,0,.42-.42V39.09A.42.42,0,0,0,40.49,38.66Zm-17-3.25h.63a.45.45,0,0,0,.45-.44.44.44,0,0,0-.45-.44h-.63V30.39h5.61v8.27H23.48ZM40,40.73H12.55V39.55H40Z" transform="translate(-4.52 -3.25)"/></svg>