<svg xmlns="http://www.w3.org/2000/svg" viewBox="0 0 44.4 48.19"><defs><style>.cls-1{fill:#f15a24;}.cls-2{fill:#fff;}</style></defs><g id="Layer_2" data-name="Layer 2"><g id="Layer_1-2" data-name="Layer 1"><rect class="cls-1" width="44.4" height="48.19" rx="9.05"/><path class="cls-2" d="M35.07,19.49h-.35l-2.58-6.95a1.57,1.57,0,0,0-1.48-1H12.43a1.57,1.57,0,0,0-1.47,1l-2.58,7H8.15a1,1,0,0,0-1,1v.66a1,1,0,0,0,1,1H8v9.34a.45.45,0,0,0,.89,0V22.15h6a1.4,1.4,0,0,0,1-.39L21,16.88l5.08,4.88a1.39,1.39,0,0,0,1,.39h7v1.13a.45.45,0,0,0,.89,0V22.15h.18a1,1,0,0,0,1-1v-.71a1,1,0,0,0-1-1ZM12.48,12.4H30.61a.73.73,0,0,1,.68.47l2.46,6.62H27.9l-5.34-5.34a1.43,1.43,0,0,0-.68-.4,1.39,1.39,0,0,0-1.31.37L15.2,19.49H9.35l2.46-6.62A.71.71,0,0,1,12.48,12.4Zm22.74,9a.16.16,0,0,1-.15.16H27.36a.54.54,0,0,1-.4-.17l-5.18-5.55a.41.41,0,0,0-.3-.14.39.39,0,0,0-.3.14L16,21.39a.57.57,0,0,1-.41.17H7.89a.15.15,0,0,1-.15-.15v-.88a.15.15,0,0,1,.15-.15h7.3a.41.41,0,0,0,.31-.14l5.59-6a.53.53,0,0,1,.39-.18.55.55,0,0,1,.39.18l5.58,6a.43.43,0,0,0,.32.14h7.3a.15.15,0,0,1,.15.15v.87Z"/><path class="cls-2" d="M33.15,33.84V26.12a.42.42,0,0,0-.43-.42H27.07a.42.42,0,0,0-.42.42v7.72a.43.43,0,0,0,.42.43h5.65A.43.43,0,0,0,33.15,33.84Zm-.89-2.23H30.19V29.54h2.07Zm-2.95,0H27.24V29.54h2.07Zm2.95,1.77h-5v-.89h5Zm0-4.73H30.19V26.58h2.07Zm-2.95-2.07v2.07H27.24V26.58Z"/><path class="cls-2" d="M16.6,33.84V26.12a.42.42,0,0,0-.42-.42H10.53a.42.42,0,0,0-.43.42v7.72a.43.43,0,0,0,.43.43h5.65A.43.43,0,0,0,16.6,33.84Zm-.88-2.23H13.65V29.54h2.07Zm-2.66,0H11V29.54h2.07Zm2.66,1.77h-5v-.89h5Zm0-4.73H13.65V26.58h2.07Zm-2.66-2.07v2.07H11V26.58Z"/><path class="cls-2" d="M23,27.47H20.28a.43.43,0,0,0-.43.43v1.8a.43.43,0,0,0,.43.43H23a.43.43,0,0,0,.43-.43V27.9A.43.43,0,0,0,23,27.47Zm-.46,1.77H20.74v-.88h1.77Z"/><path class="cls-2" d="M23.81,22.21a2.26,2.26,0,1,0-2.26,2.26A2.26,2.26,0,0,0,23.81,22.21Zm-3.67,0a1.41,1.41,0,1,1,1.41,1.41,1.41,1.41,0,0,1-1.41-1.41Z"/><path class="cls-2" d="M35.68,34.86h-.76V25.52a.45.45,0,0,0-.89,0v9.34H25.17V26.12a.42.42,0,0,0-.43-.42H18.21a.43.43,0,0,0-.43.42v8.74H8.92V33.73a.45.45,0,0,0-.89,0v1.13H7.57a.42.42,0,0,0-.42.42v1.81a.43.43,0,0,0,.42.43H35.68a.43.43,0,0,0,.42-.43V35.28A.42.42,0,0,0,35.68,34.86Zm-17-3.25h.63a.45.45,0,1,0,0-.89h-.63V26.58h5.61v8.28H18.67Zm16.55,5.31H7.74V35.74H35.22Z"/></g></g></svg>