<svg id="Layer_1" data-name="Layer 1" xmlns="http://www.w3.org/2000/svg" viewBox="0 0 50.45 50.45"><defs><style>.cls-1{fill:#F2A408;}</style></defs><path class="cls-1" d="M49.8,35.31a7.57,7.57,0,1,0,7.56,7.57A7.57,7.57,0,0,0,49.8,35.31Zm0-5A12.61,12.61,0,1,1,37.18,42.88,12.61,12.61,0,0,1,49.8,30.27Zm16.39-.63A3.15,3.15,0,1,1,63,26.48,3.15,3.15,0,0,1,66.19,29.64ZM49.8,22.7c-6.24,0-7.26,0-10.17.15a13.62,13.62,0,0,0-4.53.83,7.26,7.26,0,0,0-2.73,1.78,7.37,7.37,0,0,0-1.77,2.72,13.66,13.66,0,0,0-.84,4.54c-.13,2.78-.14,3.75-.14,10.16,0,6.24,0,7.26.14,10.16a13.8,13.8,0,0,0,.84,4.53,7.36,7.36,0,0,0,1.77,2.73,7.44,7.44,0,0,0,2.72,1.77,13.81,13.81,0,0,0,4.54.84c2.79.13,3.76.15,10.17.15,6.24,0,7.26,0,10.16-.15a13.88,13.88,0,0,0,4.53-.83,7.47,7.47,0,0,0,2.73-1.78A7.24,7.24,0,0,0,69,57.58,13.71,13.71,0,0,0,69.83,53c.13-2.78.14-3.76.14-10.16,0-6.24,0-7.26-.14-10.16A13.86,13.86,0,0,0,69,28.18a7.87,7.87,0,0,0-4.5-4.5A13.62,13.62,0,0,0,60,22.85C57.17,22.71,56.2,22.7,49.8,22.7Zm0-5c6.85,0,7.7,0,10.39.15A18.34,18.34,0,0,1,66.32,19a12.84,12.84,0,0,1,7.37,7.38,18.5,18.5,0,0,1,1.18,6.12C75,35.17,75,36,75,42.88s0,7.71-.15,10.4a18.56,18.56,0,0,1-1.18,6.12,12.37,12.37,0,0,1-2.9,4.47,12.53,12.53,0,0,1-4.47,2.91A18.86,18.86,0,0,1,60.19,68c-2.69.12-3.54.15-10.39.15s-7.71,0-10.4-.15a18.74,18.74,0,0,1-6.12-1.17A12.9,12.9,0,0,1,25.9,59.4a18.56,18.56,0,0,1-1.18-6.12c-.11-2.69-.15-3.55-.15-10.4s0-7.71.15-10.4a18.5,18.5,0,0,1,1.18-6.12A12.9,12.9,0,0,1,33.28,19a18.22,18.22,0,0,1,6.12-1.17C42.09,17.69,42.94,17.66,49.8,17.66Z" transform="translate(-24.57 -17.66)"/></svg>