<svg id="Layer_1" data-name="Layer 1" xmlns="http://www.w3.org/2000/svg" viewBox="0 0 18.59 18.59"><defs><style>.cls-1{fill:#4976b9;}</style></defs><path class="cls-1" d="M16.8,11a2.79,2.79,0,1,0,2.79,2.79A2.79,2.79,0,0,0,16.8,11Zm0-1.86a4.65,4.65,0,1,1-4.64,4.65A4.65,4.65,0,0,1,16.8,9.16Zm6.05-.23a1.17,1.17,0,1,1-1.17-1.16A1.16,1.16,0,0,1,22.85,8.93ZM16.8,6.37c-2.3,0-2.67,0-3.74.06a5.1,5.1,0,0,0-1.67.3,2.73,2.73,0,0,0-1,.66,2.66,2.66,0,0,0-.65,1,4.92,4.92,0,0,0-.31,1.67c-.05,1-.05,1.39-.05,3.75s0,2.68.05,3.75a4.92,4.92,0,0,0,.31,1.67,2.75,2.75,0,0,0,.65,1,2.62,2.62,0,0,0,1,.65,4.93,4.93,0,0,0,1.68.31c1,0,1.38.06,3.74.06s2.68,0,3.75-.06a5.1,5.1,0,0,0,1.67-.3,2.69,2.69,0,0,0,1-.66,2.65,2.65,0,0,0,.66-1,5.18,5.18,0,0,0,.31-1.67c0-1,0-1.39,0-3.75s0-2.68,0-3.75a5.18,5.18,0,0,0-.31-1.67,2.66,2.66,0,0,0-.65-1,2.81,2.81,0,0,0-1-.66,5.1,5.1,0,0,0-1.67-.3C19.52,6.38,19.16,6.37,16.8,6.37Zm0-1.86c2.53,0,2.84,0,3.84.06A6.64,6.64,0,0,1,22.89,5a4.71,4.71,0,0,1,2.72,2.72A6.93,6.93,0,0,1,26.05,10c0,1,.05,1.3.05,3.83s0,2.84-.05,3.83a6.93,6.93,0,0,1-.44,2.26,4.61,4.61,0,0,1-1.07,1.65,4.52,4.52,0,0,1-1.65,1.07,6.9,6.9,0,0,1-2.25.43c-1,0-1.31.06-3.84.06S14,23.1,13,23.05a7,7,0,0,1-2.26-.43,4.49,4.49,0,0,1-1.64-1.07A4.63,4.63,0,0,1,8,19.9a7,7,0,0,1-.43-2.26c0-1,0-1.3,0-3.83s0-2.84,0-3.83A7,7,0,0,1,8,7.72,4.63,4.63,0,0,1,9.07,6.07,4.49,4.49,0,0,1,10.71,5,6.76,6.76,0,0,1,13,4.57C14,4.52,14.28,4.51,16.8,4.51Z" transform="translate(-7.51 -4.51)"/></svg>