<svg xmlns="http://www.w3.org/2000/svg" viewBox="0 0 44.4 48.19"><defs><style>.cls-1{fill:#f7931e;}.cls-2{fill:#fff;}</style></defs><g id="Layer_2" data-name="Layer 2"><g id="Layer_1-2" data-name="Layer 1"><rect class="cls-1" width="44.4" height="48.19" rx="9.05"/><path class="cls-2" d="M26.34,21.83A.27.27,0,0,0,26,22l-.08.2a4.17,4.17,0,0,0-6.52-1.66A4.12,4.12,0,0,0,18,22.87a.27.27,0,0,0,.2.32.27.27,0,0,0,.32-.21,3.66,3.66,0,0,1,5.88-2.06,3.76,3.76,0,0,1,1.11,1.54l-.34-.14a.26.26,0,0,0-.35.14.26.26,0,0,0,.14.35l.85.36a.26.26,0,0,0,.35-.14l.37-.85A.26.26,0,0,0,26.34,21.83Z"/><path class="cls-2" d="M24.61,25a.13.13,0,0,0-.12,0h-.9a1.83,1.83,0,0,0-.34-.76h1.23a.17.17,0,0,0,.17-.17v-.54a.21.21,0,0,0,0-.13.16.16,0,0,0-.12,0h-4.4a.16.16,0,0,0-.12,0,.17.17,0,0,0-.05.13v.7a.17.17,0,0,0,.17.17h.77q1.11,0,1.41.6H20.08A.16.16,0,0,0,20,25a.17.17,0,0,0-.05.13v.54a.13.13,0,0,0,.05.12.17.17,0,0,0,.12.05h2.26a1.07,1.07,0,0,1-.54.66,2.44,2.44,0,0,1-1.13.22h-.59a.17.17,0,0,0-.12.05.21.21,0,0,0-.05.12v.68a.13.13,0,0,0,.05.11c.67.72,1.55,1.73,2.63,3a.15.15,0,0,0,.13.07h1a.16.16,0,0,0,.15-.1.15.15,0,0,0,0-.18c-1-1.26-1.84-2.21-2.43-2.83a2.65,2.65,0,0,0,1.46-.59,2,2,0,0,0,.68-1.23h.89a.17.17,0,0,0,.17-.17v-.54A.17.17,0,0,0,24.61,25Z"/><g id="Smartphone"><path class="cls-2" d="M27.74,10.29H16.62a2.33,2.33,0,0,0-2.32,2.33V36.76a2.32,2.32,0,0,0,2.32,2.32H27.74a2.32,2.32,0,0,0,2.32-2.32V12.62A2.33,2.33,0,0,0,27.74,10.29Zm-2.31,1-.27,1.37H19.51l-.27-1.37ZM29,36.67a1.37,1.37,0,0,1-1.37,1.38h-11a1.37,1.37,0,0,1-1.37-1.38V12.76a1.44,1.44,0,0,1,1.43-1.44h1.53l.41,2a.45.45,0,0,0,.45.37h6.74a.47.47,0,0,0,.46-.37l.4-2h.91A1.37,1.37,0,0,1,29,12.7Z"/><path class="cls-2" d="M19.57,36.34H16.79a.45.45,0,0,0-.46.45.67.67,0,0,0,.46.57h2.78a.67.67,0,0,0,.46-.57A.45.45,0,0,0,19.57,36.34Z"/><path class="cls-2" d="M21.41,36.34H21a.45.45,0,0,0-.46.45.67.67,0,0,0,.46.57h.46a.66.66,0,0,0,.46-.57A.44.44,0,0,0,21.41,36.34Z"/></g></g></g></svg>