<svg id="Layer_1" data-name="Layer 1" xmlns="http://www.w3.org/2000/svg" viewBox="0 0 44.4 48.19"><defs><style>.cls-1{fill:#3374c1;}.cls-2{fill:#fff;}</style></defs><rect class="cls-1" width="44.4" height="48.19" rx="9.05"/><path class="cls-2" d="M25.13,26a.74.74,0,1,0-1.05,1.05l2.31,2.3a.72.72,0,0,0,1,0l4.62-4.61a.74.74,0,0,0-1-1.05l-4.09,4.09Z" transform="translate(-5.52 -2.25)"/><path class="cls-2" d="M37.27,17.47a5.72,5.72,0,0,1-5.06-3.07.73.73,0,0,0-.65-.39H24.31a.76.76,0,0,0-.66.39,5.67,5.67,0,0,1-5,3.07.74.74,0,0,0-.74.74v7.38a14.47,14.47,0,0,0,2,7.49,14.09,14.09,0,0,0,7.83,6.21.91.91,0,0,0,.23,0,.83.83,0,0,0,.22,0A14.09,14.09,0,0,0,36,33.08a14.47,14.47,0,0,0,2-7.49V18.21a.74.74,0,0,0-.74-.74Zm-.72,8.27a12.65,12.65,0,0,1-8.61,12,12.64,12.64,0,0,1-8.62-12V18.89a7.19,7.19,0,0,0,5.41-3.42h6.41a7.19,7.19,0,0,0,5.41,3.42Z" transform="translate(-5.52 -2.25)"/><path class="cls-2" d="M30.58,17.2a.74.74,0,0,0-.57-.27H25.87a.79.79,0,0,0-.59.28,8.58,8.58,0,0,1-4,2.74.74.74,0,0,0-.51.71v5.06a11.17,11.17,0,0,0,6.87,10.34.72.72,0,0,0,.29.06.71.71,0,0,0,.28-.06,11.17,11.17,0,0,0,6.87-10.34V20.66a.74.74,0,0,0-.51-.71,8.63,8.63,0,0,1-4-2.75Zm3.05,8.49a9.72,9.72,0,0,1-5.69,8.86,9.71,9.71,0,0,1-5.7-8.86V21.16a10.2,10.2,0,0,0,4-2.77h3.47a10.27,10.27,0,0,0,4,2.77Z" transform="translate(-5.52 -2.25)"/></svg>