<svg id="Layer_1" data-name="Layer 1" xmlns="http://www.w3.org/2000/svg" viewBox="0 0 97 98.28"><defs><style>.cls-1{fill:#3374c1;}.cls-2{fill:#fff;fill-rule:evenodd;}</style></defs><rect class="cls-1" width="97" height="98.28" rx="16.59"/><path class="cls-2" d="M99.3,101.31c0-1.4.35-2.55,1.29-2.55.79,0,1.38,1,1.38,2.55s-.6,2.52-1.33,2.52S99.3,103.29,99.3,101.31Zm-1.43,0a2.77,2.77,0,0,1,2.52-2.83,1.77,1.77,0,0,1,1.5.84s.07,0,.08,0V97.2a.5.5,0,0,0-.41-.52,3,3,0,0,0-.65,0,.1.1,0,1,1,0-.2l2-.14s.39-.1.39.23,0,.59,0,.59v6.09a.49.49,0,0,0,.36.55,2.58,2.58,0,0,0,.64,0,.1.1,0,0,1,.11.1.11.11,0,0,1-.11.1l-1.9.09s-.38.08-.37-.24v-.59a.06.06,0,0,0-.06-.06.06.06,0,0,0-.06,0,2,2,0,0,1-1.66.9,2.58,2.58,0,0,1-2.32-2.79Zm-2.71-2.57c.26,0,1,0,1.08,1.24s-.15.94-.71,1H94.24c-.14,0-.39.06-.32-.39S94.07,98.78,95.16,98.78Zm0,5.41a2.77,2.77,0,0,1-2.71-2.82,2.89,2.89,0,0,1,2.71-2.83A2.26,2.26,0,0,1,97.49,101c0,.08,0,.26-.15.25H94.08a.18.18,0,0,0-.21.21c0,.2-.28,2.57,1.55,2.5a1.81,1.81,0,0,0,1.73-1.52s0-.2.16-.19.13.13.13.26a2.13,2.13,0,0,1-2.3,1.72Zm-4.7-7.58v1.87a.17.17,0,0,0,.15.17H92a.14.14,0,0,1,0,.28h-1.3a.21.21,0,0,0-.22.2v4.12a.63.63,0,0,0,.67.64c1.08,0,1-1.51,1-1.51a.14.14,0,0,1,.28,0c0,.15,0,1.92-1.56,1.91s-1.7-1.13-1.69-1.26V99.18c0-.27-.15-.26-.15-.26h-.6a.14.14,0,0,1-.12-.26.14.14,0,0,1,.09,0,1.5,1.5,0,0,0,1.27-.6,3.5,3.5,0,0,0,.56-1.47v0a.14.14,0,0,1,.28,0s0,0,0,0ZM73.25,98.88c0-.33-.39-.23-.39-.23l-1.9.09a.1.1,0,0,0-.1.1A.1.1,0,0,0,71,99a4.22,4.22,0,0,1,.59.09c.28.06.41.2.41.43v3.83c0,.23-.13.37-.41.44s-.6.15-.6.15a.1.1,0,0,0,0,.2H74.3a.1.1,0,0,0,.11-.1.11.11,0,0,0-.1-.1,6.21,6.21,0,0,1-.67-.11c-.29-.06-.4-.18-.4-.42V99.47S73.25,99.21,73.25,98.88Zm-1.42-1.76a.75.75,0,0,1,.74-.75.76.76,0,0,1,.75.75.75.75,0,0,1-.75.74A.74.74,0,0,1,71.83,97.12Zm15.9,1.76c0-.33-.38-.23-.38-.23l-1.91.09a.1.1,0,0,0-.1.1.1.1,0,0,0,.1.11A4.22,4.22,0,0,1,86,99c.29.06.41.2.41.43v3.83c0,.23-.12.37-.41.44s-.6.15-.6.15a.1.1,0,1,0,0,.2h3.35a.1.1,0,0,0,.11-.1.1.1,0,0,0-.1-.1,6.21,6.21,0,0,1-.67-.11c-.29-.06-.4-.18-.4-.42V99.47s0-.26,0-.59Zm-1.42-1.76a.75.75,0,0,1,.74-.75.76.76,0,0,1,.75.75.75.75,0,0,1-.75.74A.74.74,0,0,1,86.31,97.12Zm-5.83,2.44a.6.6,0,0,1,0,.16c0,.07.07.14.1.14s.14-.2.2-.3a2.32,2.32,0,0,1,1.59-1,1.68,1.68,0,0,1,1.8,1,3.65,3.65,0,0,1,.08,1.11l-.07,2.74c0,.23.12.38.41.44l.51.09a.1.1,0,0,1,0,.2H81.94a.1.1,0,0,1-.11-.1.1.1,0,0,1,.1-.1s.24,0,.54-.09.41-.21.41-.44v-3.21S83,99,82.19,99s-1.23.9-1.38,1.27a5.06,5.06,0,0,0-.23,1v2.08c0,.23.13.38.41.44l.51.09a.1.1,0,1,1,0,.2H78.29a.1.1,0,0,1-.11-.1.1.1,0,0,1,.1-.1s.24,0,.54-.09.41-.21.41-.44v-3.21s.11-1.22-.69-1.19-1.2.89-1.36,1.26a5.85,5.85,0,0,0-.24,1.28v1.86c0,.23.13.38.42.44l.5.09a.1.1,0,0,1,0,.2H74.53a.1.1,0,0,1-.1-.1.09.09,0,0,1,.1-.1,6.47,6.47,0,0,0,.65-.09c.29-.06.41-.21.41-.44V99.47c0-.23-.12-.37-.41-.44s-.59-.09-.59-.09a.1.1,0,0,1-.1-.1s.05-.14.1-.14l2-.1s.38,0,.38.28,0,.59,0,.59v.28l.06,0c.07,0,.14-.19.2-.29a2.28,2.28,0,0,1,1.57-1,1.56,1.56,0,0,1,1.71,1Zm-13.8-2.2v5.94c0,.25.13.41.44.47a3,3,0,0,0,.6.08,3.55,3.55,0,0,0,1.62-.4,2.64,2.64,0,0,0,.91-1.53,2.86,2.86,0,0,0,.13-.66s0-.24.13-.24.14.16.13.27,0,2.62,0,2.62,0,.18-.19.18H64.13A.11.11,0,0,1,64,104a.1.1,0,0,1,.1-.11,6.14,6.14,0,0,0,.71-.1c.32-.06.45-.22.45-.47V97.36c0-.25-.13-.4-.45-.47a5.52,5.52,0,0,0-.71-.1.11.11,0,0,1-.11-.11.12.12,0,0,1,.12-.11H68a.11.11,0,0,1,.11.11.1.1,0,0,1-.11.11,7.32,7.32,0,0,0-.89.1c-.31.07-.44.22-.44.47Zm-7,1.82s0,.2-.08.21-.13-.1-.16-.2A8.23,8.23,0,0,0,59,98c-.19-.34-.75-1.62-2-1.54s-1.55,1-1.71,1.65a14.18,14.18,0,0,0-.21,2.52c0,.31-.15,3.44,2.06,3.36a2.42,2.42,0,0,0,2.41-2.58c0-.07,0-.14.11-.14s.24,0,.25.15a3.65,3.65,0,0,1-.57,1.82,2.68,2.68,0,0,1-2.21,1,3.7,3.7,0,0,1-2.8-1.41,4.29,4.29,0,0,1-.82-2.69,4.68,4.68,0,0,1,1.63-3.22A3.18,3.18,0,0,1,57,96.25a2.72,2.72,0,0,1,1.75.59c.51.39.61-.1.63-.16s.08-.37.2-.37.11.13.11.16l0,2.71ZM49.38,97v6.3c0,.25.13.41.44.47a7.32,7.32,0,0,0,.89.1.1.1,0,0,1,.11.11.11.11,0,0,1-.11.11h-4.2a.11.11,0,0,1,0-.22,6.14,6.14,0,0,0,.71-.1c.31-.06.76-.22.76-.47V97c0-.2-.13-.19-.13-.19a1.86,1.86,0,0,0-.77.09c-.45.14-.82.73-1.09,1.36a7.46,7.46,0,0,0-.37,1.3.13.13,0,0,1-.26,0v-3H52v3a.13.13,0,0,1-.13.13h0a.13.13,0,0,1-.14-.13,6.28,6.28,0,0,0-.35-1.31c-.28-.67-.62-1.27-1.14-1.38a2.66,2.66,0,0,0-.73-.06s-.1,0-.11.21Zm-7.07.35c0-.25.14-.41.45-.47a5.52,5.52,0,0,1,.71-.1.11.11,0,1,0,0-.22H39.76a.11.11,0,0,0,0,.22,6.14,6.14,0,0,1,.71.1c.31.06.45.22.45.47v5.94c0,.25-.14.4-.45.47a6.14,6.14,0,0,1-.71.1.11.11,0,0,0,0,.22h3.71a.11.11,0,0,0,0-.22,6.14,6.14,0,0,1-.71-.1c-.31-.07-.45-.22-.45-.47V97.35ZM85.8,78.63a.7.7,0,0,0-.71.7.74.74,0,0,0,.09.33l2.16,4a1.77,1.77,0,0,0,1.59,1h9.12l6.28,7.08H83.16a2.34,2.34,0,0,1-2.55-1.89L76.9,75a2.19,2.19,0,0,1,0-.36A1.65,1.65,0,0,1,78.52,73H87.7l5,5.65ZM64.19,73l-2.75,6.26h3.49L61.2,91.71H72V79.21h3.42L74.51,73Zm-7.88,0h5.93L52,91.71H39.64ZM72.38,30.54l35,61.18L76.85,59.11,72.38,30.54Zm-.79,0L36.66,91.7,67.14,59.07l4.45-28.52Z" transform="translate(-23.5 -18.27)"/></svg>