<svg xmlns="http://www.w3.org/2000/svg" viewBox="0 0 51.04 53.13"><defs><style>.cls-1{fill-rule:evenodd;}</style></defs><g id="Layer_2" data-name="Layer 2"><g id="Layer_1-2" data-name="Layer 1"><path class="cls-1" d="M45.22,51c0-1,.25-1.84.93-1.84s1,.72,1,1.84-.43,1.82-1,1.82S45.22,52.44,45.22,51Zm-1-.12A2,2,0,0,1,46,49a2.47,2.47,0,0,1,1.08.48h.44v-1.4a6.51,6.51,0,0,0-.68-.38,3.53,3.53,0,0,0-.46,0,.07.07,0,1,1,0-.14h0l1.44-.1.42.16v4.82c-.17.18-.06.35.12.4h.46s.07,0,.08.06h0a.08.08,0,0,1-.08.07L47.45,53s-.27.06.07-.17v-.42a2.47,2.47,0,0,1-.38-.05h0a1.43,1.43,0,0,1-1.2.65,1.9,1.9,0,0,1-1.67-2.13Zm-1.7-1.61c.18,0,.72,0,.78.89s-.11.68-.52.72h-.93c-.1,0-.28,0-.23-.28s.11-1.3.9-1.3ZM42.23,53a2,2,0,0,1-1.95-2,2.08,2.08,0,0,1,1.95-2,1.63,1.63,0,0,1,1.69,1.57,1.77,1.77,0,0,1,0,.23c0,.06,0,.19-.11.18H41.45a.13.13,0,0,0-.15.11v0c0,.15-.2,1.86,1.12,1.81a1.31,1.31,0,0,0,1.25-1.1s0-.14.11-.14.09.1.09.19A1.52,1.52,0,0,1,42.22,53Zm-3.36-5.39v1.35a2.27,2.27,0,0,0,.08.51h1s.1-.34.1-.28a2,2,0,0,1-.1.28H39c-.09-.19-.16-.12-.15,0h0v3a.43.43,0,0,0,.43.46h0c.78,0,.72-1.09.72-1.09a.11.11,0,0,1,.1-.1.1.1,0,0,1,.1.1c0,.11,0,1.39-1.12,1.38s-1-.91-1-.91V49.48l-.34,0h-.43a.6.6,0,0,0-.14-.21.11.11,0,0,1,0-.14h.07a1,1,0,0,0,.91-.43,2.42,2.42,0,0,0,.41-1.06h0a.09.09,0,0,1,.1-.1.1.1,0,0,1,.1.1h0ZM26.44,49.26c0-.24-.28-.17-.28-.17l-1.37.07a.07.07,0,0,0-.07.07.07.07,0,0,0,0,.11.09.09,0,0,0,.11,0l.42.06a3.43,3.43,0,0,1,.66.31v2.76a4.52,4.52,0,0,1-.66.32l-.43.11a.07.07,0,0,0,0,.14H27.2s.07,0,.07-.06h0a.07.07,0,0,0-.07-.07l-.48-.08c-.21,0-.29-.13-.1-.31V49.68C26.43,49.68,26.44,49.5,26.44,49.26Zm-1-1.27a.53.53,0,0,1,.53-.54.54.54,0,1,1,0,1.07A.52.52,0,0,1,25.42,48Zm11.46,1.46c0-.43-.28-.36-.28-.36l-1.37.07a.08.08,0,0,0,0,.15h0a1.81,1.81,0,0,1,.4,0,.43.43,0,0,1,.36.31v2.76a.46.46,0,0,1-.36.31l-.43.11a.08.08,0,0,0-.08.07s0,.08.08.14h2.41c0-.06.08-.09.08-.13h0a.07.07,0,0,0-.07-.07,3.7,3.7,0,0,1-.48-.08.65.65,0,0,1-.43-.3v-3Zm-1-1.46a.54.54,0,0,1,.54-.54.55.55,0,0,1,.54.54.54.54,0,0,1-.54.53A.53.53,0,0,1,35.85,48Zm-4.2,1.76a.2.2,0,0,1,0,.11.12.12,0,0,0,.07.11,1.55,1.55,0,0,0,.15-.22A1.68,1.68,0,0,1,33,49a1.2,1.2,0,0,1,1.3.72,2.68,2.68,0,0,1,.06.8l0,2c0,.17.08.28.29.32l.37.07a.07.07,0,0,1,.07.07s-.07-.65-.07-.65H32.7s-.07.7-.08.66h0a.08.08,0,0,1,.08-.07,1.33,1.33,0,0,0,.38-.07c.22-.06.3-.15,0-.32V50.21c.27,0,.36-.86-.23-.86s-.88.64-1,.91-.14.48-.23.72v1.5a.44.44,0,0,0,.36.32l.37.06a.08.08,0,0,1,.07.07s-.07.12-.07.12H30.07a.26.26,0,0,1-.08-.11h0a.08.08,0,0,1,.07-.08,1.58,1.58,0,0,0,.39-.06,1.16,1.16,0,0,0,.49-.32V50.17c-.19,0-.11-.88-.69-.86s-.86.64-1,.91.23.92.23.92v1.34s-.31.28-.1.32l.36.06a.08.08,0,0,1,.07.08s0,.07-.07.11h-2.4s-.07-.07-.07-.11a.08.08,0,0,1,.06-.08h0a3.55,3.55,0,0,0,.47-.06c.21,0,.23-.32.23-.32v-2.8s0-.26-.23-.31a3.5,3.5,0,0,0-.43-.07.07.07,0,0,1-.07-.07s0-.1.07-.1l1.45-.07s.27,0-.07.2v.91h.38a1.31,1.31,0,0,1,.15-.49A1.62,1.62,0,0,1,30.44,49a1.11,1.11,0,0,1,1.23.72ZM21.57,48v4.44a1,1,0,0,0,.45.33,1.59,1.59,0,0,0,.43.06,2.5,2.5,0,0,0,1.17-.29,1.94,1.94,0,0,0,.66-1.1,1.86,1.86,0,0,0,.09-.48s0-.17.09-.17.1.12.1.2,0,1.88,0,1.88a.18.18,0,0,1-.14.17H19.87c-.05,0-.09,0-.1-.1h0a.08.08,0,0,1,.07-.08h0a4.34,4.34,0,0,0,.52-.07,1.14,1.14,0,0,0,.49-.34v-4.3a1.35,1.35,0,0,0-.49-.34l-.52-.07a.08.08,0,0,1-.08-.08h0a1.25,1.25,0,0,0,.09-.38h2.8c.05.3.08.34.08.38h0a.06.06,0,0,1-.06.08h0c-.21,0-.42,0-.64.07s-.31.16-.31.19Zm-5.05,1.44s0,.14-.06.15-.09-.07-.11-.14A6.32,6.32,0,0,0,16,48.6c-.14-.24-.54-1.17-1.44-1.11a1.3,1.3,0,0,0-1.23,1.19,9.25,9.25,0,0,0-.15,1.82c0,.22-.11,2.48,1.48,2.42a1.75,1.75,0,0,0,1.74-1.75v-.11c0-.05,0-.1.08-.1s.17,0,.18.11a2.69,2.69,0,0,1-.41,1.31,1.94,1.94,0,0,1-1.6.72,2.7,2.7,0,0,1-2-1,3.18,3.18,0,0,1-.59-1.94,3.39,3.39,0,0,1,1.18-2.32,2.24,2.24,0,0,1,1.34-.48,2,2,0,0,1,1.26.42c.37.29.44-.07.45-.11s.06-.27.15-.27.08.1.08.12v2ZM9.32,47.9v4.55c-.09.18,0,.29.23.33a4.66,4.66,0,0,0,.64.08.06.06,0,0,1,.08.06v0s-.08.11-.08.11h-3s-.07-.07-.07-.11a.07.07,0,0,1,.07-.08,4.34,4.34,0,0,0,.52-.08,4,4,0,0,0,.92-.33V47.9a1.46,1.46,0,0,0-.47-.13,1.26,1.26,0,0,0-.55.06c-.33.1-.6.53-.79,1a5.29,5.29,0,0,0-.27.94.09.09,0,0,1-.09.09s-.09,0,0-.09V47.29h5v2.46a4.4,4.4,0,0,0-.45.09h0a.08.08,0,0,1-.1-.08h0a5,5,0,0,0-.25-.94c-.21-.49-.45-.92-.83-1a1.83,1.83,0,0,0-.52,0s-.07,0-.08.15Zm-5.05.26c-.13-.18,0-.3.19-.34A3,3,0,0,1,5,47.75a.08.08,0,0,0,.08-.08c0-.05,0-.08-.08-.38H2.3a3.1,3.1,0,0,1-.08.38.09.09,0,0,0,.08.08,3,3,0,0,1,.51.07,4.42,4.42,0,0,1,.74.34v4.28a5.46,5.46,0,0,1-.74.34l-.51.07a.08.08,0,0,0-.08.08s0,.08.08.12H5a.17.17,0,0,0,.08-.12A.07.07,0,0,0,5,52.85l-.51-.07c-.22-.05-.32-.16-.19-.34ZM35.81,35a.54.54,0,0,0-.54.53h0a.53.53,0,0,0,.06.24l1.54,2.85a1.27,1.27,0,0,0,1.14.71H44.5l4.48,5H33.61A1.72,1.72,0,0,1,31.75,43L29,32.17a1.13,1.13,0,0,1,0-.26,1.2,1.2,0,0,1,1.18-1.2h7.05L41.09,35ZM19.87,30.71,18,35h3L18.4,43.68h7.5V35h2.38l-.63-4.32Zm-5.58,0h4.34l-7.5,13.7h-9ZM25.81,0,51,44.1,29,20.59Zm-.63,0L0,44.08,22,20.56,25.18,0Z"/></g></g></svg>