<svg xmlns="http://www.w3.org/2000/svg" viewBox="0 0 59.38 33.16"><defs><style>.cls-1{fill-rule:evenodd;}</style></defs><g id="Layer_2" data-name="Layer 2"><g id="Layer_1-2" data-name="Layer 1"><path class="cls-1" d="M3.22,18.49a3.51,3.51,0,0,0,.9.47,3.31,3.31,0,0,0,2,0,3.26,3.26,0,0,0,1.64-1.19,3.2,3.2,0,0,0,.61-1.88,3.3,3.3,0,0,0-.15-1A3.24,3.24,0,0,0,7,13.26a3.54,3.54,0,0,0-.91-.46,3.34,3.34,0,0,0-2,0A3.21,3.21,0,0,0,2,14.9a3.31,3.31,0,0,0,0,2A3.19,3.19,0,0,0,3.22,18.49ZM10.21,0H0L5.12,11.59Z"/><path class="cls-1" d="M14,28.11a2.21,2.21,0,0,1-1.62,2,2.86,2.86,0,0,1-1,.17h-.53a2.84,2.84,0,0,1-1-.17A2.38,2.38,0,0,1,8.4,28.94a1.91,1.91,0,0,1-.2-.83V22.34H2.44v4.24a6.6,6.6,0,0,0,1.94,4.66,6.69,6.69,0,0,0,4.74,1.92h3.94a6.2,6.2,0,0,0,6-6.4V0H14V28.11Zm40.36-5.76v4.81a2.5,2.5,0,0,1-.2.92,2.54,2.54,0,0,1-1.42,1.29,2.85,2.85,0,0,1-1,.18h-.54a2.73,2.73,0,0,1-1.85-.7,2.45,2.45,0,0,1-.56-.77,2.31,2.31,0,0,1-.2-.92V0h-5V32.44H59.38V22.34ZM39.17,18A4.28,4.28,0,0,0,38,16.07a4.36,4.36,0,0,0-1.59-1,5.1,5.1,0,0,0,1.38-1,4.44,4.44,0,0,0,1-1.36,7.13,7.13,0,0,0,.38-1.66V5.18a5.28,5.28,0,0,0-.39-2A5.11,5.11,0,0,0,36,.4,5.24,5.24,0,0,0,34,0H23.34V32.44H34.43s5.17-2.39,5.49-5.25V19.76A17.39,17.39,0,0,0,39.2,18ZM28.35,2.88h2.73a2.34,2.34,0,0,1,1.65.72,2.44,2.44,0,0,1,.7,1.68v6.44a2,2,0,0,1-1.2,1.82,1.88,1.88,0,0,1-.7.16H28.39V2.88ZM34,28.31a2.14,2.14,0,0,1-2,1.24H28.39v-13H31.6A2.56,2.56,0,0,1,34,18.1a2.28,2.28,0,0,1,.19.93v8.54a1.9,1.9,0,0,1-.16.77Z"/></g></g></svg>