<svg id="Layer_1" data-name="Layer 1" xmlns="http://www.w3.org/2000/svg" viewBox="0 0 97 98.28"><defs><style>.cls-1{fill:#3374c1;}.cls-2{fill:#fff;fill-rule:evenodd;}</style></defs><rect class="cls-1" width="97" height="98.28" rx="16.59"/><path class="cls-2" d="M35.9,70.1a4.48,4.48,0,0,0,1.25.64,4.54,4.54,0,0,0,2.73,0,4.55,4.55,0,0,0,2.28-1.64A4.47,4.47,0,0,0,43,66.48a4.6,4.6,0,0,0-.21-1.37,4.45,4.45,0,0,0-1.64-2.27,4.68,4.68,0,0,0-1.26-.64,4.57,4.57,0,0,0-2.74,0,4.47,4.47,0,0,0-2.89,2.91,4.6,4.6,0,0,0-.21,1.37,4.49,4.49,0,0,0,.21,1.36A4.39,4.39,0,0,0,35.9,70.1Zm9.7-25.55H31.43l7.1,16.08L45.6,44.55Z" transform="translate(-23.5 -18.21)"/><path class="cls-2" d="M50.1,83.31a3.36,3.36,0,0,1-2.05,3.07,3.33,3.33,0,0,1-1.28.26H46.1a3.24,3.24,0,0,1-1.27-.26,3.28,3.28,0,0,1-1.8-1.8,3.23,3.23,0,0,1-.25-1.27V75.77H35.1v5.69a8.93,8.93,0,0,0,2.59,6.26A8.81,8.81,0,0,0,44,90.3h4.74a8.83,8.83,0,0,0,8.84-8.85V44.58H50.09V83.31Zm56.67-7.54v6.7a3.46,3.46,0,0,1-.25,1.27,3.31,3.31,0,0,1-1.8,1.8,3.46,3.46,0,0,1-1.27.25h-.68a3.5,3.5,0,0,1-1.27-.25,3.41,3.41,0,0,1-1.08-.72,3.58,3.58,0,0,1-.72-1.08,3.46,3.46,0,0,1-.25-1.27V44.59H92V89.35h21.91V75.76Zm-21-6.7a7.23,7.23,0,0,0-1.58-2.33,6,6,0,0,0-2.2-1.4A7.13,7.13,0,0,0,83.9,64a6.17,6.17,0,0,0,1.39-1.88,5.36,5.36,0,0,0,.51-2.3V51.72A7.23,7.23,0,0,0,85.26,49a7.1,7.1,0,0,0-3.88-3.88,7.22,7.22,0,0,0-2.75-.55H63.83V89.35H79.19a7.19,7.19,0,0,0,7.18-7.18c0-3.44,0-6.87,0-10.31a7.2,7.2,0,0,0-.56-2.79ZM71.05,48.39h3.89a3.33,3.33,0,0,1,2.35,1,3.38,3.38,0,0,1,1,2.35l0,9a2.76,2.76,0,0,1-1.71,2.55,2.7,2.7,0,0,1-1,.21l-4.48,0V48.39Zm7.31,35.16a2.76,2.76,0,0,1-2.55,1.7l-4.76,0V67.49h4.18a3.35,3.35,0,0,1,2.35,1,3.58,3.58,0,0,1,.72,1.08,3.46,3.46,0,0,1,.25,1.27l0,11.69a2.78,2.78,0,0,1-.21,1.06Z" transform="translate(-23.5 -18.21)"/></svg>