<svg id="Layer_1" data-name="Layer 1" xmlns="http://www.w3.org/2000/svg" viewBox="0 0 309.71 162.26"><defs><style>.cls-1{fill:#d2e0ff;}.cls-2{fill:#aec3ff;}.cls-3{fill:#e59365;}.cls-4{fill:#f2a36d;}.cls-5{fill:#ffb27d;}.cls-6{fill:#9fc1f4;}.cls-7{fill:#65c1bf;}.cls-8{fill:#2a4e96;}.cls-9{fill:#8c9df4;}.cls-10{fill:#163560;}.cls-11{fill:#e8945b;}.cls-12{fill:#f77d48;}.cls-13{fill:#c6e2c5;}.cls-14{fill:#bacdfe;}.cls-15{fill:#e4f1f9;}.cls-16{fill:#4c6cf2;}.cls-17{fill:#233862;}.cls-18{fill:#52aaa5;}.cls-19{fill:#ed975d;}.cls-20{fill:#6980e2;}.cls-21{fill:#ebf3fa;}.cls-22{fill:#1b3051;}.cls-23{fill:#ed985f;}.cls-24{fill:#2c3a64;}.cls-25{fill:#2b478b;}.cls-26{fill:#f9ddbf;}.cls-27{fill:#f99746;}.cls-28{fill:#fff;}.cls-29{fill:#f2ccaa;}.cls-30{fill:#ed7d2b;}.cls-31{fill:#f78248;}</style></defs><polygon class="cls-1" points="301.19 115.59 239.06 126.64 224.85 46.77 286.98 35.71 301.19 115.59 301.19 115.59"/><path class="cls-2" d="M425.46,328.37l-18.06,3.21a.35.35,0,0,1-.12-.68l18.06-3.22a.35.35,0,0,1,.4.29.34.34,0,0,1-.28.4Z" transform="translate(-142.79 -282.52)"/><path class="cls-2" d="M425.88,330.72l-18.06,3.22a.37.37,0,0,1-.41-.29.35.35,0,0,1,.29-.4L425.76,330a.34.34,0,0,1,.4.28.34.34,0,0,1-.28.4Z" transform="translate(-142.79 -282.52)"/><path class="cls-2" d="M426.3,333.08l-18.06,3.21a.35.35,0,0,1-.41-.28.36.36,0,0,1,.28-.41l18.06-3.21a.35.35,0,1,1,.13.69Z" transform="translate(-142.79 -282.52)"/><path class="cls-2" d="M416.16,342.13l-12.46,2.22a.5.5,0,1,1-.18-1L416,341.14a.51.51,0,0,1,.58.41.5.5,0,0,1-.41.58Z" transform="translate(-142.79 -282.52)"/><path class="cls-2" d="M427.4,340.14l-7.67,1.36a.5.5,0,0,1-.59-.41.51.51,0,0,1,.41-.58l7.67-1.36a.5.5,0,0,1,.18,1Z" transform="translate(-142.79 -282.52)"/><path class="cls-2" d="M424.12,344.09,405,347.5a.5.5,0,1,1-.18-1L424,343.1a.5.5,0,0,1,.17,1Z" transform="translate(-142.79 -282.52)"/><path class="cls-2" d="M411.83,353.53l-12.47,2.22a.49.49,0,0,1-.58-.4.5.5,0,0,1,.4-.59l12.47-2.22a.51.51,0,0,1,.58.41.49.49,0,0,1-.4.58Z" transform="translate(-142.79 -282.52)"/><path class="cls-2" d="M423.06,351.54l-7.67,1.36a.5.5,0,0,1-.18-1l7.67-1.36a.5.5,0,0,1,.59.4.52.52,0,0,1-.41.59Z" transform="translate(-142.79 -282.52)"/><path class="cls-2" d="M429.57,353.77l-29.95,5.33a.5.5,0,0,1-.18-1l29.95-5.32a.5.5,0,1,1,.18,1Z" transform="translate(-142.79 -282.52)"/><path class="cls-2" d="M412.94,360.71l-12.47,2.21a.5.5,0,1,1-.17-1l12.47-2.21a.5.5,0,0,1,.58.4.51.51,0,0,1-.41.59Z" transform="translate(-142.79 -282.52)"/><path class="cls-2" d="M424.67,358.74,417,360.1a.5.5,0,0,1-.58-.4.49.49,0,0,1,.4-.58l7.67-1.37a.5.5,0,1,1,.18,1Z" transform="translate(-142.79 -282.52)"/><path class="cls-2" d="M420.07,363l-19.16,3.4a.5.5,0,1,1-.17-1l19.15-3.4a.5.5,0,0,1,.59.4.51.51,0,0,1-.41.59Z" transform="translate(-142.79 -282.52)"/><path class="cls-2" d="M395.59,396.48l-12.47,2.22a.5.5,0,1,1-.17-1l12.47-2.22a.51.51,0,0,1,.58.41.5.5,0,0,1-.41.58Z" transform="translate(-142.79 -282.52)"/><path class="cls-2" d="M407.32,394.52l-7.67,1.36a.5.5,0,1,1-.17-1l7.67-1.36a.5.5,0,0,1,.58.4.51.51,0,0,1-.41.59Z" transform="translate(-142.79 -282.52)"/><path class="cls-2" d="M402.72,398.74l-19.15,3.41a.5.5,0,1,1-.18-1l19.16-3.41a.51.51,0,0,1,.58.41.5.5,0,0,1-.41.58Z" transform="translate(-142.79 -282.52)"/><path class="cls-3" d="M385.45,311.53s2.95,3.26,3.12,4.76-1.33,4.81-.61,6.25c.22.45,3.62,4.92,4.66,5.17.7.17,1.71-1.59.71-3.3s-1.22-5.18-1.06-6.7c.28-2.58,2.12-8.6,2.45-7.47l5.71-.91L395,307.12l-9.57,4.41Z" transform="translate(-142.79 -282.52)"/><path class="cls-4" d="M383.63,319.44s-.51,6.55,0,9.05c.2,1,1.17,4.23,2.13,4.58,1.58.58,2.44-2.2,1.76-5.22-.19-.82,1.11-5.92,2-8.24l3.46-9.28-9.31,9.11Z" transform="translate(-142.79 -282.52)"/><path class="cls-5" d="M430.78,298.33c-1.4.82-2.71,1.6-3.85,2.29l-1.73,1.07c-.83.52-1.47.95-1.88,1.25a29.26,29.26,0,0,0-4.05,3h0a6,6,0,0,0-2.68,5.08c-.24,3.13-3.15,7.74-7.1,12.35a36.66,36.66,0,0,0-4.71,7.64c-.22.48-.62,1.59-1.09,2.76-.64,1.64-1.41,3.39-1.95,3.74a.87.87,0,0,1-.73-.05,4.59,4.59,0,0,1-2.15-1.77c-.94-1.93-.21-4.88,1.57-9.54,1.71-4.44,1.46-6.68.8-8.67a4.68,4.68,0,0,0-3-3.27,14.39,14.39,0,0,0-1.86-.68,8,8,0,0,0-3.27-.27,5.66,5.66,0,0,0-3.9,2.41l-.08.1h0A11.56,11.56,0,0,1,388.1,317c-.77.72-1.63,1.38-2.42,2a9.57,9.57,0,0,0-2,2.06h0a3.77,3.77,0,0,0-.58,1.44,22.43,22.43,0,0,1-2,5.25h0a23.61,23.61,0,0,0-1.65,4.41c-1,3.89-3.18,4.3-4.33,3.13l-.05-.05c-.35-.38-.35-2.49-.26-4.38.07-1.42.2-2.73.27-3.1.23-1.15,2.15-5.69,3.07-10.38.69-3.5,6.16-8.73,10-15.64,1.92-3.43,9.3-4.38,17-8.86.42-.24.87-.4,1.3-.61h0c1.23-.61,2.44-1.26,3.62-2a50.91,50.91,0,0,1,5.22.24c1.17.11,2.35.26,3.53.46h0q2.82.45,5.65,1.18a60.94,60.94,0,0,1,6.27,6.11Z" transform="translate(-142.79 -282.52)"/><path class="cls-6" d="M427.4,301.18l-1.34.86-.35.22-6.19,4-.26-.28-12.81-13.66,0,0h0s5.6-4,6-4l.36-.05c.63.52,1.62,1.38,2.8,2.41,3.76,3.32,9.4,8.45,11.17,10.06l.55.51Z" transform="translate(-142.79 -282.52)"/><path class="cls-7" d="M436.73,297.54l-7.93,5.69s-1.25-.46-2.74-1.19l-.78-.4a16,16,0,0,1-2.61-1.68,54.82,54.82,0,0,1-8.58-9.48h0c-.7-1-1.23-1.73-1.57-2.22.06,0,3.83-2.82,7.89-5.73,6.19,3.55,12.4,8.71,16.32,15Z" transform="translate(-142.79 -282.52)"/><path class="cls-8" d="M420.8,302.45a.72.72,0,1,1,.23,1,.72.72,0,0,1-.23-1Z" transform="translate(-142.79 -282.52)"/><polygon class="cls-1" points="222.54 47.17 257.11 41.03 252.85 60.15 228.31 65.61 222.54 47.17 222.54 47.17"/><path class="cls-9" d="M397.16,339.3a11.58,11.58,0,0,1-1.18,7.85,11.79,11.79,0,0,1-4.39,4.54,11.78,11.78,0,0,1-3.61,1.36,12.84,12.84,0,0,1-2.12.23h0a11.14,11.14,0,0,1-2.71-.28,11.5,11.5,0,0,1-2.64-.93,11.18,11.18,0,0,1-1.5-.89,12.23,12.23,0,0,1-2.2-2,11.53,11.53,0,0,1-2.57-5.31,11.69,11.69,0,1,1,22.92-4.57Z" transform="translate(-142.79 -282.52)"/><path class="cls-10" d="M394.81,343a28.77,28.77,0,0,0-7.47-10.07,4.81,4.81,0,0,0-1.49-.84,3.11,3.11,0,0,0-.49-.11,3.56,3.56,0,0,0-2.43.37c-5,.4-5.25,6.34-4.8,8.27.41,1.75,1,3.59-.15,6.12a9.12,9.12,0,0,1-.42.82,10.41,10.41,0,0,0-.75,1.64,12.23,12.23,0,0,0,2.2,2,11.85,11.85,0,0,0,1.5.89,11.5,11.5,0,0,0,2.64.93,11.14,11.14,0,0,0,2.71.28c-.31-3.16,2.06-4.18,4-4.35,1.28-.11,2.36.16,2.28.41a5.15,5.15,0,0,0,1.91-.23,2.43,2.43,0,0,0,1.66-2.37,9,9,0,0,0-.87-3.75Z" transform="translate(-142.79 -282.52)"/><path class="cls-7" d="M383.15,353a11.5,11.5,0,0,1-2.64-.93,11.18,11.18,0,0,1-1.5-.89c.12-.5.22-.89.27-1.09a5.86,5.86,0,0,1,2.22-3.41l1.65,6.32Z" transform="translate(-142.79 -282.52)"/><path class="cls-7" d="M394.32,349.48a11.92,11.92,0,0,1-2.73,2.21,11.78,11.78,0,0,1-3.61,1.36,12.84,12.84,0,0,1-2.12.23h0a11.14,11.14,0,0,1-2.71-.28,11.5,11.5,0,0,1-2.64-.93,25.93,25.93,0,0,1,1-5.39,10.8,10.8,0,0,1,2.22-1,21,21,0,0,1,4.36-1,23.83,23.83,0,0,1,2.38-.18L394,349.1l.3.38Z" transform="translate(-142.79 -282.52)"/><path class="cls-5" d="M388.06,344.7a9.63,9.63,0,0,1-1.21-3.4l-.21.08-3.51,1.46s.31,1.13.53,2.22v0c.2.94-.26,2,1.33,2.09.49,0,4.09-.94,3.07-2.47Z" transform="translate(-142.79 -282.52)"/><path class="cls-11" d="M383.13,342.84s.31,1.13.53,2.22c2-.47,2.74-2.55,3-3.68l-3.51,1.46Z" transform="translate(-142.79 -282.52)"/><path class="cls-5" d="M382.65,344s4.85-.89,4.26-3.9-.38-5.16-3.5-4.73-3.5,1.71-3.55,2.77,1.51,6,2.79,5.86Z" transform="translate(-142.79 -282.52)"/><path class="cls-10" d="M381.19,335.74s2,3.27,4.17,3.39,2.91-.6,2.91-.6a5.9,5.9,0,0,1-2.57-3s-3.85-1.64-4.51.24Z" transform="translate(-142.79 -282.52)"/><path class="cls-10" d="M381.57,336a3,3,0,0,0-1.17,1.36,4.91,4.91,0,0,0-.1,2.9s-1.48-2.2-.63-3.79,1.9-.47,1.9-.47Z" transform="translate(-142.79 -282.52)"/><path class="cls-7" d="M391.59,351.69l-1.17-.79c-.44-.29-.59-1.07-.59-2a21.72,21.72,0,0,1,.63-4.37,6,6,0,0,1,5.21,2.18,3.55,3.55,0,0,1,.23.31,1,1,0,0,0,.08.11,11.79,11.79,0,0,1-4.39,4.54Z" transform="translate(-142.79 -282.52)"/><path class="cls-9" d="M424.9,391.51a10.54,10.54,0,1,1,3.61-16.88,10.88,10.88,0,0,1,1.95,3,10.58,10.58,0,0,1-5.56,13.86Zm6.83-14.41a11.75,11.75,0,0,0-2.62-3.83,11.95,11.95,0,1,0,2.62,3.83Z" transform="translate(-142.79 -282.52)"/><path class="cls-12" d="M421.42,387.6a2.06,2.06,0,0,1-1.26-.43l-7.75-6.07a2,2,0,0,1,2.5-3.19l5.71,4.47,6.07-13.62a2,2,0,0,1,3.7,1.65l-7.13,16a2,2,0,0,1-1.36,1.14,2,2,0,0,1-.48.06Z" transform="translate(-142.79 -282.52)"/><path class="cls-13" d="M189.31,397.11a31.72,31.72,0,0,1-6.15-.55c-6.65-1.33-3.76-3.22-.2-6.27s11.06-2.29,13.27-3.5c1.93-1.05-.31-2.08-3.86-2.08-.51,0-1.05,0-1.6.06-4.43.37-6.62,4.8-13.77,5.52a5.07,5.07,0,0,1-.55,0c-6.88,0-12.11-12.75-12.11-12.75a11.55,11.55,0,0,0,3.37.44c4.8,0,10.49-2,10.75-3.4.33-1.7-12.78-1.47-14.82-2s-5.64-4.57-3.47-12.76c1.35-5.08,7.2-6.05,11.43-6.05a28.08,28.08,0,0,1,4.55.36s9.44,14.26,12.16,14.59h.09c2.44,0-5.77-13.77-5.77-13.77.21,0,.43,0,.67,0,5.66,0,18.09,5.9,18.09,5.9s-.76,16.35,1.86,16.35h.09c2.72-.35-.07-14.81-.07-14.81,5.11,1.51,9.91,7.45,9.91,7.45,6,9.67-6.73,16.89-6.73,16.89h0c-4.15-12.93-40-24.34-40-24.34,39.23,15.65,38.78,26.19,37.9,28.81l-.29.65c-1.74,3.75-8.61,5.24-14.78,5.24" transform="translate(-142.79 -282.52)"/><path class="cls-14" d="M209.78,401.4c-.1-.22-.24-.54-.42-.92h0c.15.29.29.6.42.92m.13-2.24h0s-1.27-1.58-1.62-1.58c-.15,0-.14.26.16,1-1.28-2.61-3.14-6-4.36-6.71a2.78,2.78,0,0,0,.29-.65c.88-2.62,1.33-13.16-37.9-28.81,0,0,35.82,11.41,40,24.34h0a27.06,27.06,0,0,0,3.46,12.41h0" transform="translate(-142.79 -282.52)"/><path class="cls-14" d="M212.37,417.72l-1.42-.37s1.19-10.1-1.17-16c-.13-.32-.27-.63-.42-.92h0c-.43-.84-.72-1.46-.91-1.9-.3-.74-.31-1-.16-1,.35,0,1.62,1.58,1.62,1.58h0a23.62,23.62,0,0,1,2.46,18.56" transform="translate(-142.79 -282.52)"/><path class="cls-13" d="M230.77,400.77s33.23-4.84,46.13,18a6.42,6.42,0,0,1-2.13,8.1c-4.56,3.61-8.29-5.73-12.66-10.69s-18.54-15-31.34-15.44Z" transform="translate(-142.79 -282.52)"/><path class="cls-13" d="M236.25,398s24.18-12.46,40.09,1.66a5.2,5.2,0,0,1,.5,6.77c-2.54,4-7.87-2.21-12.52-4.86S246.18,395,236.25,398Z" transform="translate(-142.79 -282.52)"/><path class="cls-13" d="M449.47,429c-1.85.72-14.15,2.08-13.64,3.64s9.13,3.07,13.57,1.07c0,0-1.65,6.19-4.87,10.16l-16.59.08a7,7,0,0,0-2.4-.32,16.52,16.52,0,0,0-2.75.34l-8.06,0-8.89,0c-2.89-2.52-5.45-6.45-3.07-11.68,0,0,3.78-6.14,8.38-8.16,0,0-.87,13.86,1.72,13.87s-.14-15.53-.14-15.53,11.84-7.62,16.84-7.75c0,0-6.17,14.2-3.66,13.56s9.62-15.11,9.62-15.11,12.62-4,15.64,3.4.15,11.64-1.7,12.35Z" transform="translate(-142.79 -282.52)"/><path class="cls-1" d="M445.56,419.78c-19.89,11.07-27.86,19-30.83,24.23h-2.37c6.36-11.6,32.53-23.93,33.2-24.24Z" transform="translate(-142.79 -282.52)"/><path class="cls-15" d="M243,340a14.12,14.12,0,0,1,13.59-6.68s13.89-12.48,28.82-1.79c0,0,15.79-2.74,27.53,2.18,7.82,3.28,10.41,6.75,10.41,6.75L243,340Z" transform="translate(-142.79 -282.52)"/><path class="cls-15" d="M284.84,317.51a10.87,10.87,0,0,1,10.45-5.14S306,302.78,317.46,311c0,0,12.15-2.11,21.18,1.67,6,2.53,8,5.19,8,5.19l-61.81-.35Z" transform="translate(-142.79 -282.52)"/><path class="cls-16" d="M218.28,425.42l-.1-22.76-.23-47-16.77.08.41,88.62v.38l16.78-.08v-.37l-.09-18.91Zm30.46-69.87-30.56,47.11-6.93,10.67,2.52,18.42,4.51-6.33,12.84-18,10.71-15,26.27-36.91-19.36.1ZM272,444.08l-30.18-51.72-1.13-1.94-14.08,9.19,4.5,7.77,21.31,36.8.23.37,19.58-.09-.23-.38Z" transform="translate(-142.79 -282.52)"/><path class="cls-16" d="M385.83,415.33a17,17,0,0,1-5.16,9.45,13.64,13.64,0,0,1-9.28,3.35q-7.11,0-11-4.23t-3.91-12.09l-.12-24.44c0-5.22,1.25-9.28,3.81-12.16s6.19-4.35,10.94-4.37a12.77,12.77,0,0,1,6.51,1.62,14.35,14.35,0,0,1,4.95,4.72,23.33,23.33,0,0,1,3.09,7.55l17.4-.09A45.25,45.25,0,0,0,397,368.05a29.71,29.71,0,0,0-10.95-10.45A31,31,0,0,0,371,354.06q-10.21.06-17.4,4a26,26,0,0,0-10.92,11.39c-2.52,5-3.74,11-3.72,18l.11,24.43c0,7.06,1.34,13,3.88,18a26.13,26.13,0,0,0,11,11.24,27,27,0,0,0,6.35,2.87,39.46,39.46,0,0,0,5.51.63l10.55-.06a27.31,27.31,0,0,0,4.61-1,27.81,27.81,0,0,0,5.38-2.18,29.21,29.21,0,0,0,10.83-10.13,43,43,0,0,0,5.95-16l-17.38.07Z" transform="translate(-142.79 -282.52)"/><polygon class="cls-16" points="198.74 72.59 181.18 72.69 164.32 111.08 147.13 72.84 129.57 72.91 156.02 127.46 156.17 161.43 156.17 161.8 172.95 161.73 172.95 161.35 172.8 127.38 198.74 72.59 198.74 72.59"/><path class="cls-17" d="M208.37,314.12s-3.08-.51-5,1-2.26,1-3.36,1.92,0,2-.57,2.61a1.25,1.25,0,0,0,.28,2.08c.91.3.31,2,2.26,2.16s1.08,1.11,2.94,1.24a16.54,16.54,0,0,1,4.36.59,1.53,1.53,0,0,0,2.13-.76c.28-.75,1.07.21,1.29-.81s-.59-1.42-.14-2.24,1.55-6.69-4.16-7.77Z" transform="translate(-142.79 -282.52)"/><path class="cls-5" d="M214,373.2a.77.77,0,0,0-.13.82h0a5,5,0,0,0,1.61,1.74,2,2,0,0,1,.26.21l.06,0,.05,0c.71.64.44.79,1.72,2.09,1.46,1.48,2.45,1.49,2.73,1.35s-.26-.9-.81-1.79l-.08-.13-.21-.36c-.65-1.06-.49-1.57-.36-3.17.11-1.3,1.94-7.28,1.94-7.28l-2.77-.44s-.77,4.75-1.68,5.49c-.48.4-1,.41-1.5.7l-.09.07a3.4,3.4,0,0,0-.75.61Z" transform="translate(-142.79 -282.52)"/><path class="cls-17" d="M214,373.2a.77.77,0,0,0-.13.82h0a5.64,5.64,0,0,0,1.62,1.73l.25.22.06,0,.05,0c.71.64.44.79,1.72,2.09,1.46,1.48,2.45,1.49,2.73,1.35s-.26-.9-.81-1.79a6.06,6.06,0,0,1-2.58-1.86c-.85-1.06-1.43-2.41-2-3.23l-.16,0a3.4,3.4,0,0,0-.75.61Z" transform="translate(-142.79 -282.52)"/><path class="cls-5" d="M236.18,371.22c.18.85,1.39.69,2.75.35s1,.05,3-.19,2.5-1,2.55-1.25-.9-.33-1.92-.44l-.39,0a8.35,8.35,0,0,1-3.07-1.47,12.1,12.1,0,0,1-2.51-2.91l-2.64.24s1.41,2.1,2,3a3.22,3.22,0,0,1,.28,1.8,3.4,3.4,0,0,0,0,.9Z" transform="translate(-142.79 -282.52)"/><path class="cls-17" d="M238.93,371.57c1.35-.35,1,.05,3-.19s2.5-1,2.55-1.25-.9-.33-1.92-.44v0a5.5,5.5,0,0,1-2.76.89c-1.3,0-2.69-.31-3.6-.28a3.4,3.4,0,0,0,0,.9c.18.85,1.39.69,2.75.35Z" transform="translate(-142.79 -282.52)"/><path class="cls-18" d="M225.85,354.42l-2.4,6.69-3.13,8.72a5.13,5.13,0,0,1-1.71-.13,7.59,7.59,0,0,1-1.67-.79s.79-9.34,2.4-14.72a9.63,9.63,0,0,1,1.4-3.13c2.55-3.09,5.11,3.36,5.11,3.36Z" transform="translate(-142.79 -282.52)"/><path class="cls-7" d="M223.21,343.88c-1.41-.43-5-.32-9,.45a2.58,2.58,0,0,1-2.85-.85l-10-.67s-3.11,7-1.36,12c.34,1,2,1,2,1s5.88,0,7.82,0c5-.06,10.51-3.56,11.23-3.71,1.17-.25,1.67,2.1,2.88,4.57S235,367.56,235,367.56a9,9,0,0,0,2.15-.25,2.09,2.09,0,0,0,.91-.59s-11.22-21.7-14.89-22.84Z" transform="translate(-142.79 -282.52)"/><path class="cls-5" d="M208.11,328a4.71,4.71,0,0,1-2.94.13,5.31,5.31,0,0,1-2-2.31c.51,0,1.06-.48,1.46-3.39l.21.07,3.65,1.27s-.25,1.16-.41,2.28c-.13.93-.2,1.82,0,1.95Z" transform="translate(-142.79 -282.52)"/><path class="cls-19" d="M208.52,323.8s-.15.81-.36,2a4.24,4.24,0,0,1-3.29-3.25l3.65,1.27Z" transform="translate(-142.79 -282.52)"/><path class="cls-5" d="M209.07,325s-5-.61-4.54-3.71.07-5.25,3.26-5,3.65,1.52,3.76,2.59-1.17,6.18-2.48,6.11Z" transform="translate(-142.79 -282.52)"/><path class="cls-17" d="M211.35,317.15s-3.15,2.77-5.31,3-3-.44-3-.44a8.44,8.44,0,0,0,2-2.79,1.53,1.53,0,0,1,1.24-.91c1.55-.15,4.48-.25,5,1.12Z" transform="translate(-142.79 -282.52)"/><path class="cls-17" d="M209.36,316.92a8.05,8.05,0,0,1,1.42,1.78,6,6,0,0,1,.2,3.2s1.62-3.25.66-4.8a1.32,1.32,0,0,0-2.28-.18Z" transform="translate(-142.79 -282.52)"/><path class="cls-9" d="M212.38,335.3c0,10.06.06,8-1,8.92a4.21,4.21,0,0,1-2,.46c-3.08.24-8.51-.21-8.72-.77-.74-2-.24-2.59-.87-5.6-.06-.32-.15-.66-.24-1-.52-2.07-1-2.77.71-6.12,1.55-3,3.18-5.51,3.33-5.42,4.23,2.45,4.54.35,4.54.35s4.29,4.31,4.27,9.22Z" transform="translate(-142.79 -282.52)"/><path class="cls-7" d="M223.45,361.11l-3.13,8.72a5.13,5.13,0,0,1-1.71-.13,7.59,7.59,0,0,1-1.67-.79s.79-9.34,2.4-14.72l4.11,6.92Z" transform="translate(-142.79 -282.52)"/><path class="cls-9" d="M208.11,326.08s4.33.68,4.86,2.53l3.65,12.76s-2.2.42-3.22-.58-3.64-9.38-3.64-9.38l-1.65-5.33Z" transform="translate(-142.79 -282.52)"/><path class="cls-20" d="M209.36,344.68c-3.08.24-8.51-.21-8.72-.77-.74-2-.24-2.59-.87-5.6l1.44-4.2s-.19,4.66,1.2,5.87,5.66,2.31,6.34,3.32a3.77,3.77,0,0,1,.61,1.38Z" transform="translate(-142.79 -282.52)"/><path class="cls-5" d="M205.8,342.76s3-.71,3.53-.45a6.91,6.91,0,0,1,1.86,1.57c.16.34-1.09-.24-1.5-.35a3.73,3.73,0,0,0-1.29.3,4.23,4.23,0,0,1-2.31.26l-.29-1.33Z" transform="translate(-142.79 -282.52)"/><path class="cls-9" d="M203.57,325.73s-4.08.3-5.48,2.29c-2,2.8-5.77,14.68-3.48,16.23,2.57,1.75,11.6.33,11.6.33a3.65,3.65,0,0,0-.14-2.09c-.43-.68-7.25-1.7-7.57-2s3.86-6.17,3.85-7.12,1.22-7.63,1.22-7.63Z" transform="translate(-142.79 -282.52)"/><path class="cls-5" d="M209.49,343.15a5.68,5.68,0,0,0,.86.91.57.57,0,0,0,.34.07l-.44-.76-.76-.22Z" transform="translate(-142.79 -282.52)"/><path class="cls-5" d="M209.33,342.31l1.87.88a.34.34,0,0,1-.31.12,4.67,4.67,0,0,1-.81-.21l-.75-.79Z" transform="translate(-142.79 -282.52)"/><polygon class="cls-17" points="67.17 62.22 81.83 62.05 86.11 51.03 71.48 51.2 67.17 62.22 67.17 62.22"/><polygon class="cls-17" points="82 61.62 62.64 61.84 62.64 62.27 81.83 62.05 82 61.62 82 61.62"/><path class="cls-21" d="M220.85,339.13a.5.5,0,0,0-.5-.69,1,1,0,0,0-.89.71.51.51,0,0,0,.5.69,1,1,0,0,0,.89-.71Z" transform="translate(-142.79 -282.52)"/><path class="cls-22" d="M354.71,443.78a7.27,7.27,0,0,1,.22-2c.24-.49,1.08-2.49,1.08-2.49l3.35,0a16.78,16.78,0,0,1,.67,2.42c0,.59,0,2,0,2l-5.33,0Z" transform="translate(-142.79 -282.52)"/><path class="cls-22" d="M373.85,443.7a7.64,7.64,0,0,0-.22-2c-.21-.49-1-2.49-1-2.49l-3,0a17.75,17.75,0,0,0-.59,2.42c0,.6,0,2,0,2l4.8,0Z" transform="translate(-142.79 -282.52)"/><path class="cls-5" d="M361.39,360.91a28.52,28.52,0,0,1-.5,4.76L357.57,368l12.54,1.81-3-4.11s-.92-4.41-.46-6-5.25,1.24-5.25,1.24Z" transform="translate(-142.79 -282.52)"/><path class="cls-23" d="M361.37,361.36s1,2.38,2.87,2.32,2.29-2.17,2.29-2.17l-5.16-.15Z" transform="translate(-142.79 -282.52)"/><path class="cls-24" d="M360.25,359.43a30.7,30.7,0,0,0-1-3.91c-.43-.91-.8-5,3.87-5.21a5.39,5.39,0,0,0,2.77-.4s0,.6-.25.81a3.11,3.11,0,0,1,2.88,1c1.27,1.4-.81,6.32-.7,7.47l-7.53.24Z" transform="translate(-142.79 -282.52)"/><path class="cls-5" d="M364,362.76c-1.36,0-3.86-1.81-3.87-4v-3.48a1.39,1.39,0,0,1,1.25-1.49l5.16,0a1.38,1.38,0,0,1,1.27,1.47l0,3.29c0,2.34-2.27,4.29-3.82,4.27Z" transform="translate(-142.79 -282.52)"/><path class="cls-24" d="M360.16,357.1s0-2.09,1.65-2.42,5.37,1,5.89-.53-7.18-1.47-7.56-.5a9.9,9.9,0,0,0,0,3.45Z" transform="translate(-142.79 -282.52)"/><path class="cls-25" d="M354.85,392.67s.6,16.11-.14,25.3a183.53,183.53,0,0,0,.1,22,6,6,0,0,0,5.26,0s2.92-17.77,2.88-22c0-4.5,3.15-24.61,3.15-24.61l-11.25-.65Z" transform="translate(-142.79 -282.52)"/><path class="cls-25" d="M373.73,439.87a6,6,0,0,1-5.26,0s-3.08-17.74-3.08-22a113.65,113.65,0,0,0-1.3-11.35c-.95-6.53-2.08-13.23-2.08-13.23l11.68-.79s-.89,16.15-.06,25.33a184.58,184.58,0,0,1,.1,22Z" transform="translate(-142.79 -282.52)"/><path class="cls-17" d="M365.39,417.92a113.65,113.65,0,0,0-1.3-11.35,22.53,22.53,0,0,1,2.38-5.61c2.18,6-1.08,17-1.08,17Z" transform="translate(-142.79 -282.52)"/><path class="cls-26" d="M377.55,385c-1,2.4-2.75,5.71-3.19,6.6,0-3-.38-7.19-.55-10.31-.05-1-.11-2-.17-2.87,2.79,2.23,5.35,3.18,3.91,6.58Zm6.28-4.12c-4.11-9.92-11.43-15-16.73-15.16a6,6,0,0,1-3.05,2.34c-1.71-.23-3.16-2.33-3.16-2.38-1.87.2-10.27,1.18-15.93,15.06-.44,1.08-.51,3.65,1.53,6.17a44.26,44.26,0,0,0,7.25,6.87,12.9,12.9,0,0,0,.62-1.86s-2.1-4.05-3.37-6.79c-.62-1.34-1.34-2.87,3.23-6,.13,3.49.71,7.62.28,11.35-.58,5,.43,4.89.43,4.89s1.36.26,3.26.5a46.23,46.23,0,0,0,5.85.42,58.15,58.15,0,0,0,9.52-1c.55,0,.76-1.23.79-3.06a11.08,11.08,0,0,0,.53,1.47,44.38,44.38,0,0,0,7.19-6.94c2-2.54,2.21-4.78,1.76-5.86Z" transform="translate(-142.79 -282.52)"/><path class="cls-7" d="M361.06,364.87s-.86.28-1,.91c0,0,2.54,2.24,4,2.27l-3-3.18Z" transform="translate(-142.79 -282.52)"/><path class="cls-7" d="M364.05,368.05l2.87-3.33s.89.39.89,1c0,0-2.52,2.37-3.76,2.29Z" transform="translate(-142.79 -282.52)"/><path class="cls-7" d="M363.53,367.81s-2.11,19-1.34,21.3a16.12,16.12,0,0,0,1.36,2.94.78.78,0,0,0,1.35,0,9.25,9.25,0,0,0,1.33-3.23c0-1.21-1.77-21-1.77-21l-.93,0Z" transform="translate(-142.79 -282.52)"/><path class="cls-27" d="M363,366.88a13.71,13.71,0,0,1,2.14-.06.22.22,0,0,1,.17.33c-.22.41-.68,1.12-1.17,1.12-.68,0-1.74-1.34-1.14-1.39Z" transform="translate(-142.79 -282.52)"/><path class="cls-28" d="M362.94,360.52a1.48,1.48,0,0,0,1.16.55,1.41,1.41,0,0,0,1.08-.56,7.29,7.29,0,0,0-2.24,0Z" transform="translate(-142.79 -282.52)"/><path class="cls-5" d="M353.94,392.11s1.63-1.48,2.67-.78,1.59,1.81,1,1.89-2.47-.13-2.65.15-.95.82-1.2.39.21-1.65.21-1.65Z" transform="translate(-142.79 -282.52)"/><path class="cls-5" d="M354.36,391.91a12.9,12.9,0,0,1-.62,1.86,44.26,44.26,0,0,1-7.25-6.87,9.14,9.14,0,0,0,4.5-1.78c1.27,2.74,3.37,6.79,3.37,6.79Z" transform="translate(-142.79 -282.52)"/><path class="cls-5" d="M374.66,392s-1.4-1.28-2.61-.42c-.68.48-1.15,1.76-.56,1.65s2-.25,2.19,0,.82.69,1.2.39-.22-1.65-.22-1.65Z" transform="translate(-142.79 -282.52)"/><path class="cls-5" d="M374.24,391.82a12.77,12.77,0,0,0,.64,1.85,44.38,44.38,0,0,0,7.19-6.94,8.89,8.89,0,0,1-4.52-1.74c-1.24,2.76-3.31,6.83-3.31,6.83Z" transform="translate(-142.79 -282.52)"/><path class="cls-10" d="M281.09,360a3.62,3.62,0,0,0-2.89.17c-4.92.22-5.4,6.08-5,8s.95,4-.8,6.84c-5,8.29,8.06,6.47,8.06,6.47-.84-5.82,6.47-4.85,6.26-4.21,9.27.68-1.72-16-5.61-17.27Z" transform="translate(-142.79 -282.52)"/><path class="cls-26" d="M276.11,385.17a13.69,13.69,0,0,1-1.31,2c-1,1.29-6.39-1.73-5.93-2s3.12-8,3.76-9,2.82-1.49,2.82-1.49l.66,10.45Z" transform="translate(-142.79 -282.52)"/><path class="cls-25" d="M294.45,437.45s1.49,1.35,1.2,2.31-1.61,1.61-1.79,2.78-.89,1.82-1.54,1.82h-3.1s-.49-.82.67-1.07,1.58-1.64,1.5-2.92a23.57,23.57,0,0,1,.1-3l2.45-.58.51.63Z" transform="translate(-142.79 -282.52)"/><path class="cls-25" d="M281.92,438.09s.56,5.72-.09,6l-8.31,0s0-1,1.33-1.18,3.67-1,4.06-2.76,3-2.12,3-2.12Z" transform="translate(-142.79 -282.52)"/><path class="cls-5" d="M287.66,397c-1.73-3.83-2.78-4.93-2.59-6.12.15-.89-.53-16.53-.53-16.53-.2-.07-.61-.12-.83-.17a2.07,2.07,0,0,1-1.53-1.32,10.71,10.71,0,0,1-.54-3.53l-.22.05-3.68.74s.09,1.16.1,2.26v0a2.12,2.12,0,0,1-1.52,2.06l-.87.26a33.67,33.67,0,0,0-1.58,7.84c-.24,4,2.49,5.68,0,13.63-2.49,8.11,14.7,2.92,13.75.81Z" transform="translate(-142.79 -282.52)"/><path class="cls-11" d="M277.74,370.12s.09,1.16.1,2.26c2.06-.07,3.14-2,3.58-3l-3.68.74Z" transform="translate(-142.79 -282.52)"/><path class="cls-5" d="M277.53,371.67s4.83-.71,4.34-3.71-.2-5.12-3.3-4.79-3.52,1.57-3.6,2.61,1.29,6,2.56,5.89Z" transform="translate(-142.79 -282.52)"/><path class="cls-10" d="M276.36,363.45s1.9,3.31,4,3.5,2.9-.5,2.9-.5a5.79,5.79,0,0,1-2.43-3.08s-3.76-1.75-4.48.08Z" transform="translate(-142.79 -282.52)"/><path class="cls-10" d="M276.74,363.69a3,3,0,0,0-1.21,1.3,4.93,4.93,0,0,0-.2,2.86s-1.38-2.23-.49-3.76,1.9-.4,1.9-.4Z" transform="translate(-142.79 -282.52)"/><path class="cls-26" d="M288.06,381.25a33.92,33.92,0,0,1,0,3.84c-.08,1.4-1.48,3.26-1.67,3.72-.5,1.16-1.06,1.35-1.06,1.35L281,391.25l-1.53.39-4.85-1.43s-2.23-6.14-1.36-9.61a26.64,26.64,0,0,1,2.21-5.88s4,3.85,9.09-.37l3.52,6.9Z" transform="translate(-142.79 -282.52)"/><path class="cls-29" d="M288.49,385.14c-.07,1.39-1.89,3.21-2.08,3.67-.5,1.16-1.06,1.35-1.06,1.35L281,391.25l-1.17-1.63s7.06-2,5.69-8.23l3,3.75Z" transform="translate(-142.79 -282.52)"/><path class="cls-18" d="M274.91,391.15s-2.36,7.47-2.5,10,4.75,36.08,4.94,37.25,1.56,1.8,1.56,1.8a2.1,2.1,0,0,0,1.53.12,3.72,3.72,0,0,0,1.64-.79s1.76-23.94.56-32.49a136.13,136.13,0,0,1-1.24-15.93l-6.49,0Z" transform="translate(-142.79 -282.52)"/><path class="cls-7" d="M285.07,390.88s3.68,4.89,4,8.2.6,15,1.34,18.2,3.44,9.45,3.49,19.54a2,2,0,0,1-1.13.89c-.27.1-.64.19-1,.28a1.57,1.57,0,0,1-1.76-.83c-1.82-3.62-7.63-15.31-7.93-17.75-.22-1.72-2.09-13.1-6.08-19.77-1-1.6.55-8,.55-8l8.47-.77Z" transform="translate(-142.79 -282.52)"/><path class="cls-28" d="M278.17,369.73s0,.37-.91.46c0,0-.75.07-.79-.32a2.43,2.43,0,0,1,1.7-.14Z" transform="translate(-142.79 -282.52)"/><path class="cls-30" d="M274.52,390a5.08,5.08,0,0,0,2.88.78c2.29,0,8-.62,8-.62a4.7,4.7,0,0,1,.24,1.45s-6.9,1.77-10.91.3a2.5,2.5,0,0,1-.16-1.91Z" transform="translate(-142.79 -282.52)"/><path class="cls-28" d="M276.86,390.74a.85.85,0,1,0,.7.83.78.78,0,0,0-.7-.83Zm0,2a1.1,1.1,0,0,1-1-1.17,1,1,0,1,1,1,1.17Z" transform="translate(-142.79 -282.52)"/><polygon class="cls-10" points="139.08 112.35 128.69 112.5 123.53 100.5 133.91 100.36 139.08 112.35 139.08 112.35"/><path class="cls-5" d="M280.48,389.45l-.76-.93a2.61,2.61,0,0,0-.89-.53c-.38-.08-1.17-.53-1.25-.4s.62,1,.62,1h0c-.78.6-2.76.09-3,.33s.41.92.79,1.27a2.78,2.78,0,0,0,2.31.67c.61-.19,1.58-.39,1.58-.39l.58-1.06Z" transform="translate(-142.79 -282.52)"/><path class="cls-5" d="M267.1,385.14s.65-.75,1.07-.39-.1,2.11-.5,1.93-.8-1.32-.57-1.54Z" transform="translate(-142.79 -282.52)"/><path class="cls-26" d="M284.54,374.35a5.89,5.89,0,0,1,4.81,3.44c1.34,3.23,3.84,10.1,3.84,11s-2.7,4.28-13.35,1.74c0,0-.36-1,.34-1.54,0,0,7.41-2.42,7.4-2.89,0-.9-1-1.67-5.18-5.79-1.13-1.12,2.14-6,2.14-6Z" transform="translate(-142.79 -282.52)"/><path class="cls-13" d="M225,444.67l14.76-.06c.79-.68-.56-2.2-2-2.29a8.33,8.33,0,0,0-2.26.27c-.21-2.69-1.43-14.81-5.8-14.3-4.91.56,0,5.33,1.43,8.17a65.82,65.82,0,0,1,2.64,6.53l-1.23.25c-.66-2-3.12-8.71-6.2-8.31-3.61.48-2.15,3.17.43,4.76,1.88,1.17,4.2,2.83,5.3,3.63a15.2,15.2,0,0,1-2.88.25,6.26,6.26,0,0,0-4.24,1.1Z" transform="translate(-142.79 -282.52)"/><path class="cls-13" d="M335.85,444.16l-12.37.06c-.66-.56.45-1.84,1.62-1.94a7.4,7.4,0,0,1,1.89.22c.16-2.26,1.08-12.43,4.75-12,4.12.44,0,4.48-1.13,6.86a56.17,56.17,0,0,0-2.17,5.49l1,.21c.54-1.68,2.54-7.33,5.13-7,3,.37,1.82,2.63-.32,4-1.57,1-3.5,2.4-4.42,3.08a12.83,12.83,0,0,0,2.42.19,5.26,5.26,0,0,1,3.56.89Z" transform="translate(-142.79 -282.52)"/><path class="cls-31" d="M207,441.84c-.2.13-.4.26-.61.38l-.21.12-.48.26a16.54,16.54,0,0,1-17.62-27.85,14.59,14.59,0,0,1,1.67-1.1c.21-.13.42-.24.63-.35L191,413a16.11,16.11,0,0,1,1.95-.77A16.53,16.53,0,0,1,207,441.84Z" transform="translate(-142.79 -282.52)"/><path class="cls-24" d="M185.51,369.78a30.19,30.19,0,0,0-4.61,2.29c-2.08,2.32-1.47,5.34-.28,5.37.77,0,.63,1.29.63,1.29l8.52-3.65s-1.06-6-4.26-5.3Z" transform="translate(-142.79 -282.52)"/><path class="cls-24" d="M186.57,370.25s-2.14-3.82-6.66-1.64c-2.4,1.15-2.56,6.23-3.51,7.11-2.11,1.95-3,2.66-2.6,5.95s10.67,7.38,10.08,10.1c0,0,4.2-5.2.81-8.4-1.28-1.21-2.7-4.13-2.56-4.65s4.44-8.47,4.44-8.47Z" transform="translate(-142.79 -282.52)"/><path class="cls-23" d="M183.27,385.91a3.3,3.3,0,0,0-5.86-1.33,3,3,0,0,0-.58,1.45c-.37,3.14,4.7,15.87,5.42,17,1.32,2.09,9,9.27,9,9.27l1.41-.87s-5.49-9.21-6.34-10.07-2-10.24-3.09-15.48Z" transform="translate(-142.79 -282.52)"/><path class="cls-23" d="M190.75,411.48s2.06-1.37,2.84-1.29,3.06.73,3.09,1.06-2.53.55-2.7.74-1.9,1.34-2.53,1-.7-1.5-.7-1.5Z" transform="translate(-142.79 -282.52)"/><path class="cls-25" d="M176.46,442.23l-1.85-.26a21.82,21.82,0,0,1-7.2-14.12,15.93,15.93,0,0,1-.06-2.85.52.52,0,0,0-.07-.32h0c-.2-.3-.7-1.06-1.37-2.15s-1.81-3.08-3.06-5.35c-2.26-4.07-4.89-8.95-5.8-10.51-2.87-4.95-1.51-8.29-1.51-8.29s8-.82,10.12-2.74l.79,1.21s1.76,7.62,1.68,7.65c.08.26.17.52.26.79a132.41,132.41,0,0,1,3.84,13.7,22.73,22.73,0,0,1,.62,5.93,11.08,11.08,0,0,0,.15,2.17c.8,5.47,3.46,15.14,3.46,15.14Z" transform="translate(-142.79 -282.52)"/><path class="cls-20" d="M180.35,444.55l-7.71,0a4.23,4.23,0,0,1,.21-2.07c.38-.86.93-.89.06-2.23.49.51,2.06.71,3.18.55a9.66,9.66,0,0,0,1.34,2c.51.36,2.76.22,2.92,1.68Z" transform="translate(-142.79 -282.52)"/><path class="cls-17" d="M168.39,405.29c-.66,3.72-2.22,9.91-5.54,11.89-2.26-4.07-4.89-8.95-5.8-10.51-2.87-4.95-1.51-8.29-1.51-8.29s8-.82,10.12-2.74l.79,1.21s1.76,7.62,1.68,7.65c.08.26.17.52.26.79Z" transform="translate(-142.79 -282.52)"/><path class="cls-30" d="M182.43,384.2a5.58,5.58,0,0,1,1.18,3.47s-1.29,4-5.36,4.67c0,0,3.18-8.13,4.18-8.14Z" transform="translate(-142.79 -282.52)"/><path class="cls-25" d="M163,398.92l0-1.44c-2.87.37-9.92-3.39-9.92-3.39s-3,2-3.38,7.72c-.19,2.79-1.41,14.58-1.53,18.1,0,1.28-.06,2.19-.06,2.55h0a.53.53,0,0,1-.12.29,16.09,16.09,0,0,0-1.55,2.4c-4.35,8.17-2,19.25-2,19.25l1-.27s3.65-11.5,6-16.48a10.47,10.47,0,0,1,1.09-1.89,22.56,22.56,0,0,0,2.79-5.26,136.67,136.67,0,0,0,4.7-14.31c.09,0,2.89-7.28,2.89-7.28Z" transform="translate(-142.79 -282.52)"/><path class="cls-5" d="M179.72,389.22c-4.7-1.06-1.73-7.67-1.46-7.56.65-.14,2.08-1.28,3.34-3.52l.18.15,2.89,2.51s-.66,1-1.21,2a4.35,4.35,0,0,0-.75,1.75c.24.18-1.73,5-3,4.71Z" transform="translate(-142.79 -282.52)"/><path class="cls-23" d="M184.67,380.8s-.66,1-1.21,2c-1.8-1.1-1.82-3.32-1.68-4.47l2.89,2.51Z" transform="translate(-142.79 -282.52)"/><path class="cls-5" d="M184.76,382.07s-4.37-2.4-2.83-5.1,2-4.82,4.87-3.4,2.8,2.75,2.5,3.78-3.36,5.28-4.54,4.72Z" transform="translate(-142.79 -282.52)"/><path class="cls-24" d="M190,375.78c-.2-1.2-.81-1.31-1.23-1.22a3.49,3.49,0,0,0-4.25-1.61,5.91,5.91,0,0,1-3.42,2.08s.51.94,2.6,1.51a3.49,3.49,0,0,0,2.05-.17,11.51,11.51,0,0,1-2.95,1.12c2.74.24,5.34-2.28,5.61-2.55a3.89,3.89,0,0,1,.23,1.8c-.18.81-.89,2.28-.45,2.47,0,0,2.12-1.64,1.81-3.43Z" transform="translate(-142.79 -282.52)"/><path class="cls-20" d="M150.54,444.69l-7.71,0a4.23,4.23,0,0,1,.21-2.07c.38-.86,1-1.25.83-2.29a2.76,2.76,0,0,0,2.41.91,8.65,8.65,0,0,0,1.35,1.73c.5.36,2.75.22,2.91,1.68Z" transform="translate(-142.79 -282.52)"/><path class="cls-7" d="M180.3,394.45a18.72,18.72,0,0,1-3.81.7,25.78,25.78,0,0,0-5.21.84,1.17,1.17,0,0,0-.75.61,14.43,14.43,0,0,1-2.55,3.65c-13.43-.55-14.93-6.16-14.93-6.16,9-10.55,24.12-13.24,24.12-13.24s2.76-.82,3.3,1.16c.63,2.31,2.3,2.14,2.3,2.14s.44,9.26-2.47,10.3Z" transform="translate(-142.79 -282.52)"/><path class="cls-18" d="M176.49,395.15a25.78,25.78,0,0,0-5.21.84,21.36,21.36,0,0,1,2.66-11.75s2.1,8.38,2.55,10.91Z" transform="translate(-142.79 -282.52)"/><path class="cls-5" d="M178.52,382.93s-5.08.52-5.47,3.83,4.95,16.72,5.71,17.94c1.39,2.21,9.53,9.77,9.53,9.77l1.49-.91s-5.8-9.71-6.69-10.61c-1.4-1.43-2.84-18.89-4.57-20Z" transform="translate(-142.79 -282.52)"/><path class="cls-7" d="M173.21,388.74c0,.08,4.69,1.51,7.7,0,0,0,.61-6.95-3-6.56s-5.72,1.54-5.8,3.26a6.07,6.07,0,0,0,1.08,3.33Z" transform="translate(-142.79 -282.52)"/><path class="cls-5" d="M187.82,413.51s1.82-1.69,2.6-1.73,3.13.22,3.22.55-2.4.95-2.54,1.16-1.66,1.64-2.34,1.38-.94-1.36-.94-1.36Z" transform="translate(-142.79 -282.52)"/><path class="cls-28" d="M191.64,435.64a2.11,2.11,0,0,1-.68-1.17L189,424.64a2.06,2.06,0,0,1,4.05-.8l1.41,7.24,13.74-6.44a2.06,2.06,0,1,1,1.75,3.73l-16.13,7.57a2.06,2.06,0,0,1-1.81,0,2.9,2.9,0,0,1-.41-.27Z" transform="translate(-142.79 -282.52)"/></svg>