<svg id="Layer_1" data-name="Layer 1" xmlns="http://www.w3.org/2000/svg" viewBox="0 0 52.18 63.77"><defs><style>.cls-1{fill:#fff;}</style></defs><path class="cls-1" d="M50.09,18.08,24,29.67V47.06C24,63.15,35.14,78.2,50.09,81.85c15-3.65,26.09-18.7,26.09-34.79V29.67Zm20.29,29a31.1,31.1,0,0,1-4,15.11L62.18,58a14.47,14.47,0,1,0-4.11,4.12l5,5a27.58,27.58,0,0,1-13,8.82C38.44,72.25,29.8,60.17,29.8,47.06V33.44l20.29-9,20.29,9ZM50.09,58.66a8.7,8.7,0,1,1,8.7-8.7A8.68,8.68,0,0,1,50.09,58.66Z" transform="translate(-24.01 -18.08)"/></svg>