<svg xmlns="http://www.w3.org/2000/svg" viewBox="0 0 44.4 48.19"><defs><style>.cls-1{fill:#662d91;}.cls-2{fill:#fff;}</style></defs><g id="Layer_2" data-name="Layer 2"><g id="Layer_1-2" data-name="Layer 1"><rect class="cls-1" width="44.4" height="48.19" rx="9.05"/><path class="cls-2" d="M9.72,36.13H8.32c-1.29.1-2.19-2.24-2.19-2.24V15.23S7,12.9,8.32,13h1.4a.33.33,0,0,1,.47.34.52.52,0,0,1-.47.5H8.32C7.55,13.83,7,15.23,7,15.23V33.89s.59,1.4,1.36,1.4h1.4a.47.47,0,0,1,.47.47A.35.35,0,0,1,9.72,36.13Z"/><path class="cls-2" d="M36.36,36.13H17.73a.47.47,0,0,1-.47-.47V13.21a.47.47,0,0,1,.47-.47H36.36a2.34,2.34,0,0,1,2.34,2.34V33.79A2.34,2.34,0,0,1,36.36,36.13ZM18.1,35.29H36.18a1.4,1.4,0,0,0,1.4-1.4V15.26a1.39,1.39,0,0,0-1.4-1.4H18.1Z"/><path class="cls-2" d="M16.69,38.07H10.6a1.4,1.4,0,0,1-1.41-1.39h0V12.47a1.4,1.4,0,0,1,1.4-1.4H16.7a1.4,1.4,0,0,1,1.4,1.4V36.68a1.4,1.4,0,0,1-1.41,1.39ZM10.3,12.38V36.77a.47.47,0,0,0,.47.47h6a.47.47,0,0,0,.46-.47V12.38a.47.47,0,0,0-.46-.47h-6A.47.47,0,0,0,10.3,12.38Z"/><path class="cls-2" d="M34.05,20.26H21.91a.47.47,0,0,1-.47-.47V16a.47.47,0,0,1,.47-.46H34.05a.47.47,0,0,1,.47.46v3.8A.47.47,0,0,1,34.05,20.26Zm-11.78-.84H33.41V16.36H22.27Z"/><path class="cls-2" d="M34.91,25.27H32.48A.46.46,0,0,1,32,24.8V22.4a.46.46,0,0,1,.46-.47h2.41a.47.47,0,0,1,.47.47v2.38a.47.47,0,0,1-.45.49Zm-2.06-1.11h1.67v-1.4H32.85Z"/><path class="cls-2" d="M29,25.27h-2.4a.47.47,0,0,1-.47-.47V22.4a.47.47,0,0,1,.47-.47H29a.47.47,0,0,1,.47.47v2.4A.47.47,0,0,1,29,25.27Zm-2-1.11h1.67v-1.4H27Z"/><path class="cls-2" d="M23.48,25.27H21.07a.47.47,0,0,1-.47-.47V22.4a.47.47,0,0,1,.47-.47h2.41a.47.47,0,0,1,.46.47v2.4A.47.47,0,0,1,23.48,25.27Zm-2-1.11h1.67v-1.4H21.44Z"/><path class="cls-2" d="M34.91,29.44H32.48A.45.45,0,0,1,32,29V26.57a.46.46,0,0,1,.46-.47h2.41a.47.47,0,0,1,.47.47V29a.46.46,0,0,1-.45.48Zm-2.06-1.11h1.67V26.94H32.85Z"/><path class="cls-2" d="M29,29.44h-2.4a.46.46,0,0,1-.47-.46V26.57a.47.47,0,0,1,.47-.47H29a.47.47,0,0,1,.47.47V29A.46.46,0,0,1,29,29.44Zm-2-1.11h1.67V26.94H27Z"/><path class="cls-2" d="M23.48,29.44H21.07A.46.46,0,0,1,20.6,29V26.57a.47.47,0,0,1,.47-.47h2.41a.47.47,0,0,1,.46.47V29A.46.46,0,0,1,23.48,29.44Zm-2-1.11h1.67V26.94H21.44Z"/><path class="cls-2" d="M34.91,33.62H32.48a.46.46,0,0,1-.46-.47v-2.4a.46.46,0,0,1,.46-.47h2.41a.47.47,0,0,1,.47.47v2.38a.47.47,0,0,1-.45.49Zm-2.06-.83h1.67v-1.4H32.85Z"/><path class="cls-2" d="M29,33.62h-2.4a.47.47,0,0,1-.47-.47v-2.4a.47.47,0,0,1,.47-.47H29a.47.47,0,0,1,.47.47v2.4A.47.47,0,0,1,29,33.62Zm-2-.83h1.67v-1.4H27Z"/><path class="cls-2" d="M23.48,33.62H21.07a.47.47,0,0,1-.47-.47v-2.4a.47.47,0,0,1,.47-.47h2.41a.47.47,0,0,1,.46.47v2.4A.47.47,0,0,1,23.48,33.62Zm-2-.83h1.67v-1.4H21.44Z"/></g></g></svg>