<svg id="Layer_1" data-name="Layer 1" xmlns="http://www.w3.org/2000/svg" viewBox="0 0 44.4 48.19"><defs><style>.cls-1{fill:#3374c1;}.cls-2{fill:#fff;}</style></defs><rect class="cls-1" width="44.4" height="48.19" rx="9.05"/><path class="cls-2" d="M14.25,38.37h-1.4c-1.29.1-2.2-2.23-2.2-2.23V17.48s.91-2.34,2.2-2.21h1.4c.25-.13.46.08.46.34a.5.5,0,0,1-.46.49h-1.4c-.78,0-1.36,1.38-1.36,1.38V36.14s.58,1.4,1.36,1.4h1.4a.47.47,0,0,1,.46.47A.35.35,0,0,1,14.25,38.37Z" transform="translate(-4.52 -2.25)"/><path class="cls-2" d="M40.89,38.37H22.25a.47.47,0,0,1-.46-.46V15.46a.47.47,0,0,1,.46-.47H40.89a2.34,2.34,0,0,1,2.33,2.33V36A2.33,2.33,0,0,1,40.89,38.37Zm-18.27-.83H40.71a1.4,1.4,0,0,0,1.4-1.4V17.5a1.4,1.4,0,0,0-1.4-1.4H22.62Z" transform="translate(-4.52 -2.25)"/><path class="cls-2" d="M21.21,40.32H15.12a1.4,1.4,0,0,1-1.41-1.4h0V14.72a1.4,1.4,0,0,1,1.4-1.4h6.11a1.4,1.4,0,0,1,1.4,1.4v24.2a1.4,1.4,0,0,1-1.41,1.4Zm-6.38-25.7V39a.47.47,0,0,0,.46.47h6a.47.47,0,0,0,.47-.47V14.62a.47.47,0,0,0-.47-.46h-6A.47.47,0,0,0,14.83,14.62Z" transform="translate(-4.52 -2.25)"/><path class="cls-2" d="M38.58,22.51H26.43A.47.47,0,0,1,26,22v-3.8a.47.47,0,0,1,.47-.47H38.58a.47.47,0,0,1,.46.47V22A.47.47,0,0,1,38.58,22.51ZM26.8,21.67H37.93V18.61H26.8Z" transform="translate(-4.52 -2.25)"/><path class="cls-2" d="M39.43,27.52H37a.47.47,0,0,1-.47-.47V24.64a.47.47,0,0,1,.47-.46h2.4a.47.47,0,0,1,.47.46V27a.47.47,0,0,1-.45.49ZM37.37,26.4H39V25H37.37Z" transform="translate(-4.52 -2.25)"/><path class="cls-2" d="M33.57,27.52H31.16a.47.47,0,0,1-.47-.47V24.64a.47.47,0,0,1,.47-.46h2.41a.47.47,0,0,1,.46.46v2.41A.47.47,0,0,1,33.57,27.52Zm-2-1.12H33.2V25H31.53Z" transform="translate(-4.52 -2.25)"/><path class="cls-2" d="M28,27.52H25.59a.47.47,0,0,1-.46-.47V24.64a.47.47,0,0,1,.46-.46H28a.47.47,0,0,1,.47.46v2.41A.47.47,0,0,1,28,27.52ZM26,26.4h1.67V25H26Z" transform="translate(-4.52 -2.25)"/><path class="cls-2" d="M39.43,31.69H37a.47.47,0,0,1-.47-.46V28.82a.47.47,0,0,1,.47-.47h2.4a.47.47,0,0,1,.47.47v2.39a.47.47,0,0,1-.45.48Zm-2.06-1.11H39V29.19H37.37Z" transform="translate(-4.52 -2.25)"/><path class="cls-2" d="M33.57,31.69H31.16a.47.47,0,0,1-.47-.46V28.82a.47.47,0,0,1,.47-.47h2.41a.47.47,0,0,1,.46.47v2.41A.47.47,0,0,1,33.57,31.69Zm-2-1.11H33.2V29.19H31.53Z" transform="translate(-4.52 -2.25)"/><path class="cls-2" d="M28,31.69H25.59a.47.47,0,0,1-.46-.46V28.82a.47.47,0,0,1,.46-.47H28a.47.47,0,0,1,.47.47v2.41A.47.47,0,0,1,28,31.69Zm-2-1.11h1.67V29.19H26Z" transform="translate(-4.52 -2.25)"/><path class="cls-2" d="M39.43,35.87H37a.47.47,0,0,1-.47-.47V33a.47.47,0,0,1,.47-.46h2.4a.47.47,0,0,1,.47.46v2.39a.47.47,0,0,1-.45.49ZM37.37,35H39V33.64H37.37Z" transform="translate(-4.52 -2.25)"/><path class="cls-2" d="M33.57,35.87H31.16a.47.47,0,0,1-.47-.47V33a.47.47,0,0,1,.47-.46h2.41A.47.47,0,0,1,34,33V35.4A.47.47,0,0,1,33.57,35.87Zm-2-.84H33.2V33.64H31.53Z" transform="translate(-4.52 -2.25)"/><path class="cls-2" d="M28,35.87H25.59a.47.47,0,0,1-.46-.47V33a.47.47,0,0,1,.46-.46H28a.47.47,0,0,1,.47.46V35.4A.47.47,0,0,1,28,35.87ZM26,35h1.67V33.64H26Z" transform="translate(-4.52 -2.25)"/></svg>