<svg xmlns="http://www.w3.org/2000/svg" viewBox="0 0 44.4 48.19"><defs><style>.cls-1{fill:#00a99d;}.cls-2{fill:#fff;}</style></defs><g id="Layer_2" data-name="Layer 2"><g id="Layer_1-2" data-name="Layer 1"><rect class="cls-1" width="44.4" height="48.19" rx="9.05"/><path class="cls-2" d="M19.05,23.8A.74.74,0,0,0,18,24.85l2.31,2.31a.74.74,0,0,0,.52.22.79.79,0,0,0,.53-.22L26,22.55a.74.74,0,1,0-1-1.05l-4.09,4.09Z"/><path class="cls-2" d="M31.19,15.23a5.69,5.69,0,0,1-5.05-3.06.74.74,0,0,0-.66-.4H18.23a.75.75,0,0,0-.65.4,5.69,5.69,0,0,1-5.06,3.06.74.74,0,0,0-.73.75v7.38a14.5,14.5,0,0,0,2,7.49,14,14,0,0,0,7.83,6.2.54.54,0,0,0,.22,0,.57.57,0,0,0,.22,0,14,14,0,0,0,7.83-6.2,14.5,14.5,0,0,0,2-7.49V16a.75.75,0,0,0-.74-.75Zm-.72,8.27a12.65,12.65,0,0,1-8.61,12,12.65,12.65,0,0,1-8.61-12V16.66a7.16,7.16,0,0,0,5.4-3.43h6.42a7.16,7.16,0,0,0,5.4,3.43Z"/><path class="cls-2" d="M24.5,15a.72.72,0,0,0-.57-.28H19.79a.73.73,0,0,0-.58.29,8.68,8.68,0,0,1-4,2.74.73.73,0,0,0-.5.7v5.06a11.18,11.18,0,0,0,6.86,10.35.75.75,0,0,0,.29.06.67.67,0,0,0,.28-.06A11.18,11.18,0,0,0,29,23.48V18.42a.73.73,0,0,0-.5-.7,8.68,8.68,0,0,1-4-2.75Zm3.05,8.49a9.68,9.68,0,0,1-5.69,8.85,9.68,9.68,0,0,1-5.69-8.85V18.92a10.06,10.06,0,0,0,3.95-2.77h3.47a10.17,10.17,0,0,0,4,2.77Z"/></g></g></svg>