<svg id="Layer_1" data-name="Layer 1" xmlns="http://www.w3.org/2000/svg" viewBox="0 0 46 46"><defs><style>.cls-1{fill:#F2A408;}</style></defs><path class="cls-1" d="M29.81,20.61h40.9a2.55,2.55,0,0,1,2.55,2.55v40.9a2.55,2.55,0,0,1-2.55,2.55H29.81a2.55,2.55,0,0,1-2.55-2.55V23.16A2.55,2.55,0,0,1,29.81,20.61Zm2.45,5v36h36v-36ZM38.38,36a3.83,3.83,0,1,1,3.82-3.83A3.83,3.83,0,0,1,38.38,36Zm-2.12,2.6h5v19h-5Zm14,1.09c2.8-2.7,6.49-3.6,10.28.11a12.7,12.7,0,0,1,3.72,9.11v8.69h-5V47a4.57,4.57,0,0,0-3.55-4.54,4.49,4.49,0,0,0-5.45,4.36V57.61h-5v-19h5Z" transform="translate(-27.26 -20.61)"/></svg>