<svg xmlns="http://www.w3.org/2000/svg" viewBox="0 0 44.4 48.19"><defs><style>.cls-1{fill:#22b573;}.cls-2{fill:#fff;}</style></defs><g id="Layer_2" data-name="Layer 2"><g id="Layer_1-2" data-name="Layer 1"><rect class="cls-1" width="44.4" height="48.19" rx="9.05"/><path class="cls-2" d="M25.77,17.73a1.62,1.62,0,0,0,.19-.37,1.47,1.47,0,0,1,.55.23,2.16,2.16,0,0,0,1.13.36,2.45,2.45,0,0,0,.38,0,2,2,0,0,0,1.31-.82,1.07,1.07,0,0,1,.73-.49,1.09,1.09,0,0,1,.87.21,2,2,0,0,0,1.51.32l-.17-.94a1.14,1.14,0,0,1-.86-.21,2,2,0,0,0-2.82.49,1.13,1.13,0,0,1-.74.5,1.19,1.19,0,0,1-.42,0,2,2,0,0,0,.77-.41,2,2,0,0,0,.72-1.37,1.08,1.08,0,0,1,.39-.79,1,1,0,0,1,.86-.25,2,2,0,0,0,1.47-.47L31,12.93a1.19,1.19,0,0,1-.85.25A2,2,0,0,0,28,15a1.1,1.1,0,0,1-1.24,1,2.19,2.19,0,0,0-.88.12,1.55,1.55,0,0,0-.56-.55l2.15-4.29a.49.49,0,0,0,0-.47.47.47,0,0,0-.41-.22,1.29,1.29,0,0,1-.9-.38,2.22,2.22,0,0,0-3,0,1.26,1.26,0,0,1-1.8,0,2.23,2.23,0,0,0-3,0,1.22,1.22,0,0,1-.9.38.47.47,0,0,0-.43.69l2.15,4.29a1.42,1.42,0,0,0-.72.94,1.45,1.45,0,0,0,.23,1.16,10.1,10.1,0,0,0-7.48,9.73V36.1a2.42,2.42,0,0,0,2.41,2.41h17.3a2.41,2.41,0,0,0,2.4-2.41V27.46A10.09,10.09,0,0,0,25.77,17.73ZM18.91,10.9a1.27,1.27,0,0,1,1.81,0,2.22,2.22,0,0,0,3,0,1.26,1.26,0,0,1,1.8,0,2.58,2.58,0,0,0,.78.47l-2,4H20.11l-2-4A2.58,2.58,0,0,0,18.91,10.9Zm.91,6.57a.83.83,0,0,1-.49-.64.42.42,0,0,1,.49-.43h4.8a.41.41,0,0,1,.48.43.84.84,0,0,1-.48.64Zm11.28,20H13.65A1.45,1.45,0,0,1,12.21,36V27.33a9.19,9.19,0,0,1,9.2-9.15h1.93a9.19,9.19,0,0,1,9.2,9.15V36A1.45,1.45,0,0,1,31.1,37.44Z"/><path class="cls-2" d="M19,30.9l5.77-5.77.68.68-5.77,5.77Z"/><path class="cls-2" d="M24.14,28.83a1.45,1.45,0,1,0,1.44,1.45A1.44,1.44,0,0,0,24.14,28.83Zm0,1.93a.48.48,0,0,1-.48-.48.47.47,0,0,1,.48-.48.48.48,0,0,1,.48.48A.49.49,0,0,1,24.14,30.76Z"/><path class="cls-2" d="M20.3,27.87a1.44,1.44,0,1,0-1.45-1.44A1.44,1.44,0,0,0,20.3,27.87Zm0-1.92a.49.49,0,0,1,.48.48.48.48,0,0,1-.48.48.47.47,0,0,1-.48-.48A.48.48,0,0,1,20.3,26Z"/><path class="cls-2" d="M22.22,21.63a6.73,6.73,0,1,0,6.72,6.72A6.72,6.72,0,0,0,22.22,21.63Zm0,12.49A5.77,5.77,0,1,1,28,28.35,5.77,5.77,0,0,1,22.22,34.12Z"/></g></g></svg>