<svg id="Layer_1" data-name="Layer 1" xmlns="http://www.w3.org/2000/svg" viewBox="0 0 44.4 48.19"><defs><style>.cls-1{fill:#3374c1;}.cls-2{fill:#fff;}</style></defs><rect class="cls-1" width="44.4" height="48.19" rx="9.05"/><path class="cls-2" d="M32,19.54a1.22,1.22,0,0,0,.18-.36,1.43,1.43,0,0,1,.56.22,2,2,0,0,0,1.13.36l.38,0a2,2,0,0,0,1.3-.83,1.11,1.11,0,0,1,.74-.49,1.09,1.09,0,0,1,.86.21,2,2,0,0,0,1.52.33L38.51,18a1.06,1.06,0,0,1-.86-.21,2,2,0,0,0-2.82.5,1.11,1.11,0,0,1-.74.49.85.85,0,0,1-.42,0,1.8,1.8,0,0,0,.77-.41A2,2,0,0,0,35.16,17a1.12,1.12,0,0,1,.39-.8A1.1,1.1,0,0,1,36.4,16a2,2,0,0,0,1.48-.47l-.62-.73a1.15,1.15,0,0,1-.86.24,2,2,0,0,0-2.19,1.84,1.08,1.08,0,0,1-.39.8,1.06,1.06,0,0,1-.85.24,2.26,2.26,0,0,0-.89.12,1.36,1.36,0,0,0-.55-.54l2.14-4.29a.47.47,0,0,0,0-.47.49.49,0,0,0-.41-.23,1.22,1.22,0,0,1-.9-.37,2.22,2.22,0,0,0-3,0,1.26,1.26,0,0,1-.9.37,1.25,1.25,0,0,1-.9-.37,2.23,2.23,0,0,0-3,0,1.22,1.22,0,0,1-.9.37.49.49,0,0,0-.41.23.47.47,0,0,0,0,.47l2.15,4.29a1.43,1.43,0,0,0-.49,2.09,10.11,10.11,0,0,0-7.48,9.73v8.65a2.4,2.4,0,0,0,2.4,2.4H37.09a2.4,2.4,0,0,0,2.4-2.4V29.27A10.1,10.1,0,0,0,32,19.54Zm-6.86-6.82a1.27,1.27,0,0,1,1.81,0,2.22,2.22,0,0,0,3,0,1.26,1.26,0,0,1,1.8,0,2.58,2.58,0,0,0,.78.47l-2,4H26.35l-2-4A2.58,2.58,0,0,0,25.15,12.72Zm.9,6.56a.83.83,0,0,1-.48-.64.42.42,0,0,1,.48-.43h4.81a.42.42,0,0,1,.48.43.83.83,0,0,1-.48.64Zm11.29,20H19.89a1.44,1.44,0,0,1-1.44-1.44V29.14A9.18,9.18,0,0,1,27.65,20h1.93a9.18,9.18,0,0,1,9.2,9.14v8.67A1.44,1.44,0,0,1,37.34,39.25Z" transform="translate(-5.52 -2.25)"/><path class="cls-2" d="M25.23,32.71,31,27l.68.68-5.77,5.76Z" transform="translate(-5.52 -2.25)"/><path class="cls-2" d="M30.38,30.65a1.44,1.44,0,1,0,1.44,1.44A1.45,1.45,0,0,0,30.38,30.65Zm0,1.92a.47.47,0,0,1-.48-.48.48.48,0,0,1,.48-.48.49.49,0,0,1,.48.48A.48.48,0,0,1,30.38,32.57Z" transform="translate(-5.52 -2.25)"/><path class="cls-2" d="M26.53,29.69a1.44,1.44,0,1,0-1.44-1.44A1.44,1.44,0,0,0,26.53,29.69Zm0-1.92a.47.47,0,0,1,.48.48.48.48,0,0,1-.48.48.49.49,0,0,1-.48-.48A.48.48,0,0,1,26.53,27.77Z" transform="translate(-5.52 -2.25)"/><path class="cls-2" d="M28.45,23.45a6.72,6.72,0,1,0,6.73,6.72A6.72,6.72,0,0,0,28.45,23.45Zm0,12.48a5.76,5.76,0,1,1,5.77-5.76A5.76,5.76,0,0,1,28.45,35.93Z" transform="translate(-5.52 -2.25)"/></svg>