<svg xmlns="http://www.w3.org/2000/svg" viewBox="0 0 44.4 48.19"><defs><style>.cls-1{fill:#2e3192;}.cls-2{fill:#fff;}</style></defs><g id="Layer_2" data-name="Layer 2"><g id="Layer_1-2" data-name="Layer 1"><rect class="cls-1" width="44.4" height="48.19" rx="9.05"/><path class="cls-2" d="M25.3,20a.25.25,0,0,0-.19-.07H23.75a2.74,2.74,0,0,0-.51-1.15H25.1a.24.24,0,0,0,.25-.25v-.82a.24.24,0,0,0-.25-.25H18.47a.25.25,0,0,0-.19.07.29.29,0,0,0-.07.18V18.8a.27.27,0,0,0,.26.26h1.15c1.12,0,1.84.3,2.14.9H18.47a.25.25,0,0,0-.19.07.29.29,0,0,0-.07.18V21a.29.29,0,0,0,.07.18.25.25,0,0,0,.19.07h3.4a1.56,1.56,0,0,1-.82,1,3.55,3.55,0,0,1-1.69.34h-.89a.22.22,0,0,0-.18.08.25.25,0,0,0-.08.17v1a.26.26,0,0,0,.07.17c1,1.09,2.35,2.6,4,4.55a.23.23,0,0,0,.2.1H24a.24.24,0,0,0,.23-.15.22.22,0,0,0,0-.27Q21.88,25.44,20.55,24a4.08,4.08,0,0,0,2.2-.87,3,3,0,0,0,1-1.87h1.34a.25.25,0,0,0,.19-.07.29.29,0,0,0,.07-.18v-.82A.29.29,0,0,0,25.3,20Z"/><path class="cls-2" d="M28.78,9.12h-14a2.51,2.51,0,0,0-2.5,2.49v25a2.5,2.5,0,0,0,2.5,2.49h14a2.5,2.5,0,0,0,2.5-2.49v-25A2.51,2.51,0,0,0,28.78,9.12Zm-14,1h14a1.5,1.5,0,0,1,1.5,1.49v.5h-17v-.5A1.5,1.5,0,0,1,14.8,10.12Zm15.48,3v20h-17v-20Zm-1.5,25h-14a1.5,1.5,0,0,1-1.5-1.5v-2.5h17v2.5A1.5,1.5,0,0,1,28.78,38.08Z"/><path class="cls-2" d="M21.79,34.58a1.5,1.5,0,1,0,1.5,1.5A1.5,1.5,0,0,0,21.79,34.58Zm0,2a.5.5,0,0,1-.5-.5.5.5,0,0,1,1,0A.5.5,0,0,1,21.79,36.58Z"/></g></g></svg>