<svg id="Layer_1" data-name="Layer 1" xmlns="http://www.w3.org/2000/svg" viewBox="0 0 44.4 48.19"><defs><style>.cls-1{fill:#3374c1;}.cls-2{fill:#fff;}</style></defs><rect class="cls-1" width="44.4" height="48.19" rx="9.05"/><path class="cls-2" d="M52.56,51.09a.25.25,0,0,0-.19-.07H51a2.74,2.74,0,0,0-.51-1.15h1.86a.29.29,0,0,0,.18-.07.25.25,0,0,0,.07-.19V48.8a.24.24,0,0,0-.25-.25H45.73a.25.25,0,0,0-.19.07.29.29,0,0,0-.07.18v1.06a.27.27,0,0,0,.26.26h1.15c1.12,0,1.84.3,2.14.9H45.73a.25.25,0,0,0-.19.07.29.29,0,0,0-.07.18v.81a.29.29,0,0,0,.07.19.25.25,0,0,0,.19.07h3.4a1.59,1.59,0,0,1-.82,1,3.67,3.67,0,0,1-1.69.34h-.89a.24.24,0,0,0-.18.07.25.25,0,0,0-.08.18v1a.28.28,0,0,0,.07.17c1,1.08,2.35,2.6,4,4.55a.26.26,0,0,0,.2.1h1.56a.24.24,0,0,0,.23-.15.23.23,0,0,0,0-.27q-2.34-2.85-3.66-4.27A4.09,4.09,0,0,0,50,54.2a3,3,0,0,0,1-1.86h1.34a.25.25,0,0,0,.19-.07.29.29,0,0,0,.07-.19v-.81A.29.29,0,0,0,52.56,51.09Z" transform="translate(-27.26 -31.06)"/><path class="cls-2" d="M56,40.18h-14a2.51,2.51,0,0,0-2.5,2.49v25a2.51,2.51,0,0,0,2.5,2.49H56a2.51,2.51,0,0,0,2.5-2.49v-25A2.51,2.51,0,0,0,56,40.18Zm-14,1H56a1.5,1.5,0,0,1,1.5,1.49v.5h-17v-.5A1.5,1.5,0,0,1,42.06,41.18Zm15.48,3v20h-17v-20Zm-1.5,25h-14a1.5,1.5,0,0,1-1.5-1.49v-2.5h17v2.5A1.5,1.5,0,0,1,56,69.13Z" transform="translate(-27.26 -31.06)"/><path class="cls-2" d="M49.05,65.64a1.5,1.5,0,1,0,1.5,1.5A1.5,1.5,0,0,0,49.05,65.64Zm0,2a.5.5,0,0,1-.5-.5.5.5,0,0,1,1,0A.5.5,0,0,1,49.05,67.64Z" transform="translate(-27.26 -31.06)"/></svg>