<svg id="Layer_1" data-name="Layer 1" xmlns="http://www.w3.org/2000/svg" viewBox="0 0 44.4 48.19"><defs><style>.cls-1{fill:#3374c1;}.cls-2{fill:#fff;}</style></defs><rect class="cls-1" width="44.4" height="48.19" rx="9.05"/><path class="cls-2" d="M50.26,39.46A14.88,14.88,0,1,0,65.14,54.34,14.88,14.88,0,0,0,50.26,39.46Zm0,28.76A13.89,13.89,0,1,1,64.15,54.34,13.87,13.87,0,0,1,50.26,68.22Zm0-16.36a2.48,2.48,0,1,0,2.48,2.48A2.48,2.48,0,0,0,50.26,51.86Zm0,4a1.49,1.49,0,1,1,1.49-1.49A1.49,1.49,0,0,1,50.26,55.83Zm-5.95-4a2.48,2.48,0,1,0,2.48,2.48A2.48,2.48,0,0,0,44.31,51.86Zm0,4a1.49,1.49,0,1,1,1.49-1.49A1.49,1.49,0,0,1,44.31,55.83Zm11.9-4a2.48,2.48,0,1,0,2.48,2.48A2.48,2.48,0,0,0,56.21,51.86Zm0,4a1.49,1.49,0,1,1,1.49-1.49A1.49,1.49,0,0,1,56.21,55.83Z" transform="translate(-28.02 -30.15)"/></svg>