<svg id="Layer_1" data-name="Layer 1" xmlns="http://www.w3.org/2000/svg" viewBox="0 0 44.4 48.19"><defs><style>.cls-1{fill:#3374c1;}.cls-2{fill:#fff;}</style></defs><rect class="cls-1" width="44.4" height="48.19" rx="9.05"/><path class="cls-2" d="M27.05,37.53l5.76-5.76.67.68L27.73,38.2Z" transform="translate(-5.52 -3.25)"/><path class="cls-2" d="M28.36,34.51a1.44,1.44,0,1,0-1.44-1.44A1.44,1.44,0,0,0,28.36,34.51Zm0-1.92a.48.48,0,0,1,.47.48.48.48,0,1,1-.95,0A.48.48,0,0,1,28.36,32.59Z" transform="translate(-5.52 -3.25)"/><path class="cls-2" d="M32.19,35.47a1.44,1.44,0,1,0,1.44,1.44A1.44,1.44,0,0,0,32.19,35.47Zm0,1.92a.49.49,0,0,1-.48-.48.48.48,0,0,1,.48-.48.47.47,0,0,1,.48.48A.48.48,0,0,1,32.19,37.39Z" transform="translate(-5.52 -3.25)"/><path class="cls-2" d="M17.44,23.42h17.2v.8H17.44Z" transform="translate(-5.52 -3.25)"/><path class="cls-2" d="M17.44,25.42h6.4v.8h-6.4Z" transform="translate(-5.52 -3.25)"/><path class="cls-2" d="M24.64,25.42h.8v.8h-.8Z" transform="translate(-5.52 -3.25)"/><path class="cls-2" d="M17.44,27.42h8v.8h-8Z" transform="translate(-5.52 -3.25)"/><path class="cls-2" d="M17.44,29.42h.8v.8h-.8Z" transform="translate(-5.52 -3.25)"/><path class="cls-2" d="M19,29.42h6.4v.8H19Z" transform="translate(-5.52 -3.25)"/><path class="cls-2" d="M17.44,31.42h4.8v.8h-4.8Z" transform="translate(-5.52 -3.25)"/><path class="cls-2" d="M36.64,17.42v-3.6H15.44V35A1.91,1.91,0,0,0,16,36.35l2.68,2.83v4.64h20.8V17.42ZM16.24,15h19.2v24.8h-14V35h-5.2Zm4.31,24.36L17,35.82h3.64v3.52Zm18.09,3.24H19.84V39.83L20,40a1.9,1.9,0,0,0,1.38.59H36.64V18.22h2Z" transform="translate(-5.52 -3.25)"/><path class="cls-2" d="M30.64,21.82l1-1.28,1,1.28v.8h.8V21.4l-1.13-1.75,1.13-1.76V17h-.8v.8l-1,1.28-1-1.28V17h-.8v.87l1.27,1.76L29.84,21.4v1.22h.8Z" transform="translate(-5.52 -3.25)"/><path class="cls-2" d="M25,21.82h2v.8h.8v-1.4L26.72,17H24.93l-1.09,4.09,0,1.51H25Zm1-4,.7,2.8h-1.6l.7-2.8Z" transform="translate(-5.52 -3.25)"/><path class="cls-2" d="M20.24,22.62H21v-4.8h2V17h-4.8v.8h2Z" transform="translate(-5.52 -3.25)"/></svg>