<svg xmlns="http://www.w3.org/2000/svg" viewBox="0 0 44.4 48.19"><defs><style>.cls-1{fill:#d9e021;}.cls-2{fill:#fff;}</style></defs><g id="Layer_2" data-name="Layer 2"><g id="Layer_1-2" data-name="Layer 1"><rect class="cls-1" width="44.4" height="48.19" rx="9.05"/><path class="cls-2" d="M22.14,33.54l5.75-5.75.68.67-5.76,5.76Z"/><path class="cls-2" d="M23.44,30.52A1.44,1.44,0,1,0,22,29.08,1.44,1.44,0,0,0,23.44,30.52Zm0-1.91a.48.48,0,1,1-.48.47A.47.47,0,0,1,23.44,28.61Z"/><path class="cls-2" d="M27.27,31.48a1.44,1.44,0,1,0,1.44,1.44A1.44,1.44,0,0,0,27.27,31.48Zm0,1.92a.48.48,0,0,1-.48-.48.49.49,0,0,1,.48-.48.48.48,0,0,1,.48.48A.47.47,0,0,1,27.27,33.4Z"/><path class="cls-2" d="M12.52,19.43h17.2v.8H12.52Z"/><path class="cls-2" d="M12.52,21.43h6.4v.8h-6.4Z"/><path class="cls-2" d="M19.72,21.43h.8v.8h-.8Z"/><path class="cls-2" d="M12.52,23.43h8v.8h-8Z"/><path class="cls-2" d="M12.52,25.43h.8v.8h-.8Z"/><path class="cls-2" d="M14.12,25.43h6.4v.8h-6.4Z"/><path class="cls-2" d="M12.52,27.43h4.8v.8h-4.8Z"/><path class="cls-2" d="M31.72,13.43V9.83H10.52V31.05A1.91,1.91,0,0,0,11,32.36l2.68,2.84v4.63h20.8V13.43ZM11.32,11h19.2v24.8h-14V31h-5.2Zm4.32,24.36-3.56-3.56h3.64v3.53Zm18.08,3.24H14.92V35.84l.19.21a2,2,0,0,0,1.39.58H31.72V14.23h2Z"/><path class="cls-2" d="M25.72,17.84l1-1.28,1,1.28v.79h.8V17.42l-1.13-1.76,1.13-1.76V13h-.8v.8l-1,1.28-1-1.28V13h-.8v.87l1.28,1.76-1.28,1.76v1.21h.8Z"/><path class="cls-2" d="M20.12,17.83h2v.8h.8v-1.4L21.81,13H20l-1.1,4.09,0,1.51h1.22Zm1-4,.7,2.8h-1.6l.7-2.8Z"/><path class="cls-2" d="M15.32,18.63h.8v-4.8h2V13h-4.8v.8h2Z"/></g></g></svg>