<svg id="Layer_1" data-name="Layer 1" xmlns="http://www.w3.org/2000/svg" viewBox="0 0 62.26 62.26"><defs><style>.cls-1{fill:#fff;}</style></defs><path class="cls-1" d="M19,81.09a23.72,23.72,0,0,1,47.44,0H60.47a17.79,17.79,0,0,0-35.58,0ZM42.68,54.41A17.79,17.79,0,1,1,60.47,36.62,17.78,17.78,0,0,1,42.68,54.41Zm0-5.93A11.86,11.86,0,1,0,30.82,36.62,11.86,11.86,0,0,0,42.68,48.48Zm24.56,11a23.73,23.73,0,0,1,14,21.63H75.3A17.79,17.79,0,0,0,64.81,64.87l2.43-5.41ZM65.2,26a16.31,16.31,0,0,1-4.73,31.33v-6a10.38,10.38,0,0,0,3.09-19.59Z" transform="translate(-18.96 -18.83)"/></svg>