<svg xmlns="http://www.w3.org/2000/svg" viewBox="0 0 45.81 48.9"><defs><style>.cls-1{fill:#231f20;}.cls-2{fill:#fefefe;}.cls-3{fill:#9e242e;}.cls-4{fill:#ff912e;}.cls-5{fill:#f41cb2;}.cls-6{fill:#f25511;}</style></defs><g id="Layer_2" data-name="Layer 2"><g id="Layer_1-2" data-name="Layer 1"><path class="cls-1" d="M40,39.31A7.2,7.2,0,0,1,44.51,39,2.12,2.12,0,0,1,45.81,41v5.28H44.26l-.18-.83a3.62,3.62,0,0,1-3.43.83,2.22,2.22,0,0,1-.5-3.56c1-1,2.54-1,3.85-1.27-.09-.44-.15-1-.68-1.14a5.6,5.6,0,0,0-3.11.44c-.09-.49-.15-1-.21-1.44m2.08,3.87a1,1,0,0,0-.16,1.36.92.92,0,0,0,.28.24c.77.3,1.52-.23,2.17-.65V42.44a4.32,4.32,0,0,0-2.28.77"/><path class="cls-1" d="M.76,35.61a21.86,21.86,0,0,1,2.56,0c1,2.57,1.65,5.27,2.74,7.8.9-2.62,1.77-5.24,2.62-7.82q1.27,0,2.55,0c.25,3.51.61,7,.76,10H10c-.24-2-.34-4.5-.59-7-1,2.46-1.72,5-2.65,7.71H4.94c-.88-2.67-1.59-5.21-2.63-7.68-.22,2.51-.32,5-.55,7.68H0c.15-3.68.52-7.18.72-10.68"/><path class="cls-1" d="M29.6,36.41a15.44,15.44,0,0,1,1.79-.26v2.44c.51,0,1,0,1.54,0,.1.5.19,1,.25,1.48-.59,0-1.18.06-1.77.06a37.94,37.94,0,0,0,.05,4c.18.64,1,.46,1.54.58a15.23,15.23,0,0,1,.22,1.53A4.4,4.4,0,0,1,30.31,46a2.1,2.1,0,0,1-.75-1.73c-.07-1.33,0-2.68,0-4l-1-.11V38.72L30,38.63V36.22"/><path class="cls-1" d="M13.1,38.89A12.53,12.53,0,0,1,15,38.66c.57,1.7,1.08,3.42,1.68,5.11.61-1.65,1.08-3.33,1.62-5,.6,0,1.22,0,1.84,0-.73,2.25-1.59,4.43-2.35,6.66a7.57,7.57,0,0,1-1.49,3,3,3,0,0,1-2.54.49c-.08-.49-.17-1-.25-1.44a6.86,6.86,0,0,0,1.28,0,1.21,1.21,0,0,0,.82-1.49c-.83-2.32-1.74-4.61-2.54-6.93"/><path class="cls-1" d="M21.3,39.1H23c.06.32.13.63.21.95A3.55,3.55,0,0,1,25.93,39a1.83,1.83,0,0,1,1.67,1.76c0,1.87,0,3.73,0,5.59H25.88s0-3.68-.09-5.4c-.08-.73-1-.9-1.51-.62s-1.11.56-.82,1.18v4.84H21.3V38.38"/><path class="cls-1" d="M35,39.1h1.5c.06.42.13.84.2,1.26A3.76,3.76,0,0,1,39,39a7.58,7.58,0,0,1,.27,1.76,3.34,3.34,0,0,0-2.47,1.55c-.11,1.78.08,3.57,0,5.34L35,47.54V39.1"/><path class="cls-2" d="M9.93,2.8A7.49,7.49,0,0,1,13.17.14C14.71-.27,16.05,1,17,2a44.83,44.83,0,0,1,6.12,9.79,49.77,49.77,0,0,1,3.3-6,20.41,20.41,0,0,1,4-4.89A2.71,2.71,0,0,1,33.18.19a11.74,11.74,0,0,1,3.34,3.06,47.31,47.31,0,0,1,5,8.51,44.65,44.65,0,0,1,4,12c.19,1.95.37,4.12-.81,5.81a4.16,4.16,0,0,1-4.15,1.53,7.44,7.44,0,0,1-3.36-2.44A31,31,0,0,1,32.84,20c-.17-.53-.38-1.05-.56-1.58-.12.54-.27,1.07-.44,1.6-1.17,3.09-2.39,6.23-4.55,8.78A7.35,7.35,0,0,1,24,31.1a5.15,5.15,0,0,1-4.8-1.92c-2.32-2.53-3.61-5.76-4.81-9q-.36-1-.63-2a18.18,18.18,0,0,1-.66,2A29.33,29.33,0,0,1,8.9,28.57a6.19,6.19,0,0,1-4.17,2.6A3.83,3.83,0,0,1,1,28.82c-.87-2-.62-4.29-.23-6.4a49.06,49.06,0,0,1,4.19-11.5,46.34,46.34,0,0,1,5-8.12m.91.88A46.5,46.5,0,0,0,5.9,11.85a43.92,43.92,0,0,0-4,11.58,10.83,10.83,0,0,0-.12,3.41,3.62,3.62,0,0,0,1.54,2.78,2.83,2.83,0,0,0,3-.28A12.23,12.23,0,0,0,9.77,25a49.83,49.83,0,0,0,4.07-11.48,49.39,49.39,0,0,0,4.22,11.77A11.29,11.29,0,0,0,21,29a3.14,3.14,0,0,0,2.4.9,4.39,4.39,0,0,0,2.52-1.44,16.8,16.8,0,0,0,2.86-4.22,52.15,52.15,0,0,0,3.6-10.53,45.85,45.85,0,0,0,4.81,12.62,8.14,8.14,0,0,0,3.46,3.39,2.57,2.57,0,0,0,3.12-.95,6.74,6.74,0,0,0,.72-4.11,25.83,25.83,0,0,0-1.54-6.48A58,58,0,0,0,37.31,6.53,21.21,21.21,0,0,0,33.67,2c-.52-.46-1.3-.9-2-.44a11.58,11.58,0,0,0-3,3.2,52.94,52.94,0,0,0-5.43,9.94l-.18.2a10.14,10.14,0,0,0-.43-1.16,53.69,53.69,0,0,0-5.29-9.37,12.33,12.33,0,0,0-2.47-2.63,1.45,1.45,0,0,0-1.5-.28,7.8,7.8,0,0,0-2.54,2.31"/><path class="cls-3" d="M10.83,3.68a7.9,7.9,0,0,1,2.54-2.27,1.42,1.42,0,0,1,1.48.31,12.24,12.24,0,0,1,2.46,2.57,53.79,53.79,0,0,1,5.31,9.37A8,8,0,0,1,23,14.82,73.84,73.84,0,0,0,16.85,5a7.53,7.53,0,0,0-2.53-2.17,1.81,1.81,0,0,0-1.68.4A22.64,22.64,0,0,0,8.36,8.57,55.72,55.72,0,0,0,1.87,23.45a44.54,44.54,0,0,1,4-11.59,46.45,46.45,0,0,1,4.93-8.17"/><path class="cls-3" d="M31.69,1.48c.67-.46,1.45,0,2,.44a21.27,21.27,0,0,1,3.61,4.57,58.84,58.84,0,0,1,5.59,11.68,26.79,26.79,0,0,1,1.53,6.49,24.84,24.84,0,0,0-1.14-4.51A54.18,54.18,0,0,0,37.74,8.51,27.29,27.29,0,0,0,34.4,4.07,4.63,4.63,0,0,0,32.64,2.8c-.55-.17-1.05.21-1.49.49a16,16,0,0,0-3,3.33A61.59,61.59,0,0,0,24,13.54a5.5,5.5,0,0,1-.72,1.06,52.56,52.56,0,0,1,5.42-9.93,11.76,11.76,0,0,1,3-3.2"/><path class="cls-4" d="M12.67,3.24a1.83,1.83,0,0,1,1.65-.39A7.42,7.42,0,0,1,16.82,5c2.45,3,4.24,6.49,6.2,9.8-1.23,3.48-2.68,7-2.77,10.73A8.36,8.36,0,0,0,21,29a11.64,11.64,0,0,1-2.89-3.72,50.25,50.25,0,0,1-4.24-11.76A37.79,37.79,0,0,1,12.69,3.23"/><path class="cls-5" d="M31.15,3.29c.44-.27.94-.66,1.49-.49A4.74,4.74,0,0,1,34.4,4.07a27.73,27.73,0,0,1,3.34,4.44,53.67,53.67,0,0,1,5.5,11.64,24.74,24.74,0,0,1,1.18,4.57,6.68,6.68,0,0,1-.72,4.09,2.56,2.56,0,0,1-3.08,1,8.11,8.11,0,0,1-3.46-3.4,45.36,45.36,0,0,1-4.81-12.61A38.92,38.92,0,0,1,31.14,3.31"/><path class="cls-5" d="M8.38,8.56a22.28,22.28,0,0,1,4.29-5.32,38.11,38.11,0,0,0,1.16,10.3A49.17,49.17,0,0,1,9.77,25a12.05,12.05,0,0,1-3.43,4.32,2.83,2.83,0,0,1-3,.28,3.56,3.56,0,0,1-1.54-2.78,10.91,10.91,0,0,1,.12-3.42A55.83,55.83,0,0,1,8.38,8.54"/><path class="cls-6" d="M28.17,6.62a16.57,16.57,0,0,1,3-3.33,39.34,39.34,0,0,0,1.18,10.46,52.28,52.28,0,0,1-3.6,10.52,16.76,16.76,0,0,1-2.82,4.24A4.52,4.52,0,0,1,23.38,30a3.16,3.16,0,0,1-2.39-.9,8.24,8.24,0,0,1-.72-3.49c.09-3.74,1.54-7.25,2.77-10.72l.18-.21a5.9,5.9,0,0,0,.72-1.07,63.44,63.44,0,0,1,4.2-6.92"/></g></g></svg>