<svg id="Layer_1" data-name="Layer 1" xmlns="http://www.w3.org/2000/svg" viewBox="0 0 688.44 224.41"><defs><style>.cls-1{fill:#231f20;}.cls-2{fill:#fefefe;}.cls-3{fill:#9e242e;}.cls-4{fill:#ff912e;}.cls-5{fill:#f41cb2;}.cls-6{fill:#f25511;}</style></defs><path class="cls-1" d="M677.48,352.83c10.28-3.49,21.71-5.74,32.32-2.3,6.09,2.08,9.39,8.55,9.29,14.72.12,12.65.29,25.31-.2,37.95-3.66,0-7.29,0-10.93,0-.43-2-.84-4-1.27-6-6.83,5.4-15.88,9.24-24.56,6-9.9-3.91-11.1-18.75-3.63-25.58s18.29-7,27.71-9.14c-.61-3.19-1.07-7.3-4.86-8.24-7.55-2.25-15.23,1.16-22.44,3.2-.62-3.5-1.08-7-1.43-10.6m12.07,29.31c-3.54,2.81-3.7,9.68.89,11.5,5.56,2.1,10.95-1.69,15.35-4.69,0-4.12,0-8.21,0-12.33-5.6,1-11.77,1.58-16.2,5.52" transform="translate(-30.78 -258.31)"/><path class="cls-1" d="M392.72,327.54c6.12-.4,12.26-.41,18.4-.27,7.27,18.45,11.91,37.89,19.77,56.08,6.48-18.61,12.44-37.38,18.83-56q9.13-.35,18.31,0c1.77,25.29,4.38,50.55,5.48,75.85-4.72,0-9.44,0-14.14,0C457.7,385.14,457,367,455.14,349c-7.27,17.73-12.35,36.3-19,54.29-4.42.18-8.85.14-13.27-.06-6.38-18-11.49-36.47-19-54-1.54,18-2.26,36.05-3.94,54-4.22,0-8.45,0-12.67,0,1.11-25.26,3.76-50.42,5.47-75.63" transform="translate(-30.78 -258.31)"/><path class="cls-1" d="M602.43,333.25a112.32,112.32,0,0,1,12.92-1.88c.14,6.11.16,12.21.1,18.34,3.55.09,7.12.27,10.71.33.69,3.49,1.29,7,1.79,10.51q-6.23.31-12.41.44c.1,9.25-.62,18.57.34,27.77,1.32,4.49,7.17,3.23,10.73,4.05.72,3.52,1.19,7.11,1.59,10.7-6.76.68-14.33,1.61-20.34-2.27-4-2.6-5.23-7.56-5.43-12-.51-9.36.13-18.74-.27-28.1l-7.38-.75q.12-5.07.3-10.14l7.18-.67c0-5.44,0-10.87.17-16.31" transform="translate(-30.78 -258.31)"/><path class="cls-1" d="M481.5,351.12a98.25,98.25,0,0,1,13.8-1.64c4.16,12.2,7.86,24.56,12.11,36.73,4.37-11.84,7.75-24,11.63-36,4.4-.28,8.8-.4,13.22-.32-5,16.17-11.39,31.84-16.84,47.85-2.87,7.38-4.71,15.75-10.72,21.33-4.92,4.5-12.08,4.71-18.3,3.59-.59-3.52-1.18-7-1.74-10.55a57.38,57.38,0,0,0,9.18-.39c4.13-1.4,7.71-6.37,5.87-10.73-5.93-16.68-12.5-33.13-18.21-49.88" transform="translate(-30.78 -258.31)"/><path class="cls-1" d="M540.88,349.9c3.7,0,7.42.08,11.13.16.5,2.31,1,4.6,1.5,6.92,5.7-4.71,12.54-9.24,20.33-8,6.78.28,12.17,6.39,12.3,13,.35,13.68.14,27.4.08,41.09-4.23.08-8.45.13-12.66.18-1.2-12.42.24-24.94-.67-37.36-.59-5.12-6.94-6.4-10.91-4.37-3.38,1.69-7.94,4-7.73,8.45-.26,11,.12,22.09,0,33.12q-6.71.12-13.4-.05c.1-17.73,0-35.46.08-53.19" transform="translate(-30.78 -258.31)"/><path class="cls-1" d="M638.15,349.9q5.67,0,11.34,0c.48,3.1,1,6.19,1.48,9.3,4.71-4.86,9.84-10,17-10.51a59.45,59.45,0,0,1,1.94,13c-7,1.58-15.07,4.53-18.22,11.53-.64,9.95.11,19.94-.27,29.91-4.45.06-8.88,0-13.32-.08.08-17.73,0-35.46,0-53.19" transform="translate(-30.78 -258.31)"/><path class="cls-2" d="M99.22,278.35c6.44-7.7,13.44-16,23.31-19.15,11.13-2.95,20.52,5.82,27.52,13.25,18.31,20.92,31.59,45.65,44,70.38,6.75-15,15-29.35,23.73-43.34,8.28-12.63,16.82-25.53,28.69-35.13,5.5-4.22,13.17-8.22,20-4.7,9.71,5.15,17.08,13.65,24,22,14.62,18.8,26.07,39.83,36.42,61.2,12.93,27.52,24.11,56.27,28.84,86.44,1.41,14,2.67,29.67-5.78,41.82-6.51,9.52-18.93,12.82-29.89,11a53.74,53.74,0,0,1-24.17-17.56C281,446.21,272.17,424,264,402.07c-1.23-3.84-2.67-7.6-4-11.42a113.79,113.79,0,0,1-3.19,11.5c-8.37,22.23-17.3,44.86-32.61,63.34a53.27,53.27,0,0,1-23.38,16.61c-13.22,2.76-26-4.16-34.53-13.82-16.7-18.21-26-41.67-34.54-64.49a147.67,147.67,0,0,1-4.52-14.22c-1.33,4.9-3,9.69-4.78,14.45-7.69,21.06-16.49,42.19-30.5,59.9-7.58,9.11-17.54,18-30,18.64-11.44,1-22.59-6.4-26.94-16.88-6.27-14.5-4.45-30.89-1.65-46,5.94-28.91,17-56.51,30-82.93C73.58,316.32,85,296.27,99.22,278.35m6.52,6.36C91.6,302.78,80.36,322.9,70.26,343.42c-12.61,26.52-24,54.14-28.8,83.24a78.1,78.1,0,0,0-.87,24.6c1,7.69,4,16,11.11,20,6.76,4,15.48,2.37,21.67-2,11-7.7,18.36-19.46,24.7-31.09,13.56-26,22.48-54.12,29.23-82.55,7.14,29.13,16.19,58.11,30.46,84.61,5.66,9.8,11.67,20,21,26.75,4.66,4.2,10.86,7.16,17.26,6.45,7.14-.74,13.17-5.28,18.13-10.16,8.58-8.82,14.81-19.6,20.3-30.52C246.13,408.66,254.24,383,260.59,357c7.89,31.41,17.72,62.89,34.57,90.75,6.33,9.74,13.78,19.87,24.91,24.39,7.84,3.19,17.7.4,22.19-6.92,5.43-8.69,5.84-19.53,5-29.46-1.1-16.11-5.82-31.67-11-46.87a419.2,419.2,0,0,0-40.24-84c-7.63-11.77-15.54-23.63-26.17-32.91-3.76-3.3-9.35-6.49-14.13-3.18-9.15,5.58-15.55,14.54-21.89,23a381.47,381.47,0,0,0-39,71.45l-1.29,1.5a69.25,69.25,0,0,0-3.06-8.34C179.7,333,167.63,310,152.35,289.19c-5.25-6.86-10.62-13.87-17.7-18.94-3-2.15-7-4-10.65-2.19-7.65,3.49-13,10.35-18.26,16.65" transform="translate(-30.78 -258.31)"/><path class="cls-3" d="M105.74,284.71c5.25-6.3,10.61-13.16,18.26-16.65,3.62-1.85,7.64,0,10.65,2.19,7.08,5.07,12.45,12.08,17.7,18.94C167.63,310,179.7,333,190.51,356.42a69.25,69.25,0,0,1,3.06,8.34c-14-24-26.93-48.84-44.58-70.47-5.15-6-10.53-12.48-18-15.7-4.24-1.8-8.56.57-12,2.88-12.68,10.59-22,24.46-30.82,38.24a400.57,400.57,0,0,0-46.68,107c4.84-29.1,16.19-56.72,28.8-83.24,10.1-20.52,21.34-40.64,35.48-58.71" transform="translate(-30.78 -258.31)"/><path class="cls-3" d="M255.79,268.81c4.78-3.31,10.37-.12,14.13,3.18,10.63,9.28,18.54,21.14,26.17,32.91a419.2,419.2,0,0,1,40.24,84c5.14,15.2,9.86,30.76,11,46.87a180.64,180.64,0,0,0-8.47-32.88,388.45,388.45,0,0,0-39.56-83.54c-7.14-11.23-14.75-22.26-24-31.9-3.71-3.63-7.64-7.49-12.69-9.13-4-1.21-7.54,1.54-10.72,3.49-8.49,6.68-15.14,15.32-21.44,24a447.37,447.37,0,0,0-30.22,49.76,40.62,40.62,0,0,1-5.36,7.65,381.47,381.47,0,0,1,39-71.45c6.34-8.45,12.74-17.42,21.89-23" transform="translate(-30.78 -258.31)"/><path class="cls-4" d="M119,281.47c3.48-2.31,7.8-4.68,12-2.88,7.46,3.22,12.84,9.66,18,15.7,17.65,21.63,30.53,46.5,44.58,70.47-8.82,25-19.26,50.23-19.88,77.13-.45,8.66,1.86,17.11,5,25.06-9.29-6.77-15.3-16.95-21-26.75-14.27-26.5-23.32-55.48-30.46-84.61-5.2-24.32-10-49.13-8.34-74.12" transform="translate(-30.78 -258.31)"/><path class="cls-5" d="M251.88,281.84c3.18-1.94,6.77-4.7,10.72-3.49,5,1.64,9,5.5,12.69,9.14,9.22,9.63,16.83,20.66,24,31.89a388.92,388.92,0,0,1,39.56,83.54,180.64,180.64,0,0,1,8.47,32.88c.81,9.93.4,20.77-5,29.46-4.49,7.32-14.35,10.11-22.19,6.92-11.13-4.52-18.58-14.65-24.91-24.39-16.85-27.86-26.68-59.34-34.57-90.75-5.37-24.65-10.32-49.85-8.71-75.2" transform="translate(-30.78 -258.31)"/><path class="cls-5" d="M88.14,319.71C97,305.93,106.28,292.06,119,281.47c-1.63,25,3.14,49.8,8.34,74.12-6.75,28.43-15.67,56.57-29.23,82.55-6.34,11.62-13.65,23.39-24.7,31.09-6.19,4.37-14.91,6-21.67,2-7.09-4-10.14-12.28-11.11-20a78.1,78.1,0,0,1,.87-24.6,400.57,400.57,0,0,1,46.68-107" transform="translate(-30.78 -258.31)"/><path class="cls-6" d="M230.44,305.85c6.3-8.69,12.95-17.33,21.44-24-1.61,25.35,3.34,50.55,8.71,75.2-6.35,26-14.46,51.62-26.18,75.68-5.49,10.92-11.72,21.7-20.3,30.52-5,4.88-11,9.42-18.13,10.16-6.4.71-12.6-2.25-17.25-6.45-3.18-7.95-5.49-16.4-5-25.06.62-26.9,11.06-52.11,19.88-77.13l1.29-1.5a40.94,40.94,0,0,0,5.36-7.65,447.37,447.37,0,0,1,30.22-49.76" transform="translate(-30.78 -258.31)"/></svg>