<svg id="Layer_1" data-name="Layer 1" xmlns="http://www.w3.org/2000/svg" viewBox="0 0 144 134.83"><defs><style>.cls-1{fill:#3374c1;}.cls-2{fill:#231f20;}.cls-3{fill:#fefefe;}.cls-4{fill:#9e242e;}.cls-5{fill:#ff912e;}.cls-6{fill:#f41cb2;}.cls-7{fill:#f25511;}</style></defs><rect class="cls-1" x="22.82" y="18.69" width="97" height="98.28" rx="16.59"/><path class="cls-2" d="M97.12,89.34a10,10,0,0,1,6.23-.45,2.9,2.9,0,0,1,1.8,2.84c0,2.44,0,4.89,0,7.33H103c-.08-.39-.16-.78-.25-1.16A5,5,0,0,1,98,99.06c-1.91-.76-2.14-3.62-.7-4.94s3.52-1.35,5.34-1.76c-.12-.62-.2-1.41-.94-1.59-1.45-.44-2.93.22-4.32.62-.12-.68-.21-1.36-.28-2M99.45,95a1.34,1.34,0,0,0,.17,2.22c1.07.41,2.11-.32,3-.9V93.93A6,6,0,0,0,99.46,95"/><path class="cls-2" d="M42.19,84.46c1.18-.08,2.36-.08,3.55,0,1.4,3.56,2.3,7.31,3.81,10.82C50.8,91.64,52,88,53.18,84.42q1.77-.06,3.54,0c.34,4.88.84,9.75,1.05,14.64H55.05c-.33-3.49-.46-7-.82-10.46-1.4,3.42-2.38,7-3.67,10.47-.85,0-1.7,0-2.56,0-1.23-3.47-2.21-7-3.66-10.42-.3,3.48-.44,7-.76,10.42H41.14c.21-4.87.72-9.73,1-14.59"/><path class="cls-2" d="M82.64,85.56a21.34,21.34,0,0,1,2.49-.36c0,1.18,0,2.35,0,3.54.69,0,1.38.05,2.07.06.13.67.25,1.35.34,2-.8,0-1.59.07-2.39.08,0,1.79-.12,3.58.07,5.36.25.87,1.38.62,2.07.78a20.44,20.44,0,0,1,.3,2.06c-1.3.14-2.76.32-3.92-.43a2.81,2.81,0,0,1-1-2.32c-.1-1.8,0-3.61,0-5.42l-1.42-.14c0-.66,0-1.31,0-2l1.39-.13c0-1,0-2.1,0-3.14"/><path class="cls-2" d="M59.31,89A18.36,18.36,0,0,1,62,88.69c.8,2.36,1.51,4.74,2.33,7.09.85-2.29,1.5-4.63,2.25-7q1.26-.08,2.55-.06c-1,3.12-2.2,6.14-3.25,9.23-.56,1.43-.91,3-2.07,4.12a4.13,4.13,0,0,1-3.53.69c-.11-.68-.23-1.35-.34-2a10.4,10.4,0,0,0,1.77-.07,1.69,1.69,0,0,0,1.14-2.07c-1.15-3.22-2.41-6.39-3.52-9.62"/><path class="cls-2" d="M70.77,88.77l2.15,0c.09.45.19.89.29,1.34a5.06,5.06,0,0,1,3.92-1.54,2.58,2.58,0,0,1,2.37,2.5c.07,2.64,0,5.29,0,7.93-.82,0-1.63,0-2.45,0-.23-2.39.05-4.81-.13-7.2-.11-1-1.34-1.24-2.1-.85s-1.53.78-1.49,1.63c0,2.13,0,4.27,0,6.39-.86,0-1.73,0-2.59,0,0-3.42,0-6.84,0-10.26"/><path class="cls-2" d="M89.53,88.77h2.19c.09.6.19,1.2.29,1.8a5.29,5.29,0,0,1,3.27-2,11.2,11.2,0,0,1,.38,2.51c-1.35.3-2.91.87-3.52,2.22-.12,1.92,0,3.85,0,5.77-.86,0-1.71,0-2.57,0,0-3.42,0-6.84,0-10.26"/><path class="cls-3" d="M54.91,38.94c1.24-1.49,2.59-3.09,4.5-3.7,2.14-.57,4,1.13,5.3,2.56,3.54,4,6.1,8.81,8.49,13.58A69.84,69.84,0,0,1,77.78,43a28.28,28.28,0,0,1,5.53-6.78c1.06-.81,2.54-1.59,3.86-.91a16.32,16.32,0,0,1,4.63,4.25,65.66,65.66,0,0,1,7,11.8,62.38,62.38,0,0,1,5.56,16.68c.27,2.7.51,5.72-1.12,8.06a5.79,5.79,0,0,1-5.76,2.13,10.38,10.38,0,0,1-4.66-3.39C90,71.32,88.27,67,86.7,62.8c-.24-.74-.52-1.46-.78-2.2a21.45,21.45,0,0,1-.61,2.22C83.69,67.11,82,71.47,79,75a10.2,10.2,0,0,1-4.51,3.2,7.18,7.18,0,0,1-6.66-2.66c-3.22-3.52-5-8-6.67-12.44-.33-.9-.62-1.82-.87-2.75-.25,1-.58,1.87-.92,2.79a40.77,40.77,0,0,1-5.88,11.55c-1.47,1.76-3.39,3.48-5.79,3.6a5.3,5.3,0,0,1-5.2-3.26c-1.21-2.79-.86-5.95-.32-8.87A67.19,67.19,0,0,1,48,50.2a64,64,0,0,1,6.92-11.26m1.26,1.22a64.33,64.33,0,0,0-6.85,11.33,60.81,60.81,0,0,0-5.55,16.06,14.79,14.79,0,0,0-.17,4.74,5,5,0,0,0,2.14,3.86,3.92,3.92,0,0,0,4.18-.39,16.93,16.93,0,0,0,4.77-6,69.12,69.12,0,0,0,5.64-15.93A68.43,68.43,0,0,0,66.2,70.16a15.75,15.75,0,0,0,4,5.17,4.37,4.37,0,0,0,3.33,1.24,6.11,6.11,0,0,0,3.5-2A23.06,23.06,0,0,0,81,68.72,72.77,72.77,0,0,0,86,54.11c1.52,6.06,3.42,12.13,6.67,17.51,1.22,1.87,2.65,3.83,4.8,4.7A3.54,3.54,0,0,0,101.79,75a9.24,9.24,0,0,0,1-5.69,36.17,36.17,0,0,0-2.13-9,80.41,80.41,0,0,0-7.76-16.2,29.29,29.29,0,0,0-5.05-6.35c-.72-.64-1.8-1.25-2.72-.61a16.05,16.05,0,0,0-4.22,4.43,73.49,73.49,0,0,0-7.53,13.79l-.25.28a13.37,13.37,0,0,0-.59-1.6,73.66,73.66,0,0,0-7.35-13,17,17,0,0,0-3.42-3.65A2,2,0,0,0,59.69,37a10.81,10.81,0,0,0-3.52,3.21"/><path class="cls-4" d="M56.17,40.16A10.81,10.81,0,0,1,59.69,37a2,2,0,0,1,2.05.43A17,17,0,0,1,65.16,41a74.34,74.34,0,0,1,7.36,13,12.9,12.9,0,0,1,.59,1.61c-2.7-4.63-5.2-9.42-8.6-13.6A10.42,10.42,0,0,0,61,39a2.51,2.51,0,0,0-2.32.56,31.18,31.18,0,0,0-5.94,7.38,77,77,0,0,0-9,20.64A61.56,61.56,0,0,1,49.33,51.5a64.28,64.28,0,0,1,6.84-11.33"/><path class="cls-4" d="M85.11,37.1c.92-.64,2,0,2.73.61a29.6,29.6,0,0,1,5,6.35,81.21,81.21,0,0,1,7.76,16.2,36.7,36.7,0,0,1,2.12,9A34.72,34.72,0,0,0,101.14,63,75.23,75.23,0,0,0,93.5,46.85a38,38,0,0,0-4.63-6.16,6.64,6.64,0,0,0-2.44-1.76c-.77-.23-1.46.3-2.07.68a22.29,22.29,0,0,0-4.14,4.63,86.59,86.59,0,0,0-5.83,9.59,7.54,7.54,0,0,1-1,1.48,73.63,73.63,0,0,1,7.52-13.78,16.42,16.42,0,0,1,4.23-4.44"/><path class="cls-5" d="M58.72,39.54A2.53,2.53,0,0,1,61,39a10.31,10.31,0,0,1,3.47,3c3.41,4.18,5.89,9,8.6,13.6-1.7,4.82-3.71,9.69-3.83,14.88a11.46,11.46,0,0,0,1,4.83,16.09,16.09,0,0,1-4-5.16,68.89,68.89,0,0,1-5.88-16.32c-1-4.69-1.93-9.48-1.61-14.3"/><path class="cls-6" d="M84.36,39.61c.61-.37,1.3-.91,2.06-.67a6.56,6.56,0,0,1,2.45,1.76,39.6,39.6,0,0,1,4.63,6.15A74.57,74.57,0,0,1,101.13,63a34.75,34.75,0,0,1,1.64,6.34,9.34,9.34,0,0,1-1,5.68,3.55,3.55,0,0,1-4.28,1.34c-2.14-.87-3.58-2.83-4.8-4.71-3.25-5.37-5.15-11.44-6.67-17.5-1-4.76-2-9.62-1.68-14.51"/><path class="cls-6" d="M52.77,46.92a31.22,31.22,0,0,1,5.95-7.38c-.31,4.82.61,9.61,1.61,14.3a68.12,68.12,0,0,1-5.64,15.92,16.8,16.8,0,0,1-4.76,6,3.92,3.92,0,0,1-4.18.38,4.91,4.91,0,0,1-2.14-3.85,15.14,15.14,0,0,1,.16-4.75,77.46,77.46,0,0,1,9-20.64"/><path class="cls-7" d="M80.22,44.24a22.81,22.81,0,0,1,4.14-4.63C84.05,44.5,85,49.36,86,54.12A72.9,72.9,0,0,1,81,68.72a23.45,23.45,0,0,1-3.92,5.89,6.16,6.16,0,0,1-3.5,2,4.38,4.38,0,0,1-3.32-1.25,11.31,11.31,0,0,1-1-4.83c.12-5.19,2.14-10.06,3.84-14.88l.25-.29a8,8,0,0,0,1-1.48,86.13,86.13,0,0,1,5.83-9.6"/></svg>