<svg xmlns="http://www.w3.org/2000/svg" viewBox="0 0 69.61 99.25"><defs><style>.cls-1,.cls-2{fill:#fff;}.cls-2{font-size:30px;font-family:SegoeUIHistoric, Segoe UI Historic;}.cls-3{fill:none;stroke:#fff;stroke-miterlimit:10;}</style></defs><g id="Layer_2" data-name="Layer 2"><g id="Layer_1-2" data-name="Layer 1"><path class="cls-1" d="M0,44.7V40.52a1.47,1.47,0,1,1,2.93,0V44.7A1.47,1.47,0,1,1,0,44.7ZM63.12,0H6.49A6.5,6.5,0,0,0,0,6.49V34.86a1.47,1.47,0,1,0,2.93,0V6.49A3.57,3.57,0,0,1,6.49,2.93H17l3.1,6.43a1.45,1.45,0,0,0,1.32.83h26.8a1.47,1.47,0,0,0,1.32-.83l3.09-6.43h10.5a3.56,3.56,0,0,1,3.56,3.56V92.76a3.56,3.56,0,0,1-3.56,3.56H6.49a3.57,3.57,0,0,1-3.56-3.56V51.3A1.47,1.47,0,1,0,0,51.3V92.76a6.5,6.5,0,0,0,6.49,6.49H63.12a6.49,6.49,0,0,0,6.49-6.49V6.49A6.49,6.49,0,0,0,63.12,0ZM47.29,7.26h-25L20.25,2.93H49.37Z"/><text class="cls-2" transform="translate(9.79 63.99)">****</text><circle class="cls-3" cx="34.81" cy="86.25" r="5.66"/></g></g></svg>