<svg id="Layer_1" data-name="Layer 1" xmlns="http://www.w3.org/2000/svg" viewBox="0 0 356.81 201.16"><defs><style>.cls-1{fill:#2945a8;}.cls-2{fill:#4961c9;}.cls-3{fill:#ffb27d;}.cls-4{fill:#ea8e50;}.cls-5{fill:#68c1a8;}.cls-6{fill:#233862;}.cls-7{fill:#355caa;}.cls-8{fill:#ffb07b;}.cls-9{fill:#8de2cc;}.cls-10{fill:#f99746;}.cls-11{fill:#bc3f3f;}.cls-12{fill:#992525;}.cls-13{fill:#2c3a64;}.cls-14{fill:#ed985f;}.cls-15{fill:#253d78;}.cls-16{fill:#ed7d2b;}.cls-17{fill:#ed975d;}.cls-18{fill:#e25688;}.cls-19{fill:#163560;}.cls-20{fill:#11294a;}.cls-21{fill:#fff;}</style></defs><path class="cls-1" d="M362.58,351.2H471.45V347a54.44,54.44,0,0,0-108.87,0v4.2ZM475.13,468.69H358.9a21.07,21.07,0,0,1-21.07-21.06V347a79.27,79.27,0,0,1,48.36-72.95c8.42-3.56,6.4-5.72,15.53-6.22,1.47-.08,13.81,0,15.29,0A79.14,79.14,0,0,1,496.19,347V447.63a21.06,21.06,0,0,1-21.06,21.06Z" transform="translate(-139.38 -267.79)"/><path class="cls-2" d="M348.56,351.2H457.43V347a54.44,54.44,0,0,0-108.87,0v4.2ZM461.1,468.69H344.88a21.06,21.06,0,0,1-21.07-21.06V347a79.18,79.18,0,1,1,158.36,0V447.63a21.06,21.06,0,0,1-21.07,21.06Z" transform="translate(-139.38 -267.79)"/><path class="cls-1" d="M412.79,390.63a9.75,9.75,0,0,0-2.38-6.39,9.8,9.8,0,0,0-14.84,0,9.78,9.78,0,0,0,4.5,15.74v14.84c0,1.2,1.31,2.17,2.92,2.17s2.93-1,2.93-2.17V400a9.8,9.8,0,0,0,6.87-9.35Z" transform="translate(-139.38 -267.79)"/><path class="cls-3" d="M272.78,378.1c-.19,1.26-1.63,2.71-3.16,3.8a15.12,15.12,0,0,0-2.89,3c-.22.25-.36.38-.36.38l-1.76-2,.09-.08a14.33,14.33,0,0,0,2.05-2.71,5.75,5.75,0,0,1,3.5-3.07,8.55,8.55,0,0,1,2.53.73Z" transform="translate(-139.38 -267.79)"/><path class="cls-4" d="M181.82,403.79l1.19,1s3.25-1.17,4,2.7c0,0,.19,1.65-.85,1.65a20.82,20.82,0,0,0-2.09-.14,2.66,2.66,0,0,1-2.92-1.93l-.71-1,1.39-2.23Z" transform="translate(-139.38 -267.79)"/><path class="cls-5" d="M181.68,405.87a2.48,2.48,0,0,0,.88-1.73s-11-9-12.11-9.73c-.76-.5-8.42-7.84-12.64-12.06-2-2-4.2-1.32-6.86-.56l-2.2.63a3.67,3.67,0,0,0-1.16,6.26c6.11,5.06,16.28,10.75,18.19,11.95,4.72,3,14,6.5,14,6.5a5.74,5.74,0,0,0,1.93-1.26Z" transform="translate(-139.38 -267.79)"/><path class="cls-6" d="M194.23,461.16a8.27,8.27,0,0,0,6.75.94s3.3-.75,4,.9c0,0-5.05,2.56-6.33,3.27a14.88,14.88,0,0,0-2.68,2,1.33,1.33,0,0,1-1.92-.15c-.22-.27-.48-.6-.76-1-.78-1-2.59-4.47-2.59-4.47l3.51-1.52Z" transform="translate(-139.38 -267.79)"/><path class="cls-7" d="M195.79,460.15s-1.62,3.74-5.37,3.05a105,105,0,0,1-12.9-12.88,28.71,28.71,0,0,1-4-6.27C170,436,160.64,424,154.66,417.88l15-5.4s4.78,9.63,11.15,21.45c4.59,8.53,10,18.19,15,26.22Z" transform="translate(-139.38 -267.79)"/><path class="cls-6" d="M180.76,433.93l-3.24,16.39a28.71,28.71,0,0,1-4-6.27C170,436,160.64,424,154.66,417.88l15-5.4s4.78,9.63,11.15,21.45Z" transform="translate(-139.38 -267.79)"/><path class="cls-6" d="M168.55,463.34s-.17,3,3.46,3.38c0,0,2.07,0,2.07,1.92l-10.53,0a8.47,8.47,0,0,1-.38-2.41,19.11,19.11,0,0,1,1.23-4.56l4.15,1.64Z" transform="translate(-139.38 -267.79)"/><path class="cls-7" d="M164.7,412.48s6.66,7.31,10.89,20.49c2.3,7.17-4.22,25.2-5.49,31.47,0,0-4.37.37-7.35-.79,0,0-.23-12.94,1.52-22.91,1-5.58-8.77-11.93-13-22-2.89-6.86.63-6.74,5-6.9l8.5.66Z" transform="translate(-139.38 -267.79)"/><path class="cls-8" d="M157,379.84c-3.7,2.09-11.29.17-11.29.17a10.56,10.56,0,0,0,1.68-9.19l2.91,1.47,3.13,1.59a26.2,26.2,0,0,1,.34,2.8c0,.46.07,1,.09,1.54a9.78,9.78,0,0,1,3.14,1.62Z" transform="translate(-139.38 -267.79)"/><path class="cls-9" d="M170.6,412.1c0,.65-.75,1-.91,1-1.49.27-5.66,1.89-9.42,2.26a30.13,30.13,0,0,1-9.33-.63c-.43-.08-1.43-.35-1.5-.76s-12.45-25.2-2.84-35.83c.22-.25,2.12.2,3.85.61a7.11,7.11,0,0,0,4.39-.36l1.62.86c2,1.11,5.78,5.07,6.22,8.17.23,1.58,1.13,2.75,1.39,4.13.1.52.2,1,.3,1.51.2,1,.4,1.87.61,2.74.56,2.34,1.16,4.36,1.74,6.11s1.24,3.39,1.79,4.68c.7,1.67,1.3,2.92,1.68,3.88a4.82,4.82,0,0,1,.41,1.63Z" transform="translate(-139.38 -267.79)"/><path class="cls-5" d="M170.19,410.47a48.55,48.55,0,0,1-23.49-24s14.17,5.23,17.67,6.59c.2,1,.4,1.87.61,2.74.56,2.34,1.16,4.36,1.74,6.11s1.24,3.39,1.79,4.68c.7,1.67,1.3,2.92,1.68,3.88Z" transform="translate(-139.38 -267.79)"/><path class="cls-10" d="M182.69,351.42a6.86,6.86,0,0,0-6.86,6.86v31.38a6.86,6.86,0,0,0,6.86,6.86h9.63a6.87,6.87,0,0,0,6.86-6.86V358.28a6.87,6.87,0,0,0-6.86-6.86Zm9.63,55h-9.63a16.78,16.78,0,0,1-16.76-16.76V358.28a16.78,16.78,0,0,1,16.76-16.76h9.63a16.77,16.77,0,0,1,16.75,16.76v31.38a16.77,16.77,0,0,1-16.75,16.76Z" transform="translate(-139.38 -267.79)"/><path class="cls-10" d="M293.33,379.75H205V368.19h88.33a5.78,5.78,0,0,1,5.78,5.78h0a5.78,5.78,0,0,1-5.78,5.78Z" transform="translate(-139.38 -267.79)"/><path class="cls-10" d="M286.89,404.72h0a4.64,4.64,0,0,1-4.64-4.64V377.42h9.28v22.66a4.64,4.64,0,0,1-4.64,4.64Z" transform="translate(-139.38 -267.79)"/><path class="cls-8" d="M180.39,405.71l1.51.55a3.23,3.23,0,0,1,4.9,1.34s.68,1.51-.4,1.84-.68,0-2.19.53-3,.14-3.58-.94l-1-.76.78-2.56Z" transform="translate(-139.38 -267.79)"/><path class="cls-9" d="M181.63,407.84c.56-1.46.82-2.11.82-2.11s-11.4-9.29-12.56-10.09c-.79-.54-8.66-6.42-12.5-11a8,8,0,0,0-7.81-2.71l-2.39.5a3.56,3.56,0,0,0-1.59,6.18c6.31,5.41,17,11.68,18.93,13,4.93,3.24,15.82,7.78,15.82,7.78a2.79,2.79,0,0,0,1.28-1.53Z" transform="translate(-139.38 -267.79)"/><path class="cls-4" d="M153.79,376.68a7.81,7.81,0,0,1-6-2.8s1.64-.92,2.54-1.59l3.13,1.59a26.2,26.2,0,0,1,.34,2.8Z" transform="translate(-139.38 -267.79)"/><path class="cls-8" d="M155.34,372.94s-5.52,4-7.93.48-4.75-5.3-1.33-8,5-1.84,6.12-.87,4.51,7.24,3.14,8.36Z" transform="translate(-139.38 -267.79)"/><path class="cls-6" d="M152.78,361.44a9.07,9.07,0,0,0-.64-2.28s-.35,1.44-3,1.24-6.78.26-8.16,3.25a5.89,5.89,0,0,0-.24.58,6.88,6.88,0,0,1-.31-1.65,5.07,5.07,0,0,0,0,2.89h0s0,.1,0,.14a5.78,5.78,0,0,0-1.06,2,1.82,1.82,0,0,1,1-.87c0,2.33.93,4.6,2.58,5.28,2.42,1,2.4.23,4.84,1.85,0,0,.65-.81.2-1.36s-2.12-1.33-1.18-2.13,1.28.1,1.63-.44-1.39-2.13.84-3.61,3.71-3.56,3.51-4.9Z" transform="translate(-139.38 -267.79)"/><path class="cls-11" d="M249.45,465.54l-2,.76s-8.84-12.25-9.92-23a16.23,16.23,0,0,1,.29-5.51s-.09-.49-.24-1.36c-.07-.41-.16-.9-.25-1.46l-1.14-6.46c-1-5.9-2.38-13.44-3.43-19l.55-.18,5.93-1.91,1.22-3.89,4.42-1.16s1,1.93,1.86,11c.17,1.19.31,2.51.42,3.94a78.07,78.07,0,0,1-.41,16c-.21,1.59-.46,3.22-.78,4.9a21.88,21.88,0,0,0-.17,4.84c.45,8.81,3.68,22.5,3.68,22.5Z" transform="translate(-139.38 -267.79)"/><path class="cls-12" d="M247.13,417.34l-9.58,19.06c-.07-.41-.16-.9-.25-1.46l-1.14-6.46c-1-5.9-2.38-13.44-3.43-19l.55-.18,5.93-1.91,1.22-3.89,4.42-1.16s1,1.93,1.86,11c.17,1.19.31,2.51.42,3.94Z" transform="translate(-139.38 -267.79)"/><path class="cls-11" d="M242.92,404.8l-.22-1.9c-3.72,1-13.65-2.76-13.65-2.76s-3.61,3.17-3.13,10.76c.23,3.7.65,19.44,1.09,24.1.16,1.68.3,2.89.36,3.36h0a.74.74,0,0,1-.11.41,21.82,21.82,0,0,0-1.63,3.42c-4.32,11.52.67,25.7.67,25.7l1.29-.52s2.84-15.79,5.15-22.76a13.58,13.58,0,0,1,1.11-2.67,30.47,30.47,0,0,0,2.78-7.4,182.61,182.61,0,0,0,3.73-19.65c.12,0,2.56-10.1,2.56-10.1Z" transform="translate(-139.38 -267.79)"/><path class="cls-13" d="M265.6,381.19a10.43,10.43,0,0,1,3.31,2.43s-6.34,11.06-10,12.66c-2,.89-8.27-5.81-9.57-9.56-.31-.92.85-4,.47-4.63a6.56,6.56,0,0,1-.85-2.4,1,1,0,0,1,0-.34,5.42,5.42,0,0,1,.11-1.92c.15-.37.56-.53,1.17-.52h.21c3.29,1.93,7.6,11.42,8.31,11.64,1.86-2.35,6.87-7.36,6.87-7.36Z" transform="translate(-139.38 -267.79)"/><path class="cls-3" d="M250,381.72a11.77,11.77,0,0,1-4.28,1c-6.39.35-7.84-5.26-8.11-9a5.32,5.32,0,0,1,2.2-.27c.45,0,.92.07,1.31.12.78-.41,2.19-2.4,3-5.71l.28.12,4.61,2.17s-.49,1.5-.85,2.94a5.72,5.72,0,0,0-.32,2.51l.58.24h0a31.4,31.4,0,0,1,1.58,5.84Z" transform="translate(-139.38 -267.79)"/><path class="cls-7" d="M251.62,385.92c-.05.12-.1.25-.16.38-1.62,3.48-4.61,17.92-4.61,17.92.42,2.6-19.52-.51-19.57-2.87-.7-2.51,2.49-6.53,4.29-8.55a6,6,0,0,0,.61-.82,5.58,5.58,0,0,0,.81-2.38c.36-3.35-1-11.08-.6-12.57.14-.59,2.78,2.75,3.09,2.42a1.84,1.84,0,0,0,.59-1.16,6.44,6.44,0,0,0,0-1l-.06-.46c-.25-1.62-3.35-.93-3.35-.93,1.13-2.73,7.19-2.52,7.19-2.44a3.93,3.93,0,0,0,0,.44c0,1.12,0,4,.36,4.52s8.61,3.63,9,2.71-.74-5.11-.79-5.27h0a16.42,16.42,0,0,1,2,1c1,2,2.47,5.63,1.2,9Z" transform="translate(-139.38 -267.79)"/><path class="cls-11" d="M246.12,355.79c0-.27-.23-3.26-4.78-3.42,0,0,2.24.27,2.63,1.25,0,0-1.53-1.21-2.77-.82s-2,2.56-2,3.28.68,3,1.47,3.21a2.17,2.17,0,0,0,1,0,12.11,12.11,0,0,0-.61,1.09c-1.82,3.73.06,7.37,1.59,7,1-.26,1.27,1.42,1.27,1.42l9.57-7.75s-3.52-7.27-7.35-5.23Z" transform="translate(-139.38 -267.79)"/><path class="cls-14" d="M249,370.18s-.49,1.5-.85,2.94c-2.7-.75-3.52-3.59-3.76-5.1l4.61,2.16Z" transform="translate(-139.38 -267.79)"/><path class="cls-3" d="M249.6,371.77s-6.45-1.49-5.46-5.49.82-6.89,5-6.11,4.58,2.51,4.58,3.92-2.4,8-4.1,7.68Z" transform="translate(-139.38 -267.79)"/><path class="cls-11" d="M254.06,361.82c-.69-1.45-1.51-1.37-2-1.11a4.62,4.62,0,0,0-6-.52,7.9,7.9,0,0,1-3.63,3.9s1,1,3.87,1a4.76,4.76,0,0,0,2.56-1,15.45,15.45,0,0,1-3.37,2.51c3.6-.69,6-4.85,6.26-5.29a5.27,5.27,0,0,1,.93,2.22c.07,1.09-.31,3.23.32,3.31,0,0,2.12-2.86,1.08-5Z" transform="translate(-139.38 -267.79)"/><path class="cls-6" d="M233.82,469H223.58a5.71,5.71,0,0,1,.29-2.75c.51-1.14,1.32-1.65,1.13-3a3.68,3.68,0,0,0,3.19,1.22,11.32,11.32,0,0,0,1.77,2.31c.67.48,3.66.31,3.86,2.25Z" transform="translate(-139.38 -267.79)"/><path class="cls-6" d="M255.81,469H245.57a4.29,4.29,0,0,1,.29-2.75,2,2,0,0,0-.07-2.36,3.91,3.91,0,0,0,1.72.33,3.61,3.61,0,0,0,1.53-.54,38,38,0,0,0,2.91,3.07c.67.48,3.66.31,3.86,2.25Z" transform="translate(-139.38 -267.79)"/><polygon class="cls-10" points="130.37 111.96 145.96 111.96 145.09 105.91 131.17 106.47 130.37 111.96 130.37 111.96"/><path class="cls-3" d="M272.48,368.19c-.73.72-.71,3-2.24,4.14a15.31,15.31,0,0,0-2.9,3,4.64,4.64,0,0,1-.35.38l-1.76-2,.08-.08a13.87,13.87,0,0,0,2.06-2.71,5.75,5.75,0,0,1,3.5-3.07,3,3,0,0,1,1.61.4Z" transform="translate(-139.38 -267.79)"/><path class="cls-15" d="M266.31,372l2.6,2.9s-6.94,6.05-8.39,7.3a16.12,16.12,0,0,1-2.8,2,1,1,0,0,1-.24.11c-2,.89-6.44.79-10.84.14-.61-.08-1.21-.19-1.79-.28a42,42,0,0,1-5.93-1.44,16.54,16.54,0,0,1-2.62-1,7.17,7.17,0,0,1-.68-.39c-3.44-2.06-3.28-4-3.21-4.66a2.37,2.37,0,0,1,1.71-2c2.73-.89,11.88,2.64,13.23,2.89.81.17,2.92.92,3.63,1a20.88,20.88,0,0,0,3.24.4,7.34,7.34,0,0,0,2.43-.77c1.85-.81,9.66-6.24,9.66-6.24Z" transform="translate(-139.38 -267.79)"/><path class="cls-3" d="M267.33,380.8a2.43,2.43,0,0,1-.24-.93,5.22,5.22,0,0,1,1.22-1.8c.24-.17.57-.59.64-.31a4.83,4.83,0,0,1-.72,2.3,2.21,2.21,0,0,1-.9.74Z" transform="translate(-139.38 -267.79)"/><path class="cls-16" d="M421.76,345.93a14.17,14.17,0,0,0,4.93,5.27h11.44s-18-8.17-16.37-5.27Z" transform="translate(-139.38 -267.79)"/><path class="cls-3" d="M429.86,375.55c.3.34.56.32.41.73l-.07.2a4.93,4.93,0,0,1-1.83,2.13l-.38.28s-.21.07-.24.09-.18.35-.2.37a33.52,33.52,0,0,0-2.53,2.46c-2,2.08-1.94,1.87-2.33,1.68s-.47-.55.28-1.79l.1-.18.3-.5c.88-1.49.65-2.19.44-4.41-.16-1.81-2.8-10.08-2.8-10.08l3.83-.66s1.15,6.59,2.42,7.6c.68.55,1.44.55,2.1.95l.13.09c.37.25.07.7.37,1Z" transform="translate(-139.38 -267.79)"/><path class="cls-11" d="M430.54,375.35a1,1,0,0,1,.19,1.13h0a8.34,8.34,0,0,1-2.23,2.43l-.35.3-.08.07-.06.06c-1,.9-.61,1.1-2.36,2.93-2,2.08-3.38,2.12-3.77,1.93s.34-1.27,1.09-2.51a8.56,8.56,0,0,0,3.56-2.62c1.2-1.54,2-3.51,2.83-4.66l.13.09a5.31,5.31,0,0,1,1.05.84Z" transform="translate(-139.38 -267.79)"/><path class="cls-3" d="M398.94,372.73c-.24,1.18-1,.85-2.89.39s-1.45,0-4.13-.31-2.92-.72-3-1.12.48-.59,1.91-.75l.53-.07c1.61-.2,2.78-1.23,4.24-2.08S399,364.7,399,364.7l3.67.29s-1.93,2.93-2.67,4.21a4.38,4.38,0,0,0-.36,2.5c0,.42-.66.61-.74,1Z" transform="translate(-139.38 -267.79)"/><path class="cls-11" d="M395.84,373.48c-1.88-.46-1.43.09-4.11-.21s-3.5-1.29-3.58-1.69,1.25-.48,2.68-.64v0a7.61,7.61,0,0,0,3.84,1.2c1.81,0,3.74-.48,5-.46a5.32,5.32,0,0,1,0,1.26c-.24,1.18-1.92,1-3.81.52Z" transform="translate(-139.38 -267.79)"/><path class="cls-16" d="M413.73,349.46l3.44,9.24,4.49,12.07a7.3,7.3,0,0,0,2.38-.21,10.36,10.36,0,0,0,2.31-1.13s-1.25-13-3.57-20.4a13.45,13.45,0,0,0-2-4.32c-3.61-4.26-7,4.75-7,4.75Z" transform="translate(-139.38 -267.79)"/><path class="cls-10" d="M417.23,334.77c2.25-.73,8.67.21,15.12,1.47L433.7,334l13.93-1.09s4.59,10.2,2.08,16.69a2.89,2.89,0,0,1-2.6,1.59H436.17c-6.93,0-14.67-4.77-15.67-5-1.63-.32-2.29,2.95-3.93,6.39s-15.39,15.23-15.39,15.23a12,12,0,0,1-3-.31,2.89,2.89,0,0,1-1.28-.81s15.24-30.32,20.32-32Z" transform="translate(-139.38 -267.79)"/><path class="cls-6" d="M433.78,314.83c5,2.73,15,8.39,15.08,8.35s3.7,1.4,5.8,0c3.5-2.32,5.37-8.57-1-13.95-3.19-2.68-5.45-3.34-5.8-7.62-.18-2.33-3.36-10-8.64-9.29a7.44,7.44,0,0,1-1.33.09,5,5,0,0,0-2.68.69c-3,1.78-8.83,20.67-1.4,21.73Z" transform="translate(-139.38 -267.79)"/><path class="cls-3" d="M437.94,312.5a6.5,6.5,0,0,0,4.09.13c1.55-.69,2.72-3.24,2.7-3.24-.71,0-1.48-.65-2.08-4.69l-.3.11-5,1.81s.36,1.62.6,3.16c.2,1.3.31,2.54,0,2.72Z" transform="translate(-139.38 -267.79)"/><path class="cls-17" d="M437.31,306.62s.36,1.62.6,3.16c2.9-.52,4-3.4,4.44-5l-5,1.81Z" transform="translate(-139.38 -267.79)"/><path class="cls-3" d="M436.56,308.23s6.9-.93,6.26-5.22-.19-7.29-4.62-6.88-5.05,2.17-5.18,3.66,1.72,8.57,3.54,8.44Z" transform="translate(-139.38 -267.79)"/><path class="cls-6" d="M433.27,297.43s4.42,3.81,7.43,4.12,4.14-.66,4.14-.66a11.79,11.79,0,0,1-2.84-3.84,2.12,2.12,0,0,0-1.74-1.25c-2.15-.19-6.22-.27-7,1.63Z" transform="translate(-139.38 -267.79)"/><path class="cls-6" d="M436,297.09a11,11,0,0,0-1.94,2.49,8.43,8.43,0,0,0-.23,4.44s-2.3-4.47-1-6.65,3.17-.28,3.17-.28Z" transform="translate(-139.38 -267.79)"/><path class="cls-18" d="M432.13,322.67c.21,14,.06,11.05,1.58,12.38a5.89,5.89,0,0,0,2.77.6c4.28.28,11.82-.42,12.1-1.21,1-2.74.29-3.59,1.12-7.79.09-.45.19-.93.32-1.45.68-2.89,1.35-3.87-1.09-8.49-2.21-4.2-4.51-7.6-4.71-7.48-5.84,3.47-6.31.56-6.31.56s-5.88,6.06-5.78,12.88Z" transform="translate(-139.38 -267.79)"/><path class="cls-10" d="M417.17,358.7l4.49,12.07a7.3,7.3,0,0,0,2.38-.21,10.36,10.36,0,0,0,2.31-1.13s-1.25-13-3.57-20.4l-5.61,9.67Z" transform="translate(-139.38 -267.79)"/><path class="cls-18" d="M437.91,309.78s-6,1-6.71,3.61-4.85,17.78-4.85,17.78,3,.55,4.46-.86,4.91-13.08,4.91-13.08l2.19-7.45Z" transform="translate(-139.38 -267.79)"/><path class="cls-12" d="M436.48,335.65c4.28.28,11.82-.42,12.1-1.21,1-2.74.29-3.59,1.12-7.79l-2.07-5.82s.34,6.48-1.57,8.19-7.82,3.29-8.75,4.71a5.24,5.24,0,0,0-.83,1.92Z" transform="translate(-139.38 -267.79)"/><path class="cls-3" d="M441.39,332.92s-4.23-.94-4.91-.56a10,10,0,0,0-2.56,2.21c-.21.48,1.52-.36,2.08-.51a5.17,5.17,0,0,1,1.8.4,6,6,0,0,0,3.22.32l.37-1.86Z" transform="translate(-139.38 -267.79)"/><path class="cls-18" d="M444.22,309.23s5.68.35,7.64,3.09c2.77,3.86,8.25,20.3,5.11,22.49-3.54,2.47-16.12.65-16.12.65s-.42-2,.17-2.9,10-2.48,10.48-2.92-5.46-8.51-5.46-9.82-1.82-10.59-1.82-10.59Z" transform="translate(-139.38 -267.79)"/><path class="cls-3" d="M436.28,333.53a8,8,0,0,1-1.18,1.28.89.89,0,0,1-.48.11l.6-1.08,1.06-.31Z" transform="translate(-139.38 -267.79)"/><path class="cls-3" d="M436.48,332.36l-2.57,1.25a.44.44,0,0,0,.42.16,5.89,5.89,0,0,0,1.12-.3l1-1.11Z" transform="translate(-139.38 -267.79)"/><polygon class="cls-19" points="295.72 68.77 275.35 68.77 269.23 53.53 289.56 53.53 295.72 68.77 295.72 68.77"/><polygon class="cls-20" points="275.11 68.18 302.01 68.18 302.01 68.77 275.35 68.77 275.11 68.18 275.11 68.18"/><path class="cls-21" d="M419.87,328.94a.71.71,0,0,1,.69-1,1.39,1.39,0,0,1,1.25,1,.71.71,0,0,1-.69,1,1.38,1.38,0,0,1-1.25-1Z" transform="translate(-139.38 -267.79)"/></svg>