<svg id="Layer_1" data-name="Layer 1" xmlns="http://www.w3.org/2000/svg" xmlns:xlink="http://www.w3.org/1999/xlink" viewBox="0 0 38.62 45.01"><defs><style>.cls-1{fill:url(#linear-gradient);}.cls-2{fill:url(#linear-gradient-2);}.cls-3{fill:url(#linear-gradient-3);}</style><linearGradient id="linear-gradient" x1="32.68" y1="67.68" x2="39.07" y2="67.68" gradientUnits="userSpaceOnUse"><stop offset="0" stop-color="#37a9e5"/><stop offset="1" stop-color="#3d53b9"/></linearGradient><linearGradient id="linear-gradient-2" x1="16.12" y1="49.67" x2="54.73" y2="49.67" xlink:href="#linear-gradient"/><linearGradient id="linear-gradient-3" x1="32.56" y1="46.11" x2="38.78" y2="46.11" xlink:href="#linear-gradient"/></defs><path class="cls-1" d="M38.17,66.78H33.58a.9.9,0,1,0,0,1.8h4.59a.9.9,0,1,0,0-1.8Z" transform="translate(-16.12 -27.16)"/><path class="cls-2" d="M53.83,41.57A7,7,0,0,0,49.3,43q-.16.13-.33.3V29.5a2.34,2.34,0,0,0-2.34-2.34H25a2.35,2.35,0,0,0-2.34,2.34v2.4l-.11-.12a3.78,3.78,0,1,0-5.35,5.35l3.9,3.9a3.77,3.77,0,0,0-2.57,4.69,3.67,3.67,0,0,0,.95,1.61l2.22,2.22A3.78,3.78,0,0,0,19.5,56L21,57.47a3.78,3.78,0,0,0-2.22,6.43l3.9,3.9v2A2.35,2.35,0,0,0,25,72.18H42.31a.9.9,0,0,0,.9-.9V62.63a4.87,4.87,0,0,1,1.94-3.89l3.46-2.59a.9.9,0,0,0,.36-.72v-7.2c0-3.59,2.19-4.59,4-4.81V71.28a.9.9,0,1,0,1.8,0V42.47A.9.9,0,0,0,53.83,41.57ZM25,29H46.63a.54.54,0,0,1,.54.54v2.7H24.48V29.5A.54.54,0,0,1,25,29Zm-7.1,5.5a2,2,0,0,1,3.38-1.4l1.38,1.38v5.61L18.5,35.86A1.91,1.91,0,0,1,17.92,34.46Zm2.86,8.8a2,2,0,0,1,2.8,0l4.07,4.07a2,2,0,0,1-2.8,2.81l-4.07-4.08A2,2,0,0,1,20.78,43.26Zm8.14,2.8-1-1a7.73,7.73,0,1,1,1.57,5.55A3.78,3.78,0,0,0,28.92,46.06ZM20.78,51.9a2,2,0,0,1,2.8,0L27.65,56a2,2,0,0,1-2.8,2.8L20.78,54.7A2,2,0,0,1,20.78,51.9Zm-.72,7.93a2,2,0,0,1,2.8,0l4.07,4.07a2,2,0,0,1-2.8,2.8l-4.07-4.07A2,2,0,0,1,20.06,59.83Zm4.42,10v-.91a3.78,3.78,0,0,0,4.83-3.62c0-.11,0-.22,0-.33H41.41v5.4H25A.56.56,0,0,1,24.48,69.84ZM44.07,57.3a6.69,6.69,0,0,0-2.66,5.33v.55H28.66a3.53,3.53,0,0,0-.46-.55l-1.49-1.5a3.78,3.78,0,0,0,2.21-6.43l-2.21-2.21a3.86,3.86,0,0,0,1.56-.56,9.54,9.54,0,1,0-1.87-8.4s-1.79-1.77-1.92-1.87V34H47.17V55Z" transform="translate(-16.12 -27.16)"/><path class="cls-3" d="M38.72,43.44a.21.21,0,0,0-.16-.06H37.38a2.35,2.35,0,0,0-.45-1h1.62a.23.23,0,0,0,.16-.06.25.25,0,0,0,.06-.16v-.71a.21.21,0,0,0-.06-.16.23.23,0,0,0-.16-.06H32.78a.23.23,0,0,0-.16.06.21.21,0,0,0-.06.16v.92a.21.21,0,0,0,.22.22h1c1,0,1.59.26,1.85.79H32.78a.23.23,0,0,0-.16.06.21.21,0,0,0-.06.16v.71a.2.2,0,0,0,.06.15.2.2,0,0,0,.16.07h3a1.34,1.34,0,0,1-.71.86,3.09,3.09,0,0,1-1.47.3h-.78a.21.21,0,0,0-.16.07.2.2,0,0,0-.06.15v.88a.25.25,0,0,0,.06.16Q34,48.36,36.07,50.9a.2.2,0,0,0,.18.09H37.6a.2.2,0,0,0,.2-.13.18.18,0,0,0,0-.23q-2-2.49-3.18-3.72a3.55,3.55,0,0,0,1.91-.76,2.64,2.64,0,0,0,.9-1.62h1.16a.19.19,0,0,0,.16-.07.2.2,0,0,0,.06-.15V43.6A.21.21,0,0,0,38.72,43.44Z" transform="translate(-16.12 -27.16)"/></svg>