<svg xmlns="http://www.w3.org/2000/svg" xmlns:xlink="http://www.w3.org/1999/xlink" viewBox="0 0 70.06 97.93"><defs><style>.cls-1{fill:url(#New_Gradient_Swatch_1);}.cls-2{fill:url(#New_Gradient_Swatch_1-2);}</style><linearGradient id="New_Gradient_Swatch_1" y1="48.96" x2="70.06" y2="48.96" gradientUnits="userSpaceOnUse"><stop offset="0" stop-color="#37a9e5"/><stop offset="1" stop-color="#3d53b9"/></linearGradient><linearGradient id="New_Gradient_Swatch_1-2" x1="22.81" y1="62.9" x2="47.25" y2="62.9" xlink:href="#New_Gradient_Swatch_1"/></defs><g id="Layer_2" data-name="Layer 2"><g id="Layer_1-2" data-name="Layer 1"><path class="cls-1" d="M66.38,48.26a3.67,3.67,0,0,0,3.68-3.67V31.54a3.67,3.67,0,0,0-3.67-3.67H57.74V22.71a22.71,22.71,0,1,0-45.42,0v5.16H3.68A3.67,3.67,0,0,0,0,31.54H0V94.25a3.68,3.68,0,0,0,3.68,3.68h62.7a3.68,3.68,0,0,0,3.68-3.68V61.39a3.68,3.68,0,0,0-7.35,0V90.58H7.35V35.22H62.71v9.37A3.67,3.67,0,0,0,66.38,48.26Zm-16-20.39H19.67V22.71a15.36,15.36,0,1,1,30.71,0Z"/><path class="cls-2" d="M46.68,51.81A12.22,12.22,0,1,0,31.35,67.14V78.85a3.68,3.68,0,1,0,7.35,0V67.14A12.22,12.22,0,0,0,46.68,51.81Zm-11.6,8.54H35a4.79,4.79,0,1,1,.1,0Z"/></g></g></svg>