<svg id="Layer_1" data-name="Layer 1" xmlns="http://www.w3.org/2000/svg" viewBox="0 0 44.4 48.19"><defs><style>.cls-1{fill:#3374c1;}.cls-2{fill:#fff;}</style></defs><rect class="cls-1" width="44.4" height="48.19" rx="9.05"/><path class="cls-2" d="M32.48,23.86a.26.26,0,0,0-.35.14l-.08.19a4.22,4.22,0,0,0-3.88-2.6,4.19,4.19,0,0,0-4.09,3.31.27.27,0,0,0,.21.32A.26.26,0,0,0,24.6,25,3.65,3.65,0,0,1,30.49,23a3.59,3.59,0,0,1,1.1,1.54l-.33-.14a.26.26,0,0,0-.35.13.26.26,0,0,0,.14.35l.85.37a.26.26,0,0,0,.35-.14l.37-.85A.27.27,0,0,0,32.48,23.86Z" transform="translate(-5.52 -2.25)"/><path class="cls-2" d="M30.75,27a.17.17,0,0,0-.12-.05h-.91a1.93,1.93,0,0,0-.33-.76h1.23a.13.13,0,0,0,.12-.05.17.17,0,0,0,.05-.12v-.54a.17.17,0,0,0-.17-.17h-4.4a.21.21,0,0,0-.13.05.16.16,0,0,0,0,.12v.71a.16.16,0,0,0,.05.12.17.17,0,0,0,.12.05H27c.75,0,1.22.2,1.42.59H26.22a.21.21,0,0,0-.13.05.16.16,0,0,0,0,.12v.54a.16.16,0,0,0,0,.12.17.17,0,0,0,.13.05h2.26a1,1,0,0,1-.55.66,2.28,2.28,0,0,1-1.12.23h-.59a.17.17,0,0,0-.12.05.15.15,0,0,0-.05.12v.67a.16.16,0,0,0,0,.12c.68.72,1.56,1.73,2.64,3a.16.16,0,0,0,.13.06h1a.16.16,0,0,0,.16-.09.17.17,0,0,0,0-.18c-1-1.26-1.84-2.21-2.43-2.84a2.68,2.68,0,0,0,1.46-.58,2,2,0,0,0,.68-1.24h.89a.13.13,0,0,0,.12-.05.17.17,0,0,0,.05-.12v-.54A.17.17,0,0,0,30.75,27Z" transform="translate(-5.52 -2.25)"/><g id="Smartphone"><path class="cls-2" d="M33.88,12.32H22.75a2.31,2.31,0,0,0-2.31,2.32V38.78a2.31,2.31,0,0,0,2.31,2.32H33.88a2.32,2.32,0,0,0,2.32-2.32V14.64A2.32,2.32,0,0,0,33.88,12.32Zm-2.31,1-.27,1.37H25.65l-.27-1.37Zm3.6,25.34a1.38,1.38,0,0,1-1.37,1.39h-11a1.39,1.39,0,0,1-1.37-1.39V14.79a1.44,1.44,0,0,1,1.44-1.44h1.53l.4,2a.48.48,0,0,0,.46.37H32a.46.46,0,0,0,.45-.37l.41-2h.91a1.37,1.37,0,0,1,1.37,1.38Z" transform="translate(-5.52 -2.25)"/><path class="cls-2" d="M25.7,38.36H22.93a.46.46,0,0,0-.46.46.68.68,0,0,0,.46.57H25.7a.68.68,0,0,0,.47-.57A.46.46,0,0,0,25.7,38.36Z" transform="translate(-5.52 -2.25)"/><path class="cls-2" d="M27.55,38.36h-.46a.45.45,0,0,0-.46.46.67.67,0,0,0,.46.57h.46a.67.67,0,0,0,.46-.57A.45.45,0,0,0,27.55,38.36Z" transform="translate(-5.52 -2.25)"/></g></svg>