<svg id="Layer_1" data-name="Layer 1" xmlns="http://www.w3.org/2000/svg" viewBox="0 0 403.5 237.23"><defs><style>.cls-1{opacity:0.3;}.cls-2{fill:#f6b968;}.cls-3{fill:#eeaa59;}.cls-4{fill:#ffcc90;}.cls-5{fill:#ffd6a6;}.cls-6{fill:#ffe0bc;}.cls-7{fill:#ffbb6b;}.cls-8{fill:#fff;}.cls-9{fill:#3c6678;}.cls-10{fill:#903b0e;}.cls-11{fill:#fab748;}.cls-12{fill:#f4a148;}.cls-13{fill:#fcd18a;}.cls-14{fill:#fbc56d;}.cls-15{fill:#6c2c0b;}.cls-16{fill:#6e605b;}.cls-17{fill:#994b21;}.cls-18{fill:#db822a;}.cls-19{fill:#e29b55;}.cls-20{fill:#c9313d;}.cls-21{fill:#fde8c5;}</style></defs><g class="cls-1"><path class="cls-2" d="M301.72,446.33c6-4,7.92-11.69,4.27-17.13s-11.47-6.57-17.48-2.54L231.37,465c-6,4-7.92,11.7-4.27,17.13s11.47,6.58,17.47,2.55l57.15-38.33Z" transform="translate(-95.98 -301.47)"/><path class="cls-2" d="M311.09,468.59c6.31-4.24,8.48-12.08,4.85-17.51s-11.74-6.42-18.06-2.17l-60.14,40.34c-6.32,4.23-8.5,12.08-4.84,17.52s11.72,6.4,18,2.16l60.15-40.34Z" transform="translate(-95.98 -301.47)"/><path class="cls-2" d="M328.16,485.68c6-4,7.88-11.67,4.24-17.11S320.94,462,315,466l-57,38.2c-6,4-7.89,11.68-4.23,17.11s11.45,6.59,17.44,2.58l57-38.21Z" transform="translate(-95.98 -301.47)"/><path class="cls-2" d="M355.85,496c5.44-3.65-2.43-5.05-6.07-10.5a11.88,11.88,0,0,0-16.47-3.22L281.47,517a11.86,11.86,0,1,0,13.2,19.7L355.85,496Z" transform="translate(-95.98 -301.47)"/><path class="cls-2" d="M422.78,434.81l-34.69-53.6-23.64,15s-23.07-10.83-38.77-5.61c-6.54,2.17-9.71,2.09-11.25,1.42l8.13,12.55-39.21,25.38,70,67.65,17-11h0s20.09-12.24,23.83-18.05c4.77-7.41.56-14.63,1-15.84s27.64-17.9,27.64-17.9Z" transform="translate(-95.98 -301.47)"/><path class="cls-2" d="M314.43,392l-1.42-2.2a2.08,2.08,0,0,0,1.42,2.2Z" transform="translate(-95.98 -301.47)"/><path class="cls-3" d="M298.12,430.85c-6.46-3.25-9.32-10.63-6.37-16.48s10.56-7.95,17-4.69l61.45,30.95c6.45,3.25,9.31,10.62,6.36,16.47s-9.36,10.38-15.81,7.13l-62.66-33.38Z" transform="translate(-95.98 -301.47)"/><path class="cls-3" d="M291.58,453.53c-6.8-3.42-9.93-10.94-7-16.78s10.85-7.81,17.64-4.39l64.68,32.58c6.79,3.42,9.93,10.94,7,16.78s-10.85,7.81-17.64,4.38l-64.68-32.57Z" transform="translate(-95.98 -301.47)"/><path class="cls-3" d="M275.89,471.12c-6.44-3.25-9.27-10.61-6.32-16.46s10.55-8,17-4.72l61.25,30.85c6.43,3.25,9.27,10.62,6.33,16.46s-10.56,7.95-17,4.71l-61.26-30.84Z" transform="translate(-95.98 -301.47)"/><path class="cls-3" d="M260.56,488.86a11.85,11.85,0,1,1,10.66-21.17L327,495.77a11.85,11.85,0,1,1-10.66,21.16l-55.75-28.07Z" transform="translate(-95.98 -301.47)"/><path class="cls-3" d="M242.84,511.53a16.08,16.08,0,0,0,7-1.57,32.59,32.59,0,0,0,3.77-2.34l57.2-37s-1.48.43-10.21,5.48c-23.34,13.5-57.73,35.41-57.73,35.41Z" transform="translate(-95.98 -301.47)"/><path class="cls-3" d="M236.33,487.07a16,16,0,0,0,7-1.58,31.23,31.23,0,0,0,3.78-2.33l57.19-37s-1.47.43-10.2,5.48c-23.34,13.5-57.74,35.41-57.74,35.41Z" transform="translate(-95.98 -301.47)"/><path class="cls-3" d="M262.83,526.11a14.69,14.69,0,0,0,6.67-1.39,28.68,28.68,0,0,0,3.6-2.22l54.33-35.12s-1.41.38-9.72,5.16c-22.21,12.76-54.88,33.57-54.88,33.57Z" transform="translate(-95.98 -301.47)"/><path class="cls-3" d="M250.42,474.94a14.7,14.7,0,0,0,6.66-1.36,28.16,28.16,0,0,0,3.57-2.22l54-34.93s-1.39.39-9.66,5.14c-22.09,12.69-54.59,33.37-54.59,33.37Z" transform="translate(-95.98 -301.47)"/><path class="cls-4" d="M295.9,432.05c-6.45-3.25-9.31-10.63-6.36-16.47s10.57-7.95,17-4.7L368,441.83c6.46,3.25,9.31,10.62,6.37,16.47s-10.57,7.95-17,4.7L295.9,432.05Z" transform="translate(-95.98 -301.47)"/><path class="cls-4" d="M289.36,455.29c-6.79-3.42-9.92-10.94-7-16.78s10.85-7.81,17.65-4.39L364.7,466.7c6.8,3.42,9.93,10.93,7,16.78s-10.85,7.81-17.65,4.39l-64.68-32.58Z" transform="translate(-95.98 -301.47)"/><path class="cls-4" d="M274.54,474.37c-6.44-3.24-9.27-10.61-6.32-16.46s10.55-8,17-4.71l61.25,30.85c6.44,3.24,9.27,10.61,6.33,16.45s-10.55,8-17,4.72l-61.26-30.85Z" transform="translate(-95.98 -301.47)"/><path class="cls-4" d="M258.34,492.75A11.85,11.85,0,1,1,269,471.58l55.76,28.08a11.85,11.85,0,1,1-10.67,21.16l-55.75-28.07Z" transform="translate(-95.98 -301.47)"/><polygon class="cls-4" points="223.07 115.7 181.35 94.69 140.91 180.47 160.78 190.48 223.07 115.7 223.07 115.7"/><path class="cls-4" d="M238.7,482.85s-21.29-10-25.64-15.38c-5.54-6.85-2.12-14.47-2.7-15.63S181,437,181,437l28.72-57,25.12,12.37s10.83-18.75,27-15.26c14.13,3.06,31.14,11,31.14,11l-15.6,8.08-13.11,38.72-25.52,48Z" transform="translate(-95.98 -301.47)"/><path class="cls-3" d="M363,489.39a15.89,15.89,0,0,1-7.1-.81,32.12,32.12,0,0,1-4-1.92l-60.84-30.61s1.51.28,10.73,4.35c24.65,10.91,61.21,29,61.21,29Z" transform="translate(-95.98 -301.47)"/><path class="cls-3" d="M344.38,506.62a14.75,14.75,0,0,1-6.79-.65,30.31,30.31,0,0,1-3.81-1.83L276,475.07s1.44.23,10.22,4.09c23.45,10.3,58.17,27.46,58.17,27.46Z" transform="translate(-95.98 -301.47)"/><path class="cls-3" d="M366,464.42a14.74,14.74,0,0,1-6.77-.64,29.27,29.27,0,0,1-3.79-1.82l-57.47-28.9s1.43.22,10.16,4.06c23.33,10.23,57.87,27.3,57.87,27.3Z" transform="translate(-95.98 -301.47)"/><path class="cls-5" d="M304.25,429.69c-.34-.17-.33-.88,0-1.59l4.1-8.14c.35-.71.92-1.15,1.26-1s.32.88,0,1.6l-4.1,8.14c-.37.71-.93,1.14-1.26,1Z" transform="translate(-95.98 -301.47)"/><path class="cls-5" d="M301.69,428.41c-.33-.17-.32-.88,0-1.59l4.1-8.15c.36-.7.92-1.14,1.26-1s.32.88,0,1.59l-4.1,8.15c-.36.71-.92,1.14-1.27,1Z" transform="translate(-95.98 -301.47)"/><path class="cls-5" d="M293.63,450.88c-.34-.16-.32-.87,0-1.58l4.1-8.15c.36-.71.92-1.15,1.26-1s.33.88,0,1.59l-4.1,8.14c-.36.71-.92,1.15-1.26,1Z" transform="translate(-95.98 -301.47)"/><path class="cls-5" d="M291.08,449.6c-.34-.17-.33-.88,0-1.59l4.11-8.14c.35-.72.92-1.15,1.25-1s.33.89,0,1.59l-4.1,8.15c-.35.71-.92,1.14-1.26,1Z" transform="translate(-95.98 -301.47)"/><path class="cls-5" d="M282.67,472.65c-.34-.17-.33-.89,0-1.59l4.1-8.15c.36-.7.93-1.14,1.26-1s.33.89,0,1.59l-4.1,8.15c-.36.71-.92,1.14-1.26,1Z" transform="translate(-95.98 -301.47)"/><path class="cls-5" d="M280.12,471.37c-.33-.17-.33-.89,0-1.59l4.1-8.15c.37-.71.92-1.14,1.26-1s.33.88,0,1.59l-4.1,8.14c-.35.71-.92,1.15-1.26,1Z" transform="translate(-95.98 -301.47)"/><path class="cls-5" d="M272.31,493.22c-.34-.17-.33-.88,0-1.58l4.1-8.15c.36-.71.93-1.14,1.26-1s.33.89,0,1.6l-4.11,8.14c-.35.71-.92,1.15-1.25,1Z" transform="translate(-95.98 -301.47)"/><path class="cls-5" d="M269.76,491.94c-.34-.17-.33-.88,0-1.58l4.11-8.15c.35-.71.91-1.15,1.25-1s.32.88,0,1.59L271,491c-.36.7-.92,1.14-1.26,1Z" transform="translate(-95.98 -301.47)"/><path class="cls-6" d="M333.26,442.19c-.34-.17-.33-.88,0-1.59l4.11-8.15c.36-.7.92-1.14,1.26-1s.32.88,0,1.59l-4.11,8.15c-.35.71-.92,1.14-1.25,1Z" transform="translate(-95.98 -301.47)"/><path class="cls-6" d="M330.71,440.91c-.34-.17-.32-.89,0-1.59l4.1-8.15c.36-.71.92-1.14,1.26-1s.32.88,0,1.59l-4.1,8.15c-.36.7-.93,1.14-1.26,1Z" transform="translate(-95.98 -301.47)"/><path class="cls-6" d="M322.64,463.38c-.34-.17-.32-.88,0-1.59l4.1-8.15c.36-.7.92-1.14,1.26-1s.33.89,0,1.6l-4.11,8.14c-.35.71-.91,1.14-1.25,1Z" transform="translate(-95.98 -301.47)"/><path class="cls-6" d="M320.09,462.1c-.33-.17-.32-.88,0-1.59l4.11-8.14c.35-.72.92-1.15,1.26-1s.32.89,0,1.59l-4.1,8.15c-.36.71-.92,1.14-1.26,1Z" transform="translate(-95.98 -301.47)"/><path class="cls-6" d="M311.68,485.15c-.34-.17-.33-.88,0-1.59l4.1-8.15c.36-.71.92-1.15,1.26-1s.32.88,0,1.59l-4.1,8.15c-.36.71-.92,1.14-1.26,1Z" transform="translate(-95.98 -301.47)"/><path class="cls-6" d="M309.13,483.86c-.33-.17-.33-.87,0-1.58l4.11-8.15c.35-.71.92-1.14,1.25-1s.33.9,0,1.6l-4.11,8.14c-.34.71-.91,1.15-1.25,1Z" transform="translate(-95.98 -301.47)"/><path class="cls-6" d="M301.32,505.73c-.34-.17-.33-.89,0-1.6l4.1-8.14c.36-.71.92-1.15,1.26-1s.32.89,0,1.6l-4.11,8.14c-.35.7-.91,1.15-1.25,1Z" transform="translate(-95.98 -301.47)"/><path class="cls-6" d="M298.77,504.44c-.34-.17-.33-.88,0-1.59l4.1-8.15c.36-.7.93-1.14,1.27-1s.32.88,0,1.59l-4.1,8.14c-.36.71-.92,1.14-1.26,1Z" transform="translate(-95.98 -301.47)"/><path class="cls-6" d="M319.29,518.21a28.68,28.68,0,0,0,3.36-5.05l0,0,0,0a30.07,30.07,0,0,0,2.23-5.64c-3.59-1.88-8.92-4.76-12.08-3.79a5.07,5.07,0,0,0-2.94,2.74h0v0l0,0h0a5,5,0,0,0-.57,4c1,3.14,6.4,5.88,10,7.76Z" transform="translate(-95.98 -301.47)"/><path class="cls-6" d="M344.08,502.51a29.34,29.34,0,0,0,3.36-5.05v0l0,0a29.26,29.26,0,0,0,2.23-5.64c-3.59-1.87-8.92-4.76-12.08-3.78a5.05,5.05,0,0,0-2.94,2.73l0,0,0,0a5.11,5.11,0,0,0-.56,4c1,3.15,6.41,5.88,10,7.76Z" transform="translate(-95.98 -301.47)"/><path class="cls-6" d="M362.42,485.12a30,30,0,0,0,3.36-5v0l0,0a29.26,29.26,0,0,0,2.23-5.64c-3.58-1.87-8.92-4.77-12.08-3.79a5.11,5.11,0,0,0-2.94,2.73l0,0v0h0a5,5,0,0,0-.56,4c1,3.16,6.4,5.89,10,7.77Z" transform="translate(-95.98 -301.47)"/><path class="cls-6" d="M364.69,460.52a29.82,29.82,0,0,0,3.35-5v0l0,0a28.29,28.29,0,0,0,2.23-5.63c-3.58-1.88-8.91-4.77-12.07-3.8a5.1,5.1,0,0,0-2.94,2.74h0v0l0,0h0a5,5,0,0,0-.57,4c1,3.16,6.4,5.89,10,7.76Z" transform="translate(-95.98 -301.47)"/><path class="cls-2" d="M269.79,390.4c2.58-1.08,35.55,2.48,42.8,2.34s44.5.19,52.58,2.9c-8.08-2.71-46.28-7.22-53.53-7.1-3.5.07-9.84-.7-18.93-1.55-9.81-.91-22.45,0-23.78.57-2.58,1.09-30.76,50.24-30.76,50.24s29-46.31,31.62-47.4Z" transform="translate(-95.98 -301.47)"/><path class="cls-2" d="M238.23,437.81c7.59,7.64,15.63,5,25.74-3.92,8-7,22.55-25.83,22.55-25.83,44.63,31.36,78.71-12.42,78.71-12.42s-34.06,48.38-78.72,15.6c0,0-9.63,17.09-17.59,24.4-10.11,9.28-23.6,12.53-30.69,2.17Z" transform="translate(-95.98 -301.47)"/><path class="cls-4" d="M286.52,408S271.94,426.86,264,433.86c-10.12,8.9-18.16,11.57-25.75,3.92,0,0,29-46.31,31.61-47.4s36.53-6.31,43.78-6.45,43.53,9,51.61,11.69c0,0-34.07,43.78-78.71,12.42Z" transform="translate(-95.98 -301.47)"/><path class="cls-6" d="M277.26,397c-.28.24-.83.08-1.22-.36l-4.48-5.15c-.38-.45-.47-1-.18-1.26s.84-.09,1.22.36l4.48,5.14c.39.45.47,1,.18,1.27Z" transform="translate(-95.98 -301.47)"/><path class="cls-6" d="M275.12,398.89c-.29.24-.84.09-1.22-.36l-4.48-5.15c-.4-.44-.48-1-.19-1.25s.83-.09,1.23.35l4.47,5.14c.39.46.47,1,.19,1.27Z" transform="translate(-95.98 -301.47)"/><path class="cls-6" d="M242.08,433.19a17,17,0,0,0,3.24,3.28h0a16.67,16.67,0,0,0,4,2.27c2.45-3.21,6.19-8,6.21-10.93a3.37,3.37,0,0,0-1.47-2.81h0v0a3.39,3.39,0,0,0-3.1-.67c-2.83.79-6.45,5.65-8.91,8.87Z" transform="translate(-95.98 -301.47)"/><polygon class="cls-7" points="133.82 88.43 108.63 147.09 97.96 141.5 129.9 86.53 133.82 88.43 133.82 88.43"/><polygon class="cls-8" points="89.77 143.69 101.81 149.76 135.86 82.14 123.82 76.08 89.77 143.69 89.77 143.69"/><polygon class="cls-3" points="272.9 91.91 304.56 147.34 311.96 142.58 275.08 90.53 272.9 91.91 272.9 91.91"/><polygon class="cls-8" points="322.9 141.96 311.58 149.28 270.46 85.72 281.77 78.4 322.9 141.96 322.9 141.96"/><polygon class="cls-9" points="126.45 71.13 0 7.1 0 102.61 88.05 147.38 126.45 71.13 126.45 71.13"/><polygon class="cls-10" points="325.52 146.39 403.5 99.08 403.5 0 279.13 74.71 325.52 146.39 325.52 146.39"/></g><path class="cls-11" d="M319,415.84c-.27-11.22,1.77-27.32,6.92-30l.36-.18,8.89-10.05h10.16c-.21,7.57-3.29,33.47-26.33,40.25Zm30.69-42.53-.09-2.08H333.22l-9.69,10.94c-9.43,5.68-8.3,33.45-8.13,36.64l.13,2.56,2.51-.54c13.74-3,23.58-12.23,28.45-26.68a63,63,0,0,0,3.21-20.85Z" transform="translate(-95.98 -301.47)"/><path class="cls-11" d="M282.5,415.84c-10.93-3.19-19.2-10.84-23.32-22.95a60.89,60.89,0,0,1-3-17.3h10.16l8.9,10.05.35.18c5.15,2.7,7.19,18.8,6.93,30ZM278,382.18l-9.69-10.94H251.9l-.1,2.08A63.46,63.46,0,0,0,255,394.16c4.87,14.45,14.71,23.67,28.45,26.68l2.51.54.13-2.56c.16-3.19,1.3-31-8.14-36.64Z" transform="translate(-95.98 -301.47)"/><path class="cls-12" d="M259.2,392.84a60.57,60.57,0,0,1-3-17.3h-1.72a60.72,60.72,0,0,0,4.73,22.57c4.79,11.07,16.61,18.63,26.53,20.76l-3.21-3c-10.93-3.19-19.18-10.88-23.3-23Z" transform="translate(-95.98 -301.47)"/><path class="cls-12" d="M342.31,392.84a60.83,60.83,0,0,0,3-17.3h1.72a60.72,60.72,0,0,1-4.73,22.57c-4.78,11.07-16.61,18.63-26.53,20.76l3.22-3c10.93-3.19,19.18-10.88,23.3-23Z" transform="translate(-95.98 -301.47)"/><path class="cls-11" d="M326.5,371.4a92.86,92.86,0,0,0-51.49,0c-1.22,37.05,11.52,59.37,25.74,59.41s27-22.36,25.75-59.41Z" transform="translate(-95.98 -301.47)"/><path class="cls-13" d="M326.5,371.5a92.62,92.62,0,0,0-51.49,0,132.25,132.25,0,0,1,51.49,0Z" transform="translate(-95.98 -301.47)"/><path class="cls-14" d="M283.09,372.28a53.71,53.71,0,0,0-6.52,1.58,99.21,99.21,0,0,0,.95,18l6.57-2.26a99,99,0,0,1-1-17.36Z" transform="translate(-95.98 -301.47)"/><path class="cls-14" d="M285,397.19l-5.41,1.05c2.26,19.09,10.1,28.93,17.09,30.31,1.66.33,6.39,1.31,8.23-.39-.13,0-19.06-3.06-19.91-31Z" transform="translate(-95.98 -301.47)"/><path class="cls-10" d="M326.19,469.76l-3-18.12-22.4-3.38-22.4,3.38-3,18.12.17,0a2.2,2.2,0,0,0-.17.83c0,4.05,11.39,7.33,25.44,7.33s25.44-3.28,25.44-7.33a2.2,2.2,0,0,0-.17-.83l.17,0" transform="translate(-95.98 -301.47)"/><path class="cls-15" d="M326.19,469.68l-3-18.13-12.36-2.79,1.36,28.32c8.33-1.21,14-3.68,14-6.55a2.29,2.29,0,0,0-.17-.84Z" transform="translate(-95.98 -301.47)"/><polyline class="cls-16" points="189.79 149.05 189.82 148.74 197.84 147.53 197.8 147.84 189.79 149.05"/><path class="cls-17" d="M290.49,477.19a53.54,53.54,0,0,1-7.7-1.41l3-25.26,8-1.21-3.29,27.88" transform="translate(-95.98 -301.47)"/><path class="cls-15" d="M323.15,451.93c0,2.12-10,3.84-22.4,3.84s-22.4-1.72-22.4-3.84,10-3.84,22.4-3.84,22.4,1.72,22.4,3.84Z" transform="translate(-95.98 -301.47)"/><path class="cls-18" d="M317.64,450.54l-2-8.56-14.87-1.6L285.88,442l-1.9,8.57a.84.84,0,0,0-.12.4c0,1.91,7.56,3.46,16.89,3.46s16.89-1.55,16.89-3.46a.83.83,0,0,0-.11-.4Z" transform="translate(-95.98 -301.47)"/><path class="cls-11" d="M315.62,442c0,1.68-6.65,3-14.87,3s-14.87-1.36-14.87-3,6.66-3.05,14.87-3.05,14.87,1.37,14.87,3.05Z" transform="translate(-95.98 -301.47)"/><path class="cls-11" d="M305.53,422.76H296s3.9,12-2.31,19.46a26.09,26.09,0,0,0,7.14.89c5.56,0,7.42-.94,7.42-.94-6.21-7.5-2.69-19.41-2.69-19.41Z" transform="translate(-95.98 -301.47)"/><path class="cls-19" d="M289.39,443.94l-2.3,9a18.73,18.73,0,0,0,4.67.89l1.86-9.22-4.23-.71Z" transform="translate(-95.98 -301.47)"/><path class="cls-4" d="M262.36,455.85l-3.68,4.83s10.46,17.65,10.95,18.76v13.33h14.23l-2.32-11.55s3.45-11.42-2.06-15.12c-7.27-4.87-17.12-10.25-17.12-10.25Z" transform="translate(-95.98 -301.47)"/><polygon class="cls-8" points="191.16 192.68 171.39 192.68 171.39 183.88 190.59 184.42 191.16 192.68 191.16 192.68"/><path class="cls-4" d="M266,458.89a2.41,2.41,0,0,1-3.39,0c-1.09-.91-.27-3.08-.27-3.08l7.19-9.24a2.61,2.61,0,0,1,4,3.3l-7.49,9Z" transform="translate(-95.98 -301.47)"/><path class="cls-4" d="M272.26,450.83a2.61,2.61,0,0,1-1.85-4.81l10.91-4.21a2.62,2.62,0,0,1,1.86,4.82l-10.92,4.2Z" transform="translate(-95.98 -301.47)"/><path class="cls-2" d="M274.65,448.14l12.11-4.58a2.28,2.28,0,0,0,1-.8s-14.13,4.67-14.38,5c-2.08,2.68-8.08,10.79-8.08,10.79a2.26,2.26,0,0,0,1.08-.69l8.24-9.7Z" transform="translate(-95.98 -301.47)"/><path class="cls-4" d="M269.81,462.22a3,3,0,0,1-4.48-3.74l8.48-10.16a3,3,0,0,1,4.48,3.74l-8.48,10.16Z" transform="translate(-95.98 -301.47)"/><path class="cls-4" d="M276.88,453.1a3,3,0,0,1-2.1-5.44l12.34-4.76a3,3,0,0,1,2.1,5.44l-12.34,4.76Z" transform="translate(-95.98 -301.47)"/><path class="cls-2" d="M277.73,452.79l11.54-4.45a2.28,2.28,0,0,0,.77-.52l-12.52,4-.06,0a2.2,2.2,0,0,0-.91.63l-6.46,8.57c.52-.1.28.26.62-.15l7-8.12Z" transform="translate(-95.98 -301.47)"/><path class="cls-4" d="M274.32,464.21a2.59,2.59,0,0,1-3.69-3.53l8-8.38a2.59,2.59,0,0,1,3.69,3.53l-8,8.38Z" transform="translate(-95.98 -301.47)"/><path class="cls-4" d="M281.16,456.53a2.59,2.59,0,0,1-1.3-4.94l11.2-2.95a2.59,2.59,0,0,1,1.3,4.94l-11.2,2.95Z" transform="translate(-95.98 -301.47)"/><path class="cls-2" d="M281.81,456.36l10.55-2.78c.37-.1-.7,0-1.16,0-2.07.06-9.77,2.21-10,2.42l-6.64,7.28s.32.32.57.09l6.69-7Z" transform="translate(-95.98 -301.47)"/><path class="cls-4" d="M277.82,467.67a2.28,2.28,0,0,1-3.11-3.26l7.41-7.06a2.28,2.28,0,0,1,3.12,3.26l-7.42,7.06Z" transform="translate(-95.98 -301.47)"/><path class="cls-4" d="M284.06,461.29a2.29,2.29,0,0,1-1.14-4.37l9.91-2.57a2.29,2.29,0,0,1,1.13,4.37l-9.9,2.57Z" transform="translate(-95.98 -301.47)"/><path class="cls-6" d="M281.84,442a1.73,1.73,0,0,1,.38.56h0a1.71,1.71,0,0,1,.12.67,8.49,8.49,0,0,1-2.6.8.46.46,0,0,1-.43-.27h0a.45.45,0,0,1,.11-.49,8.41,8.41,0,0,1,2.41-1.27Z" transform="translate(-95.98 -301.47)"/><path class="cls-6" d="M287.85,443.11a2.7,2.7,0,0,1,.48.75h0a2.53,2.53,0,0,1,.19.87,8.34,8.34,0,0,1-3,.87.6.6,0,0,1-.51-.38h0a.6.6,0,0,1,.09-.64,8.34,8.34,0,0,1,2.71-1.47Z" transform="translate(-95.98 -301.47)"/><path class="cls-6" d="M291.44,448.63a4.3,4.3,0,0,1,.53,1.08h0a4.48,4.48,0,0,1,.24,1.18c-.95.31-2.36.8-3,.56a.89.89,0,0,1-.55-.61h0a.88.88,0,0,1,.08-.81c.4-.62,1.82-1.08,2.76-1.4Z" transform="translate(-95.98 -301.47)"/><path class="cls-6" d="M293.59,454.62a4.26,4.26,0,0,1,.46,1.07h0a4.85,4.85,0,0,1,.17,1.15c-1,.27-2.4.7-3.07.43a.89.89,0,0,1-.52-.61h0a.85.85,0,0,1,.12-.79c.43-.59,1.87-1,2.83-1.26Z" transform="translate(-95.98 -301.47)"/><path class="cls-6" d="M271.15,448.23c.07-.07.05-.2,0-.3l-1.13-1.1a.22.22,0,0,0-.3,0c-.07.07-.05.2.06.3l1.12,1.1a.22.22,0,0,0,.3,0Z" transform="translate(-95.98 -301.47)"/><path class="cls-6" d="M271.66,447.7c.07-.07,0-.2-.05-.3l-1.13-1.09c-.1-.1-.24-.12-.3-.05a.22.22,0,0,0,.05.3l1.13,1.1a.22.22,0,0,0,.3,0Z" transform="translate(-95.98 -301.47)"/><path class="cls-6" d="M274.86,450.69a.2.2,0,0,0,0-.28l-.87-1.12a.2.2,0,0,0-.28-.06.2.2,0,0,0,0,.28l.87,1.12a.2.2,0,0,0,.27.06Z" transform="translate(-95.98 -301.47)"/><path class="cls-6" d="M275.44,450.24a.2.2,0,0,0,0-.29l-.86-1.11a.21.21,0,0,0-.28-.07.2.2,0,0,0,0,.29l.86,1.12a.21.21,0,0,0,.28.06Z" transform="translate(-95.98 -301.47)"/><path class="cls-5" d="M283.07,448a.2.2,0,0,0,0-.28l-.78-1.18a.18.18,0,1,0-.29.2l.78,1.18a.2.2,0,0,0,.27.08Z" transform="translate(-95.98 -301.47)"/><path class="cls-5" d="M283.68,447.55a.2.2,0,0,0,0-.28l-.78-1.18a.21.21,0,0,0-.27-.09.22.22,0,0,0,0,.29l.79,1.18a.19.19,0,0,0,.27.08Z" transform="translate(-95.98 -301.47)"/><path class="cls-5" d="M286.94,452.52a.21.21,0,0,0,0-.28l-.7-1.23a.19.19,0,0,0-.26-.1.19.19,0,0,0,0,.28l.7,1.23a.2.2,0,0,0,.26.1Z" transform="translate(-95.98 -301.47)"/><path class="cls-5" d="M287.57,452.16a.21.21,0,0,0,.05-.29l-.7-1.23a.21.21,0,0,0-.27-.1.21.21,0,0,0,0,.28l.7,1.23a.21.21,0,0,0,.26.11Z" transform="translate(-95.98 -301.47)"/><path class="cls-5" d="M289,457.86a.21.21,0,0,0,.05-.28l-.64-1.26a.2.2,0,0,0-.26-.12.21.21,0,0,0-.05.28l.64,1.26a.21.21,0,0,0,.26.12Z" transform="translate(-95.98 -301.47)"/><path class="cls-5" d="M289.64,457.52a.21.21,0,0,0,.05-.28l-.64-1.26a.18.18,0,1,0-.31.16l.64,1.26c.06.11.17.17.26.12Z" transform="translate(-95.98 -301.47)"/><path class="cls-5" d="M277.18,445.15a.17.17,0,0,0,.05-.23l-.56-.8a.17.17,0,0,0-.24,0,.16.16,0,0,0-.05.22l.57.81a.18.18,0,0,0,.23,0Z" transform="translate(-95.98 -301.47)"/><path class="cls-5" d="M277.77,444.72a.18.18,0,0,0,.06-.24l-.57-.79a.18.18,0,0,0-.29.2l.57.8a.17.17,0,0,0,.23,0Z" transform="translate(-95.98 -301.47)"/><path class="cls-5" d="M268.47,460.81a.21.21,0,0,0-.09-.27l-1.16-.81a.2.2,0,0,0-.28,0,.21.21,0,0,0,.08.28l1.16.8a.21.21,0,0,0,.29,0Z" transform="translate(-95.98 -301.47)"/><path class="cls-5" d="M268.88,460.21a.22.22,0,0,0-.08-.28l-1.17-.8a.2.2,0,0,0-.28,0,.2.2,0,0,0,.08.27l1.17.81a.2.2,0,0,0,.28,0Z" transform="translate(-95.98 -301.47)"/><path class="cls-5" d="M272.89,463.3a.2.2,0,0,0-.1-.27l-1.22-.72a.18.18,0,1,0-.18.31l1.22.72a.21.21,0,0,0,.28,0Z" transform="translate(-95.98 -301.47)"/><path class="cls-5" d="M273.26,462.66a.2.2,0,0,0-.1-.26l-1.22-.72a.18.18,0,1,0-.18.31l1.22.71a.19.19,0,0,0,.28,0Z" transform="translate(-95.98 -301.47)"/><path class="cls-5" d="M277.76,465.71a.16.16,0,0,0-.07-.21l-.93-.59a.14.14,0,1,0-.14.23l.92.59a.16.16,0,0,0,.22,0Z" transform="translate(-95.98 -301.47)"/><path class="cls-5" d="M278.06,465.23A.16.16,0,0,0,278,465l-.93-.59c-.08-.05-.18,0-.21,0a.16.16,0,0,0,.07.21l.92.59a.16.16,0,0,0,.22,0Z" transform="translate(-95.98 -301.47)"/><path class="cls-5" d="M263.45,457.79a.18.18,0,0,0,0-.24l-.78-.59a.18.18,0,0,0-.21.28l.78.59a.17.17,0,0,0,.23,0Z" transform="translate(-95.98 -301.47)"/><path class="cls-5" d="M263.88,457.2a.18.18,0,0,0,0-.24l-.78-.59a.18.18,0,0,0-.24.05.17.17,0,0,0,0,.23l.78.6a.17.17,0,0,0,.23-.05Z" transform="translate(-95.98 -301.47)"/><path class="cls-6" d="M280,454.07a.21.21,0,0,0,0-.29l-.79-1.17a.18.18,0,1,0-.29.2l.79,1.17a.21.21,0,0,0,.27.09Z" transform="translate(-95.98 -301.47)"/><path class="cls-6" d="M280.58,453.65a.21.21,0,0,0,0-.28l-.79-1.17a.22.22,0,0,0-.28-.09.21.21,0,0,0,0,.29l.79,1.17a.2.2,0,0,0,.27.08Z" transform="translate(-95.98 -301.47)"/><path class="cls-6" d="M283.37,459.52a.2.2,0,0,0,0-.28l-.73-1.21a.21.21,0,0,0-.27-.1.21.21,0,0,0,0,.29l.73,1.21a.2.2,0,0,0,.27.09Z" transform="translate(-95.98 -301.47)"/><path class="cls-6" d="M284,459.14a.21.21,0,0,0,0-.28l-.74-1.21a.2.2,0,0,0-.27-.1.21.21,0,0,0,0,.28l.73,1.21a.21.21,0,0,0,.27.1Z" transform="translate(-95.98 -301.47)"/><path class="cls-4" d="M339.15,455.85l3.67,4.83s-10.45,17.65-10.95,18.76v13.33H317.64L320,481.22S316.51,469.8,322,466.1c7.26-4.87,17.12-10.25,17.12-10.25Z" transform="translate(-95.98 -301.47)"/><polygon class="cls-8" points="218.37 192.68 238.15 192.68 238.15 183.88 218.37 184.66 218.37 192.68 218.37 192.68"/><path class="cls-4" d="M335.48,458.89a2.41,2.41,0,0,0,3.39,0c1.1-.91.28-3.08.28-3.08l-7.2-9.24a2.61,2.61,0,0,0-4,3.3l7.49,9Z" transform="translate(-95.98 -301.47)"/><path class="cls-4" d="M329.24,450.83A2.61,2.61,0,0,0,331.1,446l-10.92-4.21a2.61,2.61,0,0,0-1.85,4.82l10.91,4.2Z" transform="translate(-95.98 -301.47)"/><path class="cls-2" d="M326.85,448.14l-12.1-4.58a2.28,2.28,0,0,1-1-.8s14.12,4.67,14.37,5c2.09,2.68,8.09,10.79,8.09,10.79a2.29,2.29,0,0,1-1.09-.69l-8.24-9.7Z" transform="translate(-95.98 -301.47)"/><path class="cls-4" d="M331.69,462.22a3,3,0,0,0,4.48-3.74l-8.48-10.16a3,3,0,0,0-4.48,3.74l8.48,10.16Z" transform="translate(-95.98 -301.47)"/><path class="cls-4" d="M324.63,453.1a3,3,0,0,0,2.1-5.44l-12.35-4.76a3,3,0,0,0-2.1,5.44l12.35,4.76Z" transform="translate(-95.98 -301.47)"/><path class="cls-2" d="M323.78,452.79l-11.55-4.45a2.24,2.24,0,0,1-.76-.52l12.52,4,.05,0a2.14,2.14,0,0,1,.91.63l6.46,8.57c-.51-.1-.27.26-.61-.15l-7-8.12Z" transform="translate(-95.98 -301.47)"/><path class="cls-4" d="M327.18,464.21a2.59,2.59,0,0,0,3.7-3.53l-8-8.38a2.59,2.59,0,0,0-3.69,3.53l8,8.38Z" transform="translate(-95.98 -301.47)"/><path class="cls-4" d="M320.34,456.53a2.59,2.59,0,0,0,1.3-4.94l-11.19-2.95a2.59,2.59,0,0,0-1.3,4.94l11.19,2.95Z" transform="translate(-95.98 -301.47)"/><path class="cls-2" d="M319.7,456.36l-10.55-2.78c-.37-.1.69,0,1.15,0,2.08.06,9.78,2.21,10,2.42l6.65,7.28s-.32.32-.58.09l-6.68-7Z" transform="translate(-95.98 -301.47)"/><path class="cls-4" d="M323.68,467.67a2.28,2.28,0,0,0,3.11-3.26l-7.41-7.06a2.28,2.28,0,0,0-3.11,3.26l7.41,7.06Z" transform="translate(-95.98 -301.47)"/><path class="cls-4" d="M317.45,461.29a2.29,2.29,0,0,0,1.13-4.37l-9.91-2.57a2.29,2.29,0,0,0-1.13,4.37l9.91,2.57Z" transform="translate(-95.98 -301.47)"/><path class="cls-6" d="M319.66,442a1.73,1.73,0,0,0-.38.56h0a1.85,1.85,0,0,0-.13.67,8.57,8.57,0,0,0,2.6.8.45.45,0,0,0,.43-.27h0a.43.43,0,0,0-.11-.49,8.41,8.41,0,0,0-2.41-1.27Z" transform="translate(-95.98 -301.47)"/><path class="cls-6" d="M313.66,443.11a2.46,2.46,0,0,0-.48.75h0a2.53,2.53,0,0,0-.19.87,8.4,8.4,0,0,0,3,.87.6.6,0,0,0,.51-.38h0a.61.61,0,0,0-.1-.64,8.28,8.28,0,0,0-2.7-1.47Z" transform="translate(-95.98 -301.47)"/><path class="cls-6" d="M310.06,448.63a4.73,4.73,0,0,0-.53,1.08h0a4.7,4.7,0,0,0-.23,1.18c.95.31,2.35.8,3.05.56a.9.9,0,0,0,.54-.61h0a.88.88,0,0,0-.08-.81c-.39-.62-1.82-1.08-2.76-1.4Z" transform="translate(-95.98 -301.47)"/><path class="cls-6" d="M307.92,454.62a4.5,4.5,0,0,0-.47,1.07h0a4.3,4.3,0,0,0-.17,1.15c1,.27,2.39.7,3.07.43a.87.87,0,0,0,.51-.61h0a.88.88,0,0,0-.12-.79c-.43-.59-1.88-1-2.83-1.26Z" transform="translate(-95.98 -301.47)"/><path class="cls-6" d="M330.35,448.23a.23.23,0,0,1,.06-.3l1.13-1.1a.22.22,0,0,1,.3,0,.23.23,0,0,1-.06.3l-1.13,1.1a.22.22,0,0,1-.3,0Z" transform="translate(-95.98 -301.47)"/><path class="cls-6" d="M329.84,447.7a.23.23,0,0,1,.06-.3l1.13-1.09a.22.22,0,0,1,.3-.05c.07.07,0,.21-.06.3l-1.13,1.1a.22.22,0,0,1-.3,0Z" transform="translate(-95.98 -301.47)"/><path class="cls-6" d="M326.64,450.69a.2.2,0,0,1,0-.28l.87-1.12a.18.18,0,1,1,.27.22l-.86,1.12a.21.21,0,0,1-.28.06Z" transform="translate(-95.98 -301.47)"/><path class="cls-6" d="M326.07,450.24a.21.21,0,0,1,0-.29l.87-1.11a.21.21,0,0,1,.28-.07.22.22,0,0,1,0,.29l-.87,1.12a.2.2,0,0,1-.27.06Z" transform="translate(-95.98 -301.47)"/><path class="cls-5" d="M318.44,448a.21.21,0,0,1,0-.28l.79-1.18a.2.2,0,0,1,.26-.09.21.21,0,0,1,0,.29l-.78,1.18a.2.2,0,0,1-.27.08Z" transform="translate(-95.98 -301.47)"/><path class="cls-5" d="M317.83,447.55a.21.21,0,0,1,0-.28l.79-1.18a.21.21,0,0,1,.27-.09.21.21,0,0,1,0,.29l-.78,1.18a.2.2,0,0,1-.27.08Z" transform="translate(-95.98 -301.47)"/><path class="cls-5" d="M314.57,452.52a.2.2,0,0,1-.05-.28l.7-1.23a.2.2,0,0,1,.27-.1.21.21,0,0,1,0,.28l-.7,1.23a.2.2,0,0,1-.26.1Z" transform="translate(-95.98 -301.47)"/><path class="cls-5" d="M313.93,452.16a.22.22,0,0,1,0-.29l.7-1.23a.2.2,0,0,1,.26-.1.19.19,0,0,1,0,.28l-.7,1.23a.21.21,0,0,1-.26.11Z" transform="translate(-95.98 -301.47)"/><path class="cls-5" d="M312.52,457.86a.21.21,0,0,1-.06-.28l.64-1.26c.06-.11.17-.17.26-.12a.21.21,0,0,1,.06.28l-.64,1.26a.21.21,0,0,1-.26.12Z" transform="translate(-95.98 -301.47)"/><path class="cls-5" d="M311.87,457.52a.2.2,0,0,1-.06-.28l.64-1.26a.18.18,0,1,1,.32.16l-.65,1.26c-.05.11-.17.17-.25.12Z" transform="translate(-95.98 -301.47)"/><path class="cls-5" d="M324.32,445.15a.18.18,0,0,1-.05-.23l.57-.8a.16.16,0,0,1,.23,0,.16.16,0,0,1,.05.22l-.56.81a.19.19,0,0,1-.24,0Z" transform="translate(-95.98 -301.47)"/><path class="cls-5" d="M323.73,444.72a.18.18,0,0,1-.05-.24l.56-.79a.18.18,0,0,1,.24,0,.17.17,0,0,1,0,.23l-.57.8a.17.17,0,0,1-.23,0Z" transform="translate(-95.98 -301.47)"/><path class="cls-5" d="M333,460.81a.2.2,0,0,1,.08-.27l1.17-.81a.2.2,0,0,1,.28,0,.21.21,0,0,1-.09.28l-1.16.8a.2.2,0,0,1-.28,0Z" transform="translate(-95.98 -301.47)"/><path class="cls-5" d="M332.63,460.21a.21.21,0,0,1,.08-.28l1.16-.8a.18.18,0,1,1,.2.29l-1.16.81a.2.2,0,0,1-.28,0Z" transform="translate(-95.98 -301.47)"/><path class="cls-5" d="M328.61,463.3a.21.21,0,0,1,.1-.27l1.22-.72a.21.21,0,0,1,.28,0,.2.2,0,0,1-.1.27l-1.22.72a.21.21,0,0,1-.28,0Z" transform="translate(-95.98 -301.47)"/><path class="cls-5" d="M328.24,462.66a.2.2,0,0,1,.11-.26l1.21-.72a.22.22,0,0,1,.29,0,.22.22,0,0,1-.11.27l-1.22.71a.19.19,0,0,1-.28,0Z" transform="translate(-95.98 -301.47)"/><path class="cls-5" d="M323.74,465.71a.16.16,0,0,1,.08-.21l.92-.59a.16.16,0,0,1,.22,0,.16.16,0,0,1-.07.21l-.93.59a.17.17,0,0,1-.22,0Z" transform="translate(-95.98 -301.47)"/><path class="cls-5" d="M323.44,465.23a.16.16,0,0,1,.08-.21l.92-.59a.16.16,0,0,1,.22,0,.16.16,0,0,1-.07.21l-.93.59a.16.16,0,0,1-.22,0Z" transform="translate(-95.98 -301.47)"/><path class="cls-5" d="M338.06,457.79a.17.17,0,0,1,0-.24l.78-.59a.16.16,0,0,1,.23.05.17.17,0,0,1,0,.23l-.78.59a.17.17,0,0,1-.23,0Z" transform="translate(-95.98 -301.47)"/><path class="cls-5" d="M337.62,457.2a.17.17,0,0,1,0-.24l.78-.59a.17.17,0,0,1,.23.05.16.16,0,0,1,0,.23l-.78.6a.17.17,0,0,1-.23-.05Z" transform="translate(-95.98 -301.47)"/><path class="cls-6" d="M321.53,454.07a.22.22,0,0,1,0-.29l.8-1.17a.19.19,0,0,1,.27-.08.2.2,0,0,1,0,.28l-.8,1.17a.2.2,0,0,1-.26.09Z" transform="translate(-95.98 -301.47)"/><path class="cls-6" d="M320.92,453.65a.2.2,0,0,1,0-.28l.79-1.17a.18.18,0,1,1,.29.2l-.79,1.17a.2.2,0,0,1-.27.08Z" transform="translate(-95.98 -301.47)"/><path class="cls-6" d="M318.14,459.52a.21.21,0,0,1,0-.28l.74-1.21a.2.2,0,0,1,.26-.1.21.21,0,0,1,0,.29l-.74,1.21a.19.19,0,0,1-.26.09Z" transform="translate(-95.98 -301.47)"/><path class="cls-6" d="M317.51,459.14a.2.2,0,0,1,0-.28l.73-1.21a.21.21,0,0,1,.27-.1.2.2,0,0,1,0,.28l-.73,1.21a.2.2,0,0,1-.27.1Z" transform="translate(-95.98 -301.47)"/><polygon class="cls-20" points="165 191.24 165.47 218.94 194.37 218.94 194.37 191.37 165 191.24 165 191.24"/><polygon class="cls-20" points="243.46 190.53 215.17 191.37 215.17 218.94 243.68 218.94 243.46 190.53 243.46 190.53"/><polygon class="cls-21" points="186.12 71.84 187.86 69.34 190.87 69.8 188.38 68.05 188.84 65.04 187.09 67.53 184.08 67.08 186.57 68.83 186.12 71.84 186.12 71.84"/></svg>