<svg id="Layer_1" data-name="Layer 1" xmlns="http://www.w3.org/2000/svg" viewBox="0 0 60.67 60.67"><defs><style>.cls-1{fill:none;}.cls-2{fill:#fff;}</style></defs><rect class="cls-1" width="60.67" height="60.67"/><path class="cls-2" d="M291.77,425.22l5.87-4.45,5.84,4.45L301.25,418l5.87-4.65h-7.18l-2.3-7.1-2.3,7.1h-7.18L294,418Zm26.09-9.33a20.22,20.22,0,1,0-35.39,13.35v19.51l15.17-5.06,15.16,5.06V429.24A20.12,20.12,0,0,0,317.86,415.89Zm-20.22-15.17a15.17,15.17,0,1,1-15.17,15.17A15.18,15.18,0,0,1,297.64,400.72Zm0,37.92-10.11,2.58v-7.84a20.09,20.09,0,0,0,20.22,0v7.84Z" transform="translate(-267.3 -390.61)"/></svg>