<svg id="Layer_1" data-name="Layer 1" xmlns="http://www.w3.org/2000/svg" viewBox="0 0 44.4 48.19"><defs><style>.cls-1{fill:#3374c1;}.cls-2{fill:#fff;}</style></defs><rect class="cls-1" width="44.4" height="48.19" rx="9.05"/><path class="cls-2" d="M31.44,23.2a.21.21,0,0,0-.13-.05h-.92a1.86,1.86,0,0,0-.34-.77H31.3a.17.17,0,0,0,.12-.05.13.13,0,0,0,0-.12v-.55a.17.17,0,0,0-.17-.17H26.83a.13.13,0,0,0-.12.05.17.17,0,0,0-.05.12v.71a.17.17,0,0,0,.05.12.17.17,0,0,0,.12.06h.78q1.14,0,1.44.6H26.83a.17.17,0,0,0-.17.17v.55a.21.21,0,0,0,.05.13.16.16,0,0,0,.12,0h2.3a1.09,1.09,0,0,1-.55.68,2.5,2.5,0,0,1-1.15.23h-.6a.16.16,0,0,0-.12.05.17.17,0,0,0-.05.12v.68a.17.17,0,0,0,.05.12q1,1.09,2.67,3.06a.16.16,0,0,0,.14.07h1.05a.15.15,0,0,0,.15-.1.14.14,0,0,0,0-.18c-1.05-1.28-1.87-2.24-2.47-2.88a2.75,2.75,0,0,0,1.49-.59A2,2,0,0,0,30.41,24h.9a.15.15,0,0,0,.17-.17v-.55A.16.16,0,0,0,31.44,23.2Z" transform="translate(-5.55 -2.35)"/><path class="cls-2" d="M32.76,28.41a.26.26,0,0,0-.29.23,3.59,3.59,0,0,1-7,.52l.31.18a.26.26,0,0,0,.25-.46l-.8-.44a.26.26,0,0,0-.36.1l-.44.8a.27.27,0,0,0,.11.36.25.25,0,0,0,.35-.11l.1-.18a4.12,4.12,0,0,0,8-.71A.25.25,0,0,0,32.76,28.41Z" transform="translate(-5.55 -2.35)"/><g id="Smartphone"><path class="cls-2" d="M34.11,11.81H22.81a2.37,2.37,0,0,0-2.35,2.36V38.68A2.35,2.35,0,0,0,22.81,41h11.3a2.35,2.35,0,0,0,2.35-2.35V14.17A2.36,2.36,0,0,0,34.11,11.81Zm-2.34,1-.28,1.39H25.76l-.28-1.39Zm3.65,25.72A1.4,1.4,0,0,1,34,40H22.9a1.41,1.41,0,0,1-1.4-1.41V14.32A1.47,1.47,0,0,1,23,12.86h1.54l.42,2.06a.46.46,0,0,0,.46.37h6.84a.46.46,0,0,0,.46-.37l.41-2.06H34a1.4,1.4,0,0,1,1.39,1.4Z" transform="translate(-5.55 -2.35)"/><path class="cls-2" d="M25.81,38.25H23a.45.45,0,0,0-.47.46.68.68,0,0,0,.47.58h2.81a.68.68,0,0,0,.47-.58A.45.45,0,0,0,25.81,38.25Z" transform="translate(-5.55 -2.35)"/><path class="cls-2" d="M27.68,38.25h-.47a.45.45,0,0,0-.46.46.69.69,0,0,0,.46.58h.47a.68.68,0,0,0,.47-.58A.45.45,0,0,0,27.68,38.25Z" transform="translate(-5.55 -2.35)"/></g></svg>