<svg id="Layer_1" data-name="Layer 1" xmlns="http://www.w3.org/2000/svg" viewBox="0 0 121 50"><defs><style>.cls-1{fill:#fff;}.cls-2{fill:#2b3972;}.cls-3{fill:#1d1d63;}</style></defs><circle class="cls-1" cx="25" cy="25" r="24.38"/><path class="cls-2" d="M38.52,96.42a25,25,0,1,1,25-25A25,25,0,0,1,38.52,96.42Zm0-48.75A23.76,23.76,0,1,0,62.27,71.42,23.77,23.77,0,0,0,38.52,47.67Z" transform="translate(-13.52 -46.42)"/><circle class="cls-3" cx="25" cy="16.46" r="7.74"/><path class="cls-3" d="M21.23,26.07h7.84a8.33,8.33,0,0,1,8.33,8.33v7.33a0,0,0,0,1,0,0H12.9a0,0,0,0,1,0,0V34.4A8.33,8.33,0,0,1,21.23,26.07Z"/><circle class="cls-1" cx="96" cy="25" r="24.38"/><path class="cls-2" d="M109.52,96.42a25,25,0,1,1,25-25A25,25,0,0,1,109.52,96.42Zm0-48.75a23.76,23.76,0,1,0,23.75,23.75A23.77,23.77,0,0,0,109.52,47.67Z" transform="translate(-13.52 -46.42)"/><circle class="cls-3" cx="96" cy="16.46" r="7.74"/><path class="cls-3" d="M92.23,26.07h7.84a8.33,8.33,0,0,1,8.33,8.33v7.33a0,0,0,0,1,0,0H83.9a0,0,0,0,1,0,0V34.4A8.33,8.33,0,0,1,92.23,26.07Z"/><rect class="cls-1" x="42.83" y="25" width="32" height="3"/></svg>