<svg xmlns="http://www.w3.org/2000/svg" viewBox="0 0 65.11 32.56"><defs><style>.cls-1{fill:#fff;}</style></defs><g id="Layer_2" data-name="Layer 2"><g id="Layer_1-2" data-name="Layer 1"><path class="cls-1" d="M2.94,15.53v0H3l2.2.41q6,1.15,12,2.69a162.32,162.32,0,0,1,17.71,5.71c4.31,1.65,8.56,3.44,12.8,5.25l6.78,2.88.12.05a.63.63,0,0,0-.22-.18c-2.24-1.36-4.48-2.72-6.73-4.06s-4.53-2.69-6.8-4c-2.56-1.5-5.11-3-7.68-4.49S28.27,17,25.81,15.63a.82.82,0,0,0-.38-.09H2.94Zm24.59,8.26,0,0-6-1.89a.48.48,0,0,0-.29,0c-1.23.48-2.47.94-3.69,1.45a38.51,38.51,0,0,0-6.23,3.27,24.87,24.87,0,0,0-5.38,4.65c-.22.25-.42.51-.66.8H15.36A.34.34,0,0,0,15.6,32,16.35,16.35,0,0,1,18,29.45a29.52,29.52,0,0,1,6.19-4.12C25.29,24.78,26.42,24.3,27.53,23.79ZM0,0V10.91H2.68V2.41h.11c1.16,0,2.33,0,3.49,0a1.92,1.92,0,0,1,1.38.52A2.07,2.07,0,0,1,8,5.14,1.79,1.79,0,0,1,6.3,6.28H3.66V8.56h.27c.73,0,1.46,0,2.19.06a1.79,1.79,0,0,1,1.54,1,2.81,2.81,0,0,1,.26,1.17V13.3h2.85v-.11c0-1,0-2,0-3a2.81,2.81,0,0,0-.07-.65,2.76,2.76,0,0,0-2-2.06l-.11,0L9,7.23a3.62,3.62,0,0,0,1.23-5.69A4.5,4.5,0,0,0,6.74,0C4.55,0,2.37,0,.18,0ZM34.86,18.46v.06l.06,0,6.68,3.93a.26.26,0,0,0,.27,0c2.78-1.11,5.57-2.19,8.4-3.14,4.41-1.49,8.9-2.69,13.41-3.81L65,15.23c-.82,0-1.64.08-2.46.14L58,15.7l-4.83.4c-1.37.12-2.75.26-4.13.4s-3,.32-4.5.5-3,.38-4.52.61C38.31,17.87,36.59,18.18,34.86,18.46Zm-.53-7.54h4.93a4.92,4.92,0,0,0,2.23-.5,4.22,4.22,0,0,0,2.17-2.21,4.07,4.07,0,0,0-.43-3.92A3.87,3.87,0,0,0,40,2.41c-.64,0-1.28,0-1.92,0h0V4.7c.41,0,.8,0,1.19,0a2.11,2.11,0,0,1,.61.1A2,2,0,0,1,41.11,6.9a1.9,1.9,0,0,1-1.88,1.71H37.11V0H34.33ZM56.32,0v10.9H59.1V7.54c.47,0,.91,0,1.35,0a1.93,1.93,0,0,1,1.89,2.06v1.16a.66.66,0,0,0,0,.14H65.1c0-.61,0-1.21,0-1.79a2.81,2.81,0,0,0-1.61-2.41c-.26-.13-.54-.23-.82-.35L63,6.23a2.83,2.83,0,0,0,1.68-1.46A4.61,4.61,0,0,0,65,3.17c0-.25,0-.5,0-.76H62.28c0,.17,0,.32,0,.47A7.83,7.83,0,0,1,62.11,4a1.62,1.62,0,0,1-1.57,1.25c-.46,0-.93,0-1.39,0l-.06,0V0ZM19.49,32l0,0h9.17a.29.29,0,0,0,.25-.14,16.3,16.3,0,0,1,1.9-2.4,23.3,23.3,0,0,1,3.27-2.76l.54-.4-.06,0-4.72-1.75a.39.39,0,0,0-.24,0,31.61,31.61,0,0,0-5.71,3.25,23.54,23.54,0,0,0-3.83,3.43C19.88,31.51,19.69,31.77,19.49,32ZM32.42,8.58H27.51A2.33,2.33,0,0,1,27,8.52,2,2,0,0,1,25.61,6.4a2,2,0,0,1,1.93-1.73h2.05l.15,0L28,7.65h2.58a.26.26,0,0,0,.16-.1L32.35,5a.48.48,0,0,0,.07-.24V2.55s0-.09,0-.15h-.22c-1.69,0-3.38,0-5.07,0a4.25,4.25,0,1,0,0,8.49h5.29ZM21.54,2.44h-.16c-1.73,0-3.46,0-5.19,0a4.25,4.25,0,1,0,.07,8.49h5.26V8.61H16.73a2.17,2.17,0,0,1-.36,0,2,2,0,0,1,.34-3.92h2.15l-1.78,3h2.51a.27.27,0,0,0,.25-.13q.73-1.18,1.5-2.34a1.18,1.18,0,0,0,.2-.71C21.53,3.82,21.54,3.14,21.54,2.44Zm28.52,8.79c.47-.06,1-.1,1.43-.2a4.59,4.59,0,0,0,2.67-1.59,4.19,4.19,0,0,0,.9-3.23A4,4,0,0,0,52.79,2.9a6.16,6.16,0,0,0-5-.23A4,4,0,0,0,45.07,6a4.11,4.11,0,0,0,1.57,4.12A5.58,5.58,0,0,0,50.06,11.23Z"/><path d="M2.94,15.53H25.43a.82.82,0,0,1,.38.09c2.46,1.39,4.92,2.77,7.38,4.18s5.12,3,7.68,4.49q3.41,2,6.8,4c2.25,1.34,4.49,2.7,6.73,4.06a.63.63,0,0,1,.22.18l-.12-.05-6.78-2.88c-4.24-1.81-8.49-3.6-12.8-5.25a162.32,162.32,0,0,0-17.71-5.71q-6-1.55-12-2.69L3,15.57H2.93Z"/><path d="M27.53,23.79c-1.11.51-2.24,1-3.33,1.54A29.52,29.52,0,0,0,18,29.45,16.35,16.35,0,0,0,15.6,32a.34.34,0,0,1-.24.09H5.22c.24-.29.44-.55.66-.8a24.87,24.87,0,0,1,5.38-4.65,38.51,38.51,0,0,1,6.23-3.27c1.22-.51,2.46-1,3.69-1.45a.48.48,0,0,1,.29,0l6,1.89Z"/><path d="M0,0H.18C2.37,0,4.55,0,6.74,0a4.5,4.5,0,0,1,3.49,1.53A3.62,3.62,0,0,1,9,7.23l-.46.2.11,0a2.76,2.76,0,0,1,2,2.06,2.81,2.81,0,0,1,.07.65c0,1,0,2,0,3v.11H7.92V10.82a2.81,2.81,0,0,0-.26-1.17,1.79,1.79,0,0,0-1.54-1c-.73-.06-1.46,0-2.19-.06H3.66V6.28H6.3A1.79,1.79,0,0,0,8,5.14a2.07,2.07,0,0,0-.38-2.21,1.92,1.92,0,0,0-1.38-.52c-1.16,0-2.33,0-3.49,0H2.68v8.5H0Z"/><path d="M34.86,18.46c1.73-.28,3.45-.59,5.18-.85,1.51-.23,3-.42,4.52-.61s3-.34,4.5-.5,2.76-.28,4.13-.4L58,15.7l4.54-.33c.82-.06,1.64-.11,2.46-.14l-1.35.33c-4.51,1.12-9,2.32-13.41,3.81-2.83.95-5.62,2-8.4,3.14a.26.26,0,0,1-.27,0l-6.68-3.93-.06,0Z"/><path d="M34.33,10.92V0h2.78V8.61h2.12A1.9,1.9,0,0,0,41.11,6.9a2,2,0,0,0-1.24-2.09,2.11,2.11,0,0,0-.61-.1c-.39,0-.78,0-1.19,0V2.42h0c.64,0,1.28,0,1.92,0a3.87,3.87,0,0,1,3.21,1.88,4.07,4.07,0,0,1,.43,3.92,4.22,4.22,0,0,1-2.17,2.21,4.92,4.92,0,0,1-2.23.5H34.33Z"/><path d="M56.32,0h2.77V5.19l.06,0c.46,0,.93,0,1.39,0A1.62,1.62,0,0,0,62.11,4a7.83,7.83,0,0,0,.17-1.08c0-.15,0-.3,0-.47H65c0,.26,0,.51,0,.76a4.61,4.61,0,0,1-.32,1.6A2.83,2.83,0,0,1,63,6.23l-.37.13c.28.12.56.22.82.35a2.81,2.81,0,0,1,1.61,2.41c0,.58,0,1.18,0,1.79H62.35a.66.66,0,0,1,0-.14V9.61a1.93,1.93,0,0,0-1.89-2.06c-.44,0-.88,0-1.35,0v3.37H56.32Z"/><path d="M19.49,32c.2-.25.39-.51.6-.75a23.54,23.54,0,0,1,3.83-3.43,31.61,31.61,0,0,1,5.71-3.25.39.39,0,0,1,.24,0l4.72,1.75.06,0-.54.4a23.3,23.3,0,0,0-3.27,2.76,16.3,16.3,0,0,0-1.9,2.4.29.29,0,0,1-.25.14H19.52Z"/><path d="M32.42,8.58v2.3H27.13a4.25,4.25,0,1,1,0-8.49c1.69,0,3.38,0,5.07,0h.22c0,.06,0,.1,0,.15V4.72a.48.48,0,0,1-.07.24L30.7,7.54a.26.26,0,0,1-.16.1H28l1.78-3-.15,0H27.54A2,2,0,0,0,25.61,6.4,2,2,0,0,0,27,8.52a2.33,2.33,0,0,0,.53.06h4.91Z"/><path d="M21.54,2.44c0,.7,0,1.38,0,2.06a1.18,1.18,0,0,1-.2.71q-.77,1.16-1.5,2.34a.27.27,0,0,1-.25.13H17.08l1.78-3H16.71a2,2,0,0,0-.34,3.92,2.17,2.17,0,0,0,.36,0h4.79v2.3H16.26a4.25,4.25,0,1,1-.07-8.49c1.73,0,3.46,0,5.19,0Z"/><path d="M50.06,11.23a5.58,5.58,0,0,1-3.42-1.16A4.11,4.11,0,0,1,45.07,6,4,4,0,0,1,47.8,2.67a6.16,6.16,0,0,1,5,.23,4,4,0,0,1,2.27,3.31,4.19,4.19,0,0,1-.9,3.23A4.59,4.59,0,0,1,51.49,11C51,11.13,50.53,11.17,50.06,11.23ZM52.3,6.74a2.27,2.27,0,1,0-4.54,0,2.27,2.27,0,1,0,4.54,0Z"/><path class="cls-1" d="M52.3,6.74a2.27,2.27,0,1,1-4.54,0,2.27,2.27,0,1,1,4.54,0Z"/></g></g></svg>