<svg id="Layer_1" data-name="Layer 1" xmlns="http://www.w3.org/2000/svg" xmlns:xlink="http://www.w3.org/1999/xlink" viewBox="0 0 206.82 171.57"><defs><style>.cls-1{fill:#f47458;}.cls-2{fill:#e5941f;}.cls-3{fill:#9bc1f9;}.cls-4{fill:#466eb6;}.cls-5{fill:#f48c7f;}.cls-6{fill:#184655;}.cls-7{fill:#f7a491;}.cls-8{fill:#172f66;}.cls-9{fill:#243b7c;}.cls-10{fill:#eaa43f;}.cls-11{fill:#ffc05c;}.cls-12{fill:#f8a492;}.cls-13{fill:#3c8f7c;}.cls-14{fill:#7a1005;}.cls-15{fill:#931d0a;}.cls-16{fill:#dd2f76;}.cls-17{fill:#51342d;}.cls-18{fill:#f94b8a;}.cls-19{fill:#355389;}.cls-20{fill:#86b1f2;}.cls-21{fill:#1ac699;}.cls-22{fill:#fff;}.cls-23{fill:#96d9c9;}.cls-24{fill:#f94b3e;}.cls-25{fill:#ffe85f;}.cls-26{fill:#f7cc7f;}.cls-27{fill:#50bfa5;}.cls-28{fill:#e5543c;}</style></defs><path class="cls-1" d="M321.84,339.82l-1.4-2H318a.34.34,0,0,1-.27-.55l1.5-2-.77-2.35a.35.35,0,0,1,.44-.43l2.33.82,2-1.46a.35.35,0,0,1,.54.29l-.06,2.47,2,1.45a.34.34,0,0,1-.1.6l-2.37.71-.76,2.35a.34.34,0,0,1-.6.09Z" transform="translate(-203.61 -258.14)"/><path class="cls-2" d="M387.06,295l1.31-3-1.75-2.78a.45.45,0,0,1,.42-.69l3.28.31,2.1-2.52a.45.45,0,0,1,.79.19l.72,3.2,3.05,1.23a.45.45,0,0,1,.06.81l-2.83,1.67L394,296.7a.45.45,0,0,1-.75.31l-2.47-2.17-3.18.8a.45.45,0,0,1-.53-.62Z" transform="translate(-203.61 -258.14)"/><path class="cls-3" d="M216.88,378l-1.67-3.2-3.59-.43a.5.5,0,0,1-.29-.84l2.53-2.58-.7-3.54a.49.49,0,0,1,.71-.54l3.23,1.6,3.16-1.75a.49.49,0,0,1,.73.5l-.53,3.57,2.64,2.46a.5.5,0,0,1-.25.86l-3.56.6-1.52,3.27a.5.5,0,0,1-.89,0Z" transform="translate(-203.61 -258.14)"/><polygon class="cls-4" points="204.31 42.95 204.35 44.7 201.55 45.08 201.29 47.64 199.24 48.27 199.56 49.31 202.31 48.47 202.55 46.04 205.47 45.65 205.4 43.02 204.31 42.95 204.31 42.95"/><path class="cls-5" d="M253.73,280.06l.56-9.21a1.34,1.34,0,0,1,1.48-1.25l.91.11a1.33,1.33,0,0,1,1.17,1.53l-1.47,9.11-2.65-.29Zm-1.13,3.14a2.14,2.14,0,0,1,2.39-1.82,2.13,2.13,0,1,1-2.39,1.82Z" transform="translate(-203.61 -258.14)"/><path class="cls-6" d="M246.76,329.55c.06,2.29.65,7.19,5.83,8,3.21.5,7.33-2.39,7.07-4.51s-.86-7.52-4.22-8.76c-2.8-1-8.82.18-8.68,5.27Z" transform="translate(-203.61 -258.14)"/><path class="cls-7" d="M290,403.39c.73,3.08,1.31,7.52,1.52,7.76s.32.9.42,1c3.35,1.21,6.29,0,8.62-1.43a34.09,34.09,0,0,1-4.63-.9c-1.27-.9-1-4.09-1.2-7-.9.16-3.1-.41-4.73.5Z" transform="translate(-203.61 -258.14)"/><path class="cls-4" d="M291.43,411c0,1.22.81,3.81,1.05,3.81s10.34-.88,11.29-2.42c.57-.93-1-1.17-3.23-1.62-2.33,1.39-8.83,1-9.11.23Z" transform="translate(-203.61 -258.14)"/><path class="cls-7" d="M242.23,410.26a47.11,47.11,0,0,1-5,3.42c-.14.06-.95.06-1.1.13-2.06,2.89-1.64,6.06-.93,8.68.8-1.68,1.74-4,2.1-4.22a50.12,50.12,0,0,1,6.44-3.11c-1.27-1.38-1.09-3.09-1.54-4.9Z" transform="translate(-203.61 -258.14)"/><path class="cls-7" d="M247.53,346l-7.18,13.07-7.28,9.15c.53.87,1.05,1.76,1.51,2.68,2.46-2.09,7.69-6.53,9.56-9,2.76-3.62,7.76-12.23,7.76-12.23L247.53,346Z" transform="translate(-203.61 -258.14)"/><path class="cls-8" d="M266.64,368.74,259,380.07s-.44-.76,2.31.25,20.5,4.32,21.55,5.57c.75.89,6.25,18.3,7.31,20.54,1.6.65,3.92-.07,5.56-.31.11-8.39-4.34-23.66-5.52-25.45-2.65-4-15.26-8.32-20.94-10.74-.92-.4-1.63-.75-2.07-1s-.51-.23-.51-.23Z" transform="translate(-203.61 -258.14)"/><path class="cls-4" d="M237.14,413.71c-1.18-.31-3.58-.3-3.64-.07s-1.93,10.2-.7,11.53c.75.79,1.39-.63,2.43-2.68-.71-2.62,1.1-8.72,1.91-8.78Z" transform="translate(-203.61 -258.14)"/><path class="cls-9" d="M264.62,376.72c.07-.86,1.89-5.83,2.53-7.76,0-.06-.45-1.18-1-2.79l-.74.12-10.92.49s-4.4,7.44-3.89,10.85c.71,4.77,7.61,21.71,6.56,22.51-1.89,1.44-11.16,6.81-15.92,10a14.26,14.26,0,0,0,2.32,5.89c3.88-1.34,20.62-8.09,22.35-13.27,1.52-4.58-1.43-24.6-1.32-26Z" transform="translate(-203.61 -258.14)"/><path class="cls-10" d="M264.44,334.94s-3,4.73-4.78,4.9l6.28,5.81s4.27-6.41,4.72-7.51c0,0-3.89-3.47-6.22-3.2Z" transform="translate(-203.61 -258.14)"/><path class="cls-11" d="M266.64,363.51a16.74,16.74,0,0,0,.52,5.45c-2.52.55-11.47,1.69-13.65-1-.08-.09,3.09-5.7,2.66-8a44.23,44.23,0,0,0-3.68-9.4c-.39-.52-1.83,2.14-1.83,2.14-1.67,0-5.52-3.89-5.52-3.89s4-6.92,5.07-7.58,10.13-1.63,10.14-1.63c.66-.05,2.48,1.53,3,2,5.71,5.7,4.17,13.86,3.31,21.84Z" transform="translate(-203.61 -258.14)"/><path class="cls-7" d="M255.25,336.73a25.86,25.86,0,0,1,1,4.58c0,1.32.53,3.13,3.3,2.85s.5-3.06.11-4.32a50.81,50.81,0,0,1-.87-5.22l-3.54,2.11Z" transform="translate(-203.61 -258.14)"/><path class="cls-1" d="M259.06,336.61c-.16-1.09-.27-2-.27-2l-3.54,2.11s.21.67.43,1.52a3.26,3.26,0,0,0,3.38-1.64Z" transform="translate(-203.61 -258.14)"/><path class="cls-7" d="M252.37,326.91a5,5,0,0,0-1.84,2.94c-.37,1.92.77,6.66,4.89,7.4s5.46-3.23,4.33-6.12-3.31-6.48-7.38-4.22Z" transform="translate(-203.61 -258.14)"/><path class="cls-7" d="M260.13,329.92c0,.81-.37,1.46-.84,1.47s-.86-.65-.86-1.46.37-1.46.84-1.47.86.65.86,1.46Z" transform="translate(-203.61 -258.14)"/><path class="cls-7" d="M252.32,333.94c.55.65.63,1.48.19,1.84s-1.23.14-1.78-.51-.62-1.48-.18-1.84,1.23-.14,1.77.51Z" transform="translate(-203.61 -258.14)"/><path class="cls-6" d="M248.15,325.1c.16-2.21,1.72-10.44-3.31-11.22s-6.11,4.72-8.9-2.69c-2.59-6.86-10.28-4.2-10.6,1a4.65,4.65,0,0,0-2.19.34,5,5,0,0,0-2.47,6.6c.17.41.07.82.33,1.16a9.19,9.19,0,0,0,1.57,7.5c4.78,7.2,9.58-.38,12.81,0s1.13,2.94,3.93,4.91,5.06,1.46,9.62-3.93l1.13-1.48a1.92,1.92,0,0,1-1.92-2.22Z" transform="translate(-203.61 -258.14)"/><path class="cls-12" d="M389.68,387.79a42.21,42.21,0,0,0,5.05-2.52c.2-.11,1.06-.74,1.18-.83,2.23,1.33,3,2.45,4.79,4.22-1.3.07-1.85-1-2.34-.88s-2.49,1.4-5.44,3.68c-.51-1.65-2-2.48-3.24-3.67Z" transform="translate(-203.61 -258.14)"/><path class="cls-12" d="M354,413.65a27.9,27.9,0,0,0,1.75,5.29c.06.14.45.24.51.37-1.67,2-2.39,5.26-4.43,6.69.15-1.29,1-3.71,1-4.22s-1-2.69-2.73-6c1.71-.23,2.53-1.12,3.91-2.15Z" transform="translate(-203.61 -258.14)"/><path class="cls-13" d="M355,419.49a1.11,1.11,0,0,1,1.52-.63c.54.34,1.25.71,1.79,1.08a1.2,1.2,0,0,1,.63,1c0,.31-7.17,8.65-8.09,8.77s.78-6.94,1.78-7.66,1.34,0,2.37-2.56Z" transform="translate(-203.61 -258.14)"/><path class="cls-13" d="M395.7,385.28a1.12,1.12,0,0,1-.35-1.61c.43-.47.93-1.11,1.39-1.57a1.18,1.18,0,0,1,1.09-.44c.3.09,7.23,8.6,7.18,9.52s-6.68-2-7.21-3.12.26-1.31-2.1-2.78Z" transform="translate(-203.61 -258.14)"/><path class="cls-14" d="M356.69,382.56s14.06,19,16.51,19.13c2.29.17,20-9.73,20-9.73l-2.3-5.1L376.72,392l-9.9-18.72-10.13,9.32Z" transform="translate(-203.61 -258.14)"/><path class="cls-15" d="M364.78,366.54s2.58.62,4.05,4.54-1,7.19-7.16,12.87c-6,5.54-11.93,10.74-11.93,10.74l4.87,20.05-4.05,3.43s-9.38-20.37-9.65-25.22c-.11-1.86,14.31-23.34,14.31-23.34l9.56-3.07Z" transform="translate(-203.61 -258.14)"/><path class="cls-7" d="M353.9,342l-7.84,4.38-6.22,3s-1.51-5.16-1-7.69a3.12,3.12,0,0,1,.56-1c1-1.53-1.17-3.92-1.17-3.92s-1.32-.38-2.22,1.8a2.33,2.33,0,0,0,.76,3.1s-1.89,6.59-1.09,11.39c.41,2.52,6.7.67,11.71-1.49a54.1,54.1,0,0,0,7.32-3.86L353.9,342Z" transform="translate(-203.61 -258.14)"/><path class="cls-16" d="M355.67,341.25a.81.81,0,0,0-.89-.09c-1,.37-10.38,5.54-10.38,5.54s.84,4.52,3.05,5.91l4.74-1.45,3.63-9.17a.67.67,0,0,0-.15-.74Z" transform="translate(-203.61 -258.14)"/><path class="cls-17" d="M377.34,321.91a8.37,8.37,0,0,0-10.68,1.17,8.8,8.8,0,0,0-6.71.19c-4,1.87-7.53,6.74-4.52,10.28-.64,4.69,2.17,7.42,5.67,7.73,1.9,3.82,8.65,4.21,12.53,1.07a9,9,0,0,0,9.38-1.61,20,20,0,0,1,1.59-1.52c-.22.11,8.94-1.1,8.52-9.18-.43-8.24-10.29-11.41-15.78-8.13Z" transform="translate(-203.61 -258.14)"/><path class="cls-18" d="M361.1,340.62l5.82.32-1,8.13s-2.8,7.82-1.66,11.58,2.25,6.5,2.25,6.5-3.31,3.8-12.59,3c0,0,.12-6.75,0-8.79s-2.5-10.55-2.17-12.47,2.37-7.24,2.9-7.69a8,8,0,0,1,2.64-.67l3.78.06Z" transform="translate(-203.61 -258.14)"/><path class="cls-7" d="M361.38,336.16s-.1.65-.2,1.5a15.64,15.64,0,0,0-.13,3.11c.18,1.3-1,4.71-3.79,4.84s-.06-3.77.15-5.06.21-6,.21-6l3.76,1.57Z" transform="translate(-203.61 -258.14)"/><path class="cls-1" d="M357.64,336.57c0-1.08,0-2,0-2l3.76,1.57s-.11.68-.2,1.54a3.23,3.23,0,0,1-3.54-1.13Z" transform="translate(-203.61 -258.14)"/><path class="cls-7" d="M361.66,326.5a4.79,4.79,0,0,1,2.42,2.23c.82,1.66,1,6.28-2.61,8s-5.8-1.59-5.5-4.51,1.4-6.75,5.69-5.72Z" transform="translate(-203.61 -258.14)"/><path class="cls-7" d="M355.32,331.21c.2.74.71,1.25,1.14,1.13s.62-.81.42-1.55-.71-1.24-1.14-1.12-.62.8-.42,1.54Z" transform="translate(-203.61 -258.14)"/><path class="cls-7" d="M363.65,332.79c-.34.74-.21,1.51.29,1.73s1.16-.18,1.49-.91.2-1.51-.29-1.73-1.16.18-1.49.91Z" transform="translate(-203.61 -258.14)"/><path class="cls-19" d="M278,370.08l-33.55,11.18a4.87,4.87,0,0,1-6.14-3l-22-64.08a4.76,4.76,0,0,1,3-6.06l33.55-11.17a4.86,4.86,0,0,1,6.14,3l22,64.09a4.75,4.75,0,0,1-3,6.05Zm8.07-1.75c-.55-1.59-22.81-66.45-23.79-69.28a8.43,8.43,0,0,0-10.64-5.21L218.46,304.9a8.24,8.24,0,0,0-5.25,10.5L237,384.69a8.44,8.44,0,0,0,10.65,5.21l33.21-11.06a8.26,8.26,0,0,0,5.25-10.51Z" transform="translate(-203.61 -258.14)"/><path class="cls-6" d="M269.43,377.6c.51,1.49-1.84,3.62-5.25,4.75s-6.59.85-7.1-.64,1.84-3.62,5.25-4.76,6.59-.84,7.1.65Z" transform="translate(-203.61 -258.14)"/><path class="cls-19" d="M268.52,377.72c.48,1.4-1.46,3.31-4.34,4.27s-5.61.6-6.09-.8,1.47-3.31,4.35-4.27,5.6-.6,6.08.8Z" transform="translate(-203.61 -258.14)"/><path class="cls-20" d="M378.5,382.71a5.17,5.17,0,0,1-6.26,3.76L334.53,378a5.17,5.17,0,0,1-4-6.09l15.75-69.68a5.17,5.17,0,0,1,6.26-3.76l37.71,8.52a5.17,5.17,0,0,1,4,6.09L378.5,382.71Zm12.3-79.24L353.48,295a9,9,0,0,0-10.86,6.52l-17,75.33a9,9,0,0,0,7,10.56l37.32,8.44a9,9,0,0,0,10.86-6.52l17-75.33a9,9,0,0,0-7-10.56Z" transform="translate(-203.61 -258.14)"/><path class="cls-4" d="M359.94,388.46c-.37,1.62-3.77,2.23-7.6,1.36s-6.65-2.88-6.28-4.5,3.77-2.23,7.6-1.37,6.64,2.88,6.28,4.51Z" transform="translate(-203.61 -258.14)"/><path class="cls-20" d="M359,388.06c-.34,1.53-3.25,2.17-6.48,1.43s-5.59-2.55-5.24-4.08,3.24-2.16,6.48-1.43,5.58,2.56,5.24,4.08Z" transform="translate(-203.61 -258.14)"/><path class="cls-7" d="M366.68,343.05s12.27-3,15-3.48,12.22-3.92,12.59-4.07,1.72-5,2.25-4.68-.82,2.46-.15,2.73,6.38-2.28,6.42-1.82c.08.87-3.43,1.7-3.32,2.1s3.58-1.21,4-.61-3.43,1.21-3.5,1.55,3.7-.11,3.49.61c-.11.39-3.36.31-3.22.76s2.61.9,2.44,1.33-2-.65-3.31-.32-2.37-.1-4.25,1-8.07,5.77-12.47,6.74S368.55,348,368.55,348l-1.87-5Z" transform="translate(-203.61 -258.14)"/><path class="cls-18" d="M363.71,341.16a11.41,11.41,0,0,1,3.21-.22c.55,0,1.34,0,1.94,0,2.21-.06,4.32,0,4.32,0s1.11,5.39.18,6.76c0,0-8.66,1.24-8.46,1.84l-1.19-8.41Z" transform="translate(-203.61 -258.14)"/><path class="cls-7" d="M333.66,341.19l.74-.94a1.85,1.85,0,0,1,1.17-.79c.7-.07.67-.95-.06-.82a6.73,6.73,0,0,0-1.21.3,13.87,13.87,0,0,0,1.5-.86c.14-.55-.67-.76-1.76.05s-.38,3.06-.38,3.06Z" transform="translate(-203.61 -258.14)"/><path class="cls-7" d="M233.51,369.53a8.62,8.62,0,0,0-.95.61s0,0,0-.05.69-.74.7-.74c.7-.54.33-1.11-.33-.76a6.85,6.85,0,0,0-1,.68,8.23,8.23,0,0,0,1.14-1.29c0-.57-.88-.51-1.64.6s.32,2.68.6,3.09a2.15,2.15,0,0,0,.81.86l.17-1.12a1.83,1.83,0,0,1,.85-1.12c.63-.29.33-1.11-.33-.76Z" transform="translate(-203.61 -258.14)"/><path class="cls-7" d="M336.37,337.77s1.74-1.4,2-.8.15,1.88-.11,1.79-.22-1-1-.77c-.21.07-1.25.4-.94-.22Z" transform="translate(-203.61 -258.14)"/><path class="cls-21" d="M366.9,290l-62.59-13.34a6.51,6.51,0,0,1-5-7.73l1.2-5.63a6.51,6.51,0,0,1,7.72-5l62.6,13.34a6.52,6.52,0,0,1,5,7.73l-1.2,5.63a6.51,6.51,0,0,1-7.73,5Z" transform="translate(-203.61 -258.14)"/><polygon class="cls-21" points="152.12 27.22 157.88 35.1 159.73 29.27 152.12 27.22 152.12 27.22"/><path class="cls-22" d="M319.52,267.68a3,3,0,1,1-2.33-3.18,2.79,2.79,0,0,1,2.33,3.18Z" transform="translate(-203.61 -258.14)"/><path class="cls-22" d="M316.66,269.57l-1-.22a3.7,3.7,0,0,0-4.39,2.85l-.41,1.9,8.28,1.76.4-1.9a3.7,3.7,0,0,0-2.84-4.39Z" transform="translate(-203.61 -258.14)"/><path class="cls-22" d="M344.31,274.76c-.59,2.74-5,4.11-9.9,3.07s-8.36-4.1-7.77-6.84,5-4.11,9.89-3.07,8.36,4.1,7.78,6.84Z" transform="translate(-203.61 -258.14)"/><polygon class="cls-22" points="132.63 18.74 129.81 21.4 136.5 19.82 136.25 15.5 132.63 18.74 132.63 18.74"/><path class="cls-22" d="M356.77,276.49l1-.5a.72.72,0,0,0,.38-.84,6.9,6.9,0,0,0-1.26-2.6.74.74,0,0,0-.88-.18l-1.77.86a.73.73,0,0,0-.41.57,9.09,9.09,0,0,0,1.56,6.35,15,15,0,0,0,5.69,4.85.71.71,0,0,0,.73-.08l1.64-1.21a.74.74,0,0,0,.21-.92,5.69,5.69,0,0,0-2.35-2.42.71.71,0,0,0-.83.1l-.61.54a.75.75,0,0,1-.9.06,7.9,7.9,0,0,1-2.56-3.64.74.74,0,0,1,.35-.94Z" transform="translate(-203.61 -258.14)"/><path class="cls-21" d="M295.25,340.31l-9.43-5.74a2,2,0,0,1-.68-2.79l5.73-9.44a2,2,0,0,1,2.79-.68l9.44,5.74a2,2,0,0,1,.68,2.79L298,339.63a2,2,0,0,1-2.79.68Z" transform="translate(-203.61 -258.14)"/><path class="cls-22" d="M300.23,332.59a1.08,1.08,0,0,0-.29-1.5,26.25,26.25,0,0,0-7.65-4.71,1.07,1.07,0,0,0-1.46.44h0a30.25,30.25,0,0,0-1.42,4.66,1.08,1.08,0,0,0,.66,1.26h0a1.09,1.09,0,0,0,1.39-.53l.4-.85a.68.68,0,0,1,.94-.26,22.75,22.75,0,0,1,2.76,1.67.68.68,0,0,1,.21,1l-.57.74a1.08,1.08,0,0,0,.19,1.46h0a1.1,1.1,0,0,0,1.42,0c.41-.37,2.69-2.59,3.42-3.34Z" transform="translate(-203.61 -258.14)"/><path class="cls-23" d="M292.92,327.89a.71.71,0,0,1,.28.29l.32-.52-.68-.41-.31.52a.71.71,0,0,1,.39.12Z" transform="translate(-203.61 -258.14)"/><path class="cls-23" d="M291.86,328.14a.86.86,0,0,1,.29-.28l-.52-.31-.4.67.52.32a.73.73,0,0,1,.11-.4Z" transform="translate(-203.61 -258.14)"/><path class="cls-23" d="M292.12,329.2a.71.71,0,0,1-.28-.29l-.32.52.67.41.32-.52a.69.69,0,0,1-.39-.12Z" transform="translate(-203.61 -258.14)"/><path class="cls-23" d="M293.29,328.55a.83.83,0,0,1-.11.4.89.89,0,0,1-.3.28l.52.31.41-.67-.52-.32Z" transform="translate(-203.61 -258.14)"/><path class="cls-23" d="M292.92,328.79a.48.48,0,0,1-.65.16.47.47,0,1,1,.65-.16Z" transform="translate(-203.61 -258.14)"/><path class="cls-23" d="M298.88,332.48a1,1,0,0,1-1.39.34,1,1,0,0,1-.34-1.39,1,1,0,0,1,1.73,1.05Z" transform="translate(-203.61 -258.14)"/><path class="cls-24" d="M304.14,296.6a4.31,4.31,0,0,1,2.38-2.9,3.45,3.45,0,0,1,4.58,1.87c.95,2.05.38,5.26-3.07,9.42-5.39-.06-8.22-1.69-9.17-3.74a3.46,3.46,0,0,1,1.54-4.71,4.26,4.26,0,0,1,3.74.06Z" transform="translate(-203.61 -258.14)"/><path class="cls-11" d="M238.69,287.82l-12,5.71a2.83,2.83,0,0,1-3.78-1.34l-3.22-6.75a2.84,2.84,0,0,1,1.34-3.78L233,276a2.83,2.83,0,0,1,3.78,1.34L240,284a2.83,2.83,0,0,1-1.34,3.78Z" transform="translate(-203.61 -258.14)"/><polygon class="cls-11" points="18.19 30.37 15.63 38.02 21.33 33.8 18.19 30.37 18.19 30.37"/><path class="cls-22" d="M226,285.55l1.52-.77s1.23-2.38,1-2.91-1-1.46-.8-1.75a1.12,1.12,0,0,1,1.55-.21c.53.35,1.15,2.25,1.39,2.28a9.26,9.26,0,0,0,1.67-.71,1.26,1.26,0,0,1,1.31.11h0a.68.68,0,0,1,.21.82l-.2.45.44.23a.68.68,0,0,1,.3.9l-.17.34.28.12a.67.67,0,0,1,.33.94l-.16.29.07.05a.67.67,0,0,1,.19.89l-.17.27-4,2.05a2.84,2.84,0,0,1-1.21.33l-1.54.49a.34.34,0,0,1-.42-.18L225.89,286a.35.35,0,0,1,.15-.47Z" transform="translate(-203.61 -258.14)"/><path class="cls-25" d="M325.25,304.31c9.06-2.06,17.43.78,18.7,6.35.63,2.79-.63,5.72-3.19,8.22l5.54,7.38-9.19-4.63a25.65,25.65,0,0,1-7.28,2.84c-9.07,2.06-17.44-.79-18.7-6.35s5.05-11.75,14.12-13.81Z" transform="translate(-203.61 -258.14)"/><polygon class="cls-5" points="7.61 72.1 4.62 72.69 5 75.51 2.08 76.23 2.1 78.97 0 79.86 0.45 80.92 3.26 79.73 3.24 77.13 6.27 76.39 5.91 73.61 8.62 73.07 7.61 72.1 7.61 72.1"/><polygon class="cls-26" points="206.82 95.27 205.98 92.34 203.2 92.94 202.25 90.08 199.53 90.33 198.47 88.31 197.45 88.84 198.86 91.54 201.45 91.31 202.44 94.28 205.17 93.69 205.92 96.35 206.82 95.27 206.82 95.27"/><polygon class="cls-27" points="8.11 40.81 6.44 41.32 5.32 38.73 2.78 39.17 1.62 37.37 0.7 37.95 2.25 40.37 4.66 39.95 5.83 42.65 8.34 41.88 8.11 40.81 8.11 40.81"/><path class="cls-7" d="M273.69,309.46a6.28,6.28,0,0,0-2.62-.94c-.68-.06-3.64,0-4,.66s2.73,2.73,2.89,3.57-1.8,13.85-2.36,16.44a35.23,35.23,0,0,1-2.38,5.78,11.63,11.63,0,0,1,4.38,2.28c1.44-3.14,2.91-6.68,3.09-8.35.37-3.36,1.61-19,1-19.44Z" transform="translate(-203.61 -258.14)"/><path class="cls-4" d="M276,291.07a39.89,39.89,0,0,1,6-3.11,8.13,8.13,0,0,1,.65,3.42c-.84-.07-4.59,0-6.67-.31Zm6.27-4.06c-1-.09-6.29,3.94-6.29,3.94l-.24.31s7.13,1.21,7.46,1c.91-.6-.1-5.16-.93-5.23Z" transform="translate(-203.61 -258.14)"/><path class="cls-4" d="M269.79,284.91c-.14-.77,1.84-2.41,2.48-2.62a1.31,1.31,0,0,1,.39,0c.11,0,.55.26,1.09,1.7a27.59,27.59,0,0,1,1.19,6.64c-2.27-1.9-5-5-5.15-5.71Zm4.78-1.24c-.91-2.44-1.81-2.33-2.44-2.25s-3.47,2.1-3.21,3.65,5.95,6.06,5.95,6.06l.38-.43s.23-4.59-.68-7Z" transform="translate(-203.61 -258.14)"/><path class="cls-4" d="M274.92,292.09l.31.09a.59.59,0,0,0,.72-.4l.26-.91a.59.59,0,0,0-.4-.72l-.31-.08a.58.58,0,0,0-.72.39l-.26.91a.6.6,0,0,0,.4.72Z" transform="translate(-203.61 -258.14)"/><path class="cls-28" d="M280.7,312l-19.62-5.6a2.1,2.1,0,0,1-1.47-2.46l3.47-16.06,25.56,7.3-5.76,16.11a1.73,1.73,0,0,1-2.18.71Z" transform="translate(-203.61 -258.14)"/><path class="cls-11" d="M288.71,299,261,291.08l.22-1.87a1.81,1.81,0,0,1,2.31-1.54l25.09,7.24c.89.26,1.43,1,1.17,1.62l-1,2.42Z" transform="translate(-203.61 -258.14)"/><polygon class="cls-4" points="71.18 36.87 70.65 36.72 71.73 32.94 72.26 33.09 71.18 36.87 71.18 36.87"/><polygon class="cls-4" points="67.79 51.26 67.13 51.07 71.19 36.86 71.85 37.05 67.79 51.26 67.79 51.26"/><path class="cls-7" d="M268.63,309.44l.07-.84c-.67-.19-1.45-.47-1.85-.63l-.11-.64c-.35-.88-.74-.25-.86-.05a4.79,4.79,0,0,0,.1,1.25s1.33,1.4,1.89,1.92c.28.27,1.17,1,1.17,1l.71-1-1.12-1Z" transform="translate(-203.61 -258.14)"/><image width="1112" height="1114" transform="translate(115.96 51.01) rotate(-10.97) scale(0.01)" xlink:href="logo2.png"/></svg>