<svg id="Layer_1" data-name="Layer 1" xmlns="http://www.w3.org/2000/svg" xmlns:xlink="http://www.w3.org/1999/xlink" viewBox="0 0 42.9 42.9"><defs><style>.cls-1{fill:url(#linear-gradient);}.cls-2{fill:url(#linear-gradient-2);}.cls-3{fill:url(#linear-gradient-3);}.cls-4{fill:url(#linear-gradient-4);}.cls-5{fill:url(#linear-gradient-5);}.cls-6{fill:url(#linear-gradient-6);}</style><linearGradient id="linear-gradient" x1="21.33" y1="37.02" x2="28.87" y2="37.02" gradientUnits="userSpaceOnUse"><stop offset="0" stop-color="#37a9e5"/><stop offset="1" stop-color="#3d53b9"/></linearGradient><linearGradient id="linear-gradient-2" x1="13.79" y1="39.53" x2="36.41" y2="39.53" xlink:href="#linear-gradient"/><linearGradient id="linear-gradient-3" x1="41.61" y1="57.29" x2="49.15" y2="57.29" xlink:href="#linear-gradient"/><linearGradient id="linear-gradient-4" x1="34.07" y1="59.81" x2="56.69" y2="59.81" xlink:href="#linear-gradient"/><linearGradient id="linear-gradient-5" x1="18.82" y1="59.9" x2="31.91" y2="59.9" xlink:href="#linear-gradient"/><linearGradient id="linear-gradient-6" x1="38.41" y1="39.27" x2="51.49" y2="39.27" xlink:href="#linear-gradient"/></defs><path class="cls-1" d="M28.87,37a3.77,3.77,0,1,0-3.77,3.77A3.77,3.77,0,0,0,28.87,37ZM25.1,38.27A1.26,1.26,0,1,1,26.36,37,1.26,1.26,0,0,1,25.1,38.27Z" transform="translate(-13.79 -28.22)"/><path class="cls-2" d="M25.1,28.22A11.31,11.31,0,1,0,36.41,39.53,11.32,11.32,0,0,0,25.1,28.22ZM21.33,47.48v-.41a3.77,3.77,0,1,1,7.54,0v.41a8.79,8.79,0,0,1-7.54,0Zm9.93-1.67a6.28,6.28,0,0,0-12.31,0,8.8,8.8,0,1,1,12.31,0Z" transform="translate(-13.79 -28.22)"/><path class="cls-3" d="M49.15,57.29a3.77,3.77,0,1,0-3.77,3.77A3.77,3.77,0,0,0,49.15,57.29Zm-3.77,1.26a1.26,1.26,0,1,1,1.25-1.26A1.26,1.26,0,0,1,45.38,58.55Z" transform="translate(-13.79 -28.22)"/><path class="cls-4" d="M45.38,48.5A11.31,11.31,0,1,0,56.69,59.81,11.32,11.32,0,0,0,45.38,48.5ZM41.61,67.75v-.4a3.77,3.77,0,1,1,7.54,0v.4a8.79,8.79,0,0,1-7.54,0Zm9.92-1.67a6.28,6.28,0,0,0-12.31,0,8.81,8.81,0,1,1,12.31,0Z" transform="translate(-13.79 -28.22)"/><path class="cls-5" d="M25.84,59.64l1.25,1.26h-4.5a1.27,1.27,0,0,1-1.26-1.26V53.36H18.82v6.28a3.77,3.77,0,0,0,3.77,3.77h4.5l-1.25,1.26,1.78,1.77,4.29-4.29-4.29-4.29Z" transform="translate(-13.79 -28.22)"/><path class="cls-6" d="M44.47,39.53l-1.25-1.26h4.5A1.26,1.26,0,0,1,49,39.53v6.28h2.51V39.53a3.77,3.77,0,0,0-3.77-3.77h-4.5l1.25-1.26L42.7,32.73,38.41,37l4.29,4.29Z" transform="translate(-13.79 -28.22)"/></svg>