<svg id="Layer_1" data-name="Layer 1" xmlns="http://www.w3.org/2000/svg" xmlns:xlink="http://www.w3.org/1999/xlink" viewBox="0 0 45.41 45.41"><defs><style>.cls-1{fill:url(#linear-gradient);}.cls-2{fill:url(#linear-gradient-2);}.cls-3{fill:url(#linear-gradient-3);}</style><linearGradient id="linear-gradient" x1="12.53" y1="61.74" x2="57.95" y2="61.74" gradientUnits="userSpaceOnUse"><stop offset="0" stop-color="#37a9e5"/><stop offset="1" stop-color="#3d53b9"/></linearGradient><linearGradient id="linear-gradient-2" x1="27.79" y1="38.05" x2="49.96" y2="38.05" xlink:href="#linear-gradient"/><linearGradient id="linear-gradient-3" x1="36.04" y1="38.05" x2="41.72" y2="38.05" xlink:href="#linear-gradient"/></defs><path class="cls-1" d="M55.19,51.32a4,4,0,0,0-4.53,1.38l-5,6.48s0-.07,0-.11a4.44,4.44,0,0,0-4.44-4.43h-8.8a9,9,0,0,0-10-1.14v-.19A1.34,1.34,0,0,0,21.14,52H13.86a1.34,1.34,0,0,0-1.33,1.34V71.05a1.34,1.34,0,0,0,1.33,1.33h7.28a1.34,1.34,0,0,0,1.33-1.33V69.71H44.28a9.26,9.26,0,0,0,7.83-4.27l5.19-8.08a4.1,4.1,0,0,0,.65-2.2,4,4,0,0,0-2.76-3.84ZM19.81,69.71H15.19V54.64h4.62ZM55.06,55.92,49.87,64a6.62,6.62,0,0,1-5.59,3H22.47V56.65l.44-.32a6.39,6.39,0,0,1,8.13.6,1.34,1.34,0,0,0,.92.37h9.31a1.77,1.77,0,1,1,0,3.54H31.78a1.34,1.34,0,0,0,0,2.67H42.46a6.69,6.69,0,0,0,5.28-2.62l5-6.58a1.41,1.41,0,0,1,2.52.85,1.38,1.38,0,0,1-.23.76Z" transform="translate(-12.53 -26.96)"/><path class="cls-2" d="M38.88,49.14A11.09,11.09,0,1,0,27.79,38.05,11.1,11.1,0,0,0,38.88,49.14Zm0-19.52a8.43,8.43,0,1,1-8.43,8.43A8.44,8.44,0,0,1,38.88,29.62Z" transform="translate(-12.53 -26.96)"/><path class="cls-3" d="M41.66,35.61a.25.25,0,0,0-.15,0H40.43a2.1,2.1,0,0,0-.4-.91H41.5a.2.2,0,0,0,.15-.06.24.24,0,0,0,.05-.14V33.8a.18.18,0,0,0-.2-.2H36.24a.18.18,0,0,0-.2.2v.84a.18.18,0,0,0,.06.14.2.2,0,0,0,.14.06h.92c.89,0,1.45.24,1.69.72H36.24a.18.18,0,0,0-.2.2v.64a.25.25,0,0,0,.05.15.2.2,0,0,0,.15.06h2.7a1.24,1.24,0,0,1-.65.79,2.87,2.87,0,0,1-1.34.27h-.71a.21.21,0,0,0-.2.2v.8a.2.2,0,0,0,.05.14c.81.86,1.86,2.07,3.15,3.61a.19.19,0,0,0,.16.08h1.23a.2.2,0,0,0,.19-.11.18.18,0,0,0,0-.22q-1.84-2.27-2.9-3.39a3.18,3.18,0,0,0,1.75-.69,2.42,2.42,0,0,0,.81-1.48h1.06a.21.21,0,0,0,.21-.21v-.64A.2.2,0,0,0,41.66,35.61Z" transform="translate(-12.53 -26.96)"/></svg>