<svg id="Layer_1" data-name="Layer 1" xmlns="http://www.w3.org/2000/svg" viewBox="0 0 44.4 48.19"><defs><style>.cls-1{fill:#3374c1;}.cls-2{fill:#fff;}</style></defs><rect class="cls-1" width="44.4" height="48.19" rx="9.05"/><path class="cls-2" d="M63.56,45.67H51.65V42.76a.44.44,0,0,0-.44-.44H48.48V40.73a1.89,1.89,0,0,0-1.89-1.9h-.68A1.9,1.9,0,0,0,44,40.73v1.59H41.11a.44.44,0,0,0-.44.44v2.91h-4A1.63,1.63,0,0,0,35,47.3v2.06a.45.45,0,0,0,.89,0V47.3a.75.75,0,0,1,.74-.75h4v6.06l-.52,2.8a.45.45,0,0,0,.44.52H57l-.2.75a1.7,1.7,0,0,0-1.15-.44A1.73,1.73,0,0,0,54,57.5h-3a1.7,1.7,0,0,0-3.29,0h-.52a.45.45,0,0,0,0,.89h.52a1.7,1.7,0,0,0,3.29,0h3A1.71,1.71,0,0,0,57.4,58l2.37-8.95H61.6a.45.45,0,0,0,0-.89H59.43a.45.45,0,0,0-.43.33l-.28,1.06H51.65v-3H63.56a.76.76,0,0,1,.75.75V60.71H62.18a.44.44,0,0,0,0,.88h2.13v2.06a.75.75,0,0,1-.75.75H36.64a.74.74,0,0,1-.74-.75V61.59h24a.44.44,0,0,0,0-.88h-24V51.6a.45.45,0,0,0-.89,0v12a1.64,1.64,0,0,0,1.63,1.64H46.93v2.85H44.38a.44.44,0,0,0,0,.88H55.82a.44.44,0,0,0,0-.88H53.27V65.29H63.56a1.64,1.64,0,0,0,1.63-1.64V47.3A1.63,1.63,0,0,0,63.56,45.67ZM50.25,58a.83.83,0,1,1-.82-.84.82.82,0,0,1,.82.84v0Zm5.44.81a.83.83,0,1,1,.83-.82A.82.82,0,0,1,55.69,58.77Zm-10.79-18a1,1,0,0,1,1-1h.68a1,1,0,0,1,1,1v1.59H44.9ZM41.12,55l.36-1.95H44a.44.44,0,0,0,0-.88H41.55v-9H44v.61a.44.44,0,0,0,.88,0V43.2h2.7v.61a.44.44,0,0,0,.88,0V43.2h2.29v6.36H46.29a.45.45,0,0,0-.42.59L47.6,55Zm17.37-4.6L57.27,55H48.53l-1.61-4.6Zm-6.1,17.7H47.81V65.29h4.58Z" transform="translate(-28.02 -30.15)"/></svg>