<svg id="Layer_1" data-name="Layer 1" xmlns="http://www.w3.org/2000/svg" viewBox="0 0 28.95 28.38"><defs><style>.cls-1{fill:#ff0624;}</style></defs><path class="cls-1" d="M49.38,47.58,35.89,35.77a1,1,0,0,0-1.3,0L21.1,47.58a1,1,0,0,0,1.31,1.5l1-.92V62.91a1,1,0,0,0,1,1H46a1,1,0,0,0,1-1V48.16l1,.92a1,1,0,0,0,.65.24,1,1,0,0,0,.75-.34A1,1,0,0,0,49.38,47.58ZM33,61.91V53.75h4.58v8.16ZM45,46.43V61.91H39.51V52.76a1,1,0,0,0-1-1H32a1,1,0,0,0-1,1v9.15H25.44V46.43h0l9.8-8.59L45,46.42Z" transform="translate(-20.77 -35.52)"/><path class="cls-1" d="M33,44.81a1,1,0,0,0,1,1h2.46a1,1,0,1,0,0-2H34A1,1,0,0,0,33,44.81Z" transform="translate(-20.77 -35.52)"/></svg>