<svg id="Layer_1" data-name="Layer 1" xmlns="http://www.w3.org/2000/svg" viewBox="0 0 24.81 24.14"><defs><style>.cls-1{fill:#162249;}</style></defs><path class="cls-1" d="M42,48.9a5.65,5.65,0,1,1,5.65-5.65A5.65,5.65,0,0,1,42,48.9Zm0-9.45a3.8,3.8,0,1,0,3.81,3.8A3.8,3.8,0,0,0,42,39.45Z" transform="translate(-22.83 -37.6)"/><path class="cls-1" d="M31,48.9H26a3.12,3.12,0,0,1-3.12-3.12V40.71A3.12,3.12,0,0,1,26,37.6H31a3.11,3.11,0,0,1,3.11,3.11v5.07A3.12,3.12,0,0,1,31,48.9ZM26,39.45a1.26,1.26,0,0,0-1.27,1.26v5.07A1.27,1.27,0,0,0,26,47.05H31a1.27,1.27,0,0,0,1.27-1.27V40.71A1.26,1.26,0,0,0,31,39.45Z" transform="translate(-22.83 -37.6)"/><path class="cls-1" d="M31,61.74H26a3.12,3.12,0,0,1-3.12-3.12V53.55A3.12,3.12,0,0,1,26,50.44H31a3.11,3.11,0,0,1,3.11,3.11v5.07A3.12,3.12,0,0,1,31,61.74ZM26,52.28a1.27,1.27,0,0,0-1.27,1.27v5.07A1.27,1.27,0,0,0,26,59.89H31a1.27,1.27,0,0,0,1.27-1.27V53.55A1.27,1.27,0,0,0,31,52.28Z" transform="translate(-22.83 -37.6)"/><path class="cls-1" d="M44.53,61.74H39.46a3.12,3.12,0,0,1-3.12-3.12V53.55a3.12,3.12,0,0,1,3.12-3.11h5.07a3.12,3.12,0,0,1,3.12,3.11v5.07A3.12,3.12,0,0,1,44.53,61.74Zm-5.07-9.46a1.27,1.27,0,0,0-1.27,1.27v5.07a1.27,1.27,0,0,0,1.27,1.27h5.07a1.27,1.27,0,0,0,1.27-1.27V53.55a1.27,1.27,0,0,0-1.27-1.27Z" transform="translate(-22.83 -37.6)"/></svg>