<svg id="Layer_1" data-name="Layer 1" xmlns="http://www.w3.org/2000/svg" viewBox="0 0 29.56 29.68"><defs><style>.cls-1{fill:#162249;}</style></defs><path class="cls-1" d="M50,45.09h0a.79.79,0,0,0-.13-.45l-3.06-5V35.7a.87.87,0,0,0-.87-.87H24.52a.87.87,0,0,0-.87.87v3.93l-3.06,5a.79.79,0,0,0-.13.45h0v1.16a4.33,4.33,0,0,0,1.16,3V63.64a.87.87,0,0,0,.87.87H48a.87.87,0,0,0,.87-.87V49.2a4.33,4.33,0,0,0,1.16-3Zm-1.74,1.16a2.61,2.61,0,1,1-5.21,0V46h5.21Zm-.68-2H42.84l-1.06-3.48h3.7ZM25.39,36.57h19.7V39H25.39ZM41.33,46v.29a2.61,2.61,0,0,1-5.22,0V46Zm-5.22-1.74V40.74H40L41,44.22Zm-6.65,0,1.06-3.48h3.85v3.48ZM34.37,46v.29a2.61,2.61,0,1,1-5.22,0V46ZM25,40.74h3.7l-1.06,3.48H22.88ZM22.2,46h5.21v.29a2.61,2.61,0,1,1-5.21,0ZM38.43,62.77V59.52h.87a.87.87,0,0,0,0-1.74h-.87V54.31h4.64v8.46Zm6.37,0V53.44a.87.87,0,0,0-.87-.87H37.56a.87.87,0,0,0-.87.87v9.33H23.36V50.35a4.32,4.32,0,0,0,4.92-1.5,4.34,4.34,0,0,0,7,0,4.34,4.34,0,0,0,7,0,4.32,4.32,0,0,0,4.92,1.5V62.77Z" transform="translate(-20.46 -34.83)"/><path class="cls-1" d="M33.5,52.57H26.55a.86.86,0,0,0-.87.87v5.21a.86.86,0,0,0,.87.87h7a.87.87,0,0,0,.87-.87V53.44A.87.87,0,0,0,33.5,52.57Zm-.87,5.21H27.41V54.31h5.22Z" transform="translate(-20.46 -34.83)"/></svg>