<svg id="Layer_1" data-name="Layer 1" xmlns="http://www.w3.org/2000/svg" viewBox="0 0 28.75 29.68"><defs><style>.cls-1{fill:#162249;}</style></defs><path class="cls-1" d="M47.93,55.63a.61.61,0,0,0-.07-.1,5.76,5.76,0,0,0-2.74-2.17V38.5a3.67,3.67,0,0,0-3.67-3.67H23.76A3.66,3.66,0,0,0,20.1,38.5v3.78A1.74,1.74,0,0,0,21.84,44h3.84V60a1.75,1.75,0,0,0,1.75,1.74H38.15a5.76,5.76,0,1,0,9.78-6.08ZM25.68,42.28H21.84V38.5a1.92,1.92,0,1,1,3.84,0ZM37.45,60h-10V39a4,4,0,0,0-.54-2.38H41.45a1.92,1.92,0,0,1,1.92,1.92V53A5.77,5.77,0,0,0,37.45,60Zm5.63,2.79A4,4,0,1,1,46,56l-2.68,2.69-.78-.78a.88.88,0,0,0-1.24,0,.87.87,0,0,0,0,1.23l1.4,1.4a.87.87,0,0,0,1.23,0l3-3a4,4,0,0,1-3.83,5.21Z" transform="translate(-20.1 -34.83)"/><path class="cls-1" d="M30.28,42.16h1.86a.87.87,0,1,0,0-1.74H30.28a.87.87,0,0,0,0,1.74Z" transform="translate(-20.1 -34.83)"/><path class="cls-1" d="M30.28,45.42h1.86a.88.88,0,1,0,0-1.75H30.28a.88.88,0,0,0,0,1.75Z" transform="translate(-20.1 -34.83)"/><path class="cls-1" d="M30.28,49.14h1.86a.87.87,0,1,0,0-1.74H30.28a.87.87,0,0,0,0,1.74Z" transform="translate(-20.1 -34.83)"/><path class="cls-1" d="M35.4,51.12H30.28a.88.88,0,0,0,0,1.75H35.4a.88.88,0,1,0,0-1.75Z" transform="translate(-20.1 -34.83)"/><path class="cls-1" d="M35.4,54.85H30.28a.87.87,0,1,0,0,1.74H35.4a.87.87,0,1,0,0-1.74Z" transform="translate(-20.1 -34.83)"/><path class="cls-1" d="M40.36,41.87a.18.18,0,0,0-.14-.06h-1a2,2,0,0,0-.38-.84h1.37a.18.18,0,0,0,.14-.06.19.19,0,0,0,0-.13v-.6a.17.17,0,0,0-.19-.19H35.32a.17.17,0,0,0-.19.19V41a.18.18,0,0,0,.06.13.16.16,0,0,0,.13.06h.85c.83,0,1.35.22,1.58.66H35.32a.18.18,0,0,0-.14.06.19.19,0,0,0,0,.13v.6a.17.17,0,0,0,.19.19h2.51a1.15,1.15,0,0,1-.6.73,2.67,2.67,0,0,1-1.25.26h-.66a.19.19,0,0,0-.13,0,.18.18,0,0,0-.06.14v.74a.19.19,0,0,0,0,.13c.76.8,1.73,1.92,2.93,3.36a.18.18,0,0,0,.15.07h1.15a.17.17,0,0,0,.17-.1.15.15,0,0,0,0-.2c-1.14-1.41-2-2.46-2.7-3.16a3,3,0,0,0,1.63-.64,2.27,2.27,0,0,0,.76-1.38h1a.17.17,0,0,0,.19-.19V42A.19.19,0,0,0,40.36,41.87Z" transform="translate(-20.1 -34.83)"/></svg>