<svg id="Layer_1" data-name="Layer 1" xmlns="http://www.w3.org/2000/svg" viewBox="0 0 64.85 64.85"><defs><style>.cls-1{fill:#F2A408;}</style></defs><path class="cls-1" d="M83.44,99.5A25.94,25.94,0,1,0,57.5,73.56,25.94,25.94,0,0,0,83.44,99.5Zm0,6.48a32.42,32.42,0,1,1,32.43-32.42A32.41,32.41,0,0,1,83.44,106ZM73.38,77.35l-8.1-2.52c-1.75-.54-1.76-1.74.4-2.61L97.23,60c1.84-.75,2.87.2,2.28,2.56L94.14,88c-.38,1.8-1.46,2.23-3,1.4L82.9,83.23,79,87a2.22,2.22,0,0,1-1.33.79c-.6.09-1.1-.1-1.47-1.1l-2.82-9.31,0,0Z" transform="translate(-51.02 -41.14)"/></svg>