<svg id="Layer_1" data-name="Layer 1" xmlns="http://www.w3.org/2000/svg" viewBox="0 0 51.77 42.96"><defs><style>.cls-1{fill:#F2A408;}</style></defs><path class="cls-1" d="M58.75,27.85a7.5,7.5,0,0,0-7.49,7.35l-.07,4.07a1.54,1.54,0,0,1-1.58,1.51h-.17l-4-.55C40.11,39.5,35,37.06,30.16,33c-1.55,8.54,1.47,14.46,8.73,19l4.51,2.83A1.54,1.54,0,0,1,43.88,57a1.37,1.37,0,0,1-.4.43l-4.11,3a26.47,26.47,0,0,0,6.69-.33c12.18-2.44,20.28-11.6,20.28-26.71C66.34,32.14,63.73,27.85,58.75,27.85ZM46.1,35.1a12.64,12.64,0,0,1,21.64-8.65c1.84,0,3.4.45,6.89-1.67-.86,4.23-1.29,6.07-3.13,8.6,0,19.72-12.12,29.31-24.42,31.77-8.44,1.68-20.7-1.08-24.22-4.75,1.79-.14,9.07-.93,13.28-4-3.56-2.34-17.73-10.68-8.42-33.09Q34.28,30.95,41,33.72a15.42,15.42,0,0,0,5.1,1.39Z" transform="translate(-22.86 -22.69)"/></svg>