<svg xmlns="http://www.w3.org/2000/svg" xmlns:xlink="http://www.w3.org/1999/xlink" viewBox="0 0 294.2 177.26"><defs><style>.cls-1{fill:#d9e5ed;stroke:#82a9bf;stroke-miterlimit:10;}.cls-2{fill:url(#New_Gradient_Swatch_1);}.cls-3,.cls-4{fill:#fff;}.cls-4,.cls-6{font-size:28.76px;font-family:SegoeUI-Semibold, Segoe UI;font-weight:600;}.cls-5,.cls-6{fill:#162249;}</style><linearGradient id="New_Gradient_Swatch_1" x1="12.23" y1="80.42" x2="183.96" y2="80.42" gradientUnits="userSpaceOnUse"><stop offset="0" stop-color="#37a9e5"/><stop offset="1" stop-color="#3d53b9"/></linearGradient></defs><g id="Layer_2" data-name="Layer 2"><g id="Layer_1-2" data-name="Layer 1"><path class="cls-1" d="M280.07,176.76l-132.53-8.38L14.13,176.76c-7.53,0-13.63-5.84-13.63-13v-123c0-7.2,6.1-13,13.63-13L147.54,39.37,280.07,14.24c7.53,0,13.63,5.84,13.63,13.05V163.71C293.7,170.92,287.6,176.76,280.07,176.76Z"/><path class="cls-2" d="M133.7,151.63,27.31,160.84a15.08,15.08,0,0,1-15.08-15.08V15.08A15.08,15.08,0,0,1,27.31,0H168.88A15.08,15.08,0,0,1,184,15.08L148.78,136.55A15.09,15.09,0,0,1,133.7,151.63Z"/><path class="cls-3" d="M77.82,57.36a.39.39,0,0,0-.31-.13h-2.3a4.6,4.6,0,0,0-.86-1.93h3.14a.45.45,0,0,0,.31-.12.43.43,0,0,0,.12-.31V53.49a.41.41,0,0,0-.12-.3.42.42,0,0,0-.31-.13H66.29a.42.42,0,0,0-.31.13.41.41,0,0,0-.12.3v1.79a.46.46,0,0,0,.13.31.44.44,0,0,0,.3.12h1.95c1.9,0,3.1.51,3.61,1.52H66.29a.42.42,0,0,0-.31.13.41.41,0,0,0-.12.3V59a.43.43,0,0,0,.12.31.45.45,0,0,0,.31.12H72a2.67,2.67,0,0,1-1.38,1.68,6.15,6.15,0,0,1-2.86.58H66.29a.44.44,0,0,0-.3.12.46.46,0,0,0-.13.31v1.71a.4.4,0,0,0,.12.29q2.59,2.75,6.7,7.68A.4.4,0,0,0,73,72h2.62a.39.39,0,0,0,.39-.24.38.38,0,0,0,0-.46q-3.93-4.81-6.18-7.21a6.74,6.74,0,0,0,3.72-1.48,5,5,0,0,0,1.73-3.14h2.26a.41.41,0,0,0,.31-.12.43.43,0,0,0,.12-.31V57.66A.41.41,0,0,0,77.82,57.36Z"/><path class="cls-3" d="M43.87,82.85h7v1.53h-7Zm2.71.79h1.59v8.94H46.58Z"/><path class="cls-3" d="M52.09,92.32a2.34,2.34,0,0,1-1-1,3.58,3.58,0,0,1-.34-1.64V88.52a3.45,3.45,0,0,1,.34-1.61,2.39,2.39,0,0,1,1-1,3.74,3.74,0,0,1,3.16,0,2.39,2.39,0,0,1,1,1,3.45,3.45,0,0,1,.34,1.61v1.15a3.54,3.54,0,0,1-.34,1.63,2.37,2.37,0,0,1-1,1,3.65,3.65,0,0,1-3.16,0Zm2.56-1.56A1.59,1.59,0,0,0,55,89.67V88.52a1.53,1.53,0,0,0-.35-1.07,1.43,1.43,0,0,0-2,0,1.49,1.49,0,0,0-.35,1.07v1.15a1.58,1.58,0,0,0,.34,1.09,1.44,1.44,0,0,0,2,0Z"/><path class="cls-3" d="M57.87,85.63h3.27V87H57.87ZM59,92.15a2,2,0,0,1-.41-1.38V83.61h1.6v6.94a.63.63,0,0,0,.1.39.33.33,0,0,0,.29.14h.56v1.53h-.86A1.61,1.61,0,0,1,59,92.15Z"/><path class="cls-3" d="M63.14,92.15a2.07,2.07,0,0,1-.6-1.62,1.94,1.94,0,0,1,.6-1.55A2.77,2.77,0,0,1,65,88.47h1.86l.1,1.24H65a1.07,1.07,0,0,0-.71.2.77.77,0,0,0-.24.62.73.73,0,0,0,.31.65,1.64,1.64,0,0,0,.93.21,2.94,2.94,0,0,0,1.13-.17.55.55,0,0,0,.37-.52l.14,1a1.14,1.14,0,0,1-.4.55,2.15,2.15,0,0,1-.68.33,3.48,3.48,0,0,1-.88.11A2.64,2.64,0,0,1,63.14,92.15Zm3.61-4a1.18,1.18,0,0,0-.34-.9,1.41,1.41,0,0,0-1-.32,2.42,2.42,0,0,0-.79.13,2.24,2.24,0,0,0-.69.35l-1.07-.89A2.67,2.67,0,0,1,64,85.8a3.94,3.94,0,0,1,1.48-.27,3.33,3.33,0,0,1,1.51.31,2.11,2.11,0,0,1,1,.88,2.75,2.75,0,0,1,.33,1.39v4.47H66.75Z"/><path class="cls-3" d="M71.77,90.54a.53.53,0,0,0,.13.39.46.46,0,0,0,.36.14h.47V92.6h-.87a1.6,1.6,0,0,1-1.24-.48,1.94,1.94,0,0,1-.45-1.36V82.85h1.6Z"/><path class="cls-3" d="M78,82.85h1.6v9.73H78Zm.81,8.22h2.87a1.84,1.84,0,0,0,1.24-.36,1.22,1.22,0,0,0,.41-1v0a1.55,1.55,0,0,0-.16-.74,1.09,1.09,0,0,0-.5-.47,1.86,1.86,0,0,0-.83-.17h-3V86.84h3a1.44,1.44,0,0,0,1-.32,1.2,1.2,0,0,0,.35-.94,1.11,1.11,0,0,0-.37-.91,1.6,1.6,0,0,0-1.08-.31H78.76V82.85h3.09a3.51,3.51,0,0,1,1.6.32,2.2,2.2,0,0,1,1,.9,2.88,2.88,0,0,1,.33,1.41,2.24,2.24,0,0,1-.21,1,1.88,1.88,0,0,1-.62.73,2.36,2.36,0,0,1-1,.4A2.34,2.34,0,0,1,84,88a2.06,2.06,0,0,1,.68.81,2.57,2.57,0,0,1,.23,1.1v0a2.68,2.68,0,0,1-.35,1.41,2.32,2.32,0,0,1-1,.92,3.59,3.59,0,0,1-1.56.32H78.76Z"/><path class="cls-3" d="M86.93,92.15a2.07,2.07,0,0,1-.6-1.62,1.94,1.94,0,0,1,.6-1.55,2.75,2.75,0,0,1,1.81-.51H90.6l.09,1.24H88.75a1.12,1.12,0,0,0-.72.2.8.8,0,0,0-.23.62.74.74,0,0,0,.3.65,1.68,1.68,0,0,0,.93.21,3,3,0,0,0,1.14-.17.55.55,0,0,0,.37-.52l.14,1a1.21,1.21,0,0,1-.4.55,2.27,2.27,0,0,1-.68.33,3.48,3.48,0,0,1-.88.11A2.62,2.62,0,0,1,86.93,92.15Zm3.61-4a1.19,1.19,0,0,0-.35-.9,1.38,1.38,0,0,0-1-.32,2.38,2.38,0,0,0-.79.13,2.24,2.24,0,0,0-.69.35l-1.07-.89a2.6,2.6,0,0,1,1.07-.74,3.85,3.85,0,0,1,1.47-.27,3.38,3.38,0,0,1,1.52.31,2.11,2.11,0,0,1,1,.88A2.75,2.75,0,0,1,92,88.11v4.47H90.54Z"/><path class="cls-3" d="M95.56,90.54a.53.53,0,0,0,.13.39.46.46,0,0,0,.36.14h.47V92.6h-.87a1.63,1.63,0,0,1-1.25-.48A2,2,0,0,1,94,90.76V82.85h1.6Z"/><path class="cls-3" d="M98.12,92.15a2.07,2.07,0,0,1-.59-1.62,1.94,1.94,0,0,1,.6-1.55,2.72,2.72,0,0,1,1.8-.51h1.87l.09,1.24h-2a1.09,1.09,0,0,0-.71.2.77.77,0,0,0-.24.62.73.73,0,0,0,.31.65,1.64,1.64,0,0,0,.93.21,2.87,2.87,0,0,0,1.13-.17.55.55,0,0,0,.37-.52l.15,1a1.21,1.21,0,0,1-.4.55,2.21,2.21,0,0,1-.69.33,3.48,3.48,0,0,1-.88.11A2.66,2.66,0,0,1,98.12,92.15Zm3.61-4a1.18,1.18,0,0,0-.34-.9,1.38,1.38,0,0,0-1-.32,2.38,2.38,0,0,0-.79.13,2.42,2.42,0,0,0-.7.35l-1.06-.89a2.6,2.6,0,0,1,1.07-.74,3.85,3.85,0,0,1,1.47-.27,3.33,3.33,0,0,1,1.51.31,2.11,2.11,0,0,1,1,.88,2.75,2.75,0,0,1,.33,1.39v4.47h-1.48Z"/><path class="cls-3" d="M105.15,85.63h1.6v7h-1.6Zm4.12,2.74a1.3,1.3,0,0,0-.34-1,1.28,1.28,0,0,0-1-.34,1.26,1.26,0,0,0-.91.32,1.22,1.22,0,0,0-.32.9l-.14-1.44a2.45,2.45,0,0,1,.8-1,1.84,1.84,0,0,1,1.12-.34,2.14,2.14,0,0,1,1.73.74,3.18,3.18,0,0,1,.61,2.09v4.22h-1.6Z"/><path class="cls-3" d="M114,92.31a2.39,2.39,0,0,1-1-1.06,3.67,3.67,0,0,1-.36-1.69v-.94A3.55,3.55,0,0,1,113,87a2.39,2.39,0,0,1,1-1.06,3.54,3.54,0,0,1,1.66-.36,4,4,0,0,1,1,.13,3.34,3.34,0,0,1,.88.38,2.5,2.5,0,0,1,.65.6l-1.08,1a1.88,1.88,0,0,0-.64-.44,2,2,0,0,0-.77-.16,1.55,1.55,0,0,0-1.15.41,1.51,1.51,0,0,0-.41,1.15v.94a1.58,1.58,0,0,0,.4,1.17,1.54,1.54,0,0,0,1.16.42,1.84,1.84,0,0,0,.77-.17,1.77,1.77,0,0,0,.64-.48l1.08,1.09a2.22,2.22,0,0,1-.66.59,3,3,0,0,1-.88.37,3.9,3.9,0,0,1-1,.13A3.42,3.42,0,0,1,114,92.31Z"/><path class="cls-3" d="M120.87,92.32a2.49,2.49,0,0,1-1.07-1.06,3.67,3.67,0,0,1-.37-1.69v-.79a4,4,0,0,1,.36-1.76,2.5,2.5,0,0,1,1-1.11,3.28,3.28,0,0,1,1.61-.38A2.56,2.56,0,0,1,124,86a2.71,2.71,0,0,1,1,1.28,5.63,5.63,0,0,1,.33,2v.45h-4.72V88.58h3.24v-.07a1.93,1.93,0,0,0-.41-1.13,1.13,1.13,0,0,0-.92-.4,1.39,1.39,0,0,0-1.11.45,1.85,1.85,0,0,0-.4,1.28v.88a1.48,1.48,0,0,0,1.64,1.64,2.16,2.16,0,0,0,.78-.15,2.46,2.46,0,0,0,.69-.42l1,1a3.86,3.86,0,0,1-1.19.77,3.46,3.46,0,0,1-1.32.27A3.6,3.6,0,0,1,120.87,92.32Z"/><text class="cls-4" transform="translate(82.31 72.3)">0</text><path class="cls-5" d="M185.41,110.09h7v1.53h-7Zm2.71.79h1.59v8.94h-1.59Z"/><path class="cls-5" d="M193.63,119.56a2.39,2.39,0,0,1-1-1,3.61,3.61,0,0,1-.34-1.64v-1.13a3.52,3.52,0,0,1,.34-1.62,2.37,2.37,0,0,1,1-1,3.74,3.74,0,0,1,3.16,0,2.37,2.37,0,0,1,1,1,3.52,3.52,0,0,1,.34,1.62v1.15a3.49,3.49,0,0,1-.34,1.62,2.39,2.39,0,0,1-1,1,3.65,3.65,0,0,1-3.16,0Zm2.56-1.56a1.54,1.54,0,0,0,.35-1.09v-1.15a1.53,1.53,0,0,0-.35-1.08,1.45,1.45,0,0,0-2,0,1.58,1.58,0,0,0-.35,1.08v1.15a1.58,1.58,0,0,0,.34,1.09,1.47,1.47,0,0,0,2,0Z"/><path class="cls-5" d="M199.41,112.87h3.27v1.4h-3.27Zm1.13,6.51a2,2,0,0,1-.41-1.37v-7.16h1.6v6.94a.63.63,0,0,0,.1.39.34.34,0,0,0,.29.14h.56v1.53h-.86A1.62,1.62,0,0,1,200.54,119.38Z"/><path class="cls-5" d="M204.68,119.38a2,2,0,0,1-.6-1.61,1.91,1.91,0,0,1,.61-1.55,2.72,2.72,0,0,1,1.8-.51h1.86l.1,1.24H206.5a1.07,1.07,0,0,0-.71.2.77.77,0,0,0-.24.62.71.71,0,0,0,.31.64,1.64,1.64,0,0,0,.93.21,2.94,2.94,0,0,0,1.13-.16.55.55,0,0,0,.37-.52l.14,1a1.12,1.12,0,0,1-.4.54,2,2,0,0,1-.68.34,3.48,3.48,0,0,1-.88.11A2.59,2.59,0,0,1,204.68,119.38Zm3.61-4a1.15,1.15,0,0,0-.34-.9,1.36,1.36,0,0,0-1-.32,2.71,2.71,0,0,0-.79.12,2.66,2.66,0,0,0-.69.36l-1.07-.9a2.84,2.84,0,0,1,1.08-.74,4,4,0,0,1,1.47-.26,3.48,3.48,0,0,1,1.51.3,2.18,2.18,0,0,1,1,.89,2.75,2.75,0,0,1,.33,1.39v4.47h-1.48Z"/><path class="cls-5" d="M213.31,117.77a.57.57,0,0,0,.13.4.45.45,0,0,0,.36.13h.47v1.54h-.87a1.6,1.6,0,0,1-1.24-.49,1.9,1.9,0,0,1-.45-1.35v-7.91h1.6Z"/><path class="cls-5" d="M219.49,110.08h1.6v9.74h-1.6Zm.67,4.19h3.35a1.07,1.07,0,0,0,.59-.17,1,1,0,0,0,.4-.46,1.89,1.89,0,0,0,.15-.7,1.68,1.68,0,0,0-.14-.7,1.07,1.07,0,0,0-.4-.46,1.08,1.08,0,0,0-.6-.17h-3.35v-1.53h3.4a2.92,2.92,0,0,1,1.44.35,2.42,2.42,0,0,1,1,1,3.48,3.48,0,0,1,0,3,2.42,2.42,0,0,1-1,1,3,3,0,0,1-1.44.35h-3.4Zm2.34,1.23,1.67-.31,2.55,4.63H224.8Z"/><path class="cls-5" d="M229.26,119.55a2.44,2.44,0,0,1-1.07-1.06,3.64,3.64,0,0,1-.36-1.69V116a4,4,0,0,1,.35-1.76,2.44,2.44,0,0,1,1-1.11,3.29,3.29,0,0,1,1.62-.38,2.62,2.62,0,0,1,1.52.44,2.79,2.79,0,0,1,1,1.29,5.59,5.59,0,0,1,.33,2V117h-4.71v-1.17h3.23v-.07a1.91,1.91,0,0,0-.41-1.13,1.12,1.12,0,0,0-.91-.41,1.42,1.42,0,0,0-1.12.46,1.89,1.89,0,0,0-.4,1.28v.88a1.48,1.48,0,0,0,1.64,1.64,2.16,2.16,0,0,0,.78-.15,2.46,2.46,0,0,0,.69-.42l1,1a4,4,0,0,1-1.18.77,3.51,3.51,0,0,1-1.33.27A3.48,3.48,0,0,1,229.26,119.55Z"/><path class="cls-5" d="M234.5,112.87h1.6l1.23,4.62,1.6-4.62h1l1.6,4.62,1.23-4.62h1.6l-2.14,6.95H241l-1.6-4.67-1.59,4.67h-1.2Z"/><path class="cls-5" d="M246,119.38a2,2,0,0,1-.6-1.61,1.94,1.94,0,0,1,.6-1.55,2.75,2.75,0,0,1,1.81-.51h1.86l.09,1.24h-1.94a1.12,1.12,0,0,0-.72.2.8.8,0,0,0-.23.62.72.72,0,0,0,.3.64,1.68,1.68,0,0,0,.93.21,3,3,0,0,0,1.14-.16.55.55,0,0,0,.37-.52l.14,1a1.18,1.18,0,0,1-.4.54,2.07,2.07,0,0,1-.68.34,3.48,3.48,0,0,1-.88.11A2.57,2.57,0,0,1,246,119.38Zm3.61-4a1.16,1.16,0,0,0-.35-.9,1.34,1.34,0,0,0-1-.32,2.66,2.66,0,0,0-.79.12,2.51,2.51,0,0,0-.69.36l-1.07-.9a2.8,2.8,0,0,1,1.07-.74,4,4,0,0,1,1.47-.26,3.52,3.52,0,0,1,1.52.3,2.18,2.18,0,0,1,1,.89,2.75,2.75,0,0,1,.33,1.39v4.47h-1.48Z"/><path class="cls-5" d="M253,112.87h1.67v6.95H253Zm3.47,1.52a1.49,1.49,0,0,0-.54-.09,1.2,1.2,0,0,0-.93.36,1.41,1.41,0,0,0-.33,1l-.15-1.57a2.65,2.65,0,0,1,.79-1,1.79,1.79,0,0,1,1.07-.34,2.14,2.14,0,0,1,.82.14,1.7,1.7,0,0,1,.64.4l-1,1.35A1,1,0,0,0,256.47,114.39Z"/><path class="cls-5" d="M259.6,119.58a2.22,2.22,0,0,1-.81-1,4.13,4.13,0,0,1-.28-1.58v-1.32a4,4,0,0,1,.28-1.59,2.12,2.12,0,0,1,.8-1,2.24,2.24,0,0,1,1.26-.34,1.92,1.92,0,0,1,1.07.32,2.24,2.24,0,0,1,.78.93l-.14,1.48a1.6,1.6,0,0,0-.14-.69.93.93,0,0,0-.41-.42,1.3,1.3,0,0,0-.65-.15,1.14,1.14,0,0,0-.92.39,1.62,1.62,0,0,0-.33,1.08V117a1.57,1.57,0,0,0,.33,1.07,1.17,1.17,0,0,0,.92.38,1.3,1.3,0,0,0,.65-.15,1,1,0,0,0,.41-.43,1.59,1.59,0,0,0,.14-.68l.1,1.52a1.85,1.85,0,0,1-.67.88,1.87,1.87,0,0,1-1.11.33A2.31,2.31,0,0,1,259.6,119.58Zm3-9.49h1.6v9.73h-1.6Z"/><path class="cls-5" d="M267.47,119.8a4.63,4.63,0,0,1-1.05-.35,4,4,0,0,1-.89-.55l1-1.21a4.7,4.7,0,0,0,1.08.57,3.26,3.26,0,0,0,1.08.2,2.45,2.45,0,0,0,1.1-.2.6.6,0,0,0,.38-.57.51.51,0,0,0-.18-.43,1,1,0,0,0-.48-.2,7.13,7.13,0,0,0-.8-.1l-.18,0-.18,0h-.1a6.74,6.74,0,0,1-1.2-.23,1.55,1.55,0,0,1-.79-.55,1.87,1.87,0,0,1-.32-1.17,2.2,2.2,0,0,1,.32-1.21,2,2,0,0,1,.94-.74,3.94,3.94,0,0,1,1.51-.25,5.16,5.16,0,0,1,1,.1,4.65,4.65,0,0,1,1.86.8l-1,1.16a4.34,4.34,0,0,0-1-.45,3.32,3.32,0,0,0-1-.15,2,2,0,0,0-1,.18.58.58,0,0,0-.33.53.39.39,0,0,0,.18.35,1.14,1.14,0,0,0,.45.17l.79.09h.31a7.83,7.83,0,0,1,1.27.22,1.77,1.77,0,0,1,.87.59,2,2,0,0,1,.35,1.27,2.24,2.24,0,0,1-.33,1.25,2.11,2.11,0,0,1-1,.76,4.45,4.45,0,0,1-1.61.26A5.72,5.72,0,0,1,267.47,119.8Z"/><text class="cls-6" transform="translate(220.43 99.53)">0</text></g></g></svg>