<svg xmlns="http://www.w3.org/2000/svg" viewBox="0 0 44.4 48.19"><defs><style>.cls-1{fill:#3374c1;}.cls-2{fill:#fff;}</style></defs><g id="Layer_2" data-name="Layer 2"><g id="Layer_1-2" data-name="Layer 1"><rect class="cls-1" width="44.4" height="48.19" rx="9.05"/><path class="cls-2" d="M17.14,29.53c4.91,0,7.61-2.89,7.61-8.12,0-4.9-6.94-12.7-7.23-13a.51.51,0,0,0-.76,0c-.29.32-7.23,8.12-7.23,13C9.53,26.64,12.23,29.53,17.14,29.53Zm0-20c1.45,1.7,6.59,8,6.59,11.91,0,3.24-1.14,7.1-6.59,7.1s-6.6-3.86-6.6-7.1C10.54,17.51,15.69,11.2,17.14,9.5Z"/><path class="cls-2" d="M31.35,30.54c2.9,0,4.56-1.93,4.56-5.31,0-3.17-4-7.53-4.19-7.72a.51.51,0,0,0-.37-.15.54.54,0,0,0-.38.15c-.17.19-4.19,4.55-4.19,7.72C26.78,28.61,28.44,30.54,31.35,30.54Zm0-11.92c1,1.14,3.55,4.35,3.55,6.61,0,2.85-1.2,4.3-3.55,4.3s-3.56-1.45-3.56-4.3C27.79,23,30.37,19.76,31.35,18.62Z"/><path class="cls-2" d="M23.86,28.68c-.13.15-3.17,3.63-3.17,5.92,0,2.58,1.3,4.06,3.55,4.06s3.55-1.48,3.55-4.06c0-2.29-3-5.77-3.17-5.92a.53.53,0,0,0-.38-.16A.55.55,0,0,0,23.86,28.68Zm.38,9c-1.68,0-2.53-1-2.53-3,0-1.38,1.58-3.62,2.53-4.79,1,1.17,2.54,3.41,2.54,4.79C26.78,36.62,25.93,37.65,24.24,37.65Z"/><path class="cls-2" d="M16.07,27.5h.05a.51.51,0,0,0,.05-1,3.74,3.74,0,0,1-2.71-1.39c-1.35-1.76-.9-4.59-.9-4.62a.5.5,0,0,0-.42-.57.5.5,0,0,0-.58.4c0,.13-.52,3.29,1.09,5.4A4.72,4.72,0,0,0,16.07,27.5Z"/><path class="cls-2" d="M30.84,28.51a3.49,3.49,0,0,0,2.48-1.07,3,3,0,0,0,.56-2.56.52.52,0,0,0-.59-.41.5.5,0,0,0-.41.57,2.11,2.11,0,0,1-.33,1.74,2.5,2.5,0,0,1-1.71.72.51.51,0,0,0-.51.51A.5.5,0,0,0,30.84,28.51Z"/><path class="cls-2" d="M24,35.67a.59.59,0,0,1-.28-.84.5.5,0,0,0-.23-.68.5.5,0,0,0-.68.23,1.58,1.58,0,0,0,.74,2.2.51.51,0,0,0,.68-.23.51.51,0,0,0-.23-.68Z"/></g></g></svg>