<svg id="Layer_1" data-name="Layer 1" xmlns="http://www.w3.org/2000/svg" viewBox="0 0 44.4 48.19"><defs><style>.cls-1{fill:#3374c1;}.cls-2{fill:#fff;}</style></defs><rect class="cls-1" width="44.4" height="48.19" rx="9.05"/><path class="cls-2" d="M45.16,59.68c4.91,0,7.61-2.88,7.61-8.12,0-4.9-6.94-12.69-7.24-13a.47.47,0,0,0-.37-.16.49.49,0,0,0-.38.16c-.3.33-7.23,8.12-7.23,13C37.55,56.8,40.25,59.68,45.16,59.68Zm0-20c1.45,1.7,6.59,8,6.59,11.91,0,3.24-1.14,7.1-6.59,7.1s-6.6-3.86-6.6-7.1C38.56,47.66,43.7,41.35,45.16,39.65Z" transform="translate(-28.02 -30.15)"/><path class="cls-2" d="M59.36,60.69c2.91,0,4.57-1.93,4.57-5.31,0-3.17-4-7.53-4.19-7.72a.54.54,0,0,0-.38-.15.53.53,0,0,0-.37.15c-.17.19-4.19,4.55-4.19,7.72C54.8,58.76,56.46,60.69,59.36,60.69Zm0-11.92c1,1.14,3.56,4.35,3.56,6.61,0,2.85-1.2,4.3-3.56,4.3s-3.55-1.45-3.55-4.3C55.81,53.12,58.39,49.91,59.36,48.77Z" transform="translate(-28.02 -30.15)"/><path class="cls-2" d="M51.88,58.84c-.13.14-3.17,3.62-3.17,5.91,0,2.58,1.29,4.06,3.55,4.06s3.55-1.48,3.55-4.06c0-2.29-3-5.77-3.17-5.91a.51.51,0,0,0-.76,0Zm.38,9c-1.68,0-2.54-1-2.54-3,0-1.38,1.59-3.62,2.54-4.79,1,1.17,2.54,3.41,2.54,4.79C54.8,66.77,53.94,67.8,52.26,67.8Z" transform="translate(-28.02 -30.15)"/><path class="cls-2" d="M44.09,57.65h0a.51.51,0,0,0,0-1,3.74,3.74,0,0,1-2.71-1.39c-1.35-1.76-.9-4.59-.9-4.62a.51.51,0,0,0-1-.17c0,.14-.52,3.29,1.09,5.41A4.73,4.73,0,0,0,44.09,57.65Z" transform="translate(-28.02 -30.15)"/><path class="cls-2" d="M58.86,58.66a3.52,3.52,0,0,0,2.48-1.06A3,3,0,0,0,61.89,55a.51.51,0,0,0-1,.17,2,2,0,0,1-.32,1.73,2.5,2.5,0,0,1-1.71.72.51.51,0,0,0-.51.51A.5.5,0,0,0,58.86,58.66Z" transform="translate(-28.02 -30.15)"/><path class="cls-2" d="M52,65.82a.55.55,0,0,1-.33-.35A.56.56,0,0,1,51.7,65a.51.51,0,1,0-.91-.45,1.58,1.58,0,0,0,.74,2.2.5.5,0,0,0,.68-.23.51.51,0,0,0-.23-.68Z" transform="translate(-28.02 -30.15)"/></svg>