<svg id="Layer_1" data-name="Layer 1" xmlns="http://www.w3.org/2000/svg" viewBox="0 0 19.59 19.59"><defs><style>.cls-1{fill:#4976b9;}</style></defs><path class="cls-1" d="M12.11,19.17l.71.41A7.8,7.8,0,1,0,10,16.75l.41.71-.64,2.35ZM7,22.6l1.33-4.86a9.8,9.8,0,1,1,8.47,4.86,9.66,9.66,0,0,1-4.93-1.32ZM13.34,8.21a2.67,2.67,0,0,1,.4,0h.15a.51.51,0,0,1,.39.25c.29.66.58,1.33.85,2A.6.6,0,0,1,15,11c-.08.13-.17.25-.26.37s-.35.4-.35.4a.33.33,0,0,0-.06.26,1.85,1.85,0,0,0,.1.2l.06.09a5.92,5.92,0,0,0,1,1.24c.12.12.23.24.35.34a5.67,5.67,0,0,0,1.54,1h0l.24.1.19.07a.35.35,0,0,0,.36-.13A11.93,11.93,0,0,1,19,14h0a.47.47,0,0,1,.37-.13l.17,0c.52.24,1.38.61,1.38.61l.57.26a.31.31,0,0,1,.18.26,1.52,1.52,0,0,1,0,.36,2.9,2.9,0,0,1-.18.72,1.61,1.61,0,0,1-.21.3c-.1.1-.21.19-.32.28l-.13.09L20.4,17a2,2,0,0,1-.77.2,4.87,4.87,0,0,1-.54,0l-.56-.08a9.34,9.34,0,0,1-3.76-2c-.22-.19-.43-.4-.64-.61a9.33,9.33,0,0,1-1.93-2.69,3.44,3.44,0,0,1-.32-1.38,2.71,2.71,0,0,1,.55-1.65,2.12,2.12,0,0,1,.26-.3A1,1,0,0,1,13,8.31a.88.88,0,0,1,.36-.1Z" transform="translate(-6.96 -3.01)"/></svg>