<svg id="Layer_1" data-name="Layer 1" xmlns="http://www.w3.org/2000/svg" viewBox="0 0 55.24 55.24"><defs><style>.cls-1{fill:#F2A408;}</style></defs><path class="cls-1" d="M36.79,62.36l2,1.17a22.05,22.05,0,1,0-8-8l1.17,2-1.8,6.63Zm-14.5,9.69L26,58.33a27.59,27.59,0,1,1,10,10Zm17.5-40.58a10.28,10.28,0,0,1,1.11,0l.45.05a1.41,1.41,0,0,1,1.09.69q1.23,2.79,2.4,5.63a1.69,1.69,0,0,1-.26,1.48c-.23.36-.47.7-.73,1s-1,1.14-1,1.14a.89.89,0,0,0-.17.73,3,3,0,0,0,.28.57l.16.26A17.68,17.68,0,0,0,46,46.53c.33.32.66.65,1,1a16.52,16.52,0,0,0,4.33,2.76h0l.69.31a4.72,4.72,0,0,0,.53.18.94.94,0,0,0,1-.36c2-2.42,2.19-2.58,2.2-2.58h0a1.3,1.3,0,0,1,1-.35,1.34,1.34,0,0,1,.48.11c1.47.67,3.87,1.71,3.87,1.71l1.61.73a.9.9,0,0,1,.52.73,4.75,4.75,0,0,1,0,1,8,8,0,0,1-.52,2,3.23,3.23,0,0,1-.58.84,6.21,6.21,0,0,1-.91.79l-.35.25a12.63,12.63,0,0,1-1.19.68,5.41,5.41,0,0,1-2.17.56A13,13,0,0,1,56,57l-1.57-.24a26.11,26.11,0,0,1-10.61-5.65c-.62-.55-1.2-1.14-1.79-1.73a26,26,0,0,1-5.44-7.57,9.66,9.66,0,0,1-.92-3.91,7.55,7.55,0,0,1,1.56-4.64,6.14,6.14,0,0,1,.72-.84,3.5,3.5,0,0,1,.81-.63,2.82,2.82,0,0,1,1-.28Z" transform="translate(-22.28 -16.8)"/></svg>