<svg id="Layer_1" data-name="Layer 1" xmlns="http://www.w3.org/2000/svg" xmlns:xlink="http://www.w3.org/1999/xlink" viewBox="0 0 262.71 243.9"><defs><style>.cls-1{fill:none;}.cls-2{fill:#e5d1bd;}.cls-3{fill:#3751d1;}.cls-4{fill:#f6d738;}.cls-5{fill:#f3cc30;}.cls-6{fill:#edbd31;}.cls-7{fill:#f7db5e;}.cls-8{fill:#dbdbdb;}.cls-9{fill:#4d4d4d;}.cls-10{fill:#0e5368;}.cls-11{fill:#5165f4;}.cls-12{fill:#d49a34;}.cls-13{fill:#534741;}.cls-14{fill:#3a494c;}.cls-15{fill:#506266;}.cls-16{fill:#343738;}.cls-17{fill:#63767c;}.cls-18{fill:#a4bbbc;}.cls-19{clip-path:url(#clip-path);}.cls-20{fill:#aec2c3;}.cls-21{fill:#616161;}.cls-22{fill:#798e91;}</style><clipPath id="clip-path" transform="translate(-148.83 -232.99)"><path class="cls-1" d="M200.4,400.83h-.08c3.32,0,6-3.52,6-7.93a9.8,9.8,0,0,0-1.07-4.53l-.21-.5a9.58,9.58,0,0,1,1.37,5c0,4.41-2.73,7.93-6,7.93"/></clipPath></defs><path class="cls-2" d="M399.9,319.52l-.31,0c-1,0-1.38.9-2.2,1.16-.37.11-1.43-.32-1.47.31,0,.23-.12,1-.18,1.81-.29.6-.54,1.21-.88,1.78C394,326,390.48,328,391.72,330a3.61,3.61,0,0,0,.84,1,3.17,3.17,0,0,0,1,.47c.27.08.68.29.92.16s.56-.8.73-1l1.47-2.1c.47-.68,1.1-1.44,1.93-1.4a5.35,5.35,0,0,0,.55.05,1.47,1.47,0,0,0,.57-.22,9.66,9.66,0,0,0,1.86-1.32c1-.92.66-3,.55-4.21a1.91,1.91,0,0,0-.21-.85,2,2,0,0,0-1.19-.77,3.86,3.86,0,0,0-.82-.24Z" transform="translate(-148.83 -232.99)"/><path class="cls-3" d="M382.06,345a12.07,12.07,0,0,0,3.07-.91,10.73,10.73,0,0,0,2.08-1.47,51.12,51.12,0,0,0,10.3-12,18.88,18.88,0,0,0-5.84-4.58,81.53,81.53,0,0,1-9.91,8.46,9.79,9.79,0,0,1-2.29,1.35,10.72,10.72,0,0,1-3.79.44l-14.91-.11c-3,0-6.1,0-8.83,1.21-7.58,3.42-4.38,13.43,3.36,13.08,8.7-.4,18.2-3.75,26.76-5.48Z" transform="translate(-148.83 -232.99)"/><path class="cls-4" d="M302.93,284.66a54.34,54.34,0,1,1,51.6,56.94,54.33,54.33,0,0,1-51.6-56.94Z" transform="translate(-148.83 -232.99)"/><path class="cls-5" d="M311.14,285.07a46.12,46.12,0,1,1,43.8,48.32,46.11,46.11,0,0,1-43.8-48.32Z" transform="translate(-148.83 -232.99)"/><path class="cls-6" d="M383.23,249.2a46.12,46.12,0,0,1-66.06,61,46.12,46.12,0,1,0,66.06-61Z" transform="translate(-148.83 -232.99)"/><path class="cls-7" d="M319,289.68a40.71,40.71,0,0,1,74.11-21.21,40.71,40.71,0,1,0-69.7,41.74A40.49,40.49,0,0,1,319,289.68Z" transform="translate(-148.83 -232.99)"/><path class="cls-8" d="M303.6,476.89q-32.84,0-65.64-1-23.24-.75-46.38-2c-11.44-.62-29.52-.25-39.46-2.93,4.83-2.09,12.37-2.47,19.52-2.47,3.65,0,7.21.1,10.25.12q12.47.09,24.93.08,12.69,0,25.39-.09,51.36-.35,102.63-2.16c6.25-.22,12.6-.45,18.9-.45a135.19,135.19,0,0,1,27.11,2.27c.78,1.32-1.65,2.54-4,3.31-13.51,4.45-30.64,5-46.87,5.2q-13.22.16-26.42.17" transform="translate(-148.83 -232.99)"/><path class="cls-2" d="M282.51,433.64a21.75,21.75,0,0,0,.69,2.81,44.09,44.09,0,0,0,9.76-1.82c-1.48-1.27-.86-2.88-3.71-2.64-.92.08-5.25,1.66-6.74,1.65Z" transform="translate(-148.83 -232.99)"/><path class="cls-9" d="M285.08,436.48a1.49,1.49,0,0,1-.33,1.43,3.72,3.72,0,0,0-.56.76,2.18,2.18,0,0,0-.09.92c.08,1.78.75,5.8-2.49,4.08-2.95-1.56-2.65-6.89-2.37-10a1,1,0,0,1,.15-.58,1.47,1.47,0,0,1,.54-.4c1.21-.52,2.7-1.22,3.45.24.32.63,0,1.29.32,1.95s1.18,1,1.38,1.59Z" transform="translate(-148.83 -232.99)"/><path class="cls-10" d="M324.91,395.55c-4,5.23.72,16.09-3.68,19.61-9.19,7.35-21.12,11-31.42,14.81-.74.27-2.79.6-3.78.91a33.87,33.87,0,0,0,1.58,7.36c12.3-1.4,32.57-3.17,39.94-6.23,10-4.17,19.6-17.49,28.07-25.59,1.4-1.34,3.45-3.26,3.37-5.39a6.46,6.46,0,0,0-2.05-4.18c-3.2-3.49-7.07-9-12.27-9-5.69,0-16.67,3.68-19.76,7.7Z" transform="translate(-148.83 -232.99)"/><path class="cls-2" d="M366.38,461.87c1,.2,2,.11,3,.21a48.66,48.66,0,0,0,1.46-10.44c-1.74,1.14-3.06.07-3.73,3-.22,1-.16,5.73-.72,7.22Z" transform="translate(-148.83 -232.99)"/><path class="cls-9" d="M370,460.24a1.58,1.58,0,0,1,1.28.79,7,7,0,0,0,.52.81,1.76,1.76,0,0,0,.85.36c1.74.44,5.8,1.05,3.15,3.64-2.41,2.34-7.41.42-10.3-.79a1.2,1.2,0,0,1-.53-.32,1.42,1.42,0,0,1-.2-.65c-.16-1.3-.37-3,1.26-3.29.7-.11,1.28.42,2,.29s1.33-.84,1.95-.84Z" transform="translate(-148.83 -232.99)"/><path class="cls-10" d="M340.48,409.85c4.77,4.76,18.41,8.25,20.63,13.73.89,2.2,3.82,18.45,4.26,29.89,0,.82-.34,2.95-.35,4,2.54.73,4.83.58,7.57.77,2-13.19,4.07-36.27,4.07-36.27-2.71-11.53-15.79-24.76-23.05-35.14-1.21-1.72-2.61-4.08-4.77-4.37a6.27,6.27,0,0,0-4.45,1.33c-4,2.59-16,6.73-16.91,11.89-1,5.64,9.34,10.48,13,14.14Z" transform="translate(-148.83 -232.99)"/><path class="cls-11" d="M341.9,337.45c-.86.62-1.7,1.25-2.52,1.87-3.32,2.49-6.72,5.06-9.23,8.41-2.34,3.11-2.95,7-4.1,10.67-3.2,10.22-3.75,21-5.23,31.55a23.55,23.55,0,0,1-1.44,6,8.65,8.65,0,0,1-4.06,4.54c-1.82.86-4,.85-5.73,1.81.26-.14,3.16,1.88,3.59,2.1a11.63,11.63,0,0,0,3.82,1.23c3.08.46,6.26.84,9.3-.05,3.37-1,6.11-3.4,9.19-5.06a22.44,22.44,0,0,1,10.26-2.69c6.41-.11,13.05,2.48,19.05.24-1.27.47-3.08-9.48-3.23-10.38-.65-3.94-.15-8.05.2-12.05.65-7.39,1-14.81,1.6-22.18.44-5.28,1.54-9.42-2.07-13.88-2-2.43-5.55-6.64-8.8-6.59-4,.07-7.43,2.14-10.6,4.42Z" transform="translate(-148.83 -232.99)"/><path class="cls-2" d="M361.68,331.42a32.72,32.72,0,0,1-4.08,2.8,9.42,9.42,0,0,0-2.89,3.26,2.16,2.16,0,0,1-2.6,1.3c-2.49-.62-1-2.29-1-3.93,0-1.87-.74-3.68-1.07-5.49-.95-5.25,3.15-13.21,9.35-12.75,6.77.5,5.92,11.36,2.28,14.81Z" transform="translate(-148.83 -232.99)"/><path class="cls-12" d="M377.35,275.91a1.25,1.25,0,0,0-.92-.36h-6.84a13.76,13.76,0,0,0-2.56-5.76h9.32a1.25,1.25,0,0,0,.92-.36,1.28,1.28,0,0,0,.35-.92v-4.08a1.28,1.28,0,0,0-.35-.92,1.25,1.25,0,0,0-.92-.36H343.08a1.23,1.23,0,0,0-1.28,1.28v5.32a1.3,1.3,0,0,0,1.28,1.28h5.8q8.43,0,10.71,4.51H343.08a1.23,1.23,0,0,0-1.28,1.28v4.08a1.24,1.24,0,0,0,.36.92,1.25,1.25,0,0,0,.92.36h17.07a7.8,7.8,0,0,1-4.09,5,18,18,0,0,1-8.5,1.72h-4.48a1.3,1.3,0,0,0-1.28,1.28v5.08a1.17,1.17,0,0,0,.36.87q7.68,8.16,19.91,22.83a1.19,1.19,0,0,0,1,.48h7.8a1.16,1.16,0,0,0,1.16-.72,1.11,1.11,0,0,0-.16-1.36Q360.2,303,353.52,295.93a20.21,20.21,0,0,0,11-4.39,14.92,14.92,0,0,0,5.16-9.36h6.72a1.25,1.25,0,0,0,.92-.36,1.24,1.24,0,0,0,.36-.92v-4.07A1.24,1.24,0,0,0,377.35,275.91Z" transform="translate(-148.83 -232.99)"/><path class="cls-13" d="M353.61,322.38a1.7,1.7,0,0,0-.68,2.1c.21.38.58.64.81,1,.68,1.07-.11,2.5-1.1,3.29s-2.24,1.33-2.91,2.41c-3.38-2.74-6-6.7-6.2-11a10.92,10.92,0,0,1,3.41-8.52c2.74-2.49,5.51-2.35,9.07-2.66a11.71,11.71,0,0,1,4.38.19,21.4,21.4,0,0,0,6.46,1.36,6.38,6.38,0,0,0,3.94-1.2,19.09,19.09,0,0,0,2.25-2.57,4,4,0,0,1,2.89-1.63,3,3,0,0,1-.22,2c-.2.29-.5.51-.69.81-.74,1.14.36,2.74-.17,4-.38.89-1.45,1.26-2.08,2a10.28,10.28,0,0,0-1.12,2.28c-1.26,2.52-5,5.38-7.23,6.9.68-.45-1.68-3.09-2.22-3.2-1.27-.27-3.29,1.17-4.59,1.48s-2.89.27-4,1Z" transform="translate(-148.83 -232.99)"/><path class="cls-2" d="M385.43,377.25a1.72,1.72,0,0,0-.11-.29c-.41-.87-1.38-.9-1.95-1.55-.25-.28-.28-1.43-.87-1.21-.22.08-1,.3-1.74.56a18.74,18.74,0,0,1-2-.09c-1.66-.2-4.93-2.6-6.21-.68a3.66,3.66,0,0,0-.6,1.18,3.06,3.06,0,0,0,0,1.09c0,.28,0,.73.22.91a3.91,3.91,0,0,0,1.25.24l2.51.49c.82.17,1.77.43,2.06,1.21a4.56,4.56,0,0,0,.18.52,1.63,1.63,0,0,0,.43.44,9.92,9.92,0,0,0,2,1.16c1.24.54,3-.62,4.07-1.19a2,2,0,0,0,.7-.54,2.15,2.15,0,0,0,.23-1.4,5,5,0,0,0-.12-.85Z" transform="translate(-148.83 -232.99)"/><path class="cls-3" d="M354.92,371.22a12.11,12.11,0,0,0,2.07,2.44,11.54,11.54,0,0,0,2.19,1.31,51.11,51.11,0,0,0,15.14,4.58,19.13,19.13,0,0,0,1.82-7.19,82.8,82.8,0,0,1-11.74-5.65,9.79,9.79,0,0,1-2.16-1.55,10.76,10.76,0,0,1-1.93-3.29q-3-6.84-5.92-13.68c-1.2-2.75-2.45-5.59-4.68-7.59-6.19-5.55-14.06,1.41-10.61,8.35,3.88,7.8,10.78,15.14,15.82,22.27Z" transform="translate(-148.83 -232.99)"/><polygon class="cls-14" points="18.08 236.81 9.82 236.81 9.82 221.07 26.34 221.07 26.34 228.17 18.08 236.81 18.08 236.81"/><polygon class="cls-14" points="106.37 236.45 114.63 236.45 114.63 220.71 98.11 220.71 98.11 227.81 106.37 236.45 106.37 236.45"/><path class="cls-15" d="M266.82,459.7H154.11a5.28,5.28,0,0,1-5.28-5.28V330.13a5.28,5.28,0,0,1,5.28-5.28H266.82a5.27,5.27,0,0,1,5.28,5.28V454.42a5.27,5.27,0,0,1-5.28,5.28" transform="translate(-148.83 -232.99)"/><path class="cls-16" d="M261.89,448.22H159a1,1,0,0,1-1-1V337.31a1,1,0,0,1,1-1H261.89a1,1,0,0,1,1,1V447.24a1,1,0,0,1-1,1" transform="translate(-148.83 -232.99)"/><path class="cls-17" d="M248,464.66l-88.7-15.91c-.39-.07-.7-.6-.7-1.18V338.22c0-.58.31-1.11.7-1.18L248,321.13a1,1,0,0,1,1.18,1.15V463.52a1,1,0,0,1-1.18,1.14" transform="translate(-148.83 -232.99)"/><path class="cls-15" d="M224.21,392.9c0,17.39-11.14,30.56-24,29.48-12-1-21.12-14.17-21.12-29.48s9.14-28.49,21.12-29.49c12.86-1.08,24,12.09,24,29.49" transform="translate(-148.83 -232.99)"/><path class="cls-18" d="M218.4,392.9c0,13.18-8.37,23.33-18.19,22.7-9.3-.6-16.48-10.75-16.48-22.7s7.18-22.11,16.48-22.7c9.82-.64,18.19,9.51,18.19,22.7" transform="translate(-148.83 -232.99)"/><path class="cls-9" d="M206.36,392.9c0,4.46-2.78,8-6.15,7.93s-5.94-3.63-5.94-7.93,2.63-7.86,5.94-7.94,6.15,3.48,6.15,7.94" transform="translate(-148.83 -232.99)"/><g class="cls-19"><rect class="cls-20" x="51.43" y="154.88" width="6.19" height="12.96"/></g><path class="cls-21" d="M200.32,400.83h-.06c-2.2-.06-4.1-1.67-5.11-4a5.66,5.66,0,0,0,4.64,3h.09c3.32,0,6.05-3.53,6.05-7.94a10,10,0,0,0-.64-3.55,9.8,9.8,0,0,1,1.07,4.53c0,4.41-2.72,7.93-6,7.93" transform="translate(-148.83 -232.99)"/><path class="cls-9" d="M200.71,415.18v-5c0-.69-.83-.73-.83,0v5c0,.7.83.75.83.05Z" transform="translate(-148.83 -232.99)"/><path class="cls-9" d="M200.71,375.65v-5c0-.7-.83-.64-.83.05v5c0,.69.83.66.83,0Z" transform="translate(-148.83 -232.99)"/><path class="cls-9" d="M184,393.62h3.53c.49,0,.49-1.05,0-1l-3.53,0c-.48,0-.47,1,0,1Z" transform="translate(-148.83 -232.99)"/><path class="cls-9" d="M213.84,393.48l4.19,0c.58,0,.58-1.14,0-1.14l-4.18,0c-.57,0-.57,1.12,0,1.12Z" transform="translate(-148.83 -232.99)"/><path class="cls-9" d="M189.15,408.94l2.51-3.43c.34-.48-.22-1.22-.57-.75l-2.5,3.44c-.34.47.22,1.21.56.74Z" transform="translate(-148.83 -232.99)"/><path class="cls-9" d="M209.83,380.6l2.82-3.86c.39-.54-.24-1.28-.64-.74l-2.8,3.86c-.39.53.24,1.27.62.74Z" transform="translate(-148.83 -232.99)"/><path class="cls-9" d="M189.18,377l2.37,3.6c.33.51.92-.2.59-.71l-2.37-3.61c-.33-.49-.91.22-.59.72Z" transform="translate(-148.83 -232.99)"/><path class="cls-9" d="M208.67,406.72l2.64,4c.37.56,1-.14.67-.7l-2.66-4c-.36-.56-1,.14-.65.69Z" transform="translate(-148.83 -232.99)"/><path class="cls-22" d="M236,417.7h0a1.83,1.83,0,0,1-1.54-1.92V371a1.83,1.83,0,0,1,1.54-1.92h0a1.6,1.6,0,0,1,1.55,1.75V416A1.6,1.6,0,0,1,236,417.7Z" transform="translate(-148.83 -232.99)"/><path class="cls-22" d="M250.29,464.68H248V321.13h2.31a.52.52,0,0,1,.52.52V464.16a.52.52,0,0,1-.52.52Z" transform="translate(-148.83 -232.99)"/><path class="cls-22" d="M162.59,365.9v-7.5a3.5,3.5,0,0,0-7,0v7.5Z" transform="translate(-148.83 -232.99)"/><path class="cls-22" d="M155.59,366.88v7.5a3.5,3.5,0,0,0,7,0v-7.5Z" transform="translate(-148.83 -232.99)"/><path class="cls-22" d="M161.7,416.53V409a3.5,3.5,0,0,0-7,0v7.5Z" transform="translate(-148.83 -232.99)"/><path class="cls-22" d="M154.7,417.51V425a3.5,3.5,0,0,0,7,0v-7.49Z" transform="translate(-148.83 -232.99)"/></svg>