<svg id="Layer_1" data-name="Layer 1" xmlns="http://www.w3.org/2000/svg" xmlns:xlink="http://www.w3.org/1999/xlink" viewBox="0 0 70.51 46.56"><defs><style>.cls-1{fill:url(#linear-gradient);}.cls-2{fill:url(#linear-gradient-2);}</style><linearGradient id="linear-gradient" x1="262.48" y1="421.01" x2="315.34" y2="421.01" gradientUnits="userSpaceOnUse"><stop offset="0" stop-color="#37a9e5"/><stop offset="1" stop-color="#3d53b9"/></linearGradient><linearGradient id="linear-gradient-2" x1="321.59" y1="427.12" x2="332.99" y2="427.12" xlink:href="#linear-gradient"/></defs><path class="cls-1" d="M312.25,419.77v-8a1.56,1.56,0,0,0-1.55-1.55h-1.25c-.41-1.14-3.67-10.09-4.17-11.46a1.54,1.54,0,0,0-2-.93L286.16,404h-19a4.64,4.64,0,0,0-4.64,4.64v31a4.65,4.65,0,0,0,4.64,4.65H310.7a1.56,1.56,0,0,0,1.55-1.55v-8a4.65,4.65,0,0,0,3.09-4.38v-6.2a4.65,4.65,0,0,0-3.09-4.38Zm-15-16.46a7.78,7.78,0,0,0,7.75,3.63l1.2,3.27h-28Zm6.66.61a4.69,4.69,0,0,1-2-.43,4.64,4.64,0,0,1-1.63-1.27l2.67-1Zm-36.75,3.2H277.6L269,410.21h-1.92a1.55,1.55,0,0,1,0-3.09Zm0,34.07a1.55,1.55,0,0,1-1.54-1.55V413a4.38,4.38,0,0,0,1.54.27h42v6.2h-7.74a7.74,7.74,0,1,0,0,15.48h7.74v6.2Zm45.13-10.84a1.56,1.56,0,0,1-1.55,1.55h-9.29a4.65,4.65,0,0,1,0-9.3h9.29a1.56,1.56,0,0,1,1.55,1.55Z" transform="translate(-262.48 -397.73)"/><path class="cls-2" d="M332.87,422.23a.4.4,0,0,0-.29-.11h-2.17a4.35,4.35,0,0,0-.81-1.83h2.95a.38.38,0,0,0,.41-.41v-1.29a.4.4,0,0,0-.11-.29.41.41,0,0,0-.3-.12H322a.41.41,0,0,0-.41.41v1.69a.38.38,0,0,0,.12.28.4.4,0,0,0,.29.12h1.84c1.78,0,2.92.48,3.4,1.44H322a.4.4,0,0,0-.29.11.38.38,0,0,0-.12.29v1.3a.38.38,0,0,0,.12.29.36.36,0,0,0,.29.11h5.42a2.46,2.46,0,0,1-1.31,1.59,5.73,5.73,0,0,1-2.69.55H322a.4.4,0,0,0-.29.12.38.38,0,0,0-.12.28v1.61a.36.36,0,0,0,.12.28q2.43,2.6,6.31,7.25a.39.39,0,0,0,.32.15h2.48a.36.36,0,0,0,.36-.23.34.34,0,0,0-.05-.43q-3.7-4.54-5.82-6.8a6.45,6.45,0,0,0,3.5-1.4,4.75,4.75,0,0,0,1.64-3h2.13a.36.36,0,0,0,.29-.11.38.38,0,0,0,.12-.29v-1.3A.38.38,0,0,0,332.87,422.23Z" transform="translate(-262.48 -397.73)"/></svg>