<svg id="Layer_1" data-name="Layer 1" xmlns="http://www.w3.org/2000/svg" viewBox="0 0 52 52"><defs><style>.cls-1{fill:#fff;}.cls-2{fill:#3374c1;}</style></defs><circle class="cls-1" cx="26" cy="26" r="26"/><path class="cls-2" d="M83.92,87.28a3.74,3.74,0,0,0-3.46-3.73A14.48,14.48,0,0,0,78.39,79a2.81,2.81,0,0,0-3.9-3.9A14.58,14.58,0,0,0,69.93,73a3.76,3.76,0,0,0-2.42-3.23.52.52,0,1,0-.36,1,2.71,2.71,0,0,1-1,5.24h0a2.71,2.71,0,0,1-1-5.24.52.52,0,0,0-.37-1A3.78,3.78,0,0,0,62.46,73a14.58,14.58,0,0,0-4.56,2.07A2.8,2.8,0,0,0,54,79a14.28,14.28,0,0,0-2.08,4.56,3.75,3.75,0,0,0,0,7.47A14.38,14.38,0,0,0,54,95.58a2.8,2.8,0,0,0,3.89,3.89,14.38,14.38,0,0,0,4.56,2.08,3.75,3.75,0,0,0,7.47,0,14.38,14.38,0,0,0,4.56-2.08,2.82,2.82,0,0,0,1.59.5,2.78,2.78,0,0,0,2-.82,2.81,2.81,0,0,0,.33-3.57A14.83,14.83,0,0,0,80.47,91a3.75,3.75,0,0,0,3.45-3.74Zm-6.28,7.4a2.83,2.83,0,0,0-3.14,0L73,93.2a9.09,9.09,0,0,0,2.31-5.56h1.16a3.76,3.76,0,0,0,2.94,3.15,13.68,13.68,0,0,1-1.77,3.89Zm-11,2.87V96.39a9.08,9.08,0,0,0,5.55-2.3l1.5,1.5a2.81,2.81,0,0,0,0,3.13,13.53,13.53,0,0,1-3.89,1.77,3.76,3.76,0,0,0-3.15-2.94Zm-4.07,3a13.73,13.73,0,0,1-4-1.82,2.94,2.94,0,0,0,0-3.22L60.11,94A9.33,9.33,0,0,0,61.6,95.1a.54.54,0,0,0,.73-.19.53.53,0,0,0-.19-.73,8.08,8.08,0,0,1-1.34-1v-.54a1,1,0,0,1,.68-1l2.6-.89a3.68,3.68,0,0,0,4.31,0l2.6.89a1,1,0,0,1,.67,1v.65a8.05,8.05,0,0,1-7.43,1.77.51.51,0,1,0-.27,1,8.39,8.39,0,0,0,1.86.3v1.2a3.86,3.86,0,0,0-3.24,3Zm-7.82-5.91A13.41,13.41,0,0,1,53,90.79a3.76,3.76,0,0,0,2.94-3.15h1.16a9.17,9.17,0,0,0,2.3,5.56l-1.5,1.5A2.87,2.87,0,0,0,54.76,94.68Zm3.13-14.92,1.5,1.5a9.08,9.08,0,0,0-2.3,5.55H55.93A3.37,3.37,0,0,0,53,83.66a12.47,12.47,0,0,1,1.77-3.89,2.46,2.46,0,0,0,3.13,0Zm8.34-.59a8.33,8.33,0,0,1,7,3.85.53.53,0,0,0,.9-.55,9.4,9.4,0,0,0-1-1.27l1.52-1.52a2.91,2.91,0,0,0,3.18,0,13.46,13.46,0,0,1,1.8,3.93,3.8,3.8,0,0,0-3,3.18H75.49a9.51,9.51,0,0,0-.38-2.13.53.53,0,0,0-1,.3,8.19,8.19,0,0,1-1.37,7.35,2.06,2.06,0,0,0-1.36-1.51l-2.22-.76a3.07,3.07,0,0,0,.43-1.56V84.21a2.41,2.41,0,0,0-2.41-2.41H65.31a2.41,2.41,0,0,0-2.42,2.41V88.5a3.07,3.07,0,0,0,.43,1.56l-2.23.76a2,2,0,0,0-1.35,1.51,8.56,8.56,0,0,1-1.72-5,8.2,8.2,0,0,1,8.21-8.15Zm-2.5,9.19v-2h.6a2.35,2.35,0,0,0,1.81-.94,1.61,1.61,0,0,0,1.36.94h.82v2C68.32,91.07,63.73,91.07,63.73,88.36Zm0-2.8V83.93a.87.87,0,0,1,.87-.88h2.84a.87.87,0,0,1,.88.88v1.63h-.89a.21.21,0,0,1-.18-.1l-.54-.9a.56.56,0,0,0-.85-.09l-.89.89a.63.63,0,0,1-.46.2Zm19.15,1.72a2.71,2.71,0,1,1-2.7-2.71,2.71,2.71,0,0,1,2.7,2.71ZM77.33,76.15a1.76,1.76,0,1,1-2.49,0A1.77,1.77,0,0,1,77.33,76.15ZM69.8,74.07a13.62,13.62,0,0,1,3.88,1.77,2.83,2.83,0,0,0,0,3.13l-1.49,1.5a9.1,9.1,0,0,0-5.56-2.3V77A3.76,3.76,0,0,0,69.8,74.07Zm-4,2.94v1.16a9,9,0,0,0-5.55,2.31L58.76,79a2.87,2.87,0,0,0,0-3.13,13.68,13.68,0,0,1,3.89-1.77A3.76,3.76,0,0,0,65.82,77Zm-10.75-.86a1.76,1.76,0,1,1,0,2.45A1.76,1.76,0,0,1,55.07,76.15ZM49.51,87.28A2.71,2.71,0,1,1,52.22,90a2.71,2.71,0,0,1-2.71-2.71Zm5.56,11.13a1.71,1.71,0,0,1-.52-1.24,1.76,1.76,0,1,1,1.76,1.76A1.71,1.71,0,0,1,55.07,98.41ZM66.2,104a2.71,2.71,0,0,1-2.71-2.71,2.71,2.71,0,1,1,5.41,0A2.71,2.71,0,0,1,66.2,104Zm11.13-5.56a1.76,1.76,0,1,1,0-2.45A1.76,1.76,0,0,1,77.33,98.41Z" transform="translate(-40.07 -61.58)"/></svg>