<svg id="Layer_1" data-name="Layer 1" xmlns="http://www.w3.org/2000/svg" viewBox="0 0 52 52"><defs><style>.cls-1{fill:#fff;}.cls-2{fill:#3374c1;}</style></defs><circle class="cls-1" cx="26" cy="26" r="26"/><path class="cls-2" d="M80.15,81.61a.17.17,0,0,0-.14-.06h-1.1a2.19,2.19,0,0,0-.41-.93H80a.2.2,0,0,0,.15-.06.17.17,0,0,0,.06-.14v-.66a.2.2,0,0,0-.06-.15.25.25,0,0,0-.15,0H74.65a.18.18,0,0,0-.2.2v.86a.21.21,0,0,0,.2.2h.93c.91,0,1.48.24,1.72.73H74.65a.2.2,0,0,0-.15.06.2.2,0,0,0,0,.14v.66a.18.18,0,0,0,.2.2h2.74a1.27,1.27,0,0,1-.65.81,3,3,0,0,1-1.37.27h-.72a.2.2,0,0,0-.14.06.2.2,0,0,0-.06.15v.81a.2.2,0,0,0,0,.14c.83.88,1.89,2.1,3.2,3.67a.19.19,0,0,0,.16.08h1.25a.19.19,0,0,0,.19-.12.17.17,0,0,0,0-.22C78,86.73,77,85.58,76.33,84.82a3.22,3.22,0,0,0,1.77-.7,2.45,2.45,0,0,0,.83-1.51H80a.2.2,0,0,0,.14,0,.2.2,0,0,0,.06-.15v-.66A.17.17,0,0,0,80.15,81.61Z" transform="translate(-40.07 -66.85)"/><path class="cls-2" d="M77.33,75.85a8.28,8.28,0,0,0-7.73,5.43H55.24a.6.6,0,0,0-.58.6l-.14,20.3H50.43a.57.57,0,0,0-.6.55v2.58a4.55,4.55,0,0,0,4.34,4.52H72.34a4.54,4.54,0,0,0,4.54-4.54v-13h.45a8.22,8.22,0,0,0,0-16.44ZM54.39,108.69h0A3.41,3.41,0,0,1,51,105.3v-2H67.77v2a4.52,4.52,0,0,0,1.34,3.22c.06.06.13.1.2.18Zm21.33-3.39a3.39,3.39,0,0,1-3.38,3.39h0a3.41,3.41,0,0,1-3.4-3.4v-2.56a.59.59,0,0,0-.16-.4.54.54,0,0,0-.4-.15H55.68l.13-19.74H69.27a8.58,8.58,0,0,0-.15,1.6,8,8,0,0,0,.69,3.31H64.35a.58.58,0,1,0,0,1.16h6.09a8.11,8.11,0,0,0,5.28,3.62Zm1.61-14.17a7.06,7.06,0,1,1,7.06-7A7.06,7.06,0,0,1,77.33,91.13Z" transform="translate(-40.07 -66.85)"/><path class="cls-2" d="M60.64,91.2A1.8,1.8,0,1,0,62.49,93,1.83,1.83,0,0,0,60.64,91.2Zm0,2.43a.66.66,0,0,1-.7-.63.7.7,0,0,1,1.39,0A.66.66,0,0,1,60.64,93.63Z" transform="translate(-40.07 -66.85)"/><path class="cls-2" d="M63.77,93a.58.58,0,0,0,.58.58h7.71a.58.58,0,1,0,0-1.15H64.35A.58.58,0,0,0,63.77,93Z" transform="translate(-40.07 -66.85)"/><path class="cls-2" d="M60.64,86.18A1.79,1.79,0,1,0,62.49,88,1.82,1.82,0,0,0,60.64,86.18Zm0,2.42a.66.66,0,0,1-.7-.63.7.7,0,0,1,1.39,0,.66.66,0,0,1-.69.63Z" transform="translate(-40.07 -66.85)"/><path class="cls-2" d="M60.64,96.23A1.8,1.8,0,1,0,62.49,98,1.83,1.83,0,0,0,60.64,96.23Zm0,2.43a.66.66,0,0,1-.7-.63.7.7,0,0,1,1.39,0A.66.66,0,0,1,60.64,98.66Z" transform="translate(-40.07 -66.85)"/><path class="cls-2" d="M72.06,97.48H64.35a.58.58,0,1,0,0,1.16h7.71a.58.58,0,0,0,0-1.16Z" transform="translate(-40.07 -66.85)"/></svg>