<svg id="Layer_1" data-name="Layer 1" xmlns="http://www.w3.org/2000/svg" viewBox="0 0 52 52"><defs><style>.cls-1{fill:#fff;}.cls-2{fill:#3374c1;}</style></defs><circle class="cls-1" cx="26" cy="26" r="26"/><path class="cls-2" d="M78.55,102.89h-20a2.62,2.62,0,0,1-2.62-2.63V95.94a2.62,2.62,0,0,1,2.62-2.63h20a2.63,2.63,0,0,1,2.63,2.63v4.32A2.63,2.63,0,0,1,78.55,102.89ZM57,96v4.13a1.57,1.57,0,0,0,1.57,1.57H78.45A1.57,1.57,0,0,0,80,100.17V96a1.58,1.58,0,0,0-1.58-1.58H58.6A1.57,1.57,0,0,0,57,96Z" transform="translate(-42.53 -67.45)"/><path class="cls-2" d="M59.9,105.09a.57.57,0,0,1-.57-.58v-2.3a.56.56,0,0,1,.57-.57.57.57,0,0,1,.58.57v2.3A.58.58,0,0,1,59.9,105.09Z" transform="translate(-42.53 -67.45)"/><path class="cls-2" d="M74.47,94.72a.58.58,0,0,1-.58-.57V88.39a.58.58,0,0,1,.58-.57.57.57,0,0,1,.57.57v5.76A.57.57,0,0,1,74.47,94.72Z" transform="translate(-42.53 -67.45)"/><path class="cls-2" d="M77.54,105.09a.58.58,0,0,1-.58-.58v-2.3a.58.58,0,0,1,1.15,0v2.3A.58.58,0,0,1,77.54,105.09Z" transform="translate(-42.53 -67.45)"/><path class="cls-2" d="M76.58,99.68a1.58,1.58,0,1,1,1.58-1.58A1.57,1.57,0,0,1,76.58,99.68Zm0-2.1a.52.52,0,0,0-.52.52.52.52,0,0,0,.52.53.53.53,0,0,0,.53-.53A.52.52,0,0,0,76.58,97.58Z" transform="translate(-42.53 -67.45)"/><path class="cls-2" d="M60.81,99.68a1.58,1.58,0,1,1,1.58-1.58A1.58,1.58,0,0,1,60.81,99.68Zm0-2.1a.52.52,0,0,0-.52.52.52.52,0,0,0,.52.53.53.53,0,0,0,.53-.53A.52.52,0,0,0,60.81,97.58Z" transform="translate(-42.53 -67.45)"/><path class="cls-2" d="M66.07,99.68a1.58,1.58,0,1,1,1.58-1.58A1.58,1.58,0,0,1,66.07,99.68Zm0-2.1a.52.52,0,0,0-.53.52.53.53,0,0,0,.53.53.52.52,0,0,0,.52-.53A.52.52,0,0,0,66.07,97.58Z" transform="translate(-42.53 -67.45)"/><path class="cls-2" d="M77.17,87.53a.52.52,0,0,1-.45-.26,2.62,2.62,0,0,0-4.48,0,.52.52,0,1,1-.9-.54,3.67,3.67,0,0,1,6.28,0,.52.52,0,0,1-.18.72.53.53,0,0,1-.27.08Z" transform="translate(-42.53 -67.45)"/><path class="cls-2" d="M79.43,85.27a.53.53,0,0,1-.41-.2,5.77,5.77,0,0,0-9.08,0,.53.53,0,0,1-.83-.65,6.83,6.83,0,0,1,10.74,0,.53.53,0,0,1-.09.73.52.52,0,0,1-.33.12Z" transform="translate(-42.53 -67.45)"/></svg>