<svg id="Layer_1" data-name="Layer 1" xmlns="http://www.w3.org/2000/svg" viewBox="0 0 52 52"><defs><style>.cls-1{fill:#fff;}.cls-2{fill:#3374c1;}</style></defs><circle class="cls-1" cx="26" cy="26" r="26"/><path class="cls-2" d="M81.68,79.59H50.47a.73.73,0,0,0-.73.73V81.5a.52.52,0,0,0,1,0v-.87H81.37V99.3H70V94.57a1,1,0,0,0-1-1H62.64a1,1,0,0,0-1,1V99.3H50.78V83.62a.36.36,0,0,0-.38-.47.87.87,0,0,0-.66.47v17.72c.18.4.91.55.91.55h3.24v1.25a1.38,1.38,0,0,0,.88,1.33,1.33,1.33,0,0,0,1.71-1.35v-1.23h5.19v4.72a1,1,0,0,0,1,1H69a1,1,0,0,0,1-1v-4.72h5.71v1.25a1.38,1.38,0,0,0,.88,1.33,1.33,1.33,0,0,0,1.71-1.35v-1.23h3.42a.73.73,0,0,0,.73-.73V80.32A.73.73,0,0,0,81.68,79.59Zm-19,15h6.68a0,0,0,0,1,0,0v3.6H62.7v-3.6A0,0,0,0,1,62.73,94.63ZM56,103.12a.52.52,0,0,1-1,0v-1.23h1Zm-5.18-1.75v-1H61.67v1Zm18.56,5.7H62.78c0-.28-.08-.31-.08-.31V105h3.63a.52.52,0,1,0,0-1H62.7V99.3h6.74V104H68a.52.52,0,0,0,0,1h1.41v1.76C69.37,106.77,69.35,106.79,69.34,107.07Zm7.88-3.95a.49.49,0,0,1-.52.47.5.5,0,0,1-.52-.47v-1.23h1Zm-6.74-1.75v-1H81.37v1Z" transform="translate(-40.07 -64.34)"/><path class="cls-2" d="M58.49,82.18H54a1.11,1.11,0,0,0-1.1,1.11v4.53a1.1,1.1,0,0,0,1.1,1.1h4.54a1.1,1.1,0,0,0,1.1-1.1V83.29A1.11,1.11,0,0,0,58.49,82.18Zm-.09,5.71H54.05a.16.16,0,0,1-.16-.16V83.38a.16.16,0,0,1,.16-.16H58.4a.16.16,0,0,1,.16.16v4.35A.16.16,0,0,1,58.4,87.89Z" transform="translate(-40.07 -64.34)"/><path class="cls-2" d="M78.1,87.89H76.94a.52.52,0,1,0,0,1h1.25a1.11,1.11,0,0,0,1.11-1.1V83.29a1.11,1.11,0,0,0-1.11-1.11H61.73a1.11,1.11,0,0,0-1.1,1.11v4.53a1.1,1.1,0,0,0,1.1,1.1H76.24a.52.52,0,1,0,0-1H61.82a.16.16,0,0,1-.15-.16V83.38a.16.16,0,0,1,.15-.16H78.1a.16.16,0,0,1,.16.16v4.35A.16.16,0,0,1,78.1,87.89Z" transform="translate(-40.07 -64.34)"/><path class="cls-2" d="M64.61,97.84a1.42,1.42,0,1,0-1.42-1.42A1.43,1.43,0,0,0,64.61,97.84Zm0-1.89a.47.47,0,1,1-.47.47A.47.47,0,0,1,64.61,96Z" transform="translate(-40.07 -64.34)"/><path class="cls-2" d="M65.08,100.33H64a.52.52,0,0,0,0,1h1a.52.52,0,1,0,0-1Z" transform="translate(-40.07 -64.34)"/><path class="cls-2" d="M67,101.37h1a.52.52,0,0,0,0-1H67a.52.52,0,1,0,0,1Z" transform="translate(-40.07 -64.34)"/><path class="cls-2" d="M65.08,101.89H64a.52.52,0,0,0,0,1h1a.52.52,0,1,0,0-1Z" transform="translate(-40.07 -64.34)"/><path class="cls-2" d="M68.59,102.41a.51.51,0,0,0-.51-.52H67a.52.52,0,1,0,0,1h1A.51.51,0,0,0,68.59,102.41Z" transform="translate(-40.07 -64.34)"/><path class="cls-2" d="M59,90H53a.52.52,0,0,0,0,1h6a.52.52,0,1,0,0-1Z" transform="translate(-40.07 -64.34)"/><path class="cls-2" d="M59,92H53a.52.52,0,1,0,0,1h6a.52.52,0,1,0,0-1Z" transform="translate(-40.07 -64.34)"/><path class="cls-2" d="M59,94.11H53a.52.52,0,0,0-.52.52.52.52,0,0,0,.52.52h6a.53.53,0,0,0,.52-.52A.52.52,0,0,0,59,94.11Z" transform="translate(-40.07 -64.34)"/></svg>