<svg id="Layer_1" data-name="Layer 1" xmlns="http://www.w3.org/2000/svg" viewBox="0 0 52 52"><defs><style>.cls-1{fill:#fff;}.cls-2{fill:#3374c1;}</style></defs><circle class="cls-1" cx="26" cy="26" r="26"/><circle class="cls-2" cx="35.68" cy="27.69" r="0.66"/><path class="cls-2" d="M76.25,74.17a.7.7,0,0,0-.48-.2H56.36a.67.67,0,0,0-.66.67v32.69a.68.68,0,0,0,.37.6.72.72,0,0,0,.29.06.66.66,0,0,0,.41-.14L59,106.16l1.59,1.63a.67.67,0,0,0,.48.2.61.61,0,0,0,.32-.08l2.16-1.16,2.23,1.17a.67.67,0,0,0,.31.07.66.66,0,0,0,.43-.15l2-1.7,2,1.69A.66.66,0,0,0,71,108a.76.76,0,0,0,.33-.08l2.08-1.15,2.09,1.15a.67.67,0,0,0,.66,0,.65.65,0,0,0,.33-.57v-13a.68.68,0,1,0-1.36,0v11.9l-1.41-.78a.68.68,0,0,0-.65,0l-2,1.11-2-1.76a.63.63,0,0,0-.44-.16.66.66,0,0,0-.42.15L66,106.57l-2.15-1.13a.65.65,0,0,0-.62,0l-2,1.09-1.65-1.7a.67.67,0,0,0-.48-.2.62.62,0,0,0-.41.14L57.06,106V75.33h18V88.58a.68.68,0,1,0,1.36,0h0V74.65a.69.69,0,0,0-.2-.48Z" transform="translate(-40.07 -63.65)"/><path class="cls-2" d="M72.17,87.92h-6a.7.7,0,0,0-.66.45.69.69,0,0,0,.64.92h6a.7.7,0,0,0,.66-.45A.69.69,0,0,0,72.17,87.92Z" transform="translate(-40.07 -63.65)"/><path class="cls-2" d="M72.17,85.2h-6a.68.68,0,1,0,0,1.36h6a.68.68,0,1,0,0-1.36Z" transform="translate(-40.07 -63.65)"/><path class="cls-2" d="M72.17,90.65h-6a.68.68,0,1,0,0,1.36h6a.68.68,0,1,0,0-1.36Z" transform="translate(-40.07 -63.65)"/><path class="cls-2" d="M72.17,82.82h-6a.68.68,0,1,0,0,1.36h6a.68.68,0,1,0,0-1.36Z" transform="translate(-40.07 -63.65)"/><path class="cls-2" d="M72.15,79.42H67.54a.68.68,0,1,0,0,1.36h4.61a.68.68,0,1,0,0-1.36Z" transform="translate(-40.07 -63.65)"/><path class="cls-2" d="M60.1,80.78h4.52a.68.68,0,1,0,0-1.36H60.08a.68.68,0,1,0,0,1.36Z" transform="translate(-40.07 -63.65)"/><circle class="cls-2" cx="26.04" cy="39.06" r="0.66"/><path class="cls-2" d="M72.13,101.88h-3a.68.68,0,1,0,0,1.36h3a.68.68,0,1,0,0-1.36Z" transform="translate(-40.07 -63.65)"/><path class="cls-2" d="M60.1,101.88a.68.68,0,1,0,0,1.36h3a.68.68,0,1,0,0-1.36Z" transform="translate(-40.07 -63.65)"/><path class="cls-2" d="M64.69,99.49H60.1a.7.7,0,0,0-.66.45.68.68,0,0,0,.64.91h4.63a.68.68,0,0,0,.64-.91A.7.7,0,0,0,64.69,99.49Z" transform="translate(-40.07 -63.65)"/><path class="cls-2" d="M72.15,99.49H67.61a.7.7,0,0,0-.66.45.68.68,0,0,0,.64.91h4.54a.68.68,0,1,0,0-1.36Z" transform="translate(-40.07 -63.65)"/><path class="cls-2" d="M72,94.05H60.1a.67.67,0,0,0-.66.66v2.76a.66.66,0,0,0,.66.66H72a.66.66,0,0,0,.67-.66V94.71A.67.67,0,0,0,72,94.05Zm-.69,2.72H60.8V95.41H71.35Z" transform="translate(-40.07 -63.65)"/><path class="cls-2" d="M69.18,78.06a.68.68,0,1,0,0-1.36H63.07a.68.68,0,1,0,0,1.36Z" transform="translate(-40.07 -63.65)"/><path class="cls-2" d="M61.59,92.47A.71.71,0,0,0,62.84,92v-.64c1.64-.48,2.57-2.66.75-4.5a1.13,1.13,0,0,0-1.1-.31,1.09,1.09,0,0,1-1.07-1.84.6.6,0,0,1,.46-.22h1.85a.36.36,0,0,0,.28-.11.71.71,0,0,0-.44-1.25h-.73v-1a.39.39,0,0,0-.11-.27.71.71,0,0,0-1.25.44v.78c-1.64.48-2.57,2.65-.75,4.5a1.1,1.1,0,0,0,1.1.3,1.1,1.1,0,0,1,1.07,1.85.58.58,0,0,1-.46.22H60.59a.36.36,0,0,0-.28.11.71.71,0,0,0,.44,1.25h.73v.87A.39.39,0,0,0,61.59,92.47Z" transform="translate(-40.07 -63.65)"/></svg>