<svg id="Layer_1" data-name="Layer 1" xmlns="http://www.w3.org/2000/svg" viewBox="0 0 52 52"><defs><style>.cls-1{fill:#fff;}.cls-2{fill:#3374c1;}</style></defs><circle class="cls-1" cx="26" cy="26" r="26"/><path class="cls-2" d="M74.63,92.55H75a.47.47,0,0,1,.49.44.46.46,0,0,1-.49.43h-.7v1.84a5.7,5.7,0,0,0,2.31,1.48q.34.14.72.24V73.53H66.51V97.34a9.38,9.38,0,0,0,3-.6,5.59,5.59,0,0,0,2.23-1.48V93.42H71a.45.45,0,0,1-.47-.43.46.46,0,0,1,.47-.44h.55a1.39,1.39,0,0,1-.17-.67,1.46,1.46,0,0,1,.5-1.09,1.76,1.76,0,0,1,1.2-.45,1.78,1.78,0,0,1,1.2.45,1.46,1.46,0,0,1,.5,1.09A1.39,1.39,0,0,1,74.63,92.55Zm.52-9.87a.44.44,0,1,1,.87,0v5.08a.47.47,0,0,1-.47.47H68.28a.48.48,0,0,1-.48-.47V75.3a.47.47,0,0,1,.48-.47h7.27a.47.47,0,0,1,.47.47v5.15a.44.44,0,1,1-.87,0V75.69H68.67V87.37h6.48Zm-11.67,0a.43.43,0,1,1,.86,0v5.08a.47.47,0,0,1-.47.47H56.6a.47.47,0,0,1-.47-.47V75.3a.47.47,0,0,1,.47-.47h7.27a.47.47,0,0,1,.47.47v5.15a.43.43,0,1,1-.86,0V75.69H57V87.37h6.49V82.68Zm2.16-9.15H54.83V97a6.56,6.56,0,0,0,.71-.24,5.67,5.67,0,0,0,2.32-1.48V93.42h-.7a.47.47,0,0,1-.5-.43.48.48,0,0,1,.5-.44h.57a1.29,1.29,0,0,1-.18-.67,1.44,1.44,0,0,1,.52-1.09,1.95,1.95,0,0,1,2.49,0,1.44,1.44,0,0,1,.52,1.09,1.4,1.4,0,0,1-.18.67h.57A.47.47,0,0,1,62,93a.46.46,0,0,1-.49.43h-1v2A5.6,5.6,0,0,0,62.68,97a8.57,8.57,0,0,0,3,.65Zm.87,25v1.79H71.7V96.69a7.42,7.42,0,0,1-1.86,1.12,9.73,9.73,0,0,1-3.33.74Zm-.87,1.79V98.55a9.68,9.68,0,0,1-3.33-.74,7.24,7.24,0,0,1-1.86-1.12v3.65ZM78.18,97.8a9.14,9.14,0,0,0,1.76.17,8.59,8.59,0,0,0,1.52-.13.47.47,0,0,1,.54.39.47.47,0,0,1-.38.54,10.58,10.58,0,0,1-1.68.14,10,10,0,0,1-1.76-.15v2.4a.48.48,0,0,1-.47.48H74.29v2.55a.47.47,0,0,1-.47.47H72.17a.47.47,0,0,1-.47-.47v-2.55H60.45v2.55a.47.47,0,0,1-.47.47H58.33a.47.47,0,0,1-.47-.47v-2.55H54.44a.48.48,0,0,1-.47-.48v-2.4a10.2,10.2,0,0,1-1.76.15,10.48,10.48,0,0,1-1.68-.14.47.47,0,0,1,.15-.93,8.78,8.78,0,0,0,1.53.13A9.14,9.14,0,0,0,54,97.8V73.14a.47.47,0,0,1,.47-.48H77.71a.48.48,0,0,1,.47.48V97.8Zm-.86.39a8.88,8.88,0,0,1-1.1-.38,7.53,7.53,0,0,1-1.93-1.12v3.65h3Zm-19.46,2.15V96.69a7.7,7.7,0,0,1-1.93,1.12,9.49,9.49,0,0,1-1.1.38v2.15Zm15.75-9.08a.75.75,0,0,0-1,0,.75.75,0,0,0-.22.52.73.73,0,0,0,.22.52.72.72,0,0,0,1,0,.69.69,0,0,0,.22-.52A.71.71,0,0,0,73.61,91.26Zm-14,0a.72.72,0,0,0-.52-.21.76.76,0,0,0-.52.21.74.74,0,0,0-.21.52.73.73,0,0,0,.73.74.75.75,0,0,0,.74-.74A.71.71,0,0,0,59.64,91.26Zm9,.16a.44.44,0,0,1-.87,0V89.54a.44.44,0,0,1,.87,0Zm-4.33,0a.43.43,0,1,1-.86,0V89.54a.43.43,0,1,1,.86,0Zm9.08,2h-.86V103.8h.86Zm-13.83,0h-.87V103.8h.87Z" transform="translate(-40.07 -60.66)"/></svg>