<svg id="Layer_1" data-name="Layer 1" xmlns="http://www.w3.org/2000/svg" viewBox="0 0 52 52"><defs><style>.cls-1{fill:#fff;}.cls-2{fill:#3374c1;}</style></defs><circle class="cls-1" cx="26" cy="26" r="26"/><g id="gradient"><path class="cls-2" d="M85.3,80.3H55.16a1.52,1.52,0,0,0-1.52,1.52v19.09a1.52,1.52,0,0,0,1.52,1.52h9.75L63.65,105a.55.55,0,0,0,.25.74.54.54,0,0,0,.25.06h2.21a.54.54,0,0,0,.49-.31l.4-.8h6l.4.8a.54.54,0,0,0,.49.31h2.22a.56.56,0,0,0,.55-.56.5.5,0,0,0-.06-.24l-1.26-2.52H85.3a1.53,1.53,0,0,0,1.53-1.52V81.82A1.53,1.53,0,0,0,85.3,80.3ZM74.44,104.64l-.4-.8a.54.54,0,0,0-.49-.31H66.91a.54.54,0,0,0-.49.31l-.4.8H65l1.11-2.21h8.16l1.11,2.21Zm11.28-3.73a.42.42,0,0,1-.42.41H55.16a.42.42,0,0,1-.42-.41V81.82a.41.41,0,0,1,.42-.41H85.3a.41.41,0,0,1,.42.41ZM70.23,92.47a1.66,1.66,0,1,0,1.66,1.66A1.66,1.66,0,0,0,70.23,92.47Zm0,2.21a.55.55,0,0,1-.55-.55.55.55,0,0,1,.55-.55.54.54,0,0,1,.55.55A.55.55,0,0,1,70.23,94.68Zm-6.1-5.35a.55.55,0,0,1,0-.78A8.3,8.3,0,0,1,75.81,88a7.4,7.4,0,0,1,.56.56.54.54,0,0,1,0,.78.55.55,0,0,1-.78,0,7.19,7.19,0,0,0-10.16-.48,5.44,5.44,0,0,0-.48.48A.55.55,0,0,1,64.13,89.33Zm9,2.19a.57.57,0,0,1,0,.79.55.55,0,0,1-.78,0,2.78,2.78,0,0,0-3.91-.19c-.06.06-.13.12-.19.19a.55.55,0,0,1-.78,0,.54.54,0,0,1,0-.77,3.87,3.87,0,0,1,5.47-.27l.26.27ZM74.73,90a.55.55,0,0,1,0,.78.57.57,0,0,1-.79,0h0a5,5,0,0,0-7-.33,3.43,3.43,0,0,0-.33.33.55.55,0,0,1-.78,0,.54.54,0,0,1,0-.78h0a6.08,6.08,0,0,1,8.59-.41A4,4,0,0,1,74.73,90Zm9.33-7.53H56.4a.56.56,0,0,0-.55.56V99.66a.55.55,0,0,0,.55.55H84.06a.54.54,0,0,0,.55-.55V83.07a.55.55,0,0,0-.55-.56Zm-.55,16.6H57V83.62H83.51Z" transform="translate(-44.23 -64.72)"/></g></svg>