<svg id="Layer_1" data-name="Layer 1" xmlns="http://www.w3.org/2000/svg" viewBox="0 0 52 52"><defs><style>.cls-1{fill:#fff;}.cls-2{fill:#3374c1;}</style></defs><circle class="cls-1" cx="26" cy="26" r="26"/><path class="cls-2" d="M76.9,86.12H70.85V83.48l5-2.16a.67.67,0,0,0,0-1.23L66.34,76a.7.7,0,0,0-.53,0l-9.49,4.12a.67.67,0,0,0,0,1.23l5,2.16v2.64h-6a.68.68,0,0,0-.68.67V98.36a.68.68,0,0,0,.68.68H76.9a.67.67,0,0,0,.67-.68V86.79A.67.67,0,0,0,76.9,86.12ZM58.29,80.84l7.78-3.42,7.79,3.42-3,1.32V81.5a.67.67,0,0,0-.37-.61,10.52,10.52,0,0,0-4.4-.76,10.49,10.49,0,0,0-4.41.76.68.68,0,0,0-.38.61v.66Zm11,5.28H62.58V81.86a12.58,12.58,0,0,1,6.75,0c0,1,0,3,0,4.26ZM55.87,87.67h2.62a2.59,2.59,0,0,1-2.58,2.58h0Zm0,10.07V95.16h0a2.59,2.59,0,0,1,2.58,2.58Zm20.15,0h-2.6A2.59,2.59,0,0,1,76,95.16h0Zm.26-4.13h0a4.1,4.1,0,0,0-4.07,4.13H60a4.11,4.11,0,0,0-4.07-4.13h0V91.54h0A4.11,4.11,0,0,0,60,87.41H72.2a4.1,4.1,0,0,0,4.07,4.13h0ZM76,90.25h0a2.59,2.59,0,0,1-2.59-2.58H76Z" transform="translate(-40.07 -61.48)"/><path class="cls-2" d="M66,89.94a2.7,2.7,0,1,0,2.69,2.7A2.7,2.7,0,0,0,66,89.94Zm0,4a1.35,1.35,0,1,1,1.34-1.34A1.34,1.34,0,0,1,66,94Z" transform="translate(-40.07 -61.48)"/><path class="cls-2" d="M61.22,92.06H60a.68.68,0,0,0-.69.59.64.64,0,0,0,.64.7h1.25a.68.68,0,0,0,.69-.59A.65.65,0,0,0,61.22,92.06Z" transform="translate(-40.07 -61.48)"/><path class="cls-2" d="M72,92.06H70.76a.68.68,0,0,0-.69.59.64.64,0,0,0,.64.7H72a.68.68,0,0,0,.69-.59A.65.65,0,0,0,72,92.06Z" transform="translate(-40.07 -61.48)"/></svg>