<svg id="Layer_1" data-name="Layer 1" xmlns="http://www.w3.org/2000/svg" viewBox="0 0 52 52"><defs><style>.cls-1{fill:#fff;}.cls-2{fill:#3374c1;}</style></defs><circle class="cls-1" cx="26" cy="26" r="26"/><path class="cls-2" d="M68.17,110.25H64a2.27,2.27,0,0,1-2.1-2.52v-2.94a4.86,4.86,0,0,0-1.82-3.64,9.68,9.68,0,0,1-3.78-7.84,10,10,0,0,1,9.66-9.66,9.84,9.84,0,0,1,7,2.8,10,10,0,0,1,2.94,7A9.42,9.42,0,0,1,72.23,101a5.11,5.11,0,0,0-2,3.92v3.22a2.15,2.15,0,0,1-2.1,2.1Zm-2.1-25.2a8.59,8.59,0,0,0-8.4,8.26A8.23,8.23,0,0,0,60.89,100a6.1,6.1,0,0,1,2.38,4.76v2.94c0,.28,0,1.12.7,1.12h4.2a.66.66,0,0,0,.7-.7v-3.22a6.8,6.8,0,0,1,2.52-5,8.16,8.16,0,0,0,3.08-6.44,8.37,8.37,0,0,0-2.52-6,8.25,8.25,0,0,0-5.88-2.38Z" transform="translate(-40.07 -67.45)"/><path class="cls-2" d="M69.57,106.05h-7a.7.7,0,1,1,0-1.4h7a.7.7,0,0,1,0,1.4Z" transform="translate(-40.07 -67.45)"/><path class="cls-2" d="M66.07,80.85a.66.66,0,0,1-.7-.7v-2.8a.7.7,0,1,1,1.4,0v2.8A.66.66,0,0,1,66.07,80.85Z" transform="translate(-40.07 -67.45)"/><path class="cls-2" d="M75.45,84.77a.84.84,0,0,1-.56-.14.68.68,0,0,1,0-1l2-2a.69.69,0,0,1,1,1l-2,2a1.41,1.41,0,0,1-.42.14Z" transform="translate(-40.07 -67.45)"/><path class="cls-2" d="M82.17,94.15h-2.8a.7.7,0,0,1,0-1.4h2.8a.7.7,0,0,1,0,1.4Z" transform="translate(-40.07 -67.45)"/><path class="cls-2" d="M77.41,105.49a.84.84,0,0,1-.56-.14l-2-2a.69.69,0,0,1,1-1l2,2a.68.68,0,0,1,0,1c0,.14-.14.14-.42.14Z" transform="translate(-40.07 -67.45)"/><path class="cls-2" d="M54.73,105.49a.84.84,0,0,1-.56-.14.68.68,0,0,1,0-1l2-2a.69.69,0,0,1,1,1l-2,2A.51.51,0,0,1,54.73,105.49Z" transform="translate(-40.07 -67.45)"/><path class="cls-2" d="M52.77,94.15H50a.7.7,0,1,1,0-1.4h2.8a.7.7,0,0,1,0,1.4Z" transform="translate(-40.07 -67.45)"/><path class="cls-2" d="M56.69,84.77a.84.84,0,0,1-.56-.14l-2-2.1a.69.69,0,1,1,1-1l2,2a.68.68,0,0,1,0,1c-.14.14-.28.28-.42.28Z" transform="translate(-40.07 -67.45)"/><path class="cls-2" d="M71.67,94.15a.66.66,0,0,1-.7-.7,5,5,0,0,0-4.9-4.9.7.7,0,0,1,0-1.4,6.27,6.27,0,0,1,6.3,6.3A.66.66,0,0,1,71.67,94.15Z" transform="translate(-40.07 -67.45)"/></svg>