<svg id="Layer_1" data-name="Layer 1" xmlns="http://www.w3.org/2000/svg" viewBox="0 0 52 52"><defs><style>.cls-1{fill:#fff;}.cls-2{fill:#3374c1;}</style></defs><circle class="cls-1" cx="26" cy="26" r="26"/><path class="cls-2" d="M78.89,81.91H53.52a1.33,1.33,0,0,1-1.32-1.32V76.22a1.32,1.32,0,0,1,1.32-1.32H78.89a1.32,1.32,0,0,1,1.32,1.32v4.37A1.33,1.33,0,0,1,78.89,81.91ZM53.41,76a.51.51,0,0,0-.51.51V80.7a.51.51,0,0,0,.51.51H78.64a.51.51,0,0,0,.52-.51h0V76.46a.51.51,0,0,0-.52-.51Z" transform="translate(-40.07 -62.91)"/><path class="cls-2" d="M58.8,102.92H52.25a.4.4,0,0,1-.4-.41V96.66a1.44,1.44,0,0,1,1.44-1.45h4.46a1.45,1.45,0,0,1,1.45,1.45v5.85A.4.4,0,0,1,58.8,102.92Zm-5.9-.7h5.6V96.56a.65.65,0,0,0-.64-.65H53.54a.64.64,0,0,0-.64.65Z" transform="translate(-40.07 -62.91)"/><path class="cls-2" d="M57.05,96.26h-2.7a.4.4,0,0,1-.4-.4V81.61a.4.4,0,0,1,.4-.4h2.7a.4.4,0,0,1,.4.4V95.86A.4.4,0,0,1,57.05,96.26Zm-2.4-1.05H56.4V81.91H54.65Z" transform="translate(-40.07 -62.91)"/><path class="cls-2" d="M62.3,94h-.09a.4.4,0,0,1-.3-.48h0l1.43-5.73a1.74,1.74,0,0,1,1.71-1.33h9.66a1.72,1.72,0,0,1,1.7,1.33l1.43,5.73a.39.39,0,0,1-.29.49.4.4,0,0,1-.49-.29h0L75.63,88a1.18,1.18,0,0,0-.92-.82H65.05a1.2,1.2,0,0,0-.93.82l-1.43,5.74a.39.39,0,0,1-.39.3Z" transform="translate(-40.07 -62.91)"/><path class="cls-2" d="M79,93.81H77.41a.41.41,0,0,1-.4-.3l-.4-1.65a.4.4,0,0,1,.29-.49H79a.85.85,0,0,1,.84.84V93A.84.84,0,0,1,79,93.81Zm-1.28-.7H79l.12,0v-.78c-.09,0-.1,0-.12.12H77.53Z" transform="translate(-40.07 -62.91)"/><path class="cls-2" d="M62.35,93.81H60.74A.83.83,0,0,1,59.9,93V92.2a.84.84,0,0,1,.84-.84h2a.4.4,0,0,1,.4.4.34.34,0,0,1,0,.1l-.41,1.65a.39.39,0,0,1-.39.3Zm-1.64-1.4c0-.15,0-.14-.11-.12h0v.78l.11,0H62l.2-.7Z" transform="translate(-40.07 -62.91)"/><path class="cls-2" d="M77.85,100.46H61.56a1.3,1.3,0,0,1-1.31-1.28V95.69a2.6,2.6,0,0,1,2.63-2.58H76.53a2.6,2.6,0,0,1,2.63,2.58v3.49a1.3,1.3,0,0,1-1.31,1.28ZM63.11,93.81a1.83,1.83,0,0,0-1.81,1.84v3.61a.5.5,0,0,0,.5.5H78a.5.5,0,0,0,.5-.5V95.65a1.83,1.83,0,0,0-1.81-1.84Z" transform="translate(-40.07 -62.91)"/><path class="cls-2" d="M65.15,102.92H63.4a1,1,0,0,1-1-1v-1.7a.4.4,0,0,1,.4-.41h3a.4.4,0,0,1,.4.41v1.7A1,1,0,0,1,65.15,102.92Zm-2.1-2.46V102a.25.25,0,0,0,.25.25h1.61a.25.25,0,0,0,.24-.25v-1.51Z" transform="translate(-40.07 -62.91)"/><path class="cls-2" d="M76.33,102.92H74.61a1,1,0,0,1-1-1v-1.7a.4.4,0,0,1,.4-.41H77a.4.4,0,0,1,.4.41v1.73a1.05,1.05,0,0,1-1.08,1Zm-2.07-2.46V102a.25.25,0,0,0,.24.25h1.61a.25.25,0,0,0,.25-.25v-1.51Z" transform="translate(-40.07 -62.91)"/><path class="cls-2" d="M64.22,98.53a1.69,1.69,0,1,1,1.68-1.68A1.68,1.68,0,0,1,64.22,98.53Zm-.12-2.62a.9.9,0,0,0-.8,1.28.75.75,0,0,0,.4.4.89.89,0,0,0,1.14-1.3.8.8,0,0,0-.69-.38Z" transform="translate(-40.07 -62.91)"/><path class="cls-2" d="M75.54,98.53a1.69,1.69,0,1,1,1.69-1.68h0a1.69,1.69,0,0,1-1.69,1.68Zm.12-2.62a.89.89,0,0,0-.8,1.28.76.76,0,0,0,.39.4.9.9,0,0,0,1.15-1.3.81.81,0,0,0-.69-.38Z" transform="translate(-40.07 -62.91)"/><path class="cls-2" d="M71.77,96.26h-3.4c-.22.17-.4,0-.4-.23a.51.51,0,0,1,.4-.47h3.4a.51.51,0,0,1,.4.47C72.17,96.25,72,96.43,71.77,96.26Z" transform="translate(-40.07 -62.91)"/><path class="cls-2" d="M71.21,98H68.92a.33.33,0,0,1-.4-.35.34.34,0,0,1,.4-.35h2.29a.34.34,0,0,1,.4.35A.33.33,0,0,1,71.21,98Z" transform="translate(-40.07 -62.91)"/><path class="cls-2" d="M62.53,81.94a.4.4,0,0,1-.4-.41.46.46,0,0,1,.06-.22l4.14-6.23a.4.4,0,0,1,.56-.1.4.4,0,0,1,.11.55l-4.13,6.23A.43.43,0,0,1,62.53,81.94Z" transform="translate(-40.07 -62.91)"/><path class="cls-2" d="M65.6,81.94a.4.4,0,0,1-.4-.41.38.38,0,0,1,.07-.22l4.13-6.23A.4.4,0,0,1,70,75a.4.4,0,0,1,.11.55l-4.13,6.23A.42.42,0,0,1,65.6,81.94Z" transform="translate(-40.07 -62.91)"/><path class="cls-2" d="M68.67,81.94a.4.4,0,0,1-.4-.41.38.38,0,0,1,.07-.22l4.13-6.23A.4.4,0,0,1,73,75a.39.39,0,0,1,.12.55v0L69,81.76A.42.42,0,0,1,68.67,81.94Z" transform="translate(-40.07 -62.91)"/><path class="cls-2" d="M71.74,81.94a.4.4,0,0,1-.4-.41.38.38,0,0,1,.07-.22l4.14-6.23a.4.4,0,0,1,.56-.08.4.4,0,0,1,.1.53l-4.13,6.23A.42.42,0,0,1,71.74,81.94Z" transform="translate(-40.07 -62.91)"/></svg>