<svg id="Layer_1" data-name="Layer 1" xmlns="http://www.w3.org/2000/svg" viewBox="0 0 52 52"><defs><style>.cls-1{fill:#fff;}.cls-2{fill:#3374c1;}</style></defs><circle class="cls-1" cx="26" cy="26" r="26"/><path class="cls-2" d="M70.52,109.76H62.8a6.18,6.18,0,0,1-6.18-6.18V91.66a6.18,6.18,0,0,1,6.18-6.18h7.72a6.18,6.18,0,0,1,6.18,6.18v11.92A6.18,6.18,0,0,1,70.52,109.76ZM62.8,86.41a5.25,5.25,0,0,0-5.25,5.25v11.92a5.25,5.25,0,0,0,5.25,5.25h7.72a5.25,5.25,0,0,0,5.25-5.25V91.66a5.25,5.25,0,0,0-5.25-5.25Z" transform="translate(-40.07 -70.12)"/><path class="cls-2" d="M69.46,92H68.07a.47.47,0,0,1,0-.94h1.39a.47.47,0,1,1,0,.94Z" transform="translate(-40.07 -70.12)"/><path class="cls-2" d="M60.19,92h-3.1a.47.47,0,0,1,0-.94h3.11a.47.47,0,0,1,0,.94Z" transform="translate(-40.07 -70.12)"/><path class="cls-2" d="M64.81,92H63.45a.47.47,0,0,1,0-.94h1.36a.47.47,0,0,1,0,.94Z" transform="translate(-40.07 -70.12)"/><path class="cls-2" d="M76.24,92H72.72a.47.47,0,0,1,0-.94h3.51a.47.47,0,0,1,.47.47A.46.46,0,0,1,76.24,92Z" transform="translate(-40.07 -70.12)"/><path class="cls-2" d="M76.22,104.2H57.1a.47.47,0,0,1,0-.94H76.22a.47.47,0,0,1,0,.94Z" transform="translate(-40.07 -70.12)"/><path class="cls-2" d="M72.09,112.45H61.23a.47.47,0,0,1-.47-.47.55.55,0,0,1,.07-.24l1.6-2.68a.46.46,0,0,1,.4-.23h7.66a.46.46,0,0,1,.4.23l1.6,2.68a.47.47,0,0,1-.16.64.42.42,0,0,1-.24.07Zm-10-.93h9.22l-1-1.76H63.09Z" transform="translate(-40.07 -70.12)"/><path class="cls-2" d="M62.28,86.44a.47.47,0,0,1-.46-.47V80.26a.47.47,0,0,1,.46-.47H71a.47.47,0,0,1,.47.47V86a.47.47,0,0,1-.93,0V80.73H62.75V86a.47.47,0,0,1-.47.47Z" transform="translate(-40.07 -70.12)"/><path class="cls-2" d="M72.61,80.73H60.71a.47.47,0,1,1,0-.94h11.9a.47.47,0,0,1,0,.94Z" transform="translate(-40.07 -70.12)"/><path class="cls-2" d="M66.66,86.41a.47.47,0,0,1-.47-.47V83a.47.47,0,0,1,.94,0v2.94A.47.47,0,0,1,66.66,86.41Z" transform="translate(-40.07 -70.12)"/><path class="cls-2" d="M68.37,83.46H65a.47.47,0,1,1,0-.93h3.42a.47.47,0,1,1,0,.93Z" transform="translate(-40.07 -70.12)"/></svg>