<svg id="Layer_1" data-name="Layer 1" xmlns="http://www.w3.org/2000/svg" viewBox="0 0 52 52"><defs><style>.cls-1{fill:#fff;}.cls-2{fill:#3374c1;}</style></defs><circle class="cls-1" cx="26" cy="26" r="26"/><path class="cls-2" d="M83.52,90.88a1,1,0,0,0-.16-1.19L70,76.6a3,3,0,0,0-4.16,0L52.54,89.69a1,1,0,0,0-.16,1.2.93.93,0,0,0,1.41.15l1-1v10.48a4,4,0,0,0,4,4H77.06a4,4,0,0,0,4-4V90l1,1a1,1,0,0,0,.65.26A.91.91,0,0,0,83.52,90.88Zm-4.4,9.83a2.17,2.17,0,0,1-2.18,2.16H58.62a2.17,2.17,0,0,1-2.17-2.16V88.43L67,78.14a1,1,0,0,1,.38-.24,1.13,1.13,0,0,1,1.12.16l.09.08L79.12,88.43v12.28Z" transform="translate(-41.95 -64.13)"/><path class="cls-2" d="M65.2,86.63v3h-3a.92.92,0,0,0-.92.92v3.66a.92.92,0,0,0,.92.92h3v3a.92.92,0,0,0,.92.92h3.66a.92.92,0,0,0,.92-.92v-3h3a.92.92,0,0,0,.92-.92V90.52a.92.92,0,0,0-.92-.92h-3v-3a.92.92,0,0,0-.92-.92H67.42a3.63,3.63,0,0,0-2.22.92Zm1.62,3.61V87.65h1.94V90.3a.92.92,0,0,0,.92.92h3v1.94h-3a.92.92,0,0,0-.92.92v3H66.82v-3a.92.92,0,0,0-.92-.92h-3V91.22h3a1,1,0,0,0,.93-1Z" transform="translate(-41.95 -64.13)"/></svg>