<svg id="Layer_1" data-name="Layer 1" xmlns="http://www.w3.org/2000/svg" viewBox="0 0 52 52"><defs><style>.cls-1{fill:#fff;}.cls-2{fill:#3374c1;}</style></defs><circle class="cls-1" cx="26" cy="26" r="26"/><path class="cls-2" d="M79.52,78.61h-.35l-2.58-7a1.58,1.58,0,0,0-1.48-1H56.88a1.57,1.57,0,0,0-1.47,1l-2.58,7H52.6a1,1,0,0,0-1,1v.66a1,1,0,0,0,1,1h-.12V90.6a.45.45,0,0,0,.89,0V81.26h6a1.4,1.4,0,0,0,1-.39L65.44,76l5.07,4.88a1.4,1.4,0,0,0,1,.39h7v1.13a.45.45,0,0,0,.89,0V81.26h.18a1,1,0,0,0,1-1v-.72a1,1,0,0,0-1-.94Zm-22.59-7.1H75.06a.74.74,0,0,1,.68.47l2.46,6.63H72.35L67,73.26a1.43,1.43,0,0,0-.68-.4,1.39,1.39,0,0,0-1.31.37l-5.38,5.38H53.8L56.26,72A.71.71,0,0,1,56.93,71.51Zm22.73,9a.15.15,0,0,1-.14.16H71.81a.54.54,0,0,1-.4-.17L66.23,75a.41.41,0,0,0-.3-.14.41.41,0,0,0-.31.14L60.44,80.5a.54.54,0,0,1-.4.17H52.33a.14.14,0,0,1-.14-.14v-.89a.15.15,0,0,1,.14-.15h7.31a.44.44,0,0,0,.31-.13l5.59-6a.52.52,0,0,1,.39-.17.56.56,0,0,1,.39.17l5.58,6a.46.46,0,0,0,.31.13h7.31a.15.15,0,0,1,.14.15v.87Z" transform="translate(-40.07 -57.63)"/><path class="cls-2" d="M77.6,93V85.24a.43.43,0,0,0-.43-.43H71.52a.42.42,0,0,0-.42.43V93a.42.42,0,0,0,.42.43h5.65A.43.43,0,0,0,77.6,93Zm-.89-2.23H74.64V88.65h2.07Zm-2.95,0H71.69V88.65h2.07Zm2.95,1.77h-5v-.88h5Zm0-4.73H74.64V85.7h2.07ZM73.76,85.7v2.06H71.69V85.7Z" transform="translate(-40.07 -57.63)"/><path class="cls-2" d="M61.05,93V85.24a.43.43,0,0,0-.43-.43H55a.43.43,0,0,0-.43.43V93a.43.43,0,0,0,.43.43h5.64A.43.43,0,0,0,61.05,93Zm-.89-2.23H58.1V88.65h2.06Zm-2.65,0H55.44V88.65h2.07Zm2.65,1.77h-5v-.88h5Zm0-4.73H58.1V85.7h2.06ZM57.51,85.7v2.06H55.44V85.7Z" transform="translate(-40.07 -57.63)"/><path class="cls-2" d="M67.42,86.58H64.73a.43.43,0,0,0-.43.43v1.81a.42.42,0,0,0,.43.42h2.69a.42.42,0,0,0,.43-.42V87A.43.43,0,0,0,67.42,86.58ZM67,88.36H65.19v-.89H67Z" transform="translate(-40.07 -57.63)"/><path class="cls-2" d="M68.26,81.32A2.26,2.26,0,1,0,66,83.59,2.27,2.27,0,0,0,68.26,81.32Zm-3.67,0A1.41,1.41,0,1,1,66,82.73a1.41,1.41,0,0,1-1.41-1.41Z" transform="translate(-40.07 -57.63)"/><path class="cls-2" d="M80.12,94h-.75V84.63a.45.45,0,0,0-.89,0V94H69.62V85.24a.43.43,0,0,0-.43-.43H62.66a.43.43,0,0,0-.43.43V94H53.37V92.84a.45.45,0,0,0-.89,0V94H52a.42.42,0,0,0-.42.43v1.8a.42.42,0,0,0,.42.43h28.1a.43.43,0,0,0,.43-.43V94.4A.43.43,0,0,0,80.12,94Zm-17-3.25h.63a.45.45,0,0,0,0-.89h-.63V85.7h5.61V94H63.12ZM79.66,96H52.19V94.86H79.66Z" transform="translate(-40.07 -57.63)"/></svg>