<svg id="Layer_1" data-name="Layer 1" xmlns="http://www.w3.org/2000/svg" viewBox="0 0 52 52"><defs><style>.cls-1{fill:#fff;}.cls-2{fill:#3374c1;}</style></defs><circle class="cls-1" cx="26" cy="26" r="26"/><path class="cls-2" d="M66.41,87.32a.74.74,0,1,0-1,1.05l2.31,2.3a.7.7,0,0,0,.52.22.74.74,0,0,0,.53-.22l4.61-4.61a.74.74,0,1,0-1-1L68.19,89.1Z" transform="translate(-43.22 -61.95)"/><path class="cls-2" d="M78.55,78.75a5.7,5.7,0,0,1-5-3.07.75.75,0,0,0-.66-.39H65.59a.73.73,0,0,0-.65.4,5.69,5.69,0,0,1-5.06,3.06.73.73,0,0,0-.73.74v7.38a14.56,14.56,0,0,0,2,7.49A14.11,14.11,0,0,0,69,100.57a.78.78,0,0,0,.22,0,.83.83,0,0,0,.22,0,14.05,14.05,0,0,0,7.83-6.21,14.47,14.47,0,0,0,2-7.49V79.49a.74.74,0,0,0-.74-.74ZM77.83,87a12.65,12.65,0,0,1-8.61,12,12.65,12.65,0,0,1-8.61-12V80.17A7.15,7.15,0,0,0,66,76.75h6.41a7.21,7.21,0,0,0,5.41,3.42Z" transform="translate(-43.22 -61.95)"/><path class="cls-2" d="M71.86,78.48a.74.74,0,0,0-.57-.27H67.15a.76.76,0,0,0-.58.28,8.61,8.61,0,0,1-4,2.74.75.75,0,0,0-.5.71V87a11.16,11.16,0,0,0,6.86,10.34.75.75,0,0,0,.29.06.67.67,0,0,0,.28-.06A11.15,11.15,0,0,0,76.37,87V81.94a.75.75,0,0,0-.5-.71,8.61,8.61,0,0,1-4-2.75Zm3,8.49a9.7,9.7,0,0,1-5.69,8.86A9.7,9.7,0,0,1,63.53,87V82.44a10.14,10.14,0,0,0,4-2.77H71a10.17,10.17,0,0,0,4,2.77Z" transform="translate(-43.22 -61.95)"/></svg>