<svg id="Layer_1" data-name="Layer 1" xmlns="http://www.w3.org/2000/svg" viewBox="0 0 52 52"><defs><style>.cls-1{fill:#fff;}.cls-2{fill:#3374c1;}</style></defs><circle class="cls-1" cx="26" cy="26" r="26"/><path class="cls-2" d="M53.38,101.51H52c-1.28.09-2.19-2.24-2.19-2.24V80.61S50.7,78.28,52,78.4h1.4a.33.33,0,0,1,.47.34.52.52,0,0,1-.47.5H52c-.77,0-1.35,1.37-1.35,1.37V99.27s.58,1.4,1.35,1.4h1.4a.47.47,0,0,1,.47.47A.36.36,0,0,1,53.38,101.51Z" transform="translate(-40.07 -63.95)"/><path class="cls-2" d="M80,101.51H61.39a.47.47,0,0,1-.47-.47V78.59a.47.47,0,0,1,.47-.47H80a2.34,2.34,0,0,1,2.34,2.34V99.17A2.34,2.34,0,0,1,80,101.51Zm-18.26-.84H79.84a1.4,1.4,0,0,0,1.4-1.4V80.64a1.39,1.39,0,0,0-1.4-1.4H61.76Z" transform="translate(-40.07 -63.95)"/><path class="cls-2" d="M60.35,103.45H54.26a1.4,1.4,0,0,1-1.41-1.39h0V77.85a1.4,1.4,0,0,1,1.4-1.4h6.11a1.4,1.4,0,0,1,1.4,1.4v24.21a1.4,1.4,0,0,1-1.41,1.39ZM54,77.76v24.39a.46.46,0,0,0,.46.47h6a.46.46,0,0,0,.46-.47V77.76a.46.46,0,0,0-.46-.47h-6A.46.46,0,0,0,54,77.76Z" transform="translate(-40.07 -63.95)"/><path class="cls-2" d="M77.72,85.64H65.57a.47.47,0,0,1-.47-.47v-3.8a.47.47,0,0,1,.47-.46H77.72a.47.47,0,0,1,.46.46v3.8A.47.47,0,0,1,77.72,85.64ZM65.93,84.8H77.07V81.74H65.93Z" transform="translate(-40.07 -63.95)"/><path class="cls-2" d="M78.57,90.65H76.14a.47.47,0,0,1-.46-.47v-2.4a.47.47,0,0,1,.46-.47h2.41a.47.47,0,0,1,.47.47v2.38a.47.47,0,0,1-.45.49Zm-2.06-1.11h1.67v-1.4H76.51Z" transform="translate(-40.07 -63.95)"/><path class="cls-2" d="M72.7,90.65H70.3a.47.47,0,0,1-.47-.47v-2.4a.47.47,0,0,1,.47-.47h2.4a.47.47,0,0,1,.47.47v2.4A.47.47,0,0,1,72.7,90.65Zm-2-1.11h1.67v-1.4H70.67Z" transform="translate(-40.07 -63.95)"/><path class="cls-2" d="M67.14,90.65H64.73a.47.47,0,0,1-.47-.47v-2.4a.47.47,0,0,1,.47-.47h2.41a.46.46,0,0,1,.46.47v2.4A.46.46,0,0,1,67.14,90.65Zm-2-1.11h1.67v-1.4H65.1Z" transform="translate(-40.07 -63.95)"/><path class="cls-2" d="M78.57,94.82H76.14a.46.46,0,0,1-.46-.46V92a.47.47,0,0,1,.46-.47h2.41A.47.47,0,0,1,79,92v2.39a.46.46,0,0,1-.45.48Zm-2.06-1.11h1.67V92.32H76.51Z" transform="translate(-40.07 -63.95)"/><path class="cls-2" d="M72.7,94.82H70.3a.46.46,0,0,1-.47-.46V92a.47.47,0,0,1,.47-.47h2.4a.47.47,0,0,1,.47.47v2.41A.46.46,0,0,1,72.7,94.82Zm-2-1.11h1.67V92.32H70.67Z" transform="translate(-40.07 -63.95)"/><path class="cls-2" d="M67.14,94.82H64.73a.46.46,0,0,1-.47-.46V92a.47.47,0,0,1,.47-.47h2.41a.46.46,0,0,1,.46.47v2.41A.45.45,0,0,1,67.14,94.82Zm-2-1.11h1.67V92.32H65.1Z" transform="translate(-40.07 -63.95)"/><path class="cls-2" d="M78.57,99H76.14a.47.47,0,0,1-.46-.47v-2.4a.47.47,0,0,1,.46-.47h2.41a.47.47,0,0,1,.47.47v2.38a.47.47,0,0,1-.45.49Zm-2.06-.84h1.67V96.77H76.51Z" transform="translate(-40.07 -63.95)"/><path class="cls-2" d="M72.7,99H70.3a.47.47,0,0,1-.47-.47v-2.4a.47.47,0,0,1,.47-.47h2.4a.47.47,0,0,1,.47.47v2.4A.47.47,0,0,1,72.7,99Zm-2-.84h1.67V96.77H70.67Z" transform="translate(-40.07 -63.95)"/><path class="cls-2" d="M67.14,99H64.73a.47.47,0,0,1-.47-.47v-2.4a.47.47,0,0,1,.47-.47h2.41a.46.46,0,0,1,.46.47v2.4A.46.46,0,0,1,67.14,99Zm-2-.84h1.67V96.77H65.1Z" transform="translate(-40.07 -63.95)"/></svg>