<svg id="Layer_1" data-name="Layer 1" xmlns="http://www.w3.org/2000/svg" viewBox="0 0 52 52"><defs><style>.cls-1{fill:#fff;}.cls-2{fill:#3374c1;}</style></defs><circle class="cls-1" cx="26" cy="26" r="26"/><path class="cls-2" d="M73.09,85.51a1.55,1.55,0,0,0,.19-.36,1.33,1.33,0,0,1,.55.22,2.19,2.19,0,0,0,1.13.36,1.58,1.58,0,0,0,.38,0,2,2,0,0,0,1.31-.82,1.11,1.11,0,0,1,1.6-.28,2.06,2.06,0,0,0,1.51.33l-.17-1a1.1,1.1,0,0,1-.86-.21,2,2,0,0,0-2.82.49,1.08,1.08,0,0,1-.74.5,1,1,0,0,1-.42,0A2.06,2.06,0,0,0,76.24,83a1.13,1.13,0,0,1,.4-.79,1.08,1.08,0,0,1,.85-.25A2,2,0,0,0,79,81.45l-.62-.74a1.15,1.15,0,0,1-.85.25A2,2,0,0,0,75.3,82.8a1.14,1.14,0,0,1-.39.79,1.12,1.12,0,0,1-.86.25,2.19,2.19,0,0,0-.88.12,1.48,1.48,0,0,0-.56-.55l2.15-4.29a.47.47,0,0,0,0-.46.48.48,0,0,0-.41-.23,1.22,1.22,0,0,1-.9-.38,2.23,2.23,0,0,0-3,0,1.26,1.26,0,0,1-.9.38,1.27,1.27,0,0,1-.9-.38,2.22,2.22,0,0,0-3,0,1.25,1.25,0,0,1-.91.38.49.49,0,0,0-.43.69l2.15,4.29a1.45,1.45,0,0,0-.72.94A1.41,1.41,0,0,0,66,85.51a10.08,10.08,0,0,0-7.48,9.73v8.65a2.4,2.4,0,0,0,2.4,2.4h17.3a2.4,2.4,0,0,0,2.4-2.4V95.24A10.08,10.08,0,0,0,73.09,85.51Zm-6.85-6.83a1.28,1.28,0,0,1,1.8,0,2.22,2.22,0,0,0,3,0,1.28,1.28,0,0,1,1.8,0,2.71,2.71,0,0,0,.78.47l-2,4H67.43l-2-4A2.71,2.71,0,0,0,66.24,78.68Zm.9,6.57a.82.82,0,0,1-.48-.64.41.41,0,0,1,.48-.43h4.8a.41.41,0,0,1,.48.43.82.82,0,0,1-.48.64Zm11.28,20H61a1.44,1.44,0,0,1-1.44-1.44V95.11A9.18,9.18,0,0,1,68.73,86h1.94a9.18,9.18,0,0,1,9.19,9.15v8.67A1.44,1.44,0,0,1,78.42,105.22Z" transform="translate(-43.52 -67.45)"/><path class="cls-2" d="M66.32,98.68l5.76-5.77.68.68L67,99.36Z" transform="translate(-43.52 -67.45)"/><path class="cls-2" d="M71.46,96.62a1.44,1.44,0,1,0,1.44,1.44A1.43,1.43,0,0,0,71.46,96.62Zm0,1.92a.48.48,0,0,1-.48-.48.48.48,0,0,1,1,0A.48.48,0,0,1,71.46,98.54Z" transform="translate(-43.52 -67.45)"/><path class="cls-2" d="M67.62,95.66a1.45,1.45,0,1,0-1.44-1.44A1.45,1.45,0,0,0,67.62,95.66Zm0-1.93a.49.49,0,0,1,0,1,.49.49,0,0,1,0-1Z" transform="translate(-43.52 -67.45)"/><path class="cls-2" d="M69.54,89.41a6.73,6.73,0,1,0,6.72,6.73A6.73,6.73,0,0,0,69.54,89.41Zm0,12.49a5.77,5.77,0,1,1,5.76-5.76A5.76,5.76,0,0,1,69.54,101.9Z" transform="translate(-43.52 -67.45)"/></svg>