<svg id="Layer_1" data-name="Layer 1" xmlns="http://www.w3.org/2000/svg" viewBox="0 0 52 52"><defs><style>.cls-1{fill:#fff;}.cls-2{fill:#3374c1;}</style></defs><circle class="cls-1" cx="26" cy="26" r="26"/><path class="cls-2" d="M70.7,89.76a.29.29,0,0,0-.22-.09H68.86a3.38,3.38,0,0,0-.61-1.36h2.21a.29.29,0,0,0,.22-.09.33.33,0,0,0,.08-.22V87a.28.28,0,0,0-.3-.3h-7.9a.28.28,0,0,0-.3.3V88.3a.31.31,0,0,0,.3.3h1.38c1.33,0,2.18.36,2.54,1.07H62.56a.29.29,0,0,0-.22.09.31.31,0,0,0-.08.22v1a.27.27,0,0,0,.08.22.29.29,0,0,0,.22.09h4a1.8,1.8,0,0,1-1,1.18,4.19,4.19,0,0,1-2,.41H62.56a.29.29,0,0,0-.21.09.29.29,0,0,0-.09.22v1.2a.26.26,0,0,0,.08.21c1.22,1.29,2.79,3.1,4.73,5.42a.29.29,0,0,0,.24.12h1.85a.28.28,0,0,0,.27-.17.26.26,0,0,0,0-.33Q66.63,96.21,65,94.51a4.77,4.77,0,0,0,2.62-1,3.52,3.52,0,0,0,1.22-2.22h1.6a.29.29,0,0,0,.22-.09.31.31,0,0,0,.08-.22V90A.31.31,0,0,0,70.7,89.76Z" transform="translate(-40.07 -67.45)"/><path class="cls-2" d="M74.85,76.76H58.19a3,3,0,0,0-3,3v29.74a3,3,0,0,0,3,3H74.85a3,3,0,0,0,3-3V79.73A3,3,0,0,0,74.85,76.76ZM58.19,78H74.85a1.78,1.78,0,0,1,1.78,1.78v.6H56.41v-.6A1.78,1.78,0,0,1,58.19,78Zm18.44,3.57v23.79H56.41V81.52Zm-1.78,29.74H58.19a1.79,1.79,0,0,1-1.78-1.79v-3H76.63v3A1.79,1.79,0,0,1,74.85,111.26Z" transform="translate(-40.07 -67.45)"/><path class="cls-2" d="M66.52,107.09a1.79,1.79,0,1,0,1.78,1.79A1.78,1.78,0,0,0,66.52,107.09Zm0,2.38a.59.59,0,0,1-.6-.59.6.6,0,0,1,.6-.6.59.59,0,0,1,.59.6A.58.58,0,0,1,66.52,109.47Z" transform="translate(-40.07 -67.45)"/></svg>