<svg id="Layer_1" data-name="Layer 1" xmlns="http://www.w3.org/2000/svg" viewBox="0 0 52 52"><defs><style>.cls-1{fill:#fff;}.cls-2{fill:#3374c1;}</style></defs><circle class="cls-1" cx="26" cy="26" r="26"/><path class="cls-2" d="M67.73,93.6l5.75-5.75.68.68-5.75,5.75Z" transform="translate(-42.11 -58.9)"/><path class="cls-2" d="M69,90.58a1.44,1.44,0,1,0-1.44-1.43A1.44,1.44,0,0,0,69,90.58Zm0-1.91a.48.48,0,0,1,.48.48.49.49,0,0,1-.48.48.48.48,0,0,1-.48-.48A.47.47,0,0,1,69,88.67Z" transform="translate(-42.11 -58.9)"/><path class="cls-2" d="M72.86,91.54A1.44,1.44,0,1,0,74.3,93,1.44,1.44,0,0,0,72.86,91.54Zm0,1.92a.47.47,0,0,1-.47-.48.48.48,0,1,1,.47.48Z" transform="translate(-42.11 -58.9)"/><path class="cls-2" d="M58.11,79.5h17.2v.8H58.11Z" transform="translate(-42.11 -58.9)"/><path class="cls-2" d="M58.11,81.5h6.4v.8h-6.4Z" transform="translate(-42.11 -58.9)"/><path class="cls-2" d="M65.31,81.5h.8v.8h-.8Z" transform="translate(-42.11 -58.9)"/><path class="cls-2" d="M58.11,83.5h8v.8h-8Z" transform="translate(-42.11 -58.9)"/><path class="cls-2" d="M58.11,85.5h.8v.8h-.8Z" transform="translate(-42.11 -58.9)"/><path class="cls-2" d="M59.71,85.5h6.4v.8h-6.4Z" transform="translate(-42.11 -58.9)"/><path class="cls-2" d="M58.11,87.5h4.8v.8h-4.8Z" transform="translate(-42.11 -58.9)"/><path class="cls-2" d="M77.31,73.5V69.9H56.11V91.11a1.91,1.91,0,0,0,.52,1.31l2.68,2.84V99.9h20.8V73.5Zm-20.4-2.4h19.2V95.9h-14V91.1H56.92v-20Zm4.32,24.35L57.67,91.9h3.64v3.52ZM79.31,98.7H60.51V95.9l.2.21a1.94,1.94,0,0,0,1.38.59H77.31V74.3h2Z" transform="translate(-42.11 -58.9)"/><path class="cls-2" d="M71.31,77.9l1-1.28,1,1.28v.8h.8V77.48L73,75.72,74.11,74V73.1h-.8v.8l-1,1.27-1-1.27v-.8h-.8V74l1.28,1.76-1.28,1.76V78.7h.8Z" transform="translate(-42.11 -58.9)"/><path class="cls-2" d="M65.71,77.9h2v.8h.8V77.3L67.4,73.1H65.61l-1.1,4.08,0,1.52h1.22Zm1-4,.7,2.8h-1.6l.7-2.8Z" transform="translate(-42.11 -58.9)"/><path class="cls-2" d="M60.91,78.7h.8V73.9h2v-.8h-4.8v.8h2Z" transform="translate(-42.11 -58.9)"/></svg>