<svg id="Layer_1" data-name="Layer 1" xmlns="http://www.w3.org/2000/svg" viewBox="0 0 52 52"><defs><style>.cls-1{fill:#fff;}.cls-2{fill:#3374c1;}</style></defs><circle class="cls-1" cx="26" cy="26" r="26"/><path class="cls-2" d="M79.53,85.19H67.63V82.28a.45.45,0,0,0-.45-.44H64.46V80.25a1.9,1.9,0,0,0-1.9-1.9h-.67a1.9,1.9,0,0,0-1.9,1.9v1.59h-2.9a.45.45,0,0,0-.45.44v2.91h-4A1.64,1.64,0,0,0,51,86.82v2.06a.45.45,0,0,0,.89,0V86.82a.75.75,0,0,1,.75-.75h4v6.06l-.52,2.8a.45.45,0,0,0,.44.52H73l-.2.75A1.71,1.71,0,0,0,70,97h-3a1.71,1.71,0,0,0-3.3,0h-.52a.45.45,0,0,0,0,.89h.52a1.71,1.71,0,0,0,3.3,0h3a1.71,1.71,0,0,0,3.35-.38l2.37-9h1.83a.45.45,0,0,0,0-.89H75.4A.44.44,0,0,0,75,88l-.28,1.06H67.63v-3h11.9a.76.76,0,0,1,.75.75v13.41H78.16a.44.44,0,0,0,0,.88h2.12v2.06a.75.75,0,0,1-.75.75H52.62a.74.74,0,0,1-.75-.75v-2.06h24a.44.44,0,0,0,0-.88h-24V91.12a.45.45,0,0,0-.89,0v12a1.65,1.65,0,0,0,1.64,1.64H62.9v2.85H60.35a.44.44,0,0,0,0,.88H71.79a.44.44,0,0,0,0-.88H69.25v-2.85H79.53a1.64,1.64,0,0,0,1.63-1.64V86.82A1.63,1.63,0,0,0,79.53,85.19ZM66.22,97.48a.82.82,0,0,1-.82.81.83.83,0,1,1,.82-.84v0Zm5.45.81a.83.83,0,1,1,.82-.82A.83.83,0,0,1,71.67,98.29Zm-10.79-18a1,1,0,0,1,1-1h.67a1,1,0,0,1,1,1v1.59H60.88ZM57.09,94.56l.36-2h2.49a.44.44,0,0,0,0-.88H57.53v-9H60v.61a.45.45,0,0,0,.89,0v-.61h2.69v.61a.45.45,0,0,0,.89,0v-.61h2.28v6.36H62.26a.45.45,0,0,0-.41.59l1.72,4.89ZM74.47,90l-1.23,4.6H64.51L62.89,90Zm-6.11,17.7H63.78v-2.85h4.58Z" transform="translate(-40.07 -67.45)"/></svg>