<svg id="Layer_1" data-name="Layer 1" xmlns="http://www.w3.org/2000/svg" viewBox="0 0 52 52"><defs><style>.cls-1{fill:#fff;}.cls-2{fill:#3374c1;}</style></defs><circle class="cls-1" cx="26" cy="26" r="26"/><path class="cls-2" d="M82.92,90a.84.84,0,0,0-.93.73,11.4,11.4,0,0,1-22.3,1.67l1,.55a.83.83,0,0,0,.8-1.46l-2.55-1.39a.82.82,0,0,0-1.12.32l-1.4,2.55a.82.82,0,0,0,.32,1.12.83.83,0,0,0,1.13-.32l.33-.59a13.06,13.06,0,0,0,25.45-2.26A.82.82,0,0,0,82.92,90Z" transform="translate(-43.63 -62.9)"/><path class="cls-2" d="M84.12,83.36A.83.83,0,0,0,83,83.8l-.26.6A13.07,13.07,0,0,0,57.9,86.62a.83.83,0,0,0,1.62.34,11.41,11.41,0,0,1,21.83-1.63l-1-.45a.83.83,0,0,0-.65,1.53l2.67,1.14a.81.81,0,0,0,1.09-.43l1.15-2.67A.84.84,0,0,0,84.12,83.36Z" transform="translate(-43.63 -62.9)"/><path class="cls-2" d="M75.79,83.22a2,2,0,0,0-.91-2.69,2,2,0,0,0-2.69.91,2,2,0,0,0-.19.68,5.22,5.22,0,0,0-4.94,2.47l-2.24,3.65a1.72,1.72,0,0,0-.9.07,1.79,1.79,0,0,0-1.06.92l-.14.29A1.84,1.84,0,0,0,63.54,92l4.85,2.4a1.93,1.93,0,0,0,1,2.73,2.18,2.18,0,0,0,2.76-.88l.52.26a1.89,1.89,0,0,0,.81.19,1.69,1.69,0,0,0,.58-.1,1.82,1.82,0,0,0,1.06-.92l.14-.3a1.84,1.84,0,0,0,.1-1.4,1.92,1.92,0,0,0-.49-.76l1.54-4a5.24,5.24,0,0,0,0-3.78,5.33,5.33,0,0,0-1-1.64A2,2,0,0,0,75.79,83.22ZM74,82a.35.35,0,1,1-.35.35A.35.35,0,0,1,74,82ZM70.43,95.65a.43.43,0,0,1-.33,0,.39.39,0,0,1-.21-.24.46.46,0,0,1,0-.26l.76.37A.42.42,0,0,1,70.43,95.65Zm4.41-7L73.16,93a1.11,1.11,0,0,0,.52,1.44h0a.16.16,0,0,1,.08.22l-.15.3a.17.17,0,0,1-.23.08l-9.1-4.51a.17.17,0,0,1-.08-.23l.15-.3a.17.17,0,0,1,.23-.07,1.07,1.07,0,0,0,.84,0,1.12,1.12,0,0,0,.62-.51l2.44-4a3.54,3.54,0,0,1,4.62-1.33h0a3.56,3.56,0,0,1,1.74,4.48Z" transform="translate(-43.63 -62.9)"/></svg>