<svg id="Layer_1" data-name="Layer 1" xmlns="http://www.w3.org/2000/svg" viewBox="0 0 52 52"><defs><style>.cls-1{fill:#fff;}.cls-2{fill:#3374c1;}</style></defs><circle class="cls-1" cx="26" cy="26" r="26"/><path class="cls-2" d="M63.69,94.76c4.91,0,7.61-2.88,7.61-8.12,0-4.9-6.93-12.69-7.23-13a.53.53,0,0,0-.38-.16.51.51,0,0,0-.37.16c-.3.33-7.24,8.12-7.24,13C56.08,91.88,58.79,94.76,63.69,94.76Zm0-20c1.46,1.71,6.6,8,6.6,11.91,0,3.24-1.14,7.11-6.6,7.11s-6.59-3.87-6.59-7.11C57.1,82.75,62.24,76.44,63.69,74.73Z" transform="translate(-43.27 -62.68)"/><path class="cls-2" d="M77.9,95.78c2.9,0,4.57-1.94,4.57-5.32,0-3.17-4-7.53-4.2-7.71a.51.51,0,0,0-.74,0c-.17.18-4.2,4.54-4.2,7.71C73.33,93.84,75,95.78,77.9,95.78Zm0-11.92c1,1.14,3.55,4.35,3.55,6.6,0,2.86-1.19,4.3-3.55,4.3s-3.55-1.44-3.55-4.3C74.35,88.21,76.92,85,77.9,83.86Z" transform="translate(-43.27 -62.68)"/><path class="cls-2" d="M70.42,93.92c-.13.15-3.17,3.62-3.17,5.92,0,2.58,1.29,4.06,3.55,4.06s3.55-1.48,3.55-4.06c0-2.3-3-5.77-3.17-5.92a.51.51,0,0,0-.38-.16A.49.49,0,0,0,70.42,93.92Zm.38,9c-1.69,0-2.54-1-2.54-3,0-1.38,1.59-3.63,2.54-4.8,1,1.17,2.53,3.42,2.53,4.8C73.33,101.86,72.48,102.88,70.8,102.88Z" transform="translate(-43.27 -62.68)"/><path class="cls-2" d="M62.63,92.73h0a.51.51,0,0,0,0-1A3.72,3.72,0,0,1,60,90.34c-1.35-1.76-.9-4.6-.9-4.63a.51.51,0,0,0-1-.16c0,.13-.53,3.29,1.09,5.4A4.69,4.69,0,0,0,62.63,92.73Z" transform="translate(-43.27 -62.68)"/><path class="cls-2" d="M77.39,93.75a3.59,3.59,0,0,0,2.49-1.07,3.07,3.07,0,0,0,.55-2.57.5.5,0,0,0-.58-.4.51.51,0,0,0-.42.57A2,2,0,0,1,79.1,92a2.52,2.52,0,0,1-1.71.71.51.51,0,0,0,0,1Z" transform="translate(-43.27 -62.68)"/><path class="cls-2" d="M70.52,100.9a.59.59,0,0,1-.34-.35.61.61,0,0,1,.06-.49.51.51,0,0,0-.91-.45,1.58,1.58,0,0,0-.11,1.26,1.61,1.61,0,0,0,.84.95.51.51,0,0,0,.68-.23.5.5,0,0,0-.22-.68Z" transform="translate(-43.27 -62.68)"/></svg>